<svg width="14" height="20" viewBox="0 0 14 20" fill="none" xmlns="http://www.w3.org/2000/svg">
<path fill-rule="evenodd" clip-rule="evenodd" d="M6.78637 10.9626C9.09284 10.9626 10.9626 9.09284 10.9626 6.78637C10.9626 4.4799 9.09284 2.61014 6.78637 2.61014C4.4799 2.61014 2.61014 4.4799 2.61014 6.78637C2.61014 9.09284 4.4799 10.9626 6.78637 10.9626ZM6.78637 13.5727C10.5344 13.5727 13.5727 10.5344 13.5727 6.78637C13.5727 3.03836 10.5344 0 6.78637 0C3.03836 0 0 3.03836 0 6.78637C0 10.5344 3.03836 13.5727 6.78637 13.5727Z" fill="white"/>
<path fill-rule="evenodd" clip-rule="evenodd" d="M0 17.6444C0 16.8948 0.562659 16.2871 1.25674 16.2871H12.316C13.0101 16.2871 13.5727 16.8948 13.5727 17.6444C13.5727 18.394 13.0101 19.0017 12.316 19.0017H1.25674C0.562659 19.0017 0 18.394 0 17.6444Z" fill="white"/>
</svg>
