<svg width="213" height="162" viewBox="0 0 213 162" fill="none" 
    xmlns="http://www.w3.org/2000/svg">
    <g filter="url(#filter0_d)">
        <rect x="4" width="205" height="154" rx="10" fill="#322251"/>
    </g>
    <path fill-rule="evenodd" clip-rule="evenodd" d="M79.2252 44.2796L72.5666 38.3871L56.0874 52.9704L62.746 58.863L79.2252 44.2796ZM133.775 44.2796L140.433 38.3871L156.913 52.9704L150.254 58.863L133.775 44.2796ZM106.5 124.667C80.4966 124.667 59.4166 106.012 59.4166 83C59.4166 59.9881 80.4966 41.3333 106.5 41.3333C132.503 41.3333 153.583 59.9881 153.583 83C153.583 106.012 132.503 124.667 106.5 124.667ZM106.5 116.333C127.303 116.333 144.167 101.409 144.167 83C144.167 64.5905 127.303 49.6667 106.5 49.6667C85.6973 49.6667 68.8333 64.5905 68.8333 83C68.8333 101.409 85.6973 116.333 106.5 116.333ZM130.042 78.8333H111.208V58H101.792V87.1667H130.042V78.8333Z" fill="white"/>
    <defs>
        <filter id="filter0_d" x="0" y="0" width="213" height="162" filterUnits="userSpaceOnUse" color-interpolation-filters="sRGB">
            <feFlood flood-opacity="0" result="BackgroundImageFix"/>
            <feColorMatrix in="SourceAlpha" type="matrix" values="0 0 0 0 0 0 0 0 0 0 0 0 0 0 0 0 0 0 127 0"/>
            <feOffset dy="4"/>
            <feGaussianBlur stdDeviation="2"/>
            <feColorMatrix type="matrix" values="0 0 0 0 0 0 0 0 0 0 0 0 0 0 0 0 0 0 0.25 0"/>
            <feBlend mode="normal" in2="BackgroundImageFix" result="effect1_dropShadow"/>
            <feBlend mode="normal" in="SourceGraphic" in2="effect1_dropShadow" result="shape"/>
        </filter>
    </defs>
</svg>
