<svg width="230" height="65" viewBox="0 0 230 65" fill="none" xmlns="http://www.w3.org/2000/svg">
<g id="Client #1">
<g id="Atlassian-horizontal-blue-rgb 1">
<g clip-path="url(#clip0)">
<g id="Layer 2">
<g id="Blue">
<path id="Vector" d="M25.0002 29.9454C24.7837 29.6545 24.3507 29.5818 24.062 29.8363C23.9899 29.9091 23.9177 29.9818 23.8455 30.0909L18.0722 41.7273C17.8918 42.0545 18.0361 42.4909 18.3969 42.6727C18.5052 42.7091 18.6134 42.7454 18.7217 42.7454H26.7683C27.0209 42.7454 27.2735 42.6 27.3817 42.3454C29.0776 38.7091 28.0312 33.2182 25.0002 29.9454Z" fill="url(#paint0_linear)"/>
<path id="Vector_2" d="M29.222 19.3636C26.2992 23.9091 25.9745 29.6546 28.3199 34.4909L32.1808 42.3091C32.2891 42.5273 32.5417 42.7091 32.7943 42.7091H40.8409C41.2378 42.7091 41.5265 42.3818 41.5265 42.0182C41.5265 41.9091 41.4904 41.8 41.4543 41.6909C41.4543 41.6909 30.6293 19.9091 30.3767 19.3636C30.2323 19.0364 29.8354 18.8909 29.5107 19.0727C29.4024 19.1091 29.2942 19.2182 29.222 19.3636Z" fill="#2684FF"/>
<path id="Vector_3" d="M123.472 28.6728C123.472 31.5455 124.807 33.8364 129.967 34.8546C133.07 35.5091 133.72 36.0182 133.72 37.0364C133.72 38.0546 133.07 38.7091 130.905 38.7091C128.271 38.6728 125.673 37.9455 123.4 36.6728V41.3637C124.951 42.1273 127.008 43 130.869 43C136.282 43 138.447 40.5637 138.447 36.9273L123.472 28.6728ZM138.41 36.9273C138.41 33.5091 136.606 31.9091 131.555 30.8182C128.74 30.2 128.091 29.5818 128.091 28.6728C128.091 27.5455 129.101 27.0727 130.941 27.0727C133.178 27.0727 135.379 27.7637 137.472 28.7091V24.2364C135.452 23.3273 133.287 22.8546 131.086 22.8909C126.07 22.8909 123.472 25.0728 123.472 28.6728" fill="#0052CC"/>
<path id="Vector_4" d="M193.113 23.1818V42.7091H197.263V27.8364L198.995 31.7636L204.804 42.7091H210V23.1818H205.886V35.8L204.335 32.1273L199.644 23.1818H193.113Z" fill="#0052CC"/>
<path id="Vector_5" d="M166.88 23.1818H162.37V42.6727H166.88V23.1818Z" fill="#0052CC"/>
<path id="Vector_6" d="M157.174 36.9273C157.174 33.5091 155.37 31.9091 150.318 30.8182C147.503 30.2 146.854 29.5818 146.854 28.6728C146.854 27.5455 147.864 27.0727 149.705 27.0727C151.942 27.0727 154.143 27.7637 156.236 28.7091V24.2364C154.215 23.3273 152.05 22.8546 149.849 22.8909C144.833 22.8909 142.235 25.0728 142.235 28.6728C142.235 31.5455 143.57 33.8364 148.73 34.8546C151.833 35.5091 152.483 36.0182 152.483 37.0364C152.483 38.0546 151.833 38.7091 149.668 38.7091C147.034 38.6728 144.436 37.9455 142.163 36.6728V41.3637C143.715 42.1273 145.771 43 149.632 43C155.045 43 157.174 40.5637 157.174 36.9273Z" fill="#0052CC"/>
<path id="Vector_7" d="M88.471 23.1818V42.7091H97.7084L99.1878 38.4909H92.9814V23.1818H88.471Z" fill="#0052CC"/>
<path id="Vector_8" d="M70.1406 23.1818V27.4H75.1562V42.7091H79.7027V27.4H85.043V23.1818H70.1406Z" fill="#0052CC"/>
<path id="Vector_9" d="M63.5735 23.1818H57.6197L50.8721 42.6727H56.032L57.0063 39.4C59.3517 40.0909 61.8775 40.0909 64.223 39.4L65.1972 42.6727H70.3211L63.5735 23.1818ZM60.6146 35.9091C59.7847 35.9091 58.9548 35.8 58.1248 35.5455L60.6146 27.0364L63.1044 35.5455C62.2744 35.7636 61.4445 35.9091 60.6146 35.9091Z" fill="#0052CC"/>
<path id="Vector_10" d="M113.693 23.1818H107.74L100.992 42.7091H106.152L107.126 39.4364C109.472 40.1273 111.997 40.1273 114.343 39.4364L115.317 42.7091H120.477L113.693 23.1818ZM110.734 35.9091C109.905 35.9091 109.075 35.8 108.245 35.5455L110.734 27.0364L113.224 35.5455C112.394 35.7636 111.564 35.9091 110.734 35.9091Z" fill="#0052CC"/>
<path id="Vector_11" d="M183.118 23.1818H177.164L170.416 42.6727H175.576L176.551 39.4C178.896 40.0909 181.422 40.0909 183.767 39.4L184.742 42.6727H189.902L183.118 23.1818ZM180.159 35.9091C179.329 35.9091 178.499 35.8 177.669 35.5455L180.159 27.0364L182.649 35.5455C181.819 35.7636 180.989 35.9091 180.159 35.9091Z" fill="#0052CC"/>
</g>
</g>
</g>
</g>
</g>
<defs>
<linearGradient id="paint0_linear" x1="28.1531" y1="31.7258" x2="21.9905" y2="42.3176" gradientUnits="userSpaceOnUse">
<stop stop-color="#0052CC"/>
<stop offset="0.923" stop-color="#2684FF"/>
</linearGradient>
<clipPath id="clip0">
<rect x="18" y="19" width="192" height="24" fill="white"/>
</clipPath>
</defs>
</svg>
