<svg width="230" height="65" viewBox="0 0 230 65" fill="none" xmlns="http://www.w3.org/2000/svg">
<g id="Client #4">
<g clip-path="url(#clip0)">
<g id="ebay-ar21 1">
<path id="Vector" d="M125.813 33.333C121.576 33.4715 118.928 34.2308 118.928 37.0404C118.928 38.8605 120.38 40.8169 124.04 40.8169C128.945 40.8169 131.57 38.1459 131.57 33.7484V33.2649L125.814 33.3341L125.813 33.333ZM136.267 39.1352L136.428 43.0491H132.076C131.961 42.0587 131.915 41.0693 131.915 40.1011C129.567 43.0022 126.756 43.8308 122.866 43.8308C117.109 43.8308 114.024 40.7912 114.024 37.2682C114.024 32.1561 118.215 30.3605 125.526 30.1997C127.517 30.155 129.75 30.155 131.593 30.155V29.648C131.593 26.2399 129.404 24.8463 125.607 24.8463C122.798 24.8463 120.703 26.0211 120.495 28.0244H115.568C116.098 23.005 121.371 21.7375 125.998 21.7375C131.581 21.7375 136.245 23.7174 136.245 29.5899V39.1453L136.267 39.1352Z" fill="#F5AF02"/>
<path id="Vector_2" d="M85.31 30.8473C85.1258 26.4722 81.96 24.8374 78.5877 24.8374C74.9496 24.8374 72.025 26.6799 71.5192 30.8473H85.31ZM71.4265 33.9561C71.68 38.2162 74.6045 40.7254 78.6335 40.7254C81.4196 40.7254 83.9064 39.6087 84.7349 37.1107H89.5701C88.6265 42.1301 83.2833 43.833 78.7016 43.833C70.3433 43.833 66.6595 39.2279 66.6595 33.0349C66.6595 26.1964 70.4818 21.7063 78.7943 21.7063C85.4027 21.7063 90.2379 25.1601 90.2379 32.7133V33.9573L71.4265 33.9561Z" fill="#E53238"/>
<path id="Vector_3" d="M102.235 40.6327C106.587 40.6327 109.557 37.5015 109.557 32.7803C109.557 28.059 106.587 24.9279 102.235 24.9279C97.906 24.9279 94.9133 28.059 94.9133 32.7803C94.9133 37.5015 97.906 40.6327 102.235 40.6327ZM90.2367 13.4832H94.91V25.2495C97.2126 22.5092 100.367 21.7264 103.475 21.7264C108.701 21.7264 114.482 25.2495 114.482 32.8484C114.482 39.2134 109.877 43.8554 103.382 43.8554C99.9741 43.8554 96.7972 42.6349 94.8173 40.2173C94.8173 41.1843 94.7726 42.1513 94.6565 43.0726H90.0525L90.2133 38.2374V13.4832H90.2367Z" fill="#0064D2"/>
<path id="Vector_4" d="M160.099 22.488L145.614 50.925H140.366L144.534 43.0268L133.643 22.488H139.123L147.137 38.5367L155.126 22.488H160.099Z" fill="#86B817"/>
</g>
</g>
</g>
<defs>
<clipPath id="clip0">
<rect width="230" height="65" fill="white"/>
</clipPath>
</defs>
</svg>
