<svg width="230" height="65" viewBox="0 0 230 65" fill="none" xmlns="http://www.w3.org/2000/svg">
<g id="Client #7">
<g id="lambda 2">
<g clip-path="url(#clip0)">
<g id="Lambda-Logo-2020 1">
<path id="Vector" d="M99.8533 39.135H98.6214C96.9666 39.135 96.3047 38.7878 96.3047 37.399V24.8629C96.3047 23.4558 96.5989 23.2914 98.4008 23.0903V22.268H90.8073V23.0903C92.6091 23.2914 92.9033 23.4375 92.9033 24.8629V37.5269C92.9033 38.934 92.6091 39.0985 90.8073 39.2995V40.1218H104.358L105.259 34.7492H104.45C102.722 37.8558 101.876 39.135 99.8533 39.135Z" fill="#EC3944"/>
<path id="Vector_2" d="M116.879 38.1299V30.4913C116.879 27.604 115.151 26.3979 111.988 26.3979C109.23 26.3979 107.061 27.604 107.061 29.9249C107.045 30.2363 107.095 30.5476 107.208 30.8386H110.26C110.167 30.3877 110.124 29.9281 110.131 29.468C110.131 27.7137 110.793 27.202 111.86 27.202C113.036 27.202 113.643 27.5675 113.643 29.8335V31.8802L109.819 33.2873C107.87 34.0365 106.27 34.8954 106.27 37.07C106.27 39.0619 107.649 40.3228 109.69 40.3228C111.51 40.3228 112.889 39.1898 113.717 38.1117L113.735 38.0842V40.1218H118.515V39.3177C117.283 39.2264 116.879 39.0619 116.879 38.1299ZM113.661 37.5269C112.852 38.1299 112.264 38.4954 111.455 38.5137C110.039 38.5137 109.396 37.5634 109.396 36.2111C109.396 34.804 110.058 34.1644 111.198 33.7441L113.661 32.7573V37.5269V37.5269Z" fill="#EC3944"/>
<path id="Vector_3" d="M140.579 38.1117V30.5279C140.579 27.8234 139.476 26.4345 137.141 26.4345C135.026 26.4345 133.574 27.6406 132.452 28.9746C132.121 27.2203 131.036 26.4345 129.179 26.4345C127.083 26.4345 125.741 27.5675 124.62 28.9198V26.4163H124.197L119.821 27.7685V28.2071L121.402 29.1208V38.1482C121.402 39.0619 121.016 39.263 119.766 39.3178V40.1218H126.215V39.3178C124.984 39.263 124.62 39.0802 124.62 38.1482V29.5594C125.484 28.9015 126.366 28.3716 127.469 28.3716C128.867 28.3716 129.4 29.1391 129.4 30.6924V38.1482C129.4 39.0619 129.047 39.263 127.797 39.3178V40.1218H134.202V39.3178C132.971 39.263 132.618 39.0802 132.618 38.1482V29.5594C133.482 28.9015 134.364 28.3716 135.467 28.3716C136.865 28.3716 137.398 29.1391 137.398 30.6924L137.38 38.0934C137.38 39.0071 137.049 39.263 135.798 39.3178V40.1218H142.252V39.3178C141.002 39.2812 140.579 39.0437 140.579 38.1117Z" fill="#EC3944"/>
<path id="Vector_4" d="M151.39 26.471C149.367 26.471 147.988 27.5127 147.088 28.8101V20.1848H146.591L142.289 21.4274V21.8842L143.87 22.7066V40.1218H144.403L145.874 39.4822C147.008 40.1108 148.29 40.4263 149.588 40.3959C153.412 40.3959 156.465 37.5086 156.465 32.6112C156.483 28.7736 154.552 26.471 151.39 26.471ZM149.588 39.5188C148.595 39.5188 147.694 39.0802 147.069 38.0751V29.4497C147.732 28.7993 148.62 28.4265 149.551 28.4081C152.107 28.4081 153.229 30.7472 153.229 33.799C153.247 36.9604 151.868 39.4822 149.588 39.5188V39.5188Z" fill="#EC3944"/>
<path id="Vector_5" d="M170.475 38.1482V20.1665H169.997L165.694 21.4091V21.8477L167.276 22.6701V27.3665C166.651 26.7817 165.658 26.4345 164.426 26.4345C160.767 26.4345 157.954 29.2305 157.954 33.9817C157.954 37.7645 160.013 40.3046 163.12 40.3046C164.922 40.3046 166.246 39.3287 167.276 37.9034V40.1218H172.111V39.3178C170.861 39.2629 170.475 39.0802 170.475 38.1482ZM167.276 37.399C166.954 37.7077 166.574 37.9492 166.157 38.1093C165.74 38.2694 165.295 38.3448 164.849 38.331C162.422 38.331 161.098 35.9919 161.098 32.8853C161.098 29.6325 162.44 27.5492 164.683 27.5492C166.283 27.5492 167.276 28.8102 167.276 30.8934V37.399Z" fill="#EC3944"/>
<path id="Vector_6" d="M183.364 38.1299V30.4913C183.364 27.604 181.635 26.3979 178.473 26.3979C175.715 26.3979 173.545 27.604 173.545 29.9249C173.53 30.2363 173.58 30.5476 173.692 30.8386H176.745C176.652 30.3877 176.609 29.9281 176.616 29.468C176.616 27.7137 177.278 27.202 178.344 27.202C179.521 27.202 180.128 27.5675 180.128 29.8335V31.8802L176.303 33.2873C174.354 34.0365 172.755 34.8954 172.755 37.07C172.755 39.0619 174.134 40.3228 176.175 40.3228C177.995 40.3228 179.374 39.1898 180.201 38.1117V38.0934H180.22V40.1218L185 40.1383V39.3159C183.768 39.2264 183.364 39.0619 183.364 38.1299ZM180.146 37.5269C179.337 38.1299 178.749 38.4954 177.921 38.5137C176.506 38.5137 175.862 37.5634 175.862 36.2111C175.862 34.804 176.524 34.1644 177.664 33.7441L180.128 32.7573V37.5269H180.146Z" fill="#EC3944"/>
<path id="Vector_7" fill-rule="evenodd" clip-rule="evenodd" d="M46 16V32.5198C46 44.5259 55.3586 48.6924 62.1983 51.7442H62.2167L62.7683 52C62.8978 51.9282 63.0331 51.8671 63.1728 51.8173C63.2463 51.7807 63.3382 51.7442 63.4118 51.7076C70.2698 48.6741 79.6652 44.4893 79.6652 32.5198V16H46ZM67.328 40.1218L66.9603 39.1515L62.0696 26.3596C61.7754 27.1088 61.0951 28.918 60.3597 30.855L57.5466 38.4022C57.4179 38.7677 57.4914 38.9505 57.5833 39.0784C57.7856 39.3159 58.2287 39.3159 58.9274 39.3159H59.0542V40.1218H53.7939V39.3178H54.1984C54.9155 39.3178 55.5038 39.0071 55.9451 38.1299L56.4783 36.9239L61.3507 24.534L60.4865 22.2497H65.0279L71.2976 38.6416L71.8713 40.1237L67.328 40.1218Z" fill="#EC3944"/>
</g>
</g>
</g>
</g>
<defs>
<clipPath id="clip0">
<rect x="46" y="14" width="139" height="39" fill="white"/>
</clipPath>
</defs>
</svg>
