<svg width="230" height="65" viewBox="0 0 230 65" fill="none" xmlns="http://www.w3.org/2000/svg">
<g id="Client #6">
<g id="MongoDB_Logo_FullColorBlack_RGB 1">
<path id="Vector" d="M57.2125 27.2487C55.0245 17.5679 50.4644 14.9908 49.3011 13.169C48.8214 12.3665 48.3965 11.5323 48.0292 10.6722C47.9678 11.5322 47.8549 12.074 47.1261 12.7261C45.6627 14.0348 39.4477 19.1145 38.9246 30.1139C38.4373 40.3694 46.4415 46.6933 47.499 47.3469C48.3122 47.7482 49.3025 47.3555 49.7856 46.9871C53.6441 44.3311 58.9159 37.2505 57.2167 27.2487" fill="#10AA50"/>
<path id="Vector_2" d="M48.3608 41.8859C48.1593 44.4244 48.015 45.8993 47.5034 47.3498C47.5034 47.3498 47.8392 49.7664 48.075 52.3263H48.9096C49.1086 50.5236 49.4126 48.7342 49.8199 46.9671C48.7395 46.4339 48.4022 44.1133 48.3608 41.8859Z" fill="#B8C4C2"/>
<path id="Vector_3" d="M49.8185 46.9686C48.7266 46.4626 48.4108 44.0933 48.3622 41.886C48.6322 38.2448 48.711 34.5919 48.598 30.9425C48.5409 29.0275 48.6252 13.2064 48.1279 10.8901C48.4681 11.6746 48.86 12.4355 49.3011 13.1677C50.4644 14.9909 55.026 17.568 57.2125 27.2488C58.9159 37.2334 53.6727 44.2954 49.8185 46.9686Z" fill="#12924F"/>
<path id="Vector_4" d="M193.726 43.4683C193.259 43.4682 192.801 43.3295 192.412 43.0697C192.023 42.8098 191.719 42.4404 191.539 42.0078C191.359 41.5752 191.31 41.0988 191.399 40.6384C191.487 40.1781 191.71 39.7544 192.038 39.4205C192.367 39.0867 192.786 38.8577 193.244 38.7622C193.701 38.6668 194.177 38.7092 194.611 38.8841C195.044 39.0591 195.417 39.3587 195.681 39.7454C195.946 40.1321 196.09 40.5885 196.097 41.0574C196.105 41.3735 196.05 41.6881 195.934 41.9823C195.819 42.2765 195.645 42.5442 195.423 42.7693C195.202 42.9945 194.938 43.1725 194.646 43.2926C194.354 43.4127 194.041 43.4724 193.726 43.4683V43.4683ZM193.726 38.9275C193.299 38.9246 192.88 39.049 192.524 39.2848C192.167 39.5207 191.888 39.8574 191.723 40.2522C191.557 40.6471 191.512 41.0825 191.593 41.5031C191.674 41.9237 191.878 42.3107 192.179 42.615C192.479 42.9194 192.863 43.1274 193.282 43.2127C193.701 43.298 194.135 43.2568 194.53 43.0943C194.925 42.9318 195.264 42.6553 195.502 42.2999C195.741 41.9444 195.868 41.526 195.87 41.0975C195.875 40.8127 195.824 40.5297 195.718 40.2652C195.613 40.0007 195.455 39.7601 195.255 39.5578C195.056 39.3554 194.817 39.1954 194.554 39.0871C194.292 38.9788 194.01 38.9245 193.726 38.9275V38.9275ZM194.298 42.5939L193.686 41.271H193.193V42.5939H192.834V39.5839H193.719C194.378 39.5839 194.652 39.8706 194.652 40.4253C194.652 40.8668 194.445 41.142 194.059 41.2265L194.691 42.5896L194.298 42.5939ZM193.207 40.9599H193.726C194.146 40.9599 194.306 40.8166 194.306 40.4325C194.306 40.0483 194.153 39.9179 193.68 39.9179H193.207V40.9599Z" fill="#21313C"/>
<path id="Vector_5" d="M158.441 41.3012C159.082 41.8157 160.364 42.0279 161.495 42.0279C162.96 42.0279 164.396 41.7555 165.799 40.4842C167.228 39.1813 168.211 37.1875 168.211 34.0041C168.211 30.9453 167.051 28.4628 164.67 27.0094C163.327 26.1623 161.586 25.8283 159.601 25.8283C159.03 25.8283 158.441 25.8584 158.106 26.0104C157.969 26.1189 157.872 26.2702 157.831 26.4404C157.771 26.985 157.771 31.1331 157.771 33.5855C157.771 36.0996 157.771 39.6055 157.831 40.0355C157.862 40.3996 158.045 41.0389 158.441 41.3069V41.3012ZM152.347 24.4667C152.866 24.4667 154.838 24.557 155.756 24.557C157.47 24.557 158.655 24.4667 161.861 24.4667C164.547 24.4667 166.808 25.1934 168.424 26.5851C170.379 28.2822 171.425 30.6429 171.425 33.5196C171.425 37.6075 169.568 39.9696 167.7 41.3012C165.842 42.6944 163.425 43.4813 159.983 43.4813C158.151 43.4813 155.005 43.4211 152.38 43.391H152.326C152.203 43.1487 152.55 42.2042 152.765 42.1798C153.479 42.0995 153.668 42.0709 153.996 41.9347C154.551 41.7068 154.681 41.423 154.742 40.424C154.834 38.5463 154.804 36.306 154.804 33.7618C154.804 31.9458 154.834 28.4026 154.774 27.2817C154.681 26.3443 154.286 26.1021 153.488 25.9201C152.921 25.7994 152.349 25.7085 151.773 25.6477C151.713 25.4657 152.181 24.6444 152.334 24.4667" fill="#21313C"/>
<path id="Vector_6" d="M178.992 26.0032C178.871 26.0333 178.718 26.3372 178.718 26.4877C178.686 27.5784 178.656 30.4236 178.656 32.3916C178.664 32.4292 178.683 32.4637 178.71 32.4907C178.737 32.5177 178.772 32.5361 178.809 32.5435C179.205 32.5736 180.183 32.6051 181.007 32.6051C182.168 32.6051 182.839 32.4532 183.205 32.2712C184.183 31.7867 184.634 30.726 184.634 29.5765C184.634 26.942 182.802 25.943 180.086 25.943C179.718 25.9384 179.351 25.9585 178.987 26.0032H178.992ZM185.918 38.1149C185.918 35.4503 183.963 33.9367 180.39 33.9367C180.238 33.9367 179.104 33.9066 178.834 33.9668C178.742 33.9969 178.651 34.0571 178.651 34.1187C178.651 36.0265 178.619 39.0838 178.712 40.295C178.774 40.8095 179.141 41.5362 179.597 41.7484C180.086 42.0207 181.184 42.0809 181.948 42.0809C184.054 42.0809 185.918 40.9013 185.918 38.1149V38.1149ZM173.476 24.5197C173.752 24.5197 174.564 24.61 176.64 24.61C178.594 24.61 180.181 24.5498 182.07 24.5498C184.421 24.5498 187.657 25.3983 187.657 28.91C187.657 30.63 186.436 32.0289 184.849 32.6954C184.757 32.7255 184.757 32.7857 184.849 32.8158C187.108 33.3892 189.092 34.7838 189.092 37.4484C189.092 40.0527 187.474 41.6882 185.123 42.7173C183.694 43.3537 181.918 43.5644 180.121 43.5644C178.748 43.5644 175.067 43.4211 173.02 43.444C172.806 43.3537 173.216 42.3833 173.399 42.2328C173.868 42.2184 174.333 42.1452 174.784 42.015C175.515 41.8344 175.603 41.5979 175.694 40.5071C175.755 39.5683 175.755 36.2071 175.755 33.8149C175.755 30.544 175.787 28.3352 175.755 27.2445C175.725 26.3974 175.42 26.1236 174.839 25.9731C174.382 25.8814 173.619 25.7911 173.009 25.7008C172.856 25.5488 173.326 24.6401 173.477 24.5197" fill="#21313C"/>
<path id="Vector_7" d="M63.9734 43.4684C63.8948 43.2746 63.8629 43.0649 63.8805 42.8564C63.8737 42.7142 63.9058 42.573 63.9734 42.4479C64.3683 42.3908 64.7595 42.3108 65.1452 42.2085C65.6854 42.0738 65.8883 41.7785 65.9198 41.0876C66.0084 39.4551 66.0141 36.392 65.9827 34.2392V34.1761C65.9827 33.9439 65.9827 33.6286 65.6969 33.4064C65.1945 33.0903 64.6491 32.8489 64.0777 32.6897C63.8219 32.6138 63.6804 32.479 63.6876 32.3214C63.6947 32.1637 63.8562 31.9774 64.1892 31.9114C65.0738 31.8211 67.3917 31.2664 68.302 30.845C68.3958 30.9676 68.4392 31.1214 68.4235 31.275C68.4235 31.3696 68.4092 31.47 68.3992 31.5732C68.3735 31.877 68.3449 32.2225 68.3449 32.5665C68.3505 32.6083 68.3676 32.6476 68.3943 32.6802C68.4211 32.7128 68.4563 32.7372 68.4961 32.7508C68.5359 32.7643 68.5787 32.7665 68.6197 32.7569C68.6606 32.7474 68.6981 32.7266 68.7279 32.6969C70.4614 31.3338 72.0148 30.8479 72.8108 30.8479C74.1212 30.8479 75.1416 31.4757 75.9319 32.7686C75.95 32.7998 75.9758 32.8258 76.0068 32.8441C76.0379 32.8624 76.0731 32.8725 76.1091 32.8732C76.1418 32.8729 76.174 32.8647 76.2028 32.8492C76.2317 32.8337 76.2564 32.8115 76.2748 32.7843C77.8683 31.5717 79.4474 30.8479 80.5049 30.8479C83.0029 30.8479 84.4963 32.7241 84.4963 35.8646C84.4963 36.7676 84.4877 37.9128 84.4792 38.9806C84.472 39.918 84.4649 40.7967 84.4649 41.4044C84.4649 41.5477 84.6621 41.9605 84.9579 42.0422C85.3237 42.2214 85.8511 42.3131 86.5184 42.4278H86.5442C86.5942 42.6084 86.4884 43.3093 86.387 43.4526C86.2212 43.4526 85.9925 43.4383 85.7067 43.424C85.188 43.3982 84.4763 43.3623 83.6489 43.3623C81.9883 43.3623 81.1208 43.3939 80.292 43.4483C80.2291 43.2405 80.2077 42.5697 80.2834 42.4292C80.6266 42.3754 80.9664 42.3012 81.3009 42.2071C81.8297 42.0322 81.9826 41.7914 82.0154 41.0876C82.0283 40.5874 82.124 36.1799 81.954 35.1336C81.7968 34.0485 80.9822 32.7786 79.2002 32.7786C78.5385 32.7786 77.471 33.0552 76.4535 33.8292C76.3904 33.901 76.3549 33.993 76.3534 34.0887V34.1102C76.4735 34.6749 76.4735 35.3342 76.4735 36.3304C76.4735 36.9037 76.4735 37.5014 76.4663 38.0991C76.4592 39.3146 76.4535 40.4613 76.4735 41.3284C76.4735 41.919 76.8293 42.0609 77.1166 42.1741C77.2723 42.2085 77.3952 42.2386 77.5196 42.2673C77.7582 42.326 78.0069 42.3862 78.377 42.445C78.4318 42.6968 78.4269 42.958 78.3627 43.2075C78.3476 43.3012 78.3109 43.39 78.2555 43.467C77.3324 43.4354 76.3849 43.4082 75.0173 43.4082C74.6028 43.4082 73.9269 43.4254 73.3295 43.4412C72.8451 43.4541 72.3878 43.467 72.1277 43.4684C72.0573 43.3019 72.026 43.1215 72.0362 42.9409C72.0216 42.7708 72.0548 42.6 72.132 42.4479L72.4992 42.3805C72.8194 42.3232 73.0966 42.2744 73.3567 42.2085C73.8083 42.0652 73.9783 41.8186 74.0112 41.241C74.0998 39.8937 74.1684 36.0108 73.9783 35.039C73.6554 33.4795 72.7708 32.6883 71.3474 32.6883C70.5143 32.6883 69.461 33.0911 68.6007 33.7375C68.518 33.8183 68.4528 33.9154 68.4093 34.0227C68.3657 34.13 68.3448 34.2452 68.3478 34.361C68.3478 34.824 68.3478 35.3744 68.3478 35.9649C68.3478 37.9142 68.3349 40.3409 68.3821 41.3901C68.4107 41.714 68.525 42.0981 69.1295 42.2386C69.2624 42.2773 69.491 42.3146 69.7568 42.359C69.9098 42.3848 70.077 42.412 70.2499 42.4436C70.3048 42.7868 70.2769 43.1382 70.1684 43.4684C69.9026 43.4684 69.5754 43.4512 69.2009 43.4354C68.6293 43.4096 67.9148 43.3781 67.1073 43.3781C66.1527 43.3781 65.4882 43.4096 64.9552 43.4354C64.5965 43.4526 64.2864 43.467 63.9762 43.4684" fill="#21313C"/>
<path id="Vector_8" d="M94.6199 32.1435C94.1041 32.1328 93.5967 32.276 93.1622 32.5549C92.1019 33.2013 91.5617 34.4927 91.5617 36.3905C91.5617 39.9423 93.3351 42.4234 95.8746 42.4234C96.5555 42.445 97.2197 42.2092 97.7353 41.7626C98.5155 41.1248 98.93 39.8204 98.93 37.9944C98.93 34.4956 97.1965 32.1435 94.617 32.1435H94.6199ZM95.1058 43.7406C90.5184 43.7406 88.885 40.3651 88.885 37.2075C88.885 35.0016 89.7839 33.2773 91.5574 32.0805C92.7995 31.3092 94.2253 30.8864 95.686 30.8564C99.1858 30.8564 101.631 33.3805 101.631 36.9968C101.631 39.4535 100.655 41.3942 98.8071 42.6068C97.9196 43.1515 96.3776 43.7406 95.1058 43.7406" fill="#21313C"/>
<path id="Vector_9" d="M141.322 32.1435C140.805 32.1318 140.297 32.275 139.861 32.5549C138.801 33.2013 138.261 34.4927 138.261 36.3905C138.261 39.9423 140.034 42.4234 142.574 42.4234C143.257 42.4465 143.923 42.2105 144.44 41.7626C145.22 41.1248 145.633 39.8204 145.633 37.9944C145.633 34.4956 143.901 32.1435 141.322 32.1435V32.1435ZM141.811 43.7406C137.223 43.7406 135.59 40.3651 135.59 37.2089C135.59 35.0001 136.489 33.2773 138.264 32.0805C139.505 31.3087 140.931 30.8859 142.391 30.8564C145.891 30.8564 148.336 33.3819 148.336 36.9953C148.336 39.4549 147.36 41.3942 145.512 42.6054C144.624 43.1515 143.083 43.7406 141.811 43.7406" fill="#21313C"/>
<path id="Vector_10" d="M125.876 32.0232C124.463 32.0232 123.549 33.1427 123.549 34.8756C123.549 36.6085 124.336 38.6682 126.55 38.6682C126.93 38.6682 127.619 38.499 127.96 38.1221C128.475 37.6476 128.818 36.6672 128.818 35.6324C128.818 33.372 127.72 32.0232 125.884 32.0232H125.876ZM125.701 43.983C125.301 43.9786 124.908 44.0773 124.557 44.2696C123.438 44.9863 122.92 45.703 122.92 46.5357C122.92 47.3155 123.221 47.9361 123.87 48.4865C124.656 49.1544 125.716 49.4798 127.11 49.4798C129.852 49.4798 131.081 48.0006 131.081 46.5357C131.081 45.5152 130.571 44.8315 129.521 44.4445C128.712 44.1478 127.36 43.9844 125.705 43.9844L125.701 43.983ZM125.888 51.0077C124.242 51.0077 123.056 50.6594 122.042 49.8768C121.056 49.1143 120.613 47.982 120.613 47.1994C120.624 46.695 120.816 46.2115 121.153 45.8377C121.439 45.5109 122.104 44.8989 123.64 43.8396C123.664 43.8295 123.684 43.8125 123.698 43.7908C123.713 43.7692 123.72 43.7438 123.72 43.7178C123.721 43.6888 123.711 43.6606 123.693 43.6376C123.676 43.6147 123.651 43.5985 123.623 43.5917C122.358 43.1058 121.977 42.3017 121.861 41.8717C121.861 41.8559 121.861 41.8315 121.848 41.8043C121.812 41.6352 121.778 41.4746 122.008 41.3098C122.185 41.1837 122.468 41.0145 122.771 40.8354C123.199 40.5979 123.609 40.3302 123.999 40.0341C124.02 40.0116 124.035 39.9845 124.044 39.9549C124.053 39.9254 124.055 39.8943 124.05 39.8638C124.045 39.8334 124.033 39.8045 124.015 39.7794C123.998 39.7542 123.974 39.7335 123.947 39.7188C122.075 39.0881 121.132 37.6935 121.132 35.5621C121.126 34.8975 121.28 34.2413 121.581 33.6492C121.882 33.0571 122.321 32.5465 122.861 32.1608C123.614 31.5631 125.505 30.845 126.73 30.845H126.801C128.06 30.8751 128.77 31.1403 129.754 31.5044C130.313 31.7072 130.905 31.8016 131.5 31.7824C132.542 31.7824 132.998 31.4513 133.389 31.0658C133.453 31.2394 133.486 31.4226 133.489 31.6076C133.513 32.0483 133.394 32.4849 133.149 32.8517C132.936 33.1484 132.435 33.3634 131.976 33.3634C131.929 33.3634 131.883 33.3634 131.833 33.3562C131.591 33.3392 131.352 33.2994 131.118 33.2373L131.001 33.2788C130.964 33.3333 130.988 33.3935 131.018 33.4709C131.026 33.486 131.031 33.5019 131.035 33.5182C131.119 33.9007 131.176 34.2887 131.206 34.6792C131.206 36.908 130.329 37.8784 129.382 38.5979C128.466 39.2873 127.378 39.7099 126.238 39.8191V39.8191C126.214 39.8191 126.095 39.8292 125.872 39.8492C125.729 39.8621 125.544 39.8793 125.516 39.8793H125.489C125.283 39.9367 124.746 40.1932 124.746 40.6705C124.746 41.0661 124.989 41.5578 126.151 41.6466L126.903 41.6997C128.435 41.8072 130.348 41.9405 131.248 42.2458C131.846 42.4564 132.361 42.8506 132.722 43.3722C133.083 43.8938 133.271 44.5163 133.259 45.1511C133.259 47.1506 131.841 49.0312 129.468 50.1807C128.348 50.717 127.123 50.9928 125.882 50.9877" fill="#21313C"/>
<path id="Vector_11" d="M118.865 42.4019C118.194 42.3116 117.704 42.2199 117.125 41.9475C117.011 41.8295 116.936 41.6795 116.911 41.5175C116.849 40.5787 116.849 37.8539 116.849 36.0709C116.849 34.616 116.606 33.3475 115.992 32.4374C115.258 31.4068 114.221 30.8019 112.878 30.8019C111.687 30.8019 110.1 31.6189 108.788 32.7398C108.756 32.7699 108.555 32.962 108.559 32.6638C108.563 32.3657 108.609 31.7608 108.638 31.3738C108.65 31.271 108.639 31.1667 108.604 31.0691C108.569 30.9715 108.512 30.8835 108.438 30.812C107.58 31.242 105.175 31.8153 104.285 31.9027C103.636 32.0289 103.472 32.6552 104.165 32.8717H104.175C104.729 33.0251 105.259 33.2588 105.747 33.5654C106.021 33.7775 105.991 34.08 105.991 34.3222C106.021 36.3504 106.021 39.4693 105.93 41.1649C105.9 41.8314 105.715 42.0737 105.226 42.1955L105.272 42.1797C104.9 42.2733 104.522 42.3441 104.142 42.3919C103.989 42.5424 103.989 43.421 104.142 43.603C104.448 43.603 106 43.5127 107.286 43.5127C109.055 43.5127 109.971 43.603 110.43 43.603C110.614 43.3909 110.674 42.5739 110.553 42.3919C110.13 42.3727 109.71 42.3117 109.299 42.2098C108.812 42.0894 108.689 41.8458 108.659 41.3025C108.599 39.8778 108.599 36.8506 108.599 34.7909C108.599 34.2176 108.75 33.9438 108.933 33.7876C109.544 33.2429 110.553 32.8803 111.437 32.8803C112.295 32.8803 112.866 33.1526 113.295 33.5152C113.794 33.9523 114.107 34.5649 114.17 35.2266C114.291 36.3733 114.26 38.6795 114.26 40.6733C114.26 41.7641 114.17 42.0378 113.772 42.1582C113.589 42.2485 113.101 42.3403 112.52 42.4005C112.337 42.5825 112.397 43.4296 112.52 43.6116C113.314 43.6116 114.235 43.5213 115.573 43.5213C117.252 43.5213 118.321 43.6116 118.748 43.6116C118.931 43.3995 118.993 42.6083 118.871 42.4005" fill="#21313C"/>
</g>
</g>
</svg>
