<svg width="230" height="65" viewBox="0 0 230 65" fill="none" xmlns="http://www.w3.org/2000/svg">
<g id="Client #8">
<g id="Layer 1">
<g id="Group">
<path id="Vector" d="M68.6346 32.9915C68.6346 43.7814 59.8877 52.5283 49.0978 52.5283C38.3079 52.5283 29.561 43.7814 29.561 32.9915C29.561 22.2016 38.3079 13.4546 49.0978 13.4546C59.8877 13.4546 68.6346 22.2016 68.6346 32.9915Z" fill="#DA552F"/>
</g>
<g id="Group_2">
<path id="Vector_2" d="M51.7024 32.9979V32.9981H46.167V27.137H51.7024V27.1369C53.3209 27.1369 54.6329 28.4489 54.6329 30.0674C54.6329 31.6859 53.3209 32.9979 51.7024 32.9979ZM51.7024 23.2295V23.2297L42.2596 23.2295V42.7663H46.167V36.9054H51.7024V36.9053C55.4789 36.9053 58.5403 33.8439 58.5403 30.0674C58.5403 26.2909 55.4789 23.2295 51.7024 23.2295Z" fill="white"/>
</g>
<g id="Group_3">
<path id="Vector_3" d="M89.1602 30.6106C89.1602 29.536 88.334 28.8838 87.2609 28.8838H84.384V32.3177H87.2609C88.334 32.3177 89.1602 31.6655 89.1602 30.6106ZM81.66 39.5109V26.4863H87.6437C90.4254 26.4863 91.9403 28.3661 91.9403 30.6106C91.9403 32.8355 90.4067 34.7152 87.6437 34.7152H84.384V39.5109H81.66Z" fill="#DA552F"/>
</g>
<g id="Group_4">
<path id="Vector_4" d="M93.597 39.5108V30.0152H96.032V31.2625C96.7036 30.4566 97.8361 29.7856 98.9871 29.7856V32.1636C98.8137 32.1253 98.6029 32.1066 98.3155 32.1066C97.5096 32.1066 96.4349 32.5666 96.032 33.1618V39.5108H93.597Z" fill="#DA552F"/>
</g>
<g id="Group_5">
<path id="Vector_5" d="M107.181 34.6384C107.181 33.1999 106.336 31.9528 104.803 31.9528C103.286 31.9528 102.443 33.1999 102.443 34.6384C102.443 36.0965 103.286 37.3428 104.803 37.3428C106.336 37.3428 107.181 36.0965 107.181 34.6384ZM99.9107 34.6384C99.9107 32.0106 101.752 29.7856 104.803 29.7856C107.872 29.7856 109.713 32.0106 109.713 34.6384C109.713 37.2663 107.872 39.5108 104.803 39.5108C101.752 39.5108 99.9107 37.2663 99.9107 34.6384Z" fill="#DA552F"/>
</g>
<g id="Group_6">
<path id="Vector_6" d="M117.91 36.288V33.0081C117.507 32.3941 116.624 31.9529 115.818 31.9529C114.419 31.9529 113.46 33.0463 113.46 34.6386C113.46 36.2497 114.419 37.343 115.818 37.343C116.624 37.343 117.507 36.9017 117.91 36.288ZM117.91 39.5109V38.0912C117.18 39.0119 116.184 39.5109 115.051 39.5109C112.73 39.5109 110.947 37.7461 110.947 34.6386C110.947 31.6273 112.693 29.7858 115.051 29.7858C116.145 29.7858 117.18 30.2459 117.91 31.2048V26.4863H120.365V39.5109H117.91Z" fill="#DA552F"/>
</g>
<g id="Group_7">
<path id="Vector_7" d="M129.04 39.5078V38.1075C128.408 38.7979 127.296 39.5078 125.781 39.5078C123.747 39.5078 122.788 38.395 122.788 36.5917V30.0122H125.223V35.6328C125.223 36.9182 125.895 37.3398 126.93 37.3398C127.871 37.3398 128.619 36.8221 129.04 36.2848V30.0122H131.477V39.5078H129.04Z" fill="#DA552F"/>
</g>
<g id="Group_8">
<path id="Vector_8" d="M133.306 34.6384C133.306 31.7997 135.377 29.7856 138.216 29.7856C140.116 29.7856 141.267 30.6103 141.881 31.4546L140.288 32.95C139.847 32.2979 139.175 31.9528 138.332 31.9528C136.854 31.9528 135.819 33.0273 135.819 34.6384C135.819 36.2496 136.854 37.3428 138.332 37.3428C139.175 37.3428 139.847 36.9594 140.288 36.3261L141.881 37.8223C141.267 38.6666 140.116 39.5108 138.216 39.5108C135.377 39.5108 133.306 37.4967 133.306 34.6384Z" fill="#DA552F"/>
</g>
<g id="Group_9">
<path id="Vector_9" d="M143.976 36.955V32.1405H142.442V30.0108H143.976V27.479H146.413V30.0108H148.292V32.1405H146.413V36.303C146.413 36.8972 146.719 37.3384 147.256 37.3384C147.62 37.3384 147.967 37.2041 148.1 37.0511L148.618 38.9113C148.254 39.2377 147.601 39.5064 146.585 39.5064C144.877 39.5064 143.976 38.6239 143.976 36.955Z" fill="#DA552F"/>
</g>
<g id="Group_10">
<path id="Vector_10" d="M163.895 39.5109V33.8905H157.852V39.5109H155.13V26.4863H157.852V31.5117H163.895V26.4863H166.638V39.5109H163.895Z" fill="#DA552F"/>
</g>
<g id="Group_11">
<path id="Vector_11" d="M175.355 39.5078V38.1075C174.722 38.7979 173.61 39.5078 172.095 39.5078C170.062 39.5078 169.103 38.395 169.103 36.5917V30.0122H171.537V35.6328C171.537 36.9182 172.209 37.3398 173.245 37.3398C174.185 37.3398 174.933 36.8221 175.355 36.2848V30.0122H177.791V39.5078H175.355Z" fill="#DA552F"/>
</g>
<g id="Group_12">
<path id="Vector_12" d="M186.467 39.5108V33.6795C186.467 32.394 185.797 31.9528 184.76 31.9528C183.801 31.9528 183.073 32.49 182.65 33.0273V39.5108H180.215V30.0152H182.65V31.2047C183.245 30.5144 184.396 29.7856 185.892 29.7856C187.944 29.7856 188.922 30.936 188.922 32.7391V39.5108H186.467Z" fill="#DA552F"/>
</g>
<g id="Group_13">
<path id="Vector_13" d="M191.825 36.955V32.1405H190.291V30.0108H191.825V27.479H194.262V30.0108H196.141V32.1405H194.262V36.303C194.262 36.8972 194.568 37.3384 195.105 37.3384C195.469 37.3384 195.816 37.2041 195.95 37.0511L196.467 38.9113C196.103 39.2377 195.45 39.5064 194.434 39.5064C192.726 39.5064 191.825 38.6239 191.825 36.955Z" fill="#DA552F"/>
</g>
</g>
</g>
</svg>
