<svg width="230" height="65" viewBox="0 0 230 65" fill="none" xmlns="http://www.w3.org/2000/svg">
<g id="Client #2">
<g id="salesforca-seeklogo.com 1">
<g id="Group">
<path id="Vector" d="M110.211 8.65959C113.014 5.74718 116.917 3.94096 121.233 3.94096C126.97 3.94096 131.976 7.13116 134.641 11.8671C136.958 10.835 139.522 10.2609 142.219 10.2609C152.567 10.2609 160.956 18.6993 160.956 29.1082C160.956 39.5184 152.567 47.9569 142.219 47.9569C140.957 47.9569 139.722 47.8309 138.529 47.5902C136.181 51.7656 131.708 54.5867 126.574 54.5867C124.425 54.5867 122.392 54.0916 120.582 53.2113C118.202 58.7929 112.658 62.7066 106.196 62.7066C99.4674 62.7066 93.7326 58.4608 91.5313 52.5064C90.5693 52.7101 89.5727 52.8162 88.55 52.8162C80.5384 52.8162 74.0435 46.2729 74.0435 38.1998C74.0435 32.7898 76.9616 28.0662 81.2974 25.539C80.4047 23.4908 79.9083 21.2303 79.9083 18.8537C79.9083 9.56949 87.4667 2.04338 96.7894 2.04338C102.263 2.04338 107.127 4.63851 110.211 8.65959Z" fill="#00A1E0"/>
<path id="Vector_2" d="M86.632 33.5018C86.5775 33.6438 86.6518 33.6734 86.6692 33.6981C86.8326 33.8166 86.9985 33.9018 87.1656 33.9969C88.0521 34.466 88.889 34.6031 89.7643 34.6031C91.5472 34.6031 92.654 33.6574 92.654 32.1351V32.1055C92.654 30.6981 91.4048 30.1869 90.2323 29.8178L90.0801 29.7684C89.1961 29.482 88.4334 29.2351 88.4334 28.6548V28.6239C88.4334 28.1276 88.8791 27.7622 89.57 27.7622C90.3376 27.7622 91.2488 28.0165 91.8356 28.34C91.8356 28.34 92.0077 28.4511 92.0709 28.2844C92.1055 28.1955 92.4027 27.398 92.4336 27.3116C92.4671 27.2177 92.4076 27.1486 92.347 27.1115C91.6772 26.7054 90.7511 26.4276 89.7928 26.4276L89.6145 26.4288C87.9828 26.4288 86.8437 27.4116 86.8437 28.8202V28.8499C86.8437 30.3351 88.1004 30.8166 89.2778 31.1524L89.4672 31.2104C90.3252 31.4734 91.0643 31.6993 91.0643 32.3018V32.3314C91.0643 32.8821 90.5839 33.2919 89.8089 33.2919C89.5081 33.2919 88.5486 33.2858 87.5123 32.6327C87.3872 32.5598 87.3142 32.5067 87.2176 32.4487C87.1669 32.4166 87.0393 32.3611 86.9836 32.529L86.632 33.5018Z" fill="white"/>
<path id="Vector_3" d="M112.732 33.5018C112.677 33.6438 112.752 33.6734 112.769 33.6981C112.932 33.8166 113.098 33.9018 113.266 33.9969C114.152 34.466 114.989 34.6031 115.864 34.6031C117.647 34.6031 118.754 33.6574 118.754 32.1351V32.1055C118.754 30.6981 117.505 30.1869 116.332 29.8178L116.18 29.7684C115.296 29.482 114.533 29.2351 114.533 28.6548V28.6239C114.533 28.1276 114.979 27.7622 115.67 27.7622C116.437 27.7622 117.349 28.0165 117.936 28.34C117.936 28.34 118.108 28.4511 118.171 28.2844C118.205 28.1955 118.503 27.398 118.534 27.3116C118.567 27.2177 118.508 27.1486 118.447 27.1115C117.777 26.7054 116.851 26.4276 115.893 26.4276L115.714 26.4288C114.083 26.4288 112.944 27.4116 112.944 28.8202V28.8499C112.944 30.3351 114.2 30.8166 115.378 31.1524L115.567 31.2104C116.425 31.4734 117.165 31.6993 117.165 32.3018V32.3314C117.165 32.8821 116.684 33.2919 115.909 33.2919C115.608 33.2919 114.648 33.2858 113.612 32.6327C113.487 32.5598 113.413 32.5092 113.319 32.4487C113.287 32.4277 113.136 32.3697 113.084 32.529L112.732 33.5018Z" fill="white"/>
<path id="Vector_4" d="M130.55 30.52C130.55 31.3806 130.389 32.0584 130.072 32.5374C129.758 33.0115 129.284 33.2423 128.623 33.2423C127.961 33.2423 127.489 33.0127 127.181 32.5374C126.869 32.0596 126.71 31.3806 126.71 30.52C126.71 29.6608 126.869 28.9842 127.181 28.5101C127.489 28.041 127.961 27.8126 128.623 27.8126C129.284 27.8126 129.758 28.041 130.073 28.5101C130.389 28.9842 130.55 29.6608 130.55 30.52ZM132.038 28.9249C131.892 28.4323 131.664 27.9978 131.361 27.636C131.057 27.273 130.673 26.9817 130.218 26.7693C129.763 26.5582 129.226 26.4508 128.623 26.4508C128.019 26.4508 127.482 26.5582 127.027 26.7693C126.572 26.9817 126.188 27.273 125.883 27.636C125.581 27.999 125.353 28.4336 125.206 28.9249C125.061 29.4151 124.988 29.9509 124.988 30.52C124.988 31.0892 125.061 31.6262 125.206 32.1151C125.353 32.6065 125.58 33.0411 125.884 33.4041C126.188 33.767 126.573 34.0572 127.027 34.2633C127.483 34.4695 128.019 34.5745 128.623 34.5745C129.226 34.5745 129.762 34.4695 130.218 34.2633C130.672 34.0572 131.057 33.767 131.361 33.4041C131.664 33.0423 131.892 32.6077 132.038 32.1151C132.184 31.625 132.257 31.088 132.257 30.52C132.257 29.9521 132.184 29.4151 132.038 28.9249Z" fill="white"/>
<path id="Vector_5" d="M144.258 33.0126C144.209 32.8681 144.069 32.9224 144.069 32.9224C143.852 33.0051 143.622 33.0817 143.377 33.12C143.128 33.1582 142.854 33.178 142.561 33.178C141.84 33.178 141.268 32.9644 140.859 32.5422C140.448 32.1199 140.217 31.4372 140.22 30.5137C140.222 29.673 140.425 29.0409 140.791 28.5594C141.153 28.0803 141.706 27.8347 142.442 27.8347C143.056 27.8347 143.524 27.905 144.015 28.0594C144.015 28.0594 144.132 28.11 144.188 27.9569C144.318 27.5964 144.414 27.3383 144.553 26.942C144.593 26.8297 144.496 26.7815 144.461 26.768C144.268 26.6927 143.813 26.5704 143.469 26.5186C143.147 26.4692 142.77 26.4433 142.352 26.4433C141.727 26.4433 141.169 26.5494 140.693 26.7618C140.217 26.9729 139.814 27.2643 139.494 27.6272C139.175 27.9902 138.932 28.4248 138.77 28.9162C138.609 29.4063 138.527 29.9446 138.527 30.5137C138.527 31.7446 138.86 32.7397 139.518 33.4681C140.176 34.199 141.166 34.5706 142.456 34.5706C143.218 34.5706 144.001 34.4163 144.563 34.1953C144.563 34.1953 144.671 34.1434 144.624 34.0188L144.258 33.0126Z" fill="white"/>
<path id="Vector_6" d="M146.862 29.6957C146.933 29.2179 147.065 28.8203 147.27 28.5105C147.578 28.0401 148.048 27.782 148.709 27.782C149.371 27.782 149.808 28.0413 150.121 28.5105C150.329 28.8203 150.419 29.2352 150.455 29.6957H146.862ZM151.873 28.645C151.746 28.1697 151.433 27.6895 151.228 27.4697C150.903 27.1215 150.586 26.8783 150.272 26.7425C149.861 26.5672 149.368 26.4512 148.828 26.4512C148.199 26.4512 147.629 26.5561 147.166 26.7734C146.701 26.9907 146.311 27.287 146.005 27.6561C145.7 28.024 145.469 28.4623 145.323 28.9599C145.176 29.4549 145.102 29.9944 145.102 30.5636C145.102 31.1426 145.178 31.6821 145.331 32.1673C145.484 32.6562 145.729 33.0871 146.061 33.4439C146.392 33.8032 146.818 34.0847 147.328 34.281C147.834 34.476 148.449 34.5773 149.156 34.576C150.611 34.5711 151.377 34.2476 151.693 34.0736C151.749 34.0427 151.802 33.9884 151.735 33.8328L151.406 32.913C151.356 32.776 151.217 32.8266 151.217 32.8266C150.856 32.96 150.344 33.1995 149.149 33.197C148.368 33.1958 147.788 32.9661 147.426 32.6069C147.053 32.2389 146.871 31.6982 146.839 30.9352L151.876 30.9401C151.876 30.9401 152.009 30.9377 152.023 30.8093C152.027 30.755 152.196 29.7772 151.873 28.645Z" fill="white"/>
<path id="Vector_7" d="M106.517 29.6957C106.589 29.2179 106.72 28.8203 106.925 28.5105C107.233 28.0401 107.703 27.782 108.364 27.782C109.026 27.782 109.463 28.0413 109.777 28.5105C109.984 28.8203 110.074 29.2352 110.11 29.6957H106.517ZM111.527 28.645C111.4 28.1697 111.088 27.6895 110.883 27.4697C110.558 27.1215 110.241 26.8783 109.927 26.7425C109.516 26.5672 109.023 26.4512 108.483 26.4512C107.856 26.4512 107.284 26.5561 106.821 26.7734C106.356 26.9907 105.966 27.287 105.661 27.6561C105.355 28.024 105.124 28.4623 104.978 28.9599C104.832 29.4549 104.757 29.9944 104.757 30.5636C104.757 31.1426 104.833 31.6821 104.986 32.1673C105.139 32.6562 105.384 33.0871 105.716 33.4439C106.047 33.8032 106.473 34.0847 106.983 34.281C107.489 34.476 108.104 34.5773 108.811 34.576C110.266 34.5711 111.033 34.2476 111.348 34.0736C111.404 34.0427 111.457 33.9884 111.39 33.8328L111.062 32.913C111.011 32.776 110.872 32.8266 110.872 32.8266C110.511 32.96 110 33.1995 108.803 33.197C108.023 33.1958 107.443 32.9661 107.081 32.6069C106.708 32.2389 106.526 31.6982 106.494 30.9352L111.531 30.9401C111.531 30.9401 111.664 30.9377 111.678 30.8093C111.683 30.755 111.851 29.7772 111.527 28.645Z" fill="white"/>
<path id="Vector_8" d="M95.6283 32.985C95.4314 32.8282 95.4042 32.7887 95.3373 32.6875C95.2383 32.5332 95.1875 32.3134 95.1875 32.0344C95.1875 31.5924 95.3336 31.2751 95.6369 31.0615C95.6332 31.0628 96.0702 30.685 97.0979 30.6986C97.8197 30.7084 98.4647 30.8146 98.4647 30.8146V33.0986H98.4659C98.4659 33.0986 97.8258 33.2357 97.1053 33.2789C96.0802 33.3406 95.6245 32.9838 95.6283 32.985ZM97.6327 29.4553C97.4284 29.4405 97.1635 29.4319 96.8465 29.4319C96.4144 29.4319 95.9972 29.4862 95.606 29.5911C95.2123 29.6961 94.8582 29.8603 94.5536 30.0776C94.2478 30.2961 94.0014 30.5751 93.8231 30.906C93.6449 31.2368 93.5545 31.627 93.5545 32.064C93.5545 32.5085 93.6312 32.8949 93.7848 33.211C93.9383 33.5283 94.1599 33.7925 94.4422 33.9962C94.722 34.1999 95.0674 34.3493 95.4685 34.4394C95.8635 34.5295 96.3117 34.5752 96.802 34.5752C97.3182 34.5752 97.8333 34.5332 98.3322 34.448C98.8262 34.3641 99.4329 34.2419 99.6012 34.2036C99.7684 34.1641 99.9541 34.1135 99.9541 34.1135C100.079 34.0826 100.069 33.9493 100.069 33.9493L100.067 29.3553C100.067 28.3479 99.7969 27.6009 99.2657 27.138C98.7371 26.6762 97.9583 26.4429 96.9518 26.4429C96.5741 26.4429 95.9662 26.4948 95.6023 26.5676C95.6023 26.5676 94.5016 26.7799 94.0485 27.133C94.0485 27.133 93.9494 27.1948 94.0039 27.333L94.3605 28.2886C94.405 28.4121 94.5251 28.3701 94.5251 28.3701C94.5251 28.3701 94.5635 28.3553 94.6081 28.3294C95.5775 27.8034 96.8032 27.8195 96.8032 27.8195C97.3479 27.8195 97.7664 27.9281 98.0487 28.1442C98.3235 28.3541 98.4635 28.6713 98.4635 29.3405V29.5529C98.0301 29.4911 97.6327 29.4553 97.6327 29.4553Z" fill="white"/>
<path id="Vector_9" d="M138.264 26.8669C138.303 26.7533 138.222 26.699 138.189 26.6866C138.103 26.6533 137.675 26.5632 137.344 26.5422C136.712 26.5039 136.36 26.6101 136.046 26.7508C135.734 26.8916 135.387 27.1187 135.194 27.3768V26.7656C135.194 26.6804 135.133 26.6125 135.049 26.6125H133.758C133.673 26.6125 133.613 26.6804 133.613 26.7656V34.2584C133.613 34.3424 133.682 34.4115 133.766 34.4115H135.09C135.174 34.4115 135.242 34.3424 135.242 34.2584V30.5151C135.242 30.0126 135.298 29.5114 135.409 29.1966C135.518 28.8854 135.667 28.636 135.85 28.457C136.034 28.2792 136.244 28.1546 136.473 28.0842C136.707 28.0126 136.965 27.9891 137.149 27.9891C137.412 27.9891 137.702 28.057 137.702 28.057C137.799 28.0681 137.853 28.0089 137.885 27.9212C137.972 27.6916 138.217 27.0039 138.264 26.8669Z" fill="white"/>
<path id="Vector_10" d="M125.841 23.3942C125.68 23.3448 125.534 23.3115 125.343 23.2757C125.15 23.2411 124.92 23.2238 124.659 23.2238C123.747 23.2238 123.029 23.4806 122.525 23.9868C122.024 24.4905 121.684 25.2572 121.513 26.2659L121.451 26.6054H120.307C120.307 26.6054 120.168 26.6005 120.138 26.7511L119.952 27.7968C119.938 27.8955 119.981 27.9585 120.115 27.9585H121.228L120.099 34.2451C120.011 34.7513 119.909 35.1673 119.797 35.4834C119.687 35.7945 119.579 36.0278 119.445 36.1982C119.316 36.3612 119.195 36.4822 118.985 36.5525C118.811 36.6106 118.611 36.6377 118.392 36.6377C118.27 36.6377 118.108 36.618 117.988 36.5933C117.869 36.5698 117.806 36.5439 117.716 36.5056C117.716 36.5056 117.586 36.4562 117.534 36.5859C117.493 36.6933 117.196 37.5069 117.16 37.6069C117.125 37.7069 117.174 37.7847 117.238 37.8081C117.386 37.86 117.496 37.8946 117.698 37.9427C117.978 38.0081 118.214 38.0118 118.436 38.0118C118.899 38.0118 119.323 37.9464 119.673 37.8205C120.025 37.6933 120.332 37.4723 120.604 37.1735C120.897 36.8501 121.082 36.5118 121.258 36.0488C121.432 35.592 121.582 35.0241 121.701 34.3624L122.836 27.9585H124.495C124.495 27.9585 124.635 27.9634 124.664 27.8116L124.852 26.7671C124.864 26.6671 124.822 26.6054 124.687 26.6054H123.076C123.085 26.5696 123.158 26.0041 123.343 25.472C123.422 25.2461 123.57 25.0621 123.695 24.9362C123.819 24.8128 123.962 24.7251 124.118 24.6745C124.277 24.6226 124.459 24.5979 124.659 24.5979C124.81 24.5979 124.96 24.6152 125.072 24.6387C125.228 24.672 125.289 24.6893 125.33 24.7016C125.494 24.751 125.517 24.7029 125.549 24.6239L125.934 23.5695C125.974 23.4559 125.876 23.4078 125.841 23.3942Z" fill="white"/>
<path id="Vector_11" d="M103.336 34.2588C103.336 34.3427 103.275 34.4106 103.191 34.4106H101.855C101.771 34.4106 101.712 34.3427 101.712 34.2588V23.5375C101.712 23.4536 101.771 23.3857 101.855 23.3857H103.191C103.275 23.3857 103.336 23.4536 103.336 23.5375V34.2588Z" fill="white"/>
</g>
</g>
</g>
</svg>
