<svg width="230" height="65" viewBox="0 0 230 65" fill="none" xmlns="http://www.w3.org/2000/svg">
<g id="Client #10">
<g id="sap 3">
<path id="Vector" fill-rule="evenodd" clip-rule="evenodd" d="M74 53H115.976L157.056 12H74V53Z" fill="url(#paint0_linear)"/>
<path id="Vector_2" fill-rule="evenodd" clip-rule="evenodd" d="M123.29 20.2H115.087L115.114 39.4518L107.972 20.1936H100.889L94.7918 36.2774C94.1435 32.1847 89.9034 30.7725 86.5671 29.7147C84.3639 29.0086 82.0256 27.9699 82.0494 26.8219C82.0676 25.8798 83.3002 25.0061 85.7499 25.1364C87.3934 25.2248 88.8452 25.3569 91.7331 26.749L94.5727 21.8108C91.9395 20.4733 88.2982 19.6287 85.3126 19.626H85.2943C81.8129 19.626 78.914 20.7512 77.1171 22.6053C75.8644 23.8991 75.1888 25.5446 75.1614 27.364C75.1157 29.8678 76.0352 31.6426 77.9672 33.0612C79.5997 34.2548 81.6878 35.0292 83.5276 35.5978C85.7965 36.2993 87.65 36.9098 87.6272 38.209C87.6089 38.6828 87.4299 39.1256 87.0885 39.4827C86.5224 40.0658 85.655 40.2845 84.4543 40.3082C82.1379 40.3574 80.4214 39.9939 77.6859 38.3803L75.1595 43.3823C77.8923 44.933 80.793 45.7111 84.0891 45.7111L84.8305 45.7056C87.6993 45.6537 90.0275 44.9676 91.8774 43.4825C91.9833 43.3978 92.0782 43.3121 92.1768 43.2256L91.8664 44.8218L98.7873 44.8L100.029 41.6275C101.335 42.0721 102.819 42.3181 104.395 42.3181C105.931 42.3181 107.375 42.0849 108.656 41.6658L109.522 44.8L121.939 44.8118L121.969 37.5794H124.612C130.999 37.5794 134.774 34.3359 134.774 28.8965C134.772 22.8386 131.102 20.2 123.29 20.2ZM104.395 36.6565C103.441 36.6565 102.546 36.4906 101.777 36.1991L104.366 28.0401H104.416L106.964 36.2219C106.197 36.4952 105.323 36.6565 104.394 36.6565H104.395ZM123.77 31.9688H121.968V25.3933H123.771C126.172 25.3933 128.09 26.1914 128.09 28.6387C128.088 31.1716 126.172 31.9688 123.771 31.9688" fill="white"/>
</g>
</g>
<defs>
<linearGradient id="paint0_linear" x1="115.528" y1="12" x2="115.528" y2="53.0009" gradientUnits="userSpaceOnUse">
<stop stop-color="#00AEEF"/>
<stop offset="0.212" stop-color="#0097DC"/>
<stop offset="0.519" stop-color="#007CC5"/>
<stop offset="0.792" stop-color="#006CB8"/>
<stop offset="1" stop-color="#0066B3"/>
</linearGradient>
</defs>
</svg>
