<svg width="230" height="65" viewBox="0 0 230 65" fill="none" xmlns="http://www.w3.org/2000/svg">
<g id="Client #3">
<g clip-path="url(#clip0)">
<g id="Slack_RGB 1">
<g id="Group">
<g id="Group_2">
<path id="Vector" d="M90.306 41.8986L91.91 38.1628C93.6434 39.46 95.946 40.1345 98.2227 40.1345C99.9044 40.1345 100.965 39.4859 100.965 38.5001C100.939 35.7501 90.901 37.9034 90.8234 31.0024C90.7975 27.5001 93.9021 24.8019 98.3003 24.8019C100.913 24.8019 103.526 25.4505 105.389 26.9293L103.889 30.743C102.181 29.6534 100.06 28.8751 98.0416 28.8751C96.6704 28.8751 95.7649 29.5236 95.7649 30.3538C95.7908 33.0519 105.907 31.5732 106.01 38.1628C106.01 41.743 102.983 44.2595 98.6367 44.2595C95.4544 44.2595 92.5309 43.5071 90.306 41.8986Z" fill="black"/>
<path id="Vector_2" d="M151.855 36.8137C151.053 38.2147 149.552 39.1746 147.819 39.1746C145.258 39.1746 143.188 37.0991 143.188 34.5307C143.188 31.9623 145.258 29.8868 147.819 29.8868C149.552 29.8868 151.053 30.8468 151.855 32.2477L156.279 29.7831C154.623 26.8255 151.441 24.8019 147.819 24.8019C142.463 24.8019 138.117 29.1604 138.117 34.5307C138.117 39.901 142.463 44.2595 147.819 44.2595C151.467 44.2595 154.623 42.2618 156.279 39.2784L151.855 36.8137Z" fill="black"/>
<path id="Vector_3" d="M113.772 16.7335H108.235V43.8963H113.772V16.7335Z" fill="black"/>
<path id="Vector_4" d="M158.452 16.7335V43.8963H163.989V35.75L170.56 43.8963H177.649L169.292 34.2194L177.028 25.1911H170.25L163.989 32.6887V16.7335H158.452Z" fill="black"/>
<path id="Vector_5" d="M130.226 36.8656C129.424 38.1887 127.768 39.1746 125.906 39.1746C123.344 39.1746 121.274 37.0991 121.274 34.5307C121.274 31.9623 123.344 29.8868 125.906 29.8868C127.768 29.8868 129.424 30.9246 130.226 32.2736V36.8656ZM130.226 25.1911V27.3963C129.321 25.8656 127.07 24.8019 124.715 24.8019C119.852 24.8019 116.023 29.1085 116.023 34.5048C116.023 39.901 119.852 44.2595 124.715 44.2595C127.07 44.2595 129.321 43.1958 130.226 41.6652V43.8703H135.763V25.1911H130.226Z" fill="black"/>
</g>
<g id="Group_3">
<g id="Group_4">
<path id="Vector_6" d="M56.0776 36.8397C56.0776 38.7336 54.5512 40.2642 52.6625 40.2642C50.7739 40.2642 49.2475 38.7336 49.2475 36.8397C49.2475 34.9458 50.7739 33.4152 52.6625 33.4152H56.0776V36.8397Z" fill="#E01E5A"/>
<path id="Vector_7" d="M57.7852 36.8397C57.7852 34.9458 59.3116 33.4152 61.2002 33.4152C63.0889 33.4152 64.6153 34.9458 64.6153 36.8397V45.401C64.6153 47.2949 63.0889 48.8255 61.2002 48.8255C59.3116 48.8255 57.7852 47.2949 57.7852 45.401V36.8397Z" fill="#E01E5A"/>
</g>
<g id="Group_5">
<path id="Vector_8" d="M61.2002 23.0897C59.3116 23.0897 57.7852 21.559 57.7852 19.6651C57.7852 17.7713 59.3116 16.2406 61.2002 16.2406C63.0889 16.2406 64.6153 17.7713 64.6153 19.6651V23.0897H61.2002Z" fill="#36C5F0"/>
<path id="Vector_9" d="M61.2002 24.8279C63.0889 24.8279 64.6153 26.3585 64.6153 28.2524C64.6153 30.1463 63.0889 31.6769 61.2002 31.6769H52.6367C50.748 31.6769 49.2216 30.1463 49.2216 28.2524C49.2216 26.3585 50.748 24.8279 52.6367 24.8279H61.2002Z" fill="#36C5F0"/>
</g>
<g id="Group_6">
<path id="Vector_10" d="M74.8864 28.2524C74.8864 26.3585 76.4128 24.8279 78.3015 24.8279C80.1901 24.8279 81.7165 26.3585 81.7165 28.2524C81.7165 30.1463 80.1901 31.6769 78.3015 31.6769H74.8864V28.2524Z" fill="#2EB67D"/>
<path id="Vector_11" d="M73.1789 28.2524C73.1789 30.1463 71.6524 31.6769 69.7638 31.6769C67.8751 31.6769 66.3487 30.1463 66.3487 28.2524V19.6651C66.3487 17.7713 67.8751 16.2406 69.7638 16.2406C71.6524 16.2406 73.1789 17.7713 73.1789 19.6651V28.2524Z" fill="#2EB67D"/>
</g>
<g id="Group_7">
<path id="Vector_12" d="M69.7638 41.9764C71.6524 41.9764 73.1789 43.5071 73.1789 45.401C73.1789 47.2948 71.6524 48.8255 69.7638 48.8255C67.8751 48.8255 66.3487 47.2948 66.3487 45.401V41.9764H69.7638Z" fill="#ECB22E"/>
<path id="Vector_13" d="M69.7638 40.2642C67.8751 40.2642 66.3487 38.7336 66.3487 36.8397C66.3487 34.9458 67.8751 33.4152 69.7638 33.4152H78.3273C80.216 33.4152 81.7424 34.9458 81.7424 36.8397C81.7424 38.7336 80.216 40.2642 78.3273 40.2642H69.7638Z" fill="#ECB22E"/>
</g>
</g>
</g>
</g>
</g>
</g>
<defs>
<clipPath id="clip0">
<rect width="230" height="65" fill="white"/>
</clipPath>
</defs>
</svg>
