<svg width="230" height="65" viewBox="0 0 230 65" fill="none" xmlns="http://www.w3.org/2000/svg">
<g id="Client #5">
<g id="twitch 2">
<g id="layer1">
<g id="g256">
<path id="path254" d="M177.764 41.8455H168.848V30.7914H166.619V41.8455H157.703V14.2164H166.619V21.9492H173.306L177.764 26.3709V41.8455ZM155.485 30.7914H146.569V33.0078H155.485V41.851H142.117L137.659 37.4294V26.3709L142.117 21.9492H155.485V30.7914V30.7914ZM135.434 30.7914H127.632V33.0078H135.434V41.851H123.18L118.722 37.4294V14.2164H127.639V21.9492H135.44L135.434 30.7914V30.7914ZM116.497 19.7384H107.58V14.2164H116.497V19.7384ZM116.497 41.8455H107.58V21.9492H116.497V41.8455ZM105.351 41.8455H78.6218L74.1637 37.4239V21.9492H83.0799V33.0022H85.3089V21.9492H94.2251V33.0022H96.4542V21.9492H105.37L105.351 41.8455V41.8455ZM71.938 30.7914H64.1452V33.0078H71.9469V41.851H59.6871L55.229 37.4294V14.2164H64.1452V21.9492H71.9469L71.938 30.7914ZM174.423 19.7384H168.85V12H156.623L150.998 19.7384H141.004L137.66 23.0541V19.7384H129.859V12H105.357V19.7384H70.8792L65.2598 12H53V38.5298L68.5955 54H84.1911V49.5784L88.6492 54H118.725V49.5784L123.183 54H137.661V49.5784L142.12 54H169.969L180 44.0508V25.2649L174.423 19.7384" fill="#9147FE"/>
</g>
<g id="g262">
<path id="path260" d="M157.713 41.8455H166.625V30.7914H168.853V41.8455H177.764V26.3709L173.308 21.9492H166.625V14.2119H157.713V41.8455ZM118.725 37.4238L123.179 41.8455H135.434V33.0022H127.636V30.7914H135.434V21.9492H127.636V14.2119H118.725V37.4238V37.4238ZM137.661 37.4238L142.117 41.8455H155.485V33.0022H146.573V30.7914H155.485V21.9492H142.117L137.661 26.3709V37.4238V37.4238ZM107.585 14.2119H116.497V19.7384H107.585V14.2119ZM71.938 21.9492H64.1397V14.2119H55.2279V37.4238L59.6838 41.8455H71.938V33.0022H64.1397V30.7914H71.938V21.9492V21.9492ZM74.1659 37.4238L78.6207 41.8455H105.357V21.9492H96.4453V33.0022H94.2162V21.9492H85.3056V33.0022H83.0777V21.9492H74.1659V37.4238ZM107.585 21.9492H116.497V41.8455H107.585V21.9492Z" fill="white"/>
</g>
</g>
</g>
</g>
</svg>
