<?xml version="1.0" encoding="UTF-8"?>
<svg width="164px" height="56px" viewBox="0 0 164 56" version="1.1" xmlns="http://www.w3.org/2000/svg" xmlns:xlink="http://www.w3.org/1999/xlink">
    <!-- Generator: Sketch 57 (83077) - https://sketch.com -->
    <title>AppStore CTA</title>
    <desc>Created with Sketch.</desc>
    <g id="Symbols" stroke="none" stroke-width="1" fill="none" fill-rule="evenodd">
        <g id="Footer" transform="translate(-924.000000, -344.000000)" fill-rule="nonzero">
            <g id="AppStore-CTA" transform="translate(924.000000, 344.000000)">
                <rect id="Rectangle" stroke="#FFFFFF" x="0.5" y="0.5" width="163" height="55" rx="4"></rect>
                <g id="Group-2" transform="translate(17.000000, 12.666667)" fill="#FFFFFF">
                    <path d="M41.064,10 L39.468,10 L38.88,8.452 L35.208,8.452 L34.62,10 L33.024,10 L36.168,1.996 L37.92,1.996 L41.064,10 Z M38.484,7.216 L37.044,3.4 L35.604,7.216 L38.484,7.216 Z M44.772,10 L43.416,10 L41.052,4.204 L42.408,4.204 L44.1,8.548 L45.792,4.204 L47.136,4.204 L44.772,10 Z M52.74,10 L51.48,10 L51.48,9.364 C51.048,9.868 50.364,10.144 49.596,10.144 C48.66,10.144 47.592,9.496 47.592,8.224 C47.592,6.88 48.648,6.328 49.596,6.328 C50.388,6.328 51.048,6.58 51.48,7.072 L51.48,6.208 C51.48,5.536 50.916,5.128 50.124,5.128 C49.476,5.128 48.9,5.368 48.408,5.872 L47.88,4.996 C48.552,4.348 49.392,4.06 50.316,4.06 C51.612,4.06 52.74,4.6 52.74,6.148 L52.74,10 Z M50.1,9.28 C50.64,9.28 51.18,9.076 51.48,8.68 L51.48,7.792 C51.18,7.396 50.64,7.192 50.1,7.192 C49.392,7.192 48.852,7.612 48.852,8.236 C48.852,8.872 49.392,9.28 50.1,9.28 Z M55.008,3.496 C54.576,3.496 54.228,3.148 54.228,2.716 C54.228,2.284 54.576,1.936 55.008,1.936 C55.44,1.936 55.788,2.284 55.788,2.716 C55.788,3.148 55.44,3.496 55.008,3.496 Z M55.632,10 L54.372,10 L54.372,4.204 L55.632,4.204 L55.632,10 Z M58.524,10 L57.264,10 L57.264,1.996 L58.524,1.996 L58.524,10 Z M64.968,10 L63.708,10 L63.708,9.364 C63.276,9.868 62.592,10.144 61.824,10.144 C60.888,10.144 59.82,9.496 59.82,8.224 C59.82,6.88 60.876,6.328 61.824,6.328 C62.616,6.328 63.276,6.58 63.708,7.072 L63.708,6.208 C63.708,5.536 63.144,5.128 62.352,5.128 C61.704,5.128 61.128,5.368 60.636,5.872 L60.108,4.996 C60.78,4.348 61.62,4.06 62.544,4.06 C63.84,4.06 64.968,4.6 64.968,6.148 L64.968,10 Z M62.328,9.28 C62.868,9.28 63.408,9.076 63.708,8.68 L63.708,7.792 C63.408,7.396 62.868,7.192 62.328,7.192 C61.62,7.192 61.08,7.612 61.08,8.236 C61.08,8.872 61.62,9.28 62.328,9.28 Z M67.86,8.26 C68.148,8.692 68.76,9.028 69.36,9.028 C70.356,9.028 70.992,8.224 70.992,7.096 C70.992,5.98 70.356,5.176 69.36,5.176 C68.76,5.176 68.148,5.524 67.86,5.956 L67.86,8.26 Z M67.86,10 L66.6,10 L66.6,1.996 L67.86,1.996 L67.86,5.008 C68.328,4.384 69,4.06 69.72,4.06 C71.22,4.06 72.3,5.224 72.3,7.096 C72.3,9.016 71.208,10.144 69.72,10.144 C68.976,10.144 68.304,9.784 67.86,9.208 L67.86,10 Z M74.832,10 L73.572,10 L73.572,1.996 L74.832,1.996 L74.832,10 Z M79.152,10.144 C77.4,10.144 76.116,8.932 76.116,7.096 C76.116,5.416 77.34,4.06 79.056,4.06 C80.796,4.06 81.9,5.38 81.9,7.204 L81.9,7.516 L77.436,7.516 C77.532,8.38 78.18,9.112 79.272,9.112 C79.848,9.112 80.508,8.884 80.928,8.464 L81.504,9.292 C80.916,9.844 80.064,10.144 79.152,10.144 Z M80.688,6.616 C80.652,5.932 80.184,5.092 79.044,5.092 C77.976,5.092 77.472,5.92 77.424,6.616 L80.688,6.616 Z M88.872,10.144 C87.024,10.144 85.896,8.752 85.896,7.096 C85.896,5.428 87.024,4.06 88.872,4.06 C90.72,4.06 91.848,5.428 91.848,7.096 C91.848,8.752 90.72,10.144 88.872,10.144 Z M88.872,9.028 C89.952,9.028 90.54,8.128 90.54,7.096 C90.54,6.076 89.952,5.176 88.872,5.176 C87.804,5.176 87.204,6.076 87.204,7.096 C87.204,8.128 87.804,9.028 88.872,9.028 Z M98.316,10 L97.056,10 L97.056,6.376 C97.056,5.464 96.588,5.176 95.88,5.176 C95.244,5.176 94.692,5.56 94.392,5.944 L94.392,10 L93.132,10 L93.132,4.204 L94.392,4.204 L94.392,4.984 C94.776,4.528 95.532,4.06 96.444,4.06 C97.692,4.06 98.316,4.732 98.316,5.92 L98.316,10 Z M104.796,10.144 C103.812,10.144 103.308,9.616 103.308,8.644 L103.308,5.296 L102.348,5.296 L102.348,4.204 L103.308,4.204 L103.308,2.62 L104.568,2.62 L104.568,4.204 L105.744,4.204 L105.744,5.296 L104.568,5.296 L104.568,8.332 C104.568,8.728 104.76,9.028 105.12,9.028 C105.36,9.028 105.576,8.92 105.672,8.812 L105.972,9.772 C105.744,9.976 105.372,10.144 104.796,10.144 Z M112.056,10 L110.796,10 L110.796,6.352 C110.796,5.44 110.34,5.176 109.632,5.176 C108.984,5.176 108.432,5.56 108.144,5.944 L108.144,10 L106.884,10 L106.884,1.996 L108.144,1.996 L108.144,4.984 C108.528,4.528 109.272,4.06 110.184,4.06 C111.432,4.06 112.056,4.708 112.056,5.896 L112.056,10 Z M116.376,10.144 C114.624,10.144 113.34,8.932 113.34,7.096 C113.34,5.416 114.564,4.06 116.28,4.06 C118.02,4.06 119.124,5.38 119.124,7.204 L119.124,7.516 L114.66,7.516 C114.756,8.38 115.404,9.112 116.496,9.112 C117.072,9.112 117.732,8.884 118.152,8.464 L118.728,9.292 C118.14,9.844 117.288,10.144 116.376,10.144 Z M117.912,6.616 C117.876,5.932 117.408,5.092 116.268,5.092 C115.2,5.092 114.696,5.92 114.648,6.616 L117.912,6.616 Z" id="Availableonthe"></path>
                    <path d="M44.424,27.5555556 L42.163,27.5555556 L41.33,25.3625556 L36.128,25.3625556 L35.295,27.5555556 L33.034,27.5555556 L37.488,16.2165556 L39.97,16.2165556 L44.424,27.5555556 Z M40.769,23.6115556 L38.729,18.2055556 L36.689,23.6115556 L40.769,23.6115556 Z M50.017,27.7595556 C48.98,27.7595556 48.062,27.2835556 47.382,26.4165556 L47.382,30.6835556 L45.597,30.6835556 L45.597,19.3445556 L47.382,19.3445556 L47.382,20.4665556 C47.994,19.6505556 48.946,19.1405556 50.017,19.1405556 C52.142,19.1405556 53.655,20.7385556 53.655,23.4415556 C53.655,26.1445556 52.142,27.7595556 50.017,27.7595556 Z M49.49,26.1785556 C50.901,26.1785556 51.819,25.0395556 51.819,23.4415556 C51.819,21.8435556 50.901,20.7215556 49.49,20.7215556 C48.657,20.7215556 47.79,21.1975556 47.382,21.8095556 L47.382,25.0565556 C47.773,25.6685556 48.657,26.1785556 49.49,26.1785556 Z M59.86,27.7595556 C58.823,27.7595556 57.905,27.2835556 57.225,26.4165556 L57.225,30.6835556 L55.44,30.6835556 L55.44,19.3445556 L57.225,19.3445556 L57.225,20.4665556 C57.837,19.6505556 58.789,19.1405556 59.86,19.1405556 C61.985,19.1405556 63.498,20.7385556 63.498,23.4415556 C63.498,26.1445556 61.985,27.7595556 59.86,27.7595556 Z M59.333,26.1785556 C60.744,26.1785556 61.662,25.0395556 61.662,23.4415556 C61.662,21.8435556 60.744,20.7215556 59.333,20.7215556 C58.5,20.7215556 57.633,21.1975556 57.225,21.8095556 L57.225,25.0565556 C57.616,25.6685556 58.5,26.1785556 59.333,26.1785556 Z M73.613,27.7595556 C71.522,27.7595556 70.009,27.0115556 68.989,25.9575556 L70.111,24.4105556 C70.876,25.2435556 72.117,25.9915556 73.698,25.9915556 C75.33,25.9915556 75.959,25.1925556 75.959,24.4275556 C75.959,22.0475556 69.363,23.5265556 69.363,19.3615556 C69.363,17.4745556 70.995,16.0295556 73.494,16.0295556 C75.245,16.0295556 76.69,16.6075556 77.727,17.6275556 L76.605,19.1065556 C75.704,18.2055556 74.497,17.7975556 73.307,17.7975556 C72.151,17.7975556 71.403,18.3755556 71.403,19.2085556 C71.403,21.3335556 77.999,20.0245556 77.999,24.2405556 C77.999,26.1275556 76.656,27.7595556 73.613,27.7595556 Z M82.249,27.7595556 C80.855,27.7595556 80.141,27.0115556 80.141,25.6345556 L80.141,20.8915556 L78.781,20.8915556 L78.781,19.3445556 L80.141,19.3445556 L80.141,17.1005556 L81.926,17.1005556 L81.926,19.3445556 L83.592,19.3445556 L83.592,20.8915556 L81.926,20.8915556 L81.926,25.1925556 C81.926,25.7535556 82.198,26.1785556 82.708,26.1785556 C83.048,26.1785556 83.354,26.0255556 83.49,25.8725556 L83.915,27.2325556 C83.592,27.5215556 83.065,27.7595556 82.249,27.7595556 Z M88.913,27.7595556 C86.295,27.7595556 84.697,25.7875556 84.697,23.4415556 C84.697,21.0785556 86.295,19.1405556 88.913,19.1405556 C91.531,19.1405556 93.129,21.0785556 93.129,23.4415556 C93.129,25.7875556 91.531,27.7595556 88.913,27.7595556 Z M88.913,26.1785556 C90.443,26.1785556 91.276,24.9035556 91.276,23.4415556 C91.276,21.9965556 90.443,20.7215556 88.913,20.7215556 C87.4,20.7215556 86.55,21.9965556 86.55,23.4415556 C86.55,24.9035556 87.4,26.1785556 88.913,26.1785556 Z M96.733,27.5555556 L94.948,27.5555556 L94.948,19.3445556 L96.733,19.3445556 L96.733,20.5345556 C97.362,19.7525556 98.348,19.1405556 99.402,19.1405556 L99.402,20.9085556 C99.249,20.8745556 99.079,20.8575556 98.858,20.8575556 C98.093,20.8575556 97.09,21.3675556 96.733,21.9625556 L96.733,27.5555556 Z M104.655,27.7595556 C102.173,27.7595556 100.354,26.0425556 100.354,23.4415556 C100.354,21.0615556 102.088,19.1405556 104.519,19.1405556 C106.984,19.1405556 108.548,21.0105556 108.548,23.5945556 L108.548,24.0365556 L102.224,24.0365556 C102.36,25.2605556 103.278,26.2975556 104.825,26.2975556 C105.641,26.2975556 106.576,25.9745556 107.171,25.3795556 L107.987,26.5525556 C107.154,27.3345556 105.947,27.7595556 104.655,27.7595556 Z M106.831,22.7615556 C106.78,21.7925556 106.117,20.6025556 104.502,20.6025556 C102.989,20.6025556 102.275,21.7755556 102.207,22.7615556 L106.831,22.7615556 Z" id="AppStore"></path>
                    <path d="M16.8589286,13.9648148 C16.8482143,11.9259259 17.7375,10.387037 19.5375,9.2537037 C18.5303571,7.75925926 17.0089286,6.93703704 15,6.77592593 C13.0982143,6.62037037 11.0196429,7.92592593 10.2589286,7.92592593 C9.45535714,7.92592593 7.6125,6.83148148 6.16607143,6.83148148 C3.17678571,6.88148148 0,9.3037037 0,14.2314815 C0,15.687037 0.257142857,17.1925926 0.771428571,18.7425926 C1.45714286,20.7814815 3.93214286,25.7814815 6.51428571,25.6981481 C7.86428571,25.6648148 8.81785714,24.7037037 10.575,24.7037037 C12.2785714,24.7037037 13.1625,25.6981481 14.6678571,25.6981481 C17.2714286,25.6592593 19.5107143,21.1148148 20.1642857,19.0703704 C16.6714286,17.3648148 16.8589286,14.0703704 16.8589286,13.9648148 Z M13.8267857,4.84259259 C15.2892857,3.04259259 15.1553571,1.4037037 15.1125,0.814814815 C13.8214286,0.892592593 12.3267857,1.72592593 11.475,2.7537037 C10.5375,3.8537037 9.98571429,5.21481481 10.1035714,6.74814815 C11.5017857,6.85925926 12.7767857,6.11481481 13.8267857,4.84259259 Z" id="AppStore"></path>
                </g>
            </g>
        </g>
    </g>
</svg>