<?xml version="1.0" encoding="UTF-8"?>
<svg width="164px" height="56px" viewBox="0 0 164 56" version="1.1" xmlns="http://www.w3.org/2000/svg" xmlns:xlink="http://www.w3.org/1999/xlink">
    <!-- Generator: Sketch 57 (83077) - https://sketch.com -->
    <title>GooglePlay</title>
    <desc>Created with Sketch.</desc>
    <g id="Symbols" stroke="none" stroke-width="1" fill="none" fill-rule="evenodd">
        <g id="Footer" transform="translate(-1114.000000, -344.000000)" fill-rule="nonzero">
            <g id="GooglePlay" transform="translate(1114.000000, 344.000000)">
                <g id="Group-3" transform="translate(16.000000, 13.666667)" fill="#FFFFFF">
                    <path d="M39.064,9 L37.468,9 L36.88,7.452 L33.208,7.452 L32.62,9 L31.024,9 L34.168,0.996 L35.92,0.996 L39.064,9 Z M36.484,6.216 L35.044,2.4 L33.604,6.216 L36.484,6.216 Z M42.772,9 L41.416,9 L39.052,3.204 L40.408,3.204 L42.1,7.548 L43.792,3.204 L45.136,3.204 L42.772,9 Z M50.74,9 L49.48,9 L49.48,8.364 C49.048,8.868 48.364,9.144 47.596,9.144 C46.66,9.144 45.592,8.496 45.592,7.224 C45.592,5.88 46.648,5.328 47.596,5.328 C48.388,5.328 49.048,5.58 49.48,6.072 L49.48,5.208 C49.48,4.536 48.916,4.128 48.124,4.128 C47.476,4.128 46.9,4.368 46.408,4.872 L45.88,3.996 C46.552,3.348 47.392,3.06 48.316,3.06 C49.612,3.06 50.74,3.6 50.74,5.148 L50.74,9 Z M48.1,8.28 C48.64,8.28 49.18,8.076 49.48,7.68 L49.48,6.792 C49.18,6.396 48.64,6.192 48.1,6.192 C47.392,6.192 46.852,6.612 46.852,7.236 C46.852,7.872 47.392,8.28 48.1,8.28 Z M53.008,2.496 C52.576,2.496 52.228,2.148 52.228,1.716 C52.228,1.284 52.576,0.936 53.008,0.936 C53.44,0.936 53.788,1.284 53.788,1.716 C53.788,2.148 53.44,2.496 53.008,2.496 Z M53.632,9 L52.372,9 L52.372,3.204 L53.632,3.204 L53.632,9 Z M56.524,9 L55.264,9 L55.264,0.996 L56.524,0.996 L56.524,9 Z M62.968,9 L61.708,9 L61.708,8.364 C61.276,8.868 60.592,9.144 59.824,9.144 C58.888,9.144 57.82,8.496 57.82,7.224 C57.82,5.88 58.876,5.328 59.824,5.328 C60.616,5.328 61.276,5.58 61.708,6.072 L61.708,5.208 C61.708,4.536 61.144,4.128 60.352,4.128 C59.704,4.128 59.128,4.368 58.636,4.872 L58.108,3.996 C58.78,3.348 59.62,3.06 60.544,3.06 C61.84,3.06 62.968,3.6 62.968,5.148 L62.968,9 Z M60.328,8.28 C60.868,8.28 61.408,8.076 61.708,7.68 L61.708,6.792 C61.408,6.396 60.868,6.192 60.328,6.192 C59.62,6.192 59.08,6.612 59.08,7.236 C59.08,7.872 59.62,8.28 60.328,8.28 Z M65.86,7.26 C66.148,7.692 66.76,8.028 67.36,8.028 C68.356,8.028 68.992,7.224 68.992,6.096 C68.992,4.98 68.356,4.176 67.36,4.176 C66.76,4.176 66.148,4.524 65.86,4.956 L65.86,7.26 Z M65.86,9 L64.6,9 L64.6,0.996 L65.86,0.996 L65.86,4.008 C66.328,3.384 67,3.06 67.72,3.06 C69.22,3.06 70.3,4.224 70.3,6.096 C70.3,8.016 69.208,9.144 67.72,9.144 C66.976,9.144 66.304,8.784 65.86,8.208 L65.86,9 Z M72.832,9 L71.572,9 L71.572,0.996 L72.832,0.996 L72.832,9 Z M77.152,9.144 C75.4,9.144 74.116,7.932 74.116,6.096 C74.116,4.416 75.34,3.06 77.056,3.06 C78.796,3.06 79.9,4.38 79.9,6.204 L79.9,6.516 L75.436,6.516 C75.532,7.38 76.18,8.112 77.272,8.112 C77.848,8.112 78.508,7.884 78.928,7.464 L79.504,8.292 C78.916,8.844 78.064,9.144 77.152,9.144 Z M78.688,5.616 C78.652,4.932 78.184,4.092 77.044,4.092 C75.976,4.092 75.472,4.92 75.424,5.616 L78.688,5.616 Z M86.872,9.144 C85.024,9.144 83.896,7.752 83.896,6.096 C83.896,4.428 85.024,3.06 86.872,3.06 C88.72,3.06 89.848,4.428 89.848,6.096 C89.848,7.752 88.72,9.144 86.872,9.144 Z M86.872,8.028 C87.952,8.028 88.54,7.128 88.54,6.096 C88.54,5.076 87.952,4.176 86.872,4.176 C85.804,4.176 85.204,5.076 85.204,6.096 C85.204,7.128 85.804,8.028 86.872,8.028 Z M96.316,9 L95.056,9 L95.056,5.376 C95.056,4.464 94.588,4.176 93.88,4.176 C93.244,4.176 92.692,4.56 92.392,4.944 L92.392,9 L91.132,9 L91.132,3.204 L92.392,3.204 L92.392,3.984 C92.776,3.528 93.532,3.06 94.444,3.06 C95.692,3.06 96.316,3.732 96.316,4.92 L96.316,9 Z" id="Availableon"></path>
                    <path d="M37.664,26.7765556 C34.366,26.7765556 31.714,24.4475556 31.714,20.8945556 C31.714,17.3245556 34.366,15.0295556 37.664,15.0295556 C39.874,15.0295556 41.319,16.0835556 42.22,17.3755556 L40.605,18.3105556 C39.993,17.4605556 38.922,16.7975556 37.664,16.7975556 C35.42,16.7975556 33.754,18.4975556 33.754,20.8945556 C33.754,23.2575556 35.42,24.9915556 37.664,24.9915556 C38.82,24.9915556 39.84,24.4645556 40.35,23.9715556 L40.35,22.2205556 L36.95,22.2205556 L36.95,20.4695556 L42.322,20.4695556 L42.322,24.7025556 C41.217,25.9435556 39.619,26.7765556 37.664,26.7765556 Z M48.068,26.7595556 C45.45,26.7595556 43.852,24.7875556 43.852,22.4415556 C43.852,20.0785556 45.45,18.1405556 48.068,18.1405556 C50.686,18.1405556 52.284,20.0785556 52.284,22.4415556 C52.284,24.7875556 50.686,26.7595556 48.068,26.7595556 Z M48.068,25.1785556 C49.598,25.1785556 50.431,23.9035556 50.431,22.4415556 C50.431,20.9965556 49.598,19.7215556 48.068,19.7215556 C46.555,19.7215556 45.705,20.9965556 45.705,22.4415556 C45.705,23.9035556 46.555,25.1785556 48.068,25.1785556 Z M57.826,26.7595556 C55.208,26.7595556 53.61,24.7875556 53.61,22.4415556 C53.61,20.0785556 55.208,18.1405556 57.826,18.1405556 C60.444,18.1405556 62.042,20.0785556 62.042,22.4415556 C62.042,24.7875556 60.444,26.7595556 57.826,26.7595556 Z M57.826,25.1785556 C59.356,25.1785556 60.189,23.9035556 60.189,22.4415556 C60.189,20.9965556 59.356,19.7215556 57.826,19.7215556 C56.313,19.7215556 55.463,20.9965556 55.463,22.4415556 C55.463,23.9035556 56.313,25.1785556 57.826,25.1785556 Z M67.21,29.8875556 C65.816,29.8875556 64.779,29.5815556 63.759,28.6635556 L64.592,27.3715556 C65.272,28.1365556 66.122,28.4255556 67.21,28.4255556 C68.383,28.4255556 69.641,27.8815556 69.641,26.1305556 L69.641,25.1955556 C69.012,26.0285556 68.077,26.5725556 67.006,26.5725556 C64.915,26.5725556 63.368,25.0595556 63.368,22.3565556 C63.368,19.6875556 64.881,18.1405556 67.006,18.1405556 C68.043,18.1405556 68.978,18.5995556 69.641,19.4835556 L69.641,18.3445556 L71.426,18.3445556 L71.426,26.1305556 C71.426,29.0885556 69.216,29.8875556 67.21,29.8875556 Z M67.533,24.9745556 C68.366,24.9745556 69.233,24.4815556 69.641,23.8865556 L69.641,20.8095556 C69.233,20.2145556 68.366,19.7215556 67.533,19.7215556 C66.105,19.7215556 65.204,20.7755556 65.204,22.3565556 C65.204,23.9375556 66.105,24.9745556 67.533,24.9745556 Z M75.523,26.5555556 L73.738,26.5555556 L73.738,15.2165556 L75.523,15.2165556 L75.523,26.5555556 Z M81.643,26.7595556 C79.161,26.7595556 77.342,25.0425556 77.342,22.4415556 C77.342,20.0615556 79.076,18.1405556 81.507,18.1405556 C83.972,18.1405556 85.536,20.0105556 85.536,22.5945556 L85.536,23.0365556 L79.212,23.0365556 C79.348,24.2605556 80.266,25.2975556 81.813,25.2975556 C82.629,25.2975556 83.564,24.9745556 84.159,24.3795556 L84.975,25.5525556 C84.142,26.3345556 82.935,26.7595556 81.643,26.7595556 Z M83.819,21.7615556 C83.768,20.7925556 83.105,19.6025556 81.49,19.6025556 C79.977,19.6025556 79.263,20.7755556 79.195,21.7615556 L83.819,21.7615556 Z M93.73,26.5555556 L91.741,26.5555556 L91.741,15.2165556 L96.739,15.2165556 C99.119,15.2165556 100.428,16.8315556 100.428,18.7695556 C100.428,20.6905556 99.102,22.3055556 96.739,22.3055556 L93.73,22.3055556 L93.73,26.5555556 Z M96.467,20.5545556 C97.589,20.5545556 98.388,19.8405556 98.388,18.7695556 C98.388,17.6815556 97.589,16.9675556 96.467,16.9675556 L93.73,16.9675556 L93.73,20.5545556 L96.467,20.5545556 Z M103.828,26.5555556 L102.043,26.5555556 L102.043,15.2165556 L103.828,15.2165556 L103.828,26.5555556 Z M112.957,26.5555556 L111.172,26.5555556 L111.172,25.6545556 C110.56,26.3685556 109.591,26.7595556 108.503,26.7595556 C107.177,26.7595556 105.664,25.8415556 105.664,24.0395556 C105.664,22.1355556 107.16,21.3535556 108.503,21.3535556 C109.625,21.3535556 110.56,21.7105556 111.172,22.4075556 L111.172,21.1835556 C111.172,20.2315556 110.373,19.6535556 109.251,19.6535556 C108.333,19.6535556 107.517,19.9935556 106.82,20.7075556 L106.072,19.4665556 C107.024,18.5485556 108.214,18.1405556 109.523,18.1405556 C111.359,18.1405556 112.957,18.9055556 112.957,21.0985556 L112.957,26.5555556 Z M109.217,25.5355556 C109.982,25.5355556 110.747,25.2465556 111.172,24.6855556 L111.172,23.4275556 C110.747,22.8665556 109.982,22.5775556 109.217,22.5775556 C108.214,22.5775556 107.449,23.1725556 107.449,24.0565556 C107.449,24.9575556 108.214,25.5355556 109.217,25.5355556 Z M114.929,29.7685556 L115.184,28.1705556 C115.371,28.2555556 115.66,28.3065556 115.864,28.3065556 C116.442,28.3065556 116.816,28.1365556 117.054,27.5925556 L117.462,26.6575556 L114.079,18.3445556 L116,18.3445556 L118.397,24.4985556 L120.794,18.3445556 L122.698,18.3445556 L118.737,28.0345556 C118.176,29.4285556 117.207,29.8705556 115.932,29.8875556 C115.677,29.8875556 115.167,29.8365556 114.929,29.7685556 Z" id="GooglePlay"></path>
                    <path d="M14.0806368,12.2436601 L3.72198167,1.48391975 L16.9014577,9.32156165 L14.0806368,12.2436601 L14.0806368,12.2436601 Z M1.0184994,0.851851852 C0.408338468,1.18247198 0,1.78536751 0,2.56815929 L0,24.0244333 C0,24.8072251 0.408338468,25.4101206 1.0184994,25.7407407 L13.0621374,13.2938653 L1.0184994,0.851851852 Z M20.9754553,11.8206609 L18.210957,10.1626982 L15.1272975,13.2987273 L18.210957,16.4347565 L21.0317779,14.7767938 C21.8766161,14.0815191 21.8766161,12.5159355 20.9754553,11.8206609 L20.9754553,11.8206609 Z M3.72198167,25.1135349 L16.9014577,17.275893 L14.0806368,14.3537945 L3.72198167,25.1135349 Z" id="Shape"></path>
                </g>
                <rect id="Rectangle" stroke="#FFFFFF" x="0.5" y="0.5" width="163" height="55" rx="4"></rect>
            </g>
        </g>
    </g>
</svg>