<svg width="661" height="518" viewBox="0 0 661 518" fill="none" 
    xmlns="http://www.w3.org/2000/svg">
    <g filter="url(#filter0_d)">
        <rect width="185.851" height="415.932" rx="36.45" transform="matrix(0.948261 0.317492 -0.320538 0.947236 470.298 18.357)" fill="#020207"/>
    </g>
    <g filter="url(#filter1_d)">
        <path d="M466.585 46.9784C469.772 37.5618 479.997 32.4868 489.423 35.643L617.809 78.6285C627.236 81.7847 632.294 91.977 629.108 101.394L513.64 442.617C510.454 452.033 500.229 457.108 490.802 453.952L362.417 410.967C352.99 407.81 347.931 397.618 351.118 388.201L466.585 46.9784Z" fill="#1F28CF"/>
    </g>
    <g filter="url(#filter2_d)">
        <rect width="190.873" height="410.841" rx="36.45" transform="matrix(-0.936689 0.350163 0.353172 0.935559 212.431 19.4397)" fill="#AE0606"/>
    </g>
    <path fill-rule="evenodd" clip-rule="evenodd" d="M184.928 39.0716C197.499 34.3723 211.532 40.741 216.271 53.2967L337.827 375.299C342.567 387.855 336.218 401.843 323.647 406.542L206.57 450.31C193.999 455.009 179.966 448.64 175.226 436.085L53.6705 114.082C48.9307 101.526 55.2791 87.5383 67.8499 82.8389L184.928 39.0716ZM82.4973 77.8108L82.3493 77.4186L169.937 44.6756L170.085 45.0678C172.771 52.1827 169.173 60.1092 162.05 62.7722L100.259 85.8717C93.1352 88.5347 85.1832 84.9257 82.4973 77.8108Z" fill="#1F28CF"/>
    <rect x="590.236" y="81" width="27.8863" height="10.2705" rx="5.13527" transform="rotate(18.3629 590.236 81)" fill="#C4C4C4"/>
    <g filter="url(#filter3_d)">
        <line x1="356.828" y1="380.893" x2="470.334" y2="46.6346" stroke="white" stroke-opacity="0.03"/>
    </g>
    <rect x="106.953" y="73.7011" width="34" height="1.18812" rx="0.5" transform="rotate(-21.7048 106.953 73.7011)" fill="#201D9D"/>
    <circle cx="607" cy="92" r="3" fill="#0C0528"/>
    <circle cx="597" cy="89" r="2" fill="#0C0528"/>
    <defs>
        <filter id="filter0_d" x="302.729" y="16.0318" width="358.053" height="501.643" filterUnits="userSpaceOnUse" color-interpolation-filters="sRGB">
            <feFlood flood-opacity="0" result="BackgroundImageFix"/>
            <feColorMatrix in="SourceAlpha" type="matrix" values="0 0 0 0 0 0 0 0 0 0 0 0 0 0 0 0 0 0 127 0"/>
            <feOffset dx="-10" dy="22"/>
            <feGaussianBlur stdDeviation="17"/>
            <feColorMatrix type="matrix" values="0 0 0 0 0 0 0 0 0 0 0 0 0 0 0 0 0 0 0.1 0"/>
            <feBlend mode="normal" in2="BackgroundImageFix" result="effect1_dropShadow"/>
            <feBlend mode="normal" in="SourceGraphic" in2="effect1_dropShadow" result="shape"/>
        </filter>
        <filter id="filter1_d" x="330.164" y="18.7059" width="319.898" height="460.183" filterUnits="userSpaceOnUse" color-interpolation-filters="sRGB">
            <feFlood flood-opacity="0" result="BackgroundImageFix"/>
            <feColorMatrix in="SourceAlpha" type="matrix" values="0 0 0 0 0 0 0 0 0 0 0 0 0 0 0 0 0 0 127 0"/>
            <feOffset dy="4"/>
            <feGaussianBlur stdDeviation="10"/>
            <feColorMatrix type="matrix" values="0 0 0 0 0 0 0 0 0 0 0 0 0 0 0 0 0 0 0.75 0"/>
            <feBlend mode="normal" in2="BackgroundImageFix" result="effect1_dropShadow"/>
            <feBlend mode="normal" in="SourceGraphic" in2="effect1_dropShadow" result="shape"/>
        </filter>
        <filter id="filter2_d" x="0.15976" y="17.883" width="370.852" height="498.316" filterUnits="userSpaceOnUse" color-interpolation-filters="sRGB">
            <feFlood flood-opacity="0" result="BackgroundImageFix"/>
            <feColorMatrix in="SourceAlpha" type="matrix" values="0 0 0 0 0 0 0 0 0 0 0 0 0 0 0 0 0 0 127 0"/>
            <feOffset dx="-10" dy="22"/>
            <feGaussianBlur stdDeviation="17"/>
            <feColorMatrix type="matrix" values="0 0 0 0 0 0 0 0 0 0 0 0 0 0 0 0 0 0 0.1 0"/>
            <feBlend mode="normal" in2="BackgroundImageFix" result="effect1_dropShadow"/>
            <feBlend mode="normal" in="SourceGraphic" in2="effect1_dropShadow" result="shape"/>
        </filter>
        <filter id="filter3_d" x="306.355" y="0.473801" width="214.452" height="434.58" filterUnits="userSpaceOnUse" color-interpolation-filters="sRGB">
            <feFlood flood-opacity="0" result="BackgroundImageFix"/>
            <feColorMatrix in="SourceAlpha" type="matrix" values="0 0 0 0 0 0 0 0 0 0 0 0 0 0 0 0 0 0 127 0"/>
            <feOffset dy="4"/>
            <feGaussianBlur stdDeviation="25"/>
            <feColorMatrix type="matrix" values="0 0 0 0 0 0 0 0 0 0 0 0 0 0 0 0 0 0 0.7 0"/>
            <feBlend mode="normal" in2="BackgroundImageFix" result="effect1_dropShadow"/>
            <feBlend mode="normal" in="SourceGraphic" in2="effect1_dropShadow" result="shape"/>
        </filter>
    </defs>
</svg>
