<svg width="3072" height="1847" viewBox="0 0 3072 1847" fill="none" xmlns="http://www.w3.org/2000/svg">
<rect width="3072" height="1847" fill="#E5E5E5"/>
<path fill-rule="evenodd" clip-rule="evenodd" d="M970.877 825.819C986.179 825.819 998.585 814.396 998.585 800.306C998.585 786.215 986.179 774.792 970.877 774.792C955.575 774.792 943.17 786.215 943.17 800.306C943.17 814.396 955.575 825.819 970.877 825.819Z" fill="#DDE3E9"/>
<rect x="927.584" y="832.198" width="86.5858" height="9.56752" rx="4.78376" fill="#DDE3E9"/>
<rect x="941.438" y="848.143" width="58.8783" height="9.56752" rx="4.78376" fill="#DDE3E9"/>
<rect width="728.424" height="363.122" transform="translate(0.708984 1011.65)" fill="#163038" fill-opacity="0.1"/>
<path fill-rule="evenodd" clip-rule="evenodd" d="M729.066 1011.65H0.708984V1088.39H0.792187V1374.77H69.5674V1088.39H658.103V1374.77H729.133V1011.72H729.066V1011.65Z" fill="#155896"/>
<rect x="971" y="101" width="201.093" height="209.913" rx="100.547" fill="#2F3676" stroke="#F2994A" stroke-width="8.81989"/>
<circle cx="1071.55" cy="205.075" r="5.29193" fill="white"/>
<circle cx="990.404" cy="208.603" r="3.52796" fill="white"/>
<circle cx="1069.78" cy="115.112" r="3.52796" fill="white"/>
<circle cx="1075.15" cy="287.705" r="3.24344" fill="white"/>
<circle cx="1156.61" cy="206.239" r="3.24344" fill="white"/>
<circle cx="1068.64" cy="209.94" r="3.52796" fill="white"/>
<path d="M1090.4 182.299L1089.4 181.431L1089.39 181.443L1089.38 181.455L1090.4 182.299ZM1109.36 161.921C1109.31 161.192 1108.68 160.643 1107.95 160.693L1096.07 161.522C1095.34 161.573 1094.79 162.205 1094.84 162.934C1094.89 163.663 1095.52 164.212 1096.25 164.162L1106.81 163.425L1107.55 173.983C1107.6 174.712 1108.23 175.262 1108.96 175.211C1109.69 175.16 1110.24 174.528 1110.19 173.799L1109.36 161.921ZM1070.25 208.72L1091.42 183.142L1089.38 181.455L1068.21 207.033L1070.25 208.72ZM1091.4 183.167L1109.04 162.881L1107.04 161.145L1089.4 181.431L1091.4 183.167Z" fill="white"/>
<path d="M825.245 311.886C825.637 311.751 825.844 311.323 825.709 310.932L823.501 304.553C823.365 304.162 822.938 303.954 822.547 304.09C822.155 304.225 821.948 304.653 822.083 305.044L824.046 310.714L818.376 312.677C817.985 312.812 817.777 313.239 817.913 313.631C818.048 314.022 818.475 314.23 818.867 314.094L825.245 311.886ZM789.672 294.852L824.672 311.852L825.328 310.503L790.328 293.503L789.672 294.852Z" fill="white"/>
<rect x="536.024" y="960.989" width="43.8109" height="31.4891" fill="#9AEE58"/>
<path fill-rule="evenodd" clip-rule="evenodd" d="M756.43 1261.48C825.18 1103.73 1408.84 1234 1798.64 1209.14C2188.43 1184.27 2660.84 981.373 2956.12 1114.93C3251.4 1248.49 2911.5 1502.98 2213.28 1520.1C1515.06 1537.21 687.681 1419.23 756.43 1261.48Z" fill="#F2F2F2"/>
<g filter="url(#filter0_d)">
<path d="M1327.19 84.1851H2708.57V921.657C2708.57 926.038 2708.57 928.228 2707.72 929.901C2706.97 931.373 2705.77 932.57 2704.3 933.32C2702.63 934.172 2700.44 934.172 2696.06 934.172H1339.71C1335.32 934.172 1333.13 934.172 1331.46 933.32C1329.99 932.57 1328.79 931.373 1328.04 929.901C1327.19 928.228 1327.19 926.038 1327.19 921.657V84.1851Z" fill="#2F3235"/>
<path d="M1328.27 49.337C1328.27 45.8324 1328.27 44.08 1328.95 42.7415C1329.55 41.564 1330.51 40.6067 1331.69 40.0068C1333.02 39.3247 1334.78 39.3247 1338.28 39.3247H2698.56C2702.06 39.3247 2703.82 39.3247 2705.15 40.0068C2706.33 40.6067 2707.29 41.564 2707.89 42.7415C2708.57 44.08 2708.57 45.8324 2708.57 49.337V83.0046H1328.27V49.337Z" fill="url(#paint0_linear)"/>
<rect opacity="0.95" x="1328.27" y="83.0047" width="1379.22" height="1.18054" fill="black"/>
<rect opacity="0.9" x="2681.59" y="53.4913" width="25.9009" height="29.5134" fill="url(#paint1_linear)"/>
<path d="M2681.59 53.4913V83.0047H2682.67V54.6718H2707.49V53.4913H2681.59Z" fill="#56585A"/>
<rect x="2694.54" y="62.9355" width="1.08043" height="12.9859" fill="#929393"/>
<rect x="2689.15" y="70.0187" width="1.18054" height="11.8713" transform="rotate(-90 2689.15 70.0187)" fill="#929393"/>
<g filter="url(#filter1_i)">
<rect x="2633.03" y="48.769" width="39.9306" height="25.9718" rx="4.69326" fill="url(#paint2_linear)"/>
</g>
<rect x="2647.84" y="58.9957" width="8.14842" height="9.06042" rx="0.782209" stroke="#E9E9EA" stroke-width="1.56442"/>
<mask id="path-25-inside-1" fill="white">
<path d="M2657.5 54.6718H2652.66C2651.91 54.6718 2651.54 54.6718 2651.25 54.7952C2650.87 54.9537 2650.58 55.2521 2650.42 55.627C2650.29 55.9191 2650.29 56.2903 2650.29 57.0328H2651.37V55.8523H2658.93V64.1161H2657.85V65.2966C2658.4 65.2966 2658.68 65.2966 2658.9 65.2275C2659.4 65.0752 2659.79 64.6873 2659.94 64.1918C2660.01 63.9672 2660.01 63.6908 2660.01 63.1382V57.1748C2660.01 56.2987 2660.01 55.8606 2659.84 55.5259C2659.69 55.2316 2659.45 54.9923 2659.15 54.8423C2658.82 54.6718 2658.38 54.6718 2657.5 54.6718Z"/>
</mask>
<path d="M2657.85 65.2966H2656.28V66.861H2657.85V65.2966ZM2657.85 64.1161V62.5516H2656.28V64.1161H2657.85ZM2658.93 64.1161V65.6805H2660.49V64.1161H2658.93ZM2658.93 55.8523H2660.49V54.2879H2658.93V55.8523ZM2651.37 55.8523V54.2879H2649.81V55.8523H2651.37ZM2651.37 57.0328V58.5972H2652.94V57.0328H2651.37ZM2650.29 57.0328H2648.73V58.5972H2650.29V57.0328ZM2659.94 64.1918L2661.43 64.6514L2661.43 64.6514L2659.94 64.1918ZM2658.9 65.2275L2658.44 63.7322L2658.44 63.7322L2658.9 65.2275ZM2659.15 54.8423L2658.44 56.2362L2658.44 56.2362L2659.15 54.8423ZM2659.84 55.5259L2661.23 54.8157L2661.23 54.8157L2659.84 55.5259ZM2650.42 55.627L2648.98 55.0179L2648.98 55.0179L2650.42 55.627ZM2651.25 54.7952L2650.64 53.3543L2650.64 53.3543L2651.25 54.7952ZM2652.66 56.2362H2657.5V53.1073H2652.66V56.2362ZM2658.44 57.1748V63.1382H2661.57V57.1748H2658.44ZM2659.41 65.2966V64.1161H2656.28V65.2966H2659.41ZM2657.85 65.6805H2658.93V62.5516H2657.85V65.6805ZM2660.49 64.1161V55.8523H2657.36V64.1161H2660.49ZM2658.93 54.2879H2651.37V57.4167H2658.93V54.2879ZM2649.81 55.8523V57.0328H2652.94V55.8523H2649.81ZM2651.37 55.4684H2650.29V58.5972H2651.37V55.4684ZM2658.44 63.1382C2658.44 63.4307 2658.44 63.5906 2658.44 63.7069C2658.43 63.8133 2658.42 63.7946 2658.44 63.7322L2661.43 64.6514C2661.59 64.1456 2661.57 63.5755 2661.57 63.1382H2658.44ZM2657.85 66.861C2658.29 66.861 2658.86 66.8784 2659.36 66.7229L2658.44 63.7322C2658.51 63.713 2658.52 63.7201 2658.42 63.7256C2658.3 63.7317 2658.14 63.7322 2657.85 63.7322V66.861ZM2658.44 63.7322L2658.44 63.7322L2659.36 66.7229C2660.35 66.4183 2661.13 65.6425 2661.43 64.6514L2658.44 63.7322ZM2657.5 56.2362C2657.97 56.2362 2658.22 56.2374 2658.4 56.2523C2658.57 56.2657 2658.53 56.282 2658.44 56.2362L2659.86 53.4484C2659.44 53.232 2659.02 53.1631 2658.66 53.1338C2658.32 53.1061 2657.92 53.1073 2657.5 53.1073V56.2362ZM2661.57 57.1748C2661.57 56.7626 2661.57 56.3593 2661.55 56.0199C2661.52 55.6623 2661.45 55.2403 2661.23 54.8157L2658.44 56.2362C2658.4 56.1462 2658.41 56.1106 2658.43 56.2747C2658.44 56.4571 2658.44 56.7109 2658.44 57.1748H2661.57ZM2658.44 56.2362L2658.44 56.2362L2661.23 54.8157C2660.93 54.227 2660.45 53.7483 2659.86 53.4484L2658.44 56.2362ZM2651.86 57.0328C2651.86 56.6398 2651.86 56.4248 2651.87 56.2694C2651.88 56.1285 2651.89 56.1564 2651.86 56.2362L2648.98 55.0179C2648.82 55.3897 2648.77 55.7492 2648.75 56.0526C2648.73 56.3415 2648.73 56.6834 2648.73 57.0328H2651.86ZM2652.66 53.1073C2652.31 53.1073 2651.96 53.1065 2651.68 53.1265C2651.37 53.1476 2651.01 53.1971 2650.64 53.3543L2651.86 56.2362C2651.78 56.2699 2651.75 56.2576 2651.89 56.2478C2652.05 56.2371 2652.26 56.2362 2652.66 56.2362V53.1073ZM2651.86 56.2362L2651.86 56.2362L2650.64 53.3543C2649.89 53.6713 2649.29 54.268 2648.98 55.0179L2651.86 56.2362Z" fill="#E9E9EA" mask="url(#path-25-inside-1)"/>
<g filter="url(#filter2_i)">
<rect x="2584.46" y="48.769" width="39.9306" height="25.9718" rx="4.69326" fill="url(#paint3_linear)"/>
</g>
<path d="M2599.57 68.8383H2609.28C2609.29 68.8383 2609.28 59.392 2609.28 59.392L2606.05 59.394V58.2135H2609.27C2609.89 58.2135 2610.36 58.7396 2610.36 59.3886V68.8438C2610.36 69.4809 2609.88 70.0189 2609.29 70.0189H2599.57C2598.97 70.0189 2598.49 69.4928 2598.49 68.8438V59.3886C2598.49 58.7514 2598.98 58.2135 2599.58 58.2135H2602.81V59.394H2599.58C2599.58 59.394 2599.57 68.8383 2599.57 68.8383Z" fill="#8B8D8F"/>
<path d="M2604.41 53.8966L2601.67 56.9323C2601.47 57.1513 2601.15 57.1513 2600.95 56.9323C2600.76 56.7133 2600.76 56.3583 2600.95 56.1394L2604.05 52.7072C2604.25 52.4882 2604.57 52.4882 2604.77 52.7072L2607.87 56.1394C2608.07 56.3583 2608.07 56.7133 2607.87 56.9323C2607.67 57.1513 2607.35 57.1513 2607.15 56.9323L2604.41 53.8966Z" fill="#8B8D8F"/>
<path d="M2603.89 53.4913H2604.97V64.1161H2603.89V53.4913Z" fill="#8B8D8F"/>
<g filter="url(#filter3_i)">
<rect x="1700.59" y="48.769" width="636.731" height="25.9718" rx="6.25768" fill="url(#paint4_linear)"/>
</g>
<path d="M2323.84 55.8523V57.0328C2321.15 57.0328 2318.98 59.4113 2318.98 62.3453C2318.98 65.2792 2321.15 67.6577 2323.84 67.6577C2326.52 67.6577 2328.69 65.2792 2328.69 62.3453H2329.77C2329.77 65.9312 2327.11 68.8382 2323.84 68.8382C2320.56 68.8382 2317.9 65.9312 2317.9 62.3453C2317.9 58.7593 2320.56 55.8523 2323.84 55.8523Z" fill="#DADADA"/>
<path d="M2327.61 56.4426L2323.3 59.394V53.4913L2327.61 56.4426Z" fill="#DADADA"/>
<g filter="url(#filter4_i)">
<rect x="1477.2" y="48.769" width="39.9306" height="25.9718" rx="4.69326" fill="url(#paint5_linear)"/>
</g>
<path fill-rule="evenodd" clip-rule="evenodd" d="M1491.23 58.2134V57.0328H1493.4V58.2134H1491.23ZM1491.23 60.5744V59.3939H1493.44V60.5744H1491.23ZM1491.23 61.7549V62.9354H1493.44V61.7549H1491.23Z" fill="#BBBEC0"/>
<path fill-rule="evenodd" clip-rule="evenodd" d="M1495.55 54.6718H1494.47V54.6718H1490.16C1489.56 54.6718 1489.07 55.2098 1489.07 55.8552V67.6548C1489.07 68.3084 1489.55 68.8382 1490.16 68.8382H1504.17C1504.77 68.8382 1505.26 68.3002 1505.26 67.6548V55.8552C1505.26 55.2016 1504.77 54.6718 1504.17 54.6718H1495.55V54.6718ZM1494.47 55.8528C1492.06 55.8525 1490.16 55.8523 1490.16 55.8523C1490.16 55.8523 1490.15 67.6547 1490.15 67.6547C1490.15 67.6553 1492.06 67.6559 1494.47 67.6563V55.8528ZM1495.55 67.6565V55.8529C1499.5 55.8535 1504.18 55.8543 1504.18 55.8552C1504.18 55.8552 1504.17 67.6577 1504.17 67.6577C1504.17 67.6577 1499.5 67.6572 1495.55 67.6565Z" fill="#E9E9EA"/>
<path fill-rule="evenodd" clip-rule="evenodd" d="M1390.86 68.8382C1394.44 68.8382 1397.34 65.6669 1397.34 61.755C1397.34 57.843 1394.44 54.6718 1390.86 54.6718C1387.29 54.6718 1384.39 57.843 1384.39 61.755C1384.39 65.6669 1387.29 68.8382 1390.86 68.8382Z" fill="#53C22B"/>
<path fill-rule="evenodd" clip-rule="evenodd" d="M1369.28 68.8382C1372.85 68.8382 1375.75 65.6669 1375.75 61.755C1375.75 57.843 1372.85 54.6718 1369.28 54.6718C1365.7 54.6718 1362.8 57.843 1362.8 61.755C1362.8 65.6669 1365.7 68.8382 1369.28 68.8382Z" fill="#E6C02A"/>
<path fill-rule="evenodd" clip-rule="evenodd" d="M1347.69 68.8382C1351.27 68.8382 1354.17 65.6669 1354.17 61.755C1354.17 57.843 1351.27 54.6718 1347.69 54.6718C1344.12 54.6718 1341.22 57.843 1341.22 61.755C1341.22 65.6669 1344.12 68.8382 1347.69 68.8382Z" fill="#FF5A52"/>
<g filter="url(#filter5_i)">
<rect x="1439.43" y="48.769" width="26.9801" height="25.9718" rx="4.69326" fill="url(#paint6_linear)"/>
</g>
<path d="M1449.74 66.5304C1449.4 66.9284 1449.4 67.5203 1449.74 67.9184V67.9184C1450.16 68.4041 1450.92 68.4041 1451.34 67.9184L1456.65 61.808C1456.67 61.7776 1456.67 61.7324 1456.65 61.7019L1451.34 55.5916C1450.92 55.1058 1450.16 55.1058 1449.74 55.5916V55.5916C1449.4 55.9896 1449.4 56.5815 1449.74 56.9796L1453.89 61.755L1449.74 66.5304Z" fill="#75787A"/>
<g filter="url(#filter6_i)">
<path d="M1411.37 56.2783C1411.37 53.6498 1411.37 52.3355 1411.88 51.3316C1412.33 50.4485 1413.05 49.7305 1413.93 49.2806C1414.93 48.769 1416.25 48.769 1418.88 48.769H1430.84C1433.47 48.769 1434.78 48.769 1435.79 49.2806C1436.67 49.7305 1437.39 50.4485 1437.84 51.3316C1438.35 52.3355 1438.35 53.6498 1438.35 56.2783V67.2317C1438.35 69.8601 1438.35 71.1744 1437.84 72.1783C1437.39 73.0614 1436.67 73.7794 1435.79 74.2293C1434.78 74.7409 1433.47 74.7409 1430.84 74.7409H1418.88C1416.25 74.7409 1414.93 74.7409 1413.93 74.2293C1413.05 73.7794 1412.33 73.0614 1411.88 72.1783C1411.37 71.1744 1411.37 69.8601 1411.37 67.2317V56.2783Z" fill="url(#paint7_linear)"/>
</g>
<path d="M1428.03 66.5304C1428.38 66.9284 1428.38 67.5203 1428.03 67.9184V67.9184C1427.61 68.4041 1426.86 68.4041 1426.43 67.9184L1421.13 61.808C1421.1 61.7776 1421.1 61.7324 1421.13 61.7019L1426.43 55.5916C1426.86 55.1058 1427.61 55.1058 1428.03 55.5916V55.5916C1428.38 55.9896 1428.38 56.5815 1428.03 56.9796L1423.88 61.755L1428.03 66.5304Z" fill="#E9E9EA"/>
<rect x="1326.41" y="38.5425" width="1382.95" height="896.412" rx="8.6043" stroke="url(#paint8_linear)" stroke-width="1.56442"/>
<rect x="1327.97" y="40.1069" width="1379.82" height="893.283" rx="7.03988" stroke="url(#paint9_linear)" stroke-width="1.56442"/>
<rect x="1327.19" y="83.0047" width="1.08043" height="1.18054" fill="#333333"/>
<rect x="2707.49" y="83.0047" width="1.08043" height="1.18054" fill="#333333"/>
<rect x="2707.49" y="53.4913" width="1.08043" height="1.18054" fill="#757779"/>
<rect x="2707.49" y="54.6718" width="1.08043" height="28.3329" fill="url(#paint10_linear)"/>
</g>
<path d="M1937.71 53.9293L1942.08 64.8191L1946.44 53.9293H1948.72V67.2758H1946.96V62.0783L1947.13 56.4684L1942.74 67.2758H1941.4L1937.02 56.4959L1937.2 62.0783V67.2758H1935.44V53.9293H1937.71ZM1954.49 64.7916L1956.8 57.3576H1958.62L1954.63 68.8066C1954.02 70.4565 1953.03 71.2815 1951.69 71.2815L1951.37 71.254L1950.74 71.1349V69.7599L1951.19 69.7965C1951.77 69.7965 1952.22 69.6804 1952.53 69.4482C1952.86 69.216 1953.12 68.7913 1953.33 68.1741L1953.71 67.1658L1950.17 57.3576H1952.02L1954.49 64.7916ZM1966.2 62.0508V67.2758H1964.44V53.9293H1969.36C1970.82 53.9293 1971.96 54.3021 1972.79 55.0476C1973.62 55.7932 1974.04 56.7801 1974.04 58.0084C1974.04 59.3039 1973.63 60.3031 1972.82 61.0059C1972.01 61.7025 1970.85 62.0508 1969.34 62.0508H1966.2ZM1966.2 60.6117H1969.36C1970.3 60.6117 1971.02 60.3917 1971.52 59.9517C1972.02 59.5056 1972.28 58.864 1972.28 58.0267C1972.28 57.2323 1972.02 56.5968 1971.52 56.1201C1971.02 55.6434 1970.34 55.396 1969.46 55.3776H1966.2V60.6117ZM1980.5 58.8792C1980.24 58.8365 1979.96 58.8151 1979.66 58.8151C1978.55 58.8151 1977.8 59.2887 1977.4 60.2359V67.2758H1975.7V57.3576H1977.35L1977.38 58.5034C1977.94 57.6173 1978.72 57.1743 1979.74 57.1743C1980.07 57.1743 1980.33 57.217 1980.5 57.3026V58.8792ZM1985.68 67.4591C1984.34 67.4591 1983.25 67.0191 1982.4 66.1391C1981.56 65.253 1981.14 64.0705 1981.14 62.5917V62.28C1981.14 61.2961 1981.32 60.4192 1981.7 59.6492C1982.07 58.8731 1982.6 58.2681 1983.27 57.8342C1983.95 57.3943 1984.68 57.1743 1985.47 57.1743C1986.76 57.1743 1987.76 57.599 1988.48 58.4484C1989.19 59.2978 1989.55 60.5139 1989.55 62.0967V62.8025H1982.83C1982.86 63.7803 1983.14 64.5716 1983.69 65.1766C1984.24 65.7755 1984.93 66.0749 1985.78 66.0749C1986.37 66.0749 1986.88 65.9527 1987.3 65.7083C1987.71 65.4638 1988.08 65.14 1988.39 64.7366L1989.42 65.5433C1988.59 66.8205 1987.35 67.4591 1985.68 67.4591ZM1985.47 58.5676C1984.79 58.5676 1984.21 58.8181 1983.75 59.3192C1983.28 59.8142 1983 60.5109 1982.89 61.4092H1987.86V61.2809C1987.81 60.4192 1987.57 59.7531 1987.16 59.2826C1986.74 58.8059 1986.18 58.5676 1985.47 58.5676ZM1996.98 64.645C1996.98 64.1866 1996.81 63.8322 1996.46 63.5817C1996.12 63.325 1995.52 63.105 1994.66 62.9217C1993.8 62.7383 1993.12 62.5183 1992.61 62.2617C1992.11 62.005 1991.74 61.6995 1991.49 61.345C1991.26 60.9906 1991.14 60.5689 1991.14 60.08C1991.14 59.2673 1991.48 58.5798 1992.16 58.0176C1992.85 57.4554 1993.73 57.1743 1994.8 57.1743C1995.93 57.1743 1996.84 57.4645 1997.53 58.0451C1998.24 58.6256 1998.59 59.3681 1998.59 60.2725H1996.88C1996.88 59.8081 1996.69 59.4078 1996.29 59.0717C1995.9 58.7356 1995.4 58.5676 1994.8 58.5676C1994.19 58.5676 1993.7 58.702 1993.35 58.9709C1993.01 59.2398 1992.83 59.5912 1992.83 60.025C1992.83 60.4345 1992.99 60.7431 1993.32 60.9509C1993.64 61.1586 1994.23 61.3572 1995.07 61.5467C1995.92 61.7361 1996.61 61.9622 1997.13 62.225C1997.66 62.4878 1998.04 62.8056 1998.3 63.1783C1998.55 63.545 1998.68 63.9941 1998.68 64.5258C1998.68 65.4119 1998.33 66.1238 1997.62 66.6616C1996.91 67.1933 1995.99 67.4591 1994.86 67.4591C1994.06 67.4591 1993.36 67.3185 1992.75 67.0374C1992.14 66.7563 1991.66 66.3652 1991.31 65.8641C1990.97 65.3569 1990.8 64.81 1990.8 64.2233H1992.49C1992.52 64.7916 1992.75 65.2438 1993.17 65.58C1993.6 65.9099 1994.16 66.0749 1994.86 66.0749C1995.5 66.0749 1996.01 65.9466 1996.4 65.6899C1996.79 65.4272 1996.98 65.0788 1996.98 64.645ZM2004.69 67.4591C2003.35 67.4591 2002.25 67.0191 2001.41 66.1391C2000.57 65.253 2000.15 64.0705 2000.15 62.5917V62.28C2000.15 61.2961 2000.33 60.4192 2000.71 59.6492C2001.08 58.8731 2001.61 58.2681 2002.28 57.8342C2002.96 57.3943 2003.69 57.1743 2004.48 57.1743C2005.77 57.1743 2006.77 57.599 2007.49 58.4484C2008.2 59.2978 2008.56 60.5139 2008.56 62.0967V62.8025H2001.84C2001.87 63.7803 2002.15 64.5716 2002.69 65.1766C2003.24 65.7755 2003.94 66.0749 2004.78 66.0749C2005.38 66.0749 2005.89 65.9527 2006.31 65.7083C2006.72 65.4638 2007.08 65.14 2007.4 64.7366L2008.43 65.5433C2007.6 66.8205 2006.35 67.4591 2004.69 67.4591ZM2004.48 58.5676C2003.8 58.5676 2003.22 58.8181 2002.76 59.3192C2002.29 59.8142 2002.01 60.5109 2001.9 61.4092H2006.86V61.2809C2006.82 60.4192 2006.58 59.7531 2006.17 59.2826C2005.75 58.8059 2005.19 58.5676 2004.48 58.5676ZM2011.82 57.3576L2011.88 58.6042C2012.64 57.6509 2013.63 57.1743 2014.85 57.1743C2016.94 57.1743 2018 58.3567 2018.02 60.7217V67.2758H2016.32V60.7125C2016.32 59.9975 2016.15 59.4689 2015.83 59.1267C2015.51 58.7845 2015.01 58.6134 2014.33 58.6134C2013.78 58.6134 2013.3 58.7601 2012.89 59.0534C2012.47 59.3467 2012.15 59.7317 2011.91 60.2084V67.2758H2010.22V57.3576H2011.82ZM2022.56 54.956V57.3576H2024.42V58.6684H2022.56V64.8191C2022.56 65.2163 2022.65 65.5158 2022.81 65.7174C2022.98 65.913 2023.26 66.0108 2023.66 66.0108C2023.85 66.0108 2024.12 65.9741 2024.46 65.9008V67.2758C2024.02 67.398 2023.58 67.4591 2023.16 67.4591C2022.4 67.4591 2021.83 67.2299 2021.45 66.7716C2021.06 66.3133 2020.87 65.6624 2020.87 64.8191V58.6684H2019.06V57.3576H2020.87V54.956H2022.56ZM2032.22 67.2758C2032.12 67.0802 2032.04 66.7319 2031.98 66.2308C2031.19 67.0496 2030.25 67.4591 2029.15 67.4591C2028.18 67.4591 2027.37 67.1841 2026.74 66.6341C2026.12 66.078 2025.81 65.3752 2025.81 64.5258C2025.81 63.493 2026.2 62.6925 2026.98 62.1242C2027.77 61.5497 2028.88 61.2625 2030.3 61.2625H2031.95V60.4834C2031.95 59.8906 2031.77 59.4201 2031.42 59.0717C2031.06 58.7173 2030.54 58.5401 2029.85 58.5401C2029.25 58.5401 2028.74 58.6928 2028.33 58.9984C2027.92 59.3039 2027.72 59.6737 2027.72 60.1075H2026.01C2026.01 59.6125 2026.18 59.1359 2026.53 58.6776C2026.89 58.2131 2027.36 57.8465 2027.96 57.5776C2028.57 57.3087 2029.23 57.1743 2029.95 57.1743C2031.09 57.1743 2031.99 57.4615 2032.64 58.0359C2033.29 58.6042 2033.62 59.3895 2033.65 60.3917V64.9566C2033.65 65.8672 2033.76 66.5913 2033.99 67.1291V67.2758H2032.22ZM2029.4 65.9833C2029.93 65.9833 2030.44 65.8458 2030.91 65.5708C2031.39 65.2958 2031.74 64.9383 2031.95 64.4983V62.4633H2030.62C2028.54 62.4633 2027.5 63.0714 2027.5 64.2875C2027.5 64.8191 2027.68 65.2347 2028.04 65.5341C2028.39 65.8336 2028.85 65.9833 2029.4 65.9833ZM2038.29 54.956V57.3576H2040.14V58.6684H2038.29V64.8191C2038.29 65.2163 2038.37 65.5158 2038.54 65.7174C2038.7 65.913 2038.99 66.0108 2039.38 66.0108C2039.58 66.0108 2039.85 65.9741 2040.19 65.9008V67.2758C2039.74 67.398 2039.31 67.4591 2038.89 67.4591C2038.13 67.4591 2037.56 67.2299 2037.17 66.7716C2036.79 66.3133 2036.6 65.6624 2036.6 64.8191V58.6684H2034.79V57.3576H2036.6V54.956H2038.29ZM2043.66 67.2758H2041.97V57.3576H2043.66V67.2758ZM2041.83 54.7268C2041.83 54.4518 2041.91 54.2196 2042.08 54.0301C2042.25 53.8407 2042.5 53.746 2042.83 53.746C2043.16 53.746 2043.41 53.8407 2043.58 54.0301C2043.75 54.2196 2043.84 54.4518 2043.84 54.7268C2043.84 55.0018 2043.75 55.231 2043.58 55.4143C2043.41 55.5976 2043.16 55.6893 2042.83 55.6893C2042.5 55.6893 2042.25 55.5976 2042.08 55.4143C2041.91 55.231 2041.83 55.0018 2041.83 54.7268ZM2045.62 62.225C2045.62 61.2534 2045.81 60.3795 2046.19 59.6034C2046.58 58.8273 2047.11 58.2284 2047.79 57.8067C2048.47 57.3851 2049.25 57.1743 2050.12 57.1743C2051.47 57.1743 2052.56 57.6417 2053.4 58.5767C2054.23 59.5117 2054.65 60.7553 2054.65 62.3075V62.4267C2054.65 63.3922 2054.47 64.26 2054.09 65.03C2053.73 65.7938 2053.2 66.3897 2052.51 66.8174C2051.82 67.2452 2051.03 67.4591 2050.14 67.4591C2048.8 67.4591 2047.71 66.9916 2046.87 66.0566C2046.04 65.1216 2045.62 63.8841 2045.62 62.3442V62.225ZM2047.33 62.4267C2047.33 63.5267 2047.58 64.4097 2048.09 65.0758C2048.6 65.7419 2049.29 66.0749 2050.14 66.0749C2051 66.0749 2051.69 65.7388 2052.2 65.0666C2052.7 64.3883 2052.96 63.4411 2052.96 62.225C2052.96 61.1372 2052.7 60.2573 2052.18 59.585C2051.66 58.9067 2050.98 58.5676 2050.12 58.5676C2049.29 58.5676 2048.61 58.9006 2048.1 59.5667C2047.58 60.2328 2047.33 61.1861 2047.33 62.4267ZM2058.07 57.3576L2058.12 58.6042C2058.88 57.6509 2059.87 57.1743 2061.09 57.1743C2063.19 57.1743 2064.25 58.3567 2064.27 60.7217V67.2758H2062.57V60.7125C2062.56 59.9975 2062.4 59.4689 2062.08 59.1267C2061.76 58.7845 2061.26 58.6134 2060.58 58.6134C2060.03 58.6134 2059.55 58.7601 2059.13 59.0534C2058.72 59.3467 2058.39 59.7317 2058.16 60.2084V67.2758H2056.47V57.3576H2058.07Z" fill="white"/>
<rect x="166.529" y="815.545" width="316.817" height="197.306" rx="12.8272" fill="#817D7D"/>
<path opacity="0.5" fill-rule="evenodd" clip-rule="evenodd" d="M767.046 1626.58C761.804 1627.28 749.411 1631.63 749.519 1636.29C749.687 1643.58 760.22 1635.62 762.563 1634.55C775.148 1628.8 791.45 1636.25 804.555 1637.84C810.564 1638.57 822.317 1639.91 827.625 1636.89C837.063 1631.51 815.235 1632.86 812.455 1632.64C797.345 1631.47 782.313 1624.53 767.046 1626.58" fill="#C1DEE2"/>
<g style="mix-blend-mode:darken">
<path fill-rule="evenodd" clip-rule="evenodd" d="M512.837 950.634C512.837 984.579 515.979 1012.1 558.154 1012.1C600.33 1012.1 603.472 984.579 603.472 950.634" fill="#9AEE58"/>
</g>
<path fill-rule="evenodd" clip-rule="evenodd" d="M570.701 929.455C569.155 931.734 567.777 934.058 566.559 936.417C566.516 931.559 566.832 926.665 567.692 921.703C569.163 913.205 571.41 904.751 573.521 896.31C575.038 890.245 574.942 879.35 580.701 874.516C582.28 873.471 582.66 875.521 582.66 876.41C582.68 876.598 582.656 872.78 581.123 873.445C572.013 877.456 569.061 890.069 566.144 896.384C561.888 905.601 558.268 915.024 556.777 924.614C556.4 927.036 556.195 929.458 556.148 931.876C555.838 931.229 555.547 930.578 555.225 929.933C549.967 919.42 542.871 909.161 534.021 899.7C531.842 897.372 504.451 874.403 502.306 877.918C502.518 878.429 502.961 878.853 503.636 879.189C503.676 879.228 503.677 879.206 503.654 879.149C505.263 881.365 509.837 884.786 511.261 886.728C514.847 891.613 517.633 896.797 520.465 901.882C526.449 912.628 531.999 923.483 537.379 934.36C538.632 936.894 539.938 939.413 541.27 941.925C527.537 925.039 509.217 909.709 483.998 900.933C492.612 904.668 498.259 911.697 504.076 917.078C511.092 923.569 518.481 929.885 525.51 936.369C533.8 944.018 543.555 952.072 551.53 960.536C559.254 974.361 566.76 988.201 571.393 1002.73C569.495 997.712 571.245 990.774 570.92 985.504C570.662 981.31 570.086 977.15 569.299 972.997C570.273 974.87 571.112 976.745 571.492 978.488C571.145 975.564 570.745 972.659 570.316 969.768C571.419 967.062 572.502 964.537 573.233 962.457C576.983 951.787 581.448 941.3 587.528 931.08C593.154 921.625 599.608 912.291 606.64 903.241C609.921 899.022 613.246 894.819 616.551 890.608C618.714 887.851 620.773 883.438 623.785 880.797C604.319 895.969 583.051 911.25 570.701 929.455Z" fill="#257618"/>
<g style="mix-blend-mode:darken">
<path fill-rule="evenodd" clip-rule="evenodd" d="M987.852 586.954C1000.2 594.397 1012.33 597.993 1018.03 596.525C1032.31 592.844 1033.62 540.599 1022.57 520.003C1011.52 499.406 954.716 490.429 951.853 531.237C950.859 545.4 956.806 558.04 965.593 568.354L949.838 641.787H995.603L987.852 586.954Z" fill="#B28B67"/>
<path fill-rule="evenodd" clip-rule="evenodd" d="M1019.58 512.016C1019.18 509.527 1019.98 508.306 1009.97 501.295C999.964 494.283 983.809 486.014 967.537 489.613C946.42 494.283 938.032 508.213 929.889 514.985C922.548 521.09 915.183 521.802 910.818 529.377C906.453 536.952 904.131 558.745 907.926 567.41C913.162 579.362 923.487 582.58 931.024 586.024C943.951 591.929 962.222 585.692 962.665 584.659C966.089 576.667 984.518 554.122 995.603 544.65C1003.75 537.685 1021.47 523.697 1019.58 512.016Z" fill="#5C63AB"/>
<mask id="mask0" mask-type="alpha" maskUnits="userSpaceOnUse" x="906" y="488" width="114" height="101">
<path fill-rule="evenodd" clip-rule="evenodd" d="M1019.58 512.016C1019.18 509.527 1019.98 508.306 1009.97 501.295C999.964 494.283 983.809 486.014 967.537 489.613C946.42 494.283 938.032 508.213 929.889 514.985C922.548 521.09 915.183 521.802 910.818 529.377C906.453 536.952 904.131 558.745 907.926 567.41C913.162 579.362 923.487 582.58 931.024 586.024C943.951 591.929 962.222 585.692 962.665 584.659C966.089 576.667 984.518 554.122 995.603 544.65C1003.75 537.685 1021.47 523.697 1019.58 512.016Z" fill="white"/>
</mask>
<g mask="url(#mask0)">
<path fill-rule="evenodd" clip-rule="evenodd" d="M935.957 536.535C923.046 520.612 920.008 501.409 920.008 501.409L916.119 503.869C916.119 503.869 920.902 524.854 935.957 536.535ZM940.869 545.284C919.975 526.925 914.992 506.294 914.992 506.294L910.494 507.62C910.494 507.62 916.693 530.691 940.869 545.284Z" fill="black" fill-opacity="0.2"/>
</g>
<path fill-rule="evenodd" clip-rule="evenodd" d="M985.747 581.181C996.723 587.797 1007.51 590.994 1012.57 589.689C1025.26 586.417 1026.43 539.977 1016.61 521.669C1006.79 503.361 956.293 495.381 953.748 531.655C952.864 544.245 958.151 555.48 965.961 564.648L951.957 629.922H992.637L985.747 581.181Z" fill="#B28B67"/>
<path fill-rule="evenodd" clip-rule="evenodd" d="M1015.38 511.358C1016.11 509.247 1021.11 502.705 1012.21 496.473C1010.61 495.353 1007.97 496.469 1005.69 495.763C1003.96 495.231 1003.38 492.829 1001.41 492.41C999.363 491.976 997.133 493.945 994.819 493.772C993.402 493.666 991.214 491.457 989.738 491.338C987.104 491.126 984.71 493.612 982.137 493.772C980.646 493.865 978.915 491.465 977.434 491.338C973.831 491.029 970.549 492.709 967.374 493.218C964.448 493.688 963.087 499.685 960.931 501.102C954.167 505.55 948.867 506.794 943.378 511.358C936.853 516.785 935.604 520.822 932.9 524.438C930.197 528.054 928.527 540.795 930.104 548.96C931.034 553.776 933.457 566.93 938.871 572.022C946.28 578.993 961.355 581.058 962.693 580.128C968.891 575.821 982.783 551.998 992.637 543.578C999.882 537.387 1010.84 524.438 1015.38 511.358Z" fill="#FF9B21"/>
<mask id="mask1" mask-type="alpha" maskUnits="userSpaceOnUse" x="929" y="491" width="89" height="90">
<path fill-rule="evenodd" clip-rule="evenodd" d="M1015.38 511.358C1016.11 509.247 1021.11 502.705 1012.21 496.473C1010.61 495.353 1007.97 496.469 1005.69 495.763C1003.96 495.231 1003.38 492.829 1001.41 492.41C999.363 491.976 997.133 493.945 994.819 493.772C993.402 493.666 991.214 491.457 989.738 491.338C987.104 491.126 984.71 493.612 982.137 493.772C980.646 493.865 978.915 491.465 977.434 491.338C973.831 491.029 970.549 492.709 967.374 493.218C964.448 493.688 963.087 499.685 960.931 501.102C954.167 505.55 948.867 506.794 943.378 511.358C936.853 516.785 935.604 520.822 932.9 524.438C930.197 528.054 928.527 540.795 930.104 548.96C931.034 553.776 933.457 566.93 938.871 572.022C946.28 578.993 961.355 581.058 962.693 580.128C968.891 575.821 982.783 551.998 992.637 543.578C999.882 537.387 1010.84 524.438 1015.38 511.358Z" fill="white"/>
</mask>
<g mask="url(#mask1)">
<path fill-rule="evenodd" clip-rule="evenodd" d="M955.281 518.73C957.974 510.464 962.866 489.824 962.866 489.824L959.91 490.135C959.91 490.135 957.57 503.304 955.164 511.835C952.964 519.634 950.435 527.281 948.446 533.294C945.698 541.6 943.983 546.787 945.594 544.943C945.787 544.723 945.98 544.466 946.174 544.173C946.192 544.212 946.22 544.235 946.258 544.241C946.144 544.466 946.302 544.364 946.775 543.926L946.779 543.922C949.534 541.368 957.415 532.369 965.669 517.454C969.467 510.59 976.433 493.201 976.433 493.201L973.667 492.018C973.667 492.018 969.066 505.757 965.669 512.419C959.696 524.132 954.093 532.843 950.45 538.183C951.96 535.171 953.737 531.133 955.954 526.096C956.93 523.879 957.991 521.467 959.153 518.864C962.695 510.925 969.718 490.91 969.718 490.91H966.746C966.746 490.91 963.042 503.762 959.757 511.995C956.754 519.522 953.439 526.862 950.833 532.634L950.833 532.634C950.789 532.731 950.745 532.829 950.702 532.925C951.358 530.93 952.07 528.707 952.855 526.257C953.594 523.949 954.398 521.44 955.281 518.73Z" fill="black" fill-opacity="0.2"/>
</g>
<path fill-rule="evenodd" clip-rule="evenodd" d="M919.39 802.813L991.041 1037.51L1025.75 1237.11H1052.97L1016.29 802.813H919.39Z" fill="#997659"/>
<path fill-rule="evenodd" clip-rule="evenodd" d="M893.757 802.813C898.624 931.676 892.896 998.146 891.807 1009.85C890.718 1021.56 875.803 1097.48 840.493 1241.04L869.492 1231.06C925.296 1099.39 944.312 1030.96 950.712 1013.67C957.113 996.38 974.111 926.094 1001.71 802.813H893.757Z" fill="#B28B67"/>
<path fill-rule="evenodd" clip-rule="evenodd" d="M845.989 1232.64C844.131 1231.78 841.879 1232.62 841.219 1234.56C840.008 1238.12 838.391 1243.44 838.391 1246.45C838.391 1251.25 839.893 1260.46 839.893 1260.46C845.12 1260.46 933.846 1260.46 933.846 1260.46C933.846 1260.46 937.508 1247.56 929.618 1246.53C921.727 1245.5 916.508 1244.67 916.508 1244.67L872.924 1223.96C872.034 1223.53 870.971 1223.96 870.616 1224.88L867.814 1232.12C867.814 1232.12 860.51 1235.75 855.943 1235.75C853.22 1235.75 848.974 1234.03 845.989 1232.64Z" fill="#3F3D95"/>
<path fill-rule="evenodd" clip-rule="evenodd" d="M845.323 1230.47C843.507 1229.67 841.348 1230.48 840.671 1232.35C839.437 1235.75 837.781 1240.85 837.781 1243.73C837.781 1248.31 839.309 1257.11 839.309 1257.11C844.628 1257.11 934.91 1257.11 934.91 1257.11C934.91 1257.11 938.637 1244.79 930.608 1243.81C922.579 1242.82 917.268 1242.03 917.268 1242.03L872.834 1222.22C871.962 1221.83 870.941 1222.24 870.577 1223.13L867.72 1230.05C867.72 1230.05 860.288 1233.52 855.641 1233.52C852.812 1233.52 848.368 1231.81 845.323 1230.47Z" fill="#69CCC0"/>
<path fill-rule="evenodd" clip-rule="evenodd" d="M909.87 802.813L940.335 922.39H1033.39L1019.51 802.813H909.87Z" fill="#69A1AC"/>
<path fill-rule="evenodd" clip-rule="evenodd" d="M892.733 802.813C877.697 847.971 887.021 922.39 887.021 922.39H981.977L1008.09 802.813H892.733Z" fill="#89C5CC"/>
<path fill-rule="evenodd" clip-rule="evenodd" d="M1027.3 1232.13C1025.48 1231.33 1023.32 1232.14 1022.65 1234.01C1021.41 1237.41 1019.76 1242.51 1019.76 1245.39C1019.76 1249.97 1021.28 1258.77 1021.28 1258.77C1026.6 1258.77 1116.89 1258.77 1116.89 1258.77C1116.89 1258.77 1120.61 1246.45 1112.58 1245.47C1104.55 1244.48 1099.24 1243.69 1099.24 1243.69L1054.81 1223.88C1053.94 1223.49 1052.92 1223.9 1052.55 1224.79L1049.7 1231.71C1049.7 1231.71 1042.26 1235.18 1037.62 1235.18C1034.79 1235.18 1030.34 1233.47 1027.3 1232.13Z" fill="#69CCC0"/>
<path fill-rule="evenodd" clip-rule="evenodd" d="M1182.39 612.703L1107.8 624.092L1121.8 657.049L1182.04 632.177C1208.24 634.284 1220.87 633.452 1219.95 629.68C1219.16 626.5 1216.37 625.584 1213.79 624.74C1211.78 624.082 1209.91 623.469 1209.23 621.863C1207.67 618.196 1216.04 610.395 1224.29 603.332C1232.55 596.269 1226.9 595.092 1223.37 595.255C1210.86 598.388 1197.2 604.204 1182.39 612.703ZM1137.8 801.787L1083.77 749.17L1065.84 780.155L1122.01 813.228C1136.1 835.379 1144.38 844.951 1146.84 841.943C1148.91 839.407 1147.96 836.626 1147.08 834.065C1146.4 832.07 1145.76 830.208 1146.64 828.698C1148.63 825.25 1159.91 827.228 1170.53 829.561C1181.15 831.895 1178.69 826.685 1176.44 823.967C1166.4 815.877 1153.52 808.484 1137.8 801.787Z" fill="#B28B67"/>
<path fill-rule="evenodd" clip-rule="evenodd" d="M1006.92 617.115C1031.14 682.778 1072 736.246 1133.92 794.562L1103.77 820.208C1030.99 780.936 992.886 758.056 981.094 697.577C978.134 682.398 981.129 635.757 981.548 611.055L1006.92 617.115Z" fill="#2026A2"/>
<path fill-rule="evenodd" clip-rule="evenodd" d="M886.635 807.639L1032.04 828.074C1032.04 828.074 1003.77 670.727 1010.58 614.524C1010.81 612.614 1007.75 608.762 1006.13 608.982C988.351 611.401 970.032 600.231 970.032 600.231C927.785 650.726 906.289 717.184 886.635 807.639Z" fill="#F2F2F2"/>
<path fill-rule="evenodd" clip-rule="evenodd" d="M994.638 689.785C1003.68 790.215 991.448 869.667 941.312 862.621L863.785 851.725C863.08 767.392 911.538 657.41 949.658 603.858C951.114 601.813 954.138 597.997 959.883 598.805L982.41 601.971C982.416 602.002 982.422 602.033 982.427 602.064C989.199 603.072 996.629 604.369 1004.68 605.773C1046.1 613.002 1103.87 623.081 1172.11 611.331L1174.41 650.816C1110.15 680.373 1046.35 701.298 994.638 689.785Z" fill="#1F28CF"/>
</g>
<path d="M1023.42 1258.2H1117.89L1117.89 1260.82H1023.42L1023.42 1258.2Z" fill="#3F3D95"/>
<path d="M1054.63 1230.7L1098.49 1245.11V1246.41L1054.63 1233.32V1230.7Z" fill="#3F3D95"/>
<rect x="533.97" y="950.721" width="53.3946" height="50.6564" fill="#9AEE58" stroke="white" stroke-width="1.36909"/>
<rect x="1934.39" y="973.39" width="99.2167" height="12.4021" rx="4.50985" fill="#0F0E0E"/>
<g opacity="0.2">
<path fill-rule="evenodd" clip-rule="evenodd" d="M1982.91 782.151C2146.56 782.151 2279.23 649.487 2279.23 485.838C2279.23 322.189 2146.56 189.525 1982.91 189.525C1819.26 189.525 1686.6 322.189 1686.6 485.838C1686.6 649.487 1819.26 782.151 1982.91 782.151Z" fill="#FF9B21"/>
<path fill-rule="evenodd" clip-rule="evenodd" d="M2325.61 532.217C2354.78 532.217 2378.43 508.569 2378.43 479.396C2378.43 450.224 2354.78 426.575 2325.61 426.575C2296.43 426.575 2272.78 450.224 2272.78 479.396C2272.78 508.569 2296.43 532.217 2325.61 532.217Z" fill="#2B44FF"/>
</g>
<g filter="url(#filter7_d)">
<rect x="1844.74" y="154.468" width="323.367" height="664.771" rx="46.9591" transform="rotate(0.0838721 1844.74 154.468)" fill="#F2F2F2"/>
</g>
<path fill-rule="evenodd" clip-rule="evenodd" d="M2085.58 174.211L2085.59 168.992L2121.68 169.045C2138.97 169.07 2152.96 183.107 2152.94 200.397L2152.1 773.334C2152.07 790.624 2138.04 804.62 2120.75 804.595L1889.27 804.256C1871.98 804.23 1857.98 790.194 1858.01 772.904L1858.85 199.966C1858.87 182.676 1872.91 168.681 1890.2 168.706L1927.17 168.76L1927.17 173.979C1927.15 183.777 1935.08 191.731 1944.88 191.745L2067.82 191.925C2077.61 191.939 2085.57 184.008 2085.58 174.211Z" fill="#1F28CF"/>
<path fill-rule="evenodd" clip-rule="evenodd" d="M2911.79 899.227C2916.21 898.768 2920.92 898.93 2925.02 900.415C2933.75 903.572 2936.23 912.36 2936.11 919.503C2935.98 927.191 2934.06 935.588 2940.92 941.783C2944.07 944.63 2947.99 946.81 2951.08 949.71C2954.39 952.809 2956.99 956.355 2958.91 960.163C2962.43 967.157 2964.17 975.383 2960.94 982.72C2958.1 989.18 2950.95 995.01 2952.5 1002.36C2954.11 1010.02 2963.17 1015.88 2968.84 1021.58C2975.25 1028.04 2981.15 1036.3 2982.12 1044.77C2983.05 1052.89 2978.91 1061.1 2972.55 1067.23C2959.84 1079.5 2940.73 1085.51 2921.47 1085.47C2913.29 1085.45 2904.03 1085.14 2896.97 1081.39C2894.79 1080.23 2893.64 1078.93 2892.34 1077.13C2891.18 1075.51 2889.65 1074.45 2887.87 1073.31C2883.96 1070.79 2881.14 1067.4 2879.34 1063.6C2872.35 1048.85 2877.94 1030.6 2887.72 1017.5C2890.04 1014.4 2891.94 1011.41 2890.81 1007.71C2889.64 1003.85 2886.75 1000.37 2884.19 997.052C2881.67 993.772 2878.79 990.642 2876.81 987.095C2874.75 983.38 2874.17 979.489 2874.53 975.423C2875.22 967.785 2879.08 960.736 2884.56 954.594C2889.83 948.677 2896.03 943.015 2896.04 935.262C2896.06 927.045 2889.61 919.736 2892.36 911.382C2893.49 907.922 2895.78 904.373 2899.46 902.299C2902.99 900.31 2907.64 899.66 2911.79 899.227Z" fill="#DDE3E9"/>
<path fill-rule="evenodd" clip-rule="evenodd" d="M2908.91 912.363C2908.99 911.26 2910.53 910.598 2911.74 910.886C2913.33 911.265 2913.3 912.532 2913.26 913.662C2913.13 917.133 2913.72 920.506 2914.7 923.873C2916.73 930.875 2920.49 937.326 2923.47 944.052C2926.44 950.772 2927.84 957.71 2926.09 964.821C2924.45 971.526 2921.86 978.057 2920.18 984.77C2918.69 990.686 2917.12 996.926 2919.38 1002.83C2921.55 1008.51 2926.36 1013.13 2929.82 1018.27C2936.99 1028.9 2940.17 1040.69 2940.6 1052.82C2940.8 1058.45 2940.62 1064.14 2939.08 1069.66C2938.2 1072.84 2937.02 1077.14 2933.82 1079.34C2932.34 1080.35 2929.82 1080.7 2928.58 1079.2C2927.41 1077.8 2928.44 1075.62 2928.81 1074.12C2930.41 1067.63 2930.73 1060.99 2930.35 1054.4C2929.98 1048.02 2929.09 1041.64 2926.73 1035.55C2924.55 1029.89 2921.22 1024.8 2917.31 1019.85C2913.33 1014.81 2909.18 1009.75 2907.53 1003.78C2905.86 997.705 2907.22 991.528 2909.04 985.573C2910.96 979.274 2913.48 973.156 2916.08 967.028C2918.62 961.057 2919.52 955.407 2918.12 949.158C2915.35 936.811 2907.95 925.221 2908.91 912.363Z" fill="#C5CFD6"/>
<path fill-rule="evenodd" clip-rule="evenodd" d="M3028.3 914.209C3033.76 915.623 3039.18 917.903 3043.07 921.479C3051.35 929.083 3048.81 940.576 3044.24 948.97C3039.32 958.005 3031.87 967.086 3036.07 977.453C3038 982.218 3041.25 986.534 3043.08 991.336C3045.04 996.468 3045.88 1001.81 3045.78 1007.17C3045.58 1017 3042.51 1027.5 3034.18 1034.75C3026.84 1041.13 3014.84 1044.85 3012.1 1054.22C3009.24 1064 3016.23 1074.95 3019.34 1084.21C3022.86 1094.69 3024.66 1107.07 3020.55 1117.52C3016.61 1127.53 3006.66 1135.41 2995.39 1139.84C2972.88 1148.71 2946.75 1147.34 2924.18 1138.75C2914.59 1135.11 2903.93 1130.63 2897.97 1123.07C2896.13 1120.73 2895.59 1118.68 2895.19 1115.97C2894.83 1113.54 2893.68 1111.62 2892.3 1109.47C2889.28 1104.76 2888.08 1099.5 2888.32 1094.21C2889.27 1073.67 2907.14 1054.56 2926.73 1043.41C2931.38 1040.77 2935.45 1038.08 2936.43 1033.2C2937.44 1028.12 2936.21 1022.72 2935.27 1017.66C2934.35 1012.66 2932.91 1007.68 2932.79 1002.61C2932.67 997.301 2934.4 992.441 2937.35 987.794C2942.89 979.066 2951.8 972.445 2962.03 967.609C2971.88 962.951 2982.66 959.002 2987.48 949.839C2992.59 940.128 2989.57 928.626 2997.97 919.964C3001.44 916.377 3006.32 913.192 3011.92 912.371C3017.29 911.584 3023.16 912.88 3028.3 914.209Z" fill="#DDE3E9"/>
<path fill-rule="evenodd" clip-rule="evenodd" d="M3017.14 930.268C3017.92 928.998 3020.12 928.9 3021.36 929.781C3022.99 930.941 3022.17 932.428 3021.43 933.747C3019.15 937.8 3017.76 942.057 3016.84 946.483C3014.91 955.684 3015.35 965.003 3014.7 974.298C3014.05 983.586 3011.42 992.427 3005.01 1000.07C2998.97 1007.27 2991.93 1013.85 2985.84 1021.05C2980.47 1027.39 2974.79 1034.08 2973.81 1042.07C2972.86 1049.77 2975.64 1057.4 2976.54 1065.03C2978.39 1080.82 2974.87 1096.2 2967.91 1110.76C2964.68 1117.52 2960.98 1124.17 2955.79 1130.03C2952.81 1133.4 2948.78 1137.96 2943.69 1139.14C2941.34 1139.68 2938.18 1138.97 2937.65 1136.63C2937.15 1134.45 2939.68 1132.32 2941.04 1130.71C2946.9 1123.74 2951.35 1116.03 2954.95 1108.05C2958.44 1100.33 2961.32 1092.38 2962.31 1084.11C2963.23 1076.43 2962.46 1068.92 2960.93 1061.31C2959.37 1053.56 2957.63 1045.72 2959.38 1037.91C2961.15 1029.97 2966.53 1023.26 2972.32 1017.02C2978.44 1010.42 2985.14 1004.3 2991.95 998.208C2998.58 992.27 3003.1 985.981 3005.31 977.955C3009.66 962.097 3008.12 945.063 3017.14 930.268Z" fill="#C5CFD6"/>
<path fill-rule="evenodd" clip-rule="evenodd" d="M2859.5 972.537C2868.58 972.537 2876.56 976.64 2882.06 982.462C2888.5 989.277 2889.8 997.6 2892.41 1005.72C2893.71 1009.77 2895.95 1013.78 2899.87 1016.52C2903.44 1019.02 2907.97 1019.52 2912.23 1020.74C2920.77 1023.18 2927.65 1029.06 2930.38 1036.22C2933.69 1044.97 2930.18 1053.79 2930.78 1062.65C2931.34 1070.79 2940.75 1075.86 2948.33 1079.76C2955.79 1083.61 2962.52 1087.21 2964.77 1094.71C2967.15 1102.66 2967.95 1111.53 2964.65 1119.38C2959.15 1132.45 2943.05 1138.21 2927.5 1139.1C2913.39 1139.91 2895.64 1138.64 2885.04 1129.91C2878.7 1124.68 2876.4 1117.37 2876.69 1110.1C2876.86 1105.58 2877.92 1101.09 2879.27 1096.72C2880.24 1093.63 2881.54 1090.54 2881.91 1087.34C2882.89 1078.83 2873.66 1077.19 2865.8 1074.85C2855.82 1071.88 2848.83 1066.27 2843.97 1058.45C2839.44 1051.17 2837.54 1043 2840.25 1034.98C2841.64 1030.89 2844.15 1027.18 2847.56 1024.02C2849.06 1022.63 2851.18 1021.47 2852.53 1020.01C2853.8 1018.65 2853.52 1016.88 2853.09 1015.28C2851.07 1007.9 2844.79 1001.79 2842.55 994.425C2840.52 987.777 2841.72 979.502 2848.85 975.213C2851.93 973.36 2855.73 972.558 2859.5 972.537Z" fill="#C5CFD6"/>
<path fill-rule="evenodd" clip-rule="evenodd" d="M2871.87 991.764C2881.49 1000.5 2884.11 1012.36 2884.87 1023.85C2885.3 1030.29 2884.86 1037.09 2887.08 1043.34C2888.98 1048.69 2893.43 1052.78 2898.02 1056.65C2907.27 1064.43 2917.57 1072.34 2920.28 1083.6C2921.86 1090.2 2920.79 1097.03 2922.99 1103.56C2924.98 1109.51 2928.49 1115.34 2932.76 1120.36C2936.19 1124.4 2940.67 1127.49 2944.43 1131.26C2945.57 1132.4 2947.21 1134.1 2946.74 1135.72C2946.19 1137.62 2943.35 1138.22 2941.33 1137.92C2936.64 1137.23 2932.68 1133.4 2929.61 1130.62C2925.12 1126.56 2921.3 1122.19 2918.2 1117.28C2914.76 1111.84 2911.99 1106.06 2910.8 1099.95C2909.57 1093.61 2910.19 1087 2907.38 1080.92C2902.65 1070.68 2891.2 1064.64 2882.91 1056.66C2872.59 1046.72 2874.13 1034.35 2875.19 1022.12C2875.77 1015.4 2876.35 1007.81 2872.36 1001.68C2870.84 999.333 2867.45 997.149 2866.8 994.487C2866.2 992.048 2869.47 989.583 2871.87 991.764Z" fill="#AFB9C5"/>
<path fill-rule="evenodd" clip-rule="evenodd" d="M2882.13 1135.37C2882.13 1185.35 2891.7 1211.53 2942.2 1211.53C2992.71 1211.53 3002.28 1185.35 3002.28 1135.37H2882.13Z" fill="#89C5CC"/>
<path opacity="0.1" d="M1310.44 30.3065H2726.3V968.201H1310.44V30.3065Z" fill="black" stroke="black" stroke-width="12.8832"/>
<rect x="1304" y="20" width="1428.74" height="7.7299" fill="black"/>
<rect x="1304" y="963.048" width="1428.74" height="11.5948" fill="black"/>
<rect x="1304" y="20" width="10.3065" height="946.913" fill="black"/>
<rect x="2722.44" y="27.7299" width="10.3065" height="946.913" fill="black"/>
<defs>
<filter id="filter0_d" x="1250.53" y="0.214264" width="1534.69" height="1048.16" filterUnits="userSpaceOnUse" color-interpolation-filters="sRGB">
<feFlood flood-opacity="0" result="BackgroundImageFix"/>
<feColorMatrix in="SourceAlpha" type="matrix" values="0 0 0 0 0 0 0 0 0 0 0 0 0 0 0 0 0 0 127 0"/>
<feOffset dy="37.5461"/>
<feGaussianBlur stdDeviation="37.5461"/>
<feColorMatrix type="matrix" values="0 0 0 0 0.419608 0 0 0 0 0.419608 0 0 0 0 0.419608 0 0 0 1 0"/>
<feBlend mode="normal" in2="BackgroundImageFix" result="effect1_dropShadow"/>
<feBlend mode="normal" in="SourceGraphic" in2="effect1_dropShadow" result="shape"/>
</filter>
<filter id="filter1_i" x="2633.03" y="48.769" width="39.9306" height="25.9718" filterUnits="userSpaceOnUse" color-interpolation-filters="sRGB">
<feFlood flood-opacity="0" result="BackgroundImageFix"/>
<feBlend mode="normal" in="SourceGraphic" in2="BackgroundImageFix" result="shape"/>
<feColorMatrix in="SourceAlpha" type="matrix" values="0 0 0 0 0 0 0 0 0 0 0 0 0 0 0 0 0 0 127 0" result="hardAlpha"/>
<feOffset dy="1.56442"/>
<feComposite in2="hardAlpha" operator="arithmetic" k2="-1" k3="1"/>
<feColorMatrix type="matrix" values="0 0 0 0 0.458824 0 0 0 0 0.470588 0 0 0 0 0.478431 0 0 0 1 0"/>
<feBlend mode="normal" in2="shape" result="effect1_innerShadow"/>
</filter>
<filter id="filter2_i" x="2584.46" y="48.769" width="39.9306" height="25.9718" filterUnits="userSpaceOnUse" color-interpolation-filters="sRGB">
<feFlood flood-opacity="0" result="BackgroundImageFix"/>
<feBlend mode="normal" in="SourceGraphic" in2="BackgroundImageFix" result="shape"/>
<feColorMatrix in="SourceAlpha" type="matrix" values="0 0 0 0 0 0 0 0 0 0 0 0 0 0 0 0 0 0 127 0" result="hardAlpha"/>
<feOffset dy="1.56442"/>
<feComposite in2="hardAlpha" operator="arithmetic" k2="-1" k3="1"/>
<feColorMatrix type="matrix" values="0 0 0 0 0.458824 0 0 0 0 0.470588 0 0 0 0 0.478431 0 0 0 1 0"/>
<feBlend mode="normal" in2="shape" result="effect1_innerShadow"/>
</filter>
<filter id="filter3_i" x="1700.59" y="48.769" width="636.731" height="25.9718" filterUnits="userSpaceOnUse" color-interpolation-filters="sRGB">
<feFlood flood-opacity="0" result="BackgroundImageFix"/>
<feBlend mode="normal" in="SourceGraphic" in2="BackgroundImageFix" result="shape"/>
<feColorMatrix in="SourceAlpha" type="matrix" values="0 0 0 0 0 0 0 0 0 0 0 0 0 0 0 0 0 0 127 0" result="hardAlpha"/>
<feOffset dy="1.56442"/>
<feComposite in2="hardAlpha" operator="arithmetic" k2="-1" k3="1"/>
<feColorMatrix type="matrix" values="0 0 0 0 0.458824 0 0 0 0 0.470588 0 0 0 0 0.478431 0 0 0 1 0"/>
<feBlend mode="normal" in2="shape" result="effect1_innerShadow"/>
</filter>
<filter id="filter4_i" x="1477.2" y="48.769" width="39.9306" height="25.9718" filterUnits="userSpaceOnUse" color-interpolation-filters="sRGB">
<feFlood flood-opacity="0" result="BackgroundImageFix"/>
<feBlend mode="normal" in="SourceGraphic" in2="BackgroundImageFix" result="shape"/>
<feColorMatrix in="SourceAlpha" type="matrix" values="0 0 0 0 0 0 0 0 0 0 0 0 0 0 0 0 0 0 127 0" result="hardAlpha"/>
<feOffset dy="1.56442"/>
<feComposite in2="hardAlpha" operator="arithmetic" k2="-1" k3="1"/>
<feColorMatrix type="matrix" values="0 0 0 0 0.458824 0 0 0 0 0.470588 0 0 0 0 0.478431 0 0 0 1 0"/>
<feBlend mode="normal" in2="shape" result="effect1_innerShadow"/>
</filter>
<filter id="filter5_i" x="1439.43" y="48.769" width="26.9801" height="25.9718" filterUnits="userSpaceOnUse" color-interpolation-filters="sRGB">
<feFlood flood-opacity="0" result="BackgroundImageFix"/>
<feBlend mode="normal" in="SourceGraphic" in2="BackgroundImageFix" result="shape"/>
<feColorMatrix in="SourceAlpha" type="matrix" values="0 0 0 0 0 0 0 0 0 0 0 0 0 0 0 0 0 0 127 0" result="hardAlpha"/>
<feOffset dy="1.56442"/>
<feComposite in2="hardAlpha" operator="arithmetic" k2="-1" k3="1"/>
<feColorMatrix type="matrix" values="0 0 0 0 0.458824 0 0 0 0 0.470588 0 0 0 0 0.478431 0 0 0 1 0"/>
<feBlend mode="normal" in2="shape" result="effect1_innerShadow"/>
</filter>
<filter id="filter6_i" x="1411.37" y="48.769" width="26.9801" height="25.9718" filterUnits="userSpaceOnUse" color-interpolation-filters="sRGB">
<feFlood flood-opacity="0" result="BackgroundImageFix"/>
<feBlend mode="normal" in="SourceGraphic" in2="BackgroundImageFix" result="shape"/>
<feColorMatrix in="SourceAlpha" type="matrix" values="0 0 0 0 0 0 0 0 0 0 0 0 0 0 0 0 0 0 127 0" result="hardAlpha"/>
<feOffset dy="1.56442"/>
<feComposite in2="hardAlpha" operator="arithmetic" k2="-1" k3="1"/>
<feColorMatrix type="matrix" values="0 0 0 0 0.458824 0 0 0 0 0.470588 0 0 0 0 0.478431 0 0 0 1 0"/>
<feBlend mode="normal" in2="shape" result="effect1_innerShadow"/>
</filter>
<filter id="filter7_d" x="1787.15" y="139.077" width="411.808" height="752.712" filterUnits="userSpaceOnUse" color-interpolation-filters="sRGB">
<feFlood flood-opacity="0" result="BackgroundImageFix"/>
<feColorMatrix in="SourceAlpha" type="matrix" values="0 0 0 0 0 0 0 0 0 0 0 0 0 0 0 0 0 0 127 0"/>
<feOffset dx="-12.8832" dy="28.343"/>
<feGaussianBlur stdDeviation="21.9014"/>
<feColorMatrix type="matrix" values="0 0 0 0 0 0 0 0 0 0 0 0 0 0 0 0 0 0 0.1 0"/>
<feBlend mode="normal" in2="BackgroundImageFix" result="effect1_dropShadow"/>
<feBlend mode="normal" in="SourceGraphic" in2="effect1_dropShadow" result="shape"/>
</filter>
<linearGradient id="paint0_linear" x1="2018.42" y1="39.3247" x2="2018.42" y2="83.0046" gradientUnits="userSpaceOnUse">
<stop stop-color="#3A3E3F"/>
<stop offset="1" stop-color="#2F3234"/>
</linearGradient>
<linearGradient id="paint1_linear" x1="2681.59" y1="53.4913" x2="2681.59" y2="83.0047" gradientUnits="userSpaceOnUse">
<stop stop-color="#28292A"/>
<stop offset="1" stop-color="#252526"/>
</linearGradient>
<linearGradient id="paint2_linear" x1="2633.03" y1="48.769" x2="2633.03" y2="74.7409" gradientUnits="userSpaceOnUse">
<stop stop-color="#65686A"/>
<stop offset="1" stop-color="#5F6263"/>
</linearGradient>
<linearGradient id="paint3_linear" x1="2584.46" y1="48.769" x2="2584.46" y2="74.7409" gradientUnits="userSpaceOnUse">
<stop stop-color="#65686A"/>
<stop offset="1" stop-color="#5F6263"/>
</linearGradient>
<linearGradient id="paint4_linear" x1="1700.59" y1="48.769" x2="1700.59" y2="74.7409" gradientUnits="userSpaceOnUse">
<stop stop-color="#65686A"/>
<stop offset="1" stop-color="#5F6263"/>
</linearGradient>
<linearGradient id="paint5_linear" x1="1477.2" y1="48.769" x2="1477.2" y2="74.7409" gradientUnits="userSpaceOnUse">
<stop stop-color="#65686A"/>
<stop offset="1" stop-color="#5F6263"/>
</linearGradient>
<linearGradient id="paint6_linear" x1="1439.43" y1="48.769" x2="1439.43" y2="74.7409" gradientUnits="userSpaceOnUse">
<stop stop-color="#65686A"/>
<stop offset="1" stop-color="#5F6263"/>
</linearGradient>
<linearGradient id="paint7_linear" x1="1411.37" y1="48.769" x2="1411.37" y2="74.7409" gradientUnits="userSpaceOnUse">
<stop stop-color="#65686A"/>
<stop offset="1" stop-color="#5F6263"/>
</linearGradient>
<linearGradient id="paint8_linear" x1="2017.88" y1="38.1426" x2="2017.88" y2="935.354" gradientUnits="userSpaceOnUse">
<stop stop-color="#141414"/>
</linearGradient>
<linearGradient id="paint9_linear" x1="2017.88" y1="39.3247" x2="2017.88" y2="934.172" gradientUnits="userSpaceOnUse">
<stop stop-color="#808383"/>
<stop offset="1" stop-color="#585B5D"/>
</linearGradient>
<linearGradient id="paint10_linear" x1="2708.03" y1="54.6718" x2="2708.03" y2="83.0047" gradientUnits="userSpaceOnUse">
<stop stop-color="#525354"/>
<stop offset="1" stop-color="#4E4F50"/>
</linearGradient>
</defs>
</svg>
