<svg width="467" height="637" viewBox="0 0 467 637" fill="none" xmlns="http://www.w3.org/2000/svg">
<g filter="url(#filter0_d)">
<rect width="450" height="615" fill="#C2622C"/>
</g>
<g filter="url(#filter1_i)">
<rect x="10" y="69" width="430" height="539" fill="white"/>
</g>
<path d="M194.402 472.547H187.254L185.648 477H183.328L189.844 459.938H191.812L198.34 477H196.031L194.402 472.547ZM187.934 470.695H193.734L190.828 462.715L187.934 470.695ZM203.027 461.25V464.32H205.395V465.996H203.027V473.859C203.027 474.367 203.133 474.75 203.344 475.008C203.555 475.258 203.914 475.383 204.422 475.383C204.672 475.383 205.016 475.336 205.453 475.242V477C204.883 477.156 204.328 477.234 203.789 477.234C202.82 477.234 202.09 476.941 201.598 476.355C201.105 475.77 200.859 474.938 200.859 473.859V465.996H198.551V464.32H200.859V461.25H203.027ZM210.879 461.25V464.32H213.246V465.996H210.879V473.859C210.879 474.367 210.984 474.75 211.195 475.008C211.406 475.258 211.766 475.383 212.273 475.383C212.523 475.383 212.867 475.336 213.305 475.242V477C212.734 477.156 212.18 477.234 211.641 477.234C210.672 477.234 209.941 476.941 209.449 476.355C208.957 475.77 208.711 474.938 208.711 473.859V465.996H206.402V464.32H208.711V461.25H210.879ZM221.051 477.234C219.332 477.234 217.934 476.672 216.855 475.547C215.777 474.414 215.238 472.902 215.238 471.012V470.613C215.238 469.355 215.477 468.234 215.953 467.25C216.438 466.258 217.109 465.484 217.969 464.93C218.836 464.367 219.773 464.086 220.781 464.086C222.43 464.086 223.711 464.629 224.625 465.715C225.539 466.801 225.996 468.355 225.996 470.379V471.281H217.406C217.438 472.531 217.801 473.543 218.496 474.316C219.199 475.082 220.09 475.465 221.168 475.465C221.934 475.465 222.582 475.309 223.113 474.996C223.645 474.684 224.109 474.27 224.508 473.754L225.832 474.785C224.77 476.418 223.176 477.234 221.051 477.234ZM220.781 465.867C219.906 465.867 219.172 466.188 218.578 466.828C217.984 467.461 217.617 468.352 217.477 469.5H223.828V469.336C223.766 468.234 223.469 467.383 222.938 466.781C222.406 466.172 221.688 465.867 220.781 465.867ZM230.566 464.32L230.637 465.914C231.605 464.695 232.871 464.086 234.434 464.086C237.113 464.086 238.465 465.598 238.488 468.621V477H236.32V468.609C236.312 467.695 236.102 467.02 235.688 466.582C235.281 466.145 234.645 465.926 233.777 465.926C233.074 465.926 232.457 466.113 231.926 466.488C231.395 466.863 230.98 467.355 230.684 467.965V477H228.516V464.32H230.566ZM241.23 470.555C241.23 468.609 241.691 467.047 242.613 465.867C243.535 464.68 244.742 464.086 246.234 464.086C247.719 464.086 248.895 464.594 249.762 465.609V459H251.93V477H249.938L249.832 475.641C248.965 476.703 247.758 477.234 246.211 477.234C244.742 477.234 243.543 476.633 242.613 475.43C241.691 474.227 241.23 472.656 241.23 470.719V470.555ZM243.398 470.801C243.398 472.238 243.695 473.363 244.289 474.176C244.883 474.988 245.703 475.395 246.75 475.395C248.125 475.395 249.129 474.777 249.762 473.543V467.719C249.113 466.523 248.117 465.926 246.773 465.926C245.711 465.926 244.883 466.336 244.289 467.156C243.695 467.977 243.398 469.191 243.398 470.801ZM260.566 477.234C258.848 477.234 257.449 476.672 256.371 475.547C255.293 474.414 254.754 472.902 254.754 471.012V470.613C254.754 469.355 254.992 468.234 255.469 467.25C255.953 466.258 256.625 465.484 257.484 464.93C258.352 464.367 259.289 464.086 260.297 464.086C261.945 464.086 263.227 464.629 264.141 465.715C265.055 466.801 265.512 468.355 265.512 470.379V471.281H256.922C256.953 472.531 257.316 473.543 258.012 474.316C258.715 475.082 259.605 475.465 260.684 475.465C261.449 475.465 262.098 475.309 262.629 474.996C263.16 474.684 263.625 474.27 264.023 473.754L265.348 474.785C264.285 476.418 262.691 477.234 260.566 477.234ZM260.297 465.867C259.422 465.867 258.688 466.188 258.094 466.828C257.5 467.461 257.133 468.352 256.992 469.5H263.344V469.336C263.281 468.234 262.984 467.383 262.453 466.781C261.922 466.172 261.203 465.867 260.297 465.867ZM273.293 477.234C271.574 477.234 270.176 476.672 269.098 475.547C268.02 474.414 267.48 472.902 267.48 471.012V470.613C267.48 469.355 267.719 468.234 268.195 467.25C268.68 466.258 269.352 465.484 270.211 464.93C271.078 464.367 272.016 464.086 273.023 464.086C274.672 464.086 275.953 464.629 276.867 465.715C277.781 466.801 278.238 468.355 278.238 470.379V471.281H269.648C269.68 472.531 270.043 473.543 270.738 474.316C271.441 475.082 272.332 475.465 273.41 475.465C274.176 475.465 274.824 475.309 275.355 474.996C275.887 474.684 276.352 474.27 276.75 473.754L278.074 474.785C277.012 476.418 275.418 477.234 273.293 477.234ZM273.023 465.867C272.148 465.867 271.414 466.188 270.82 466.828C270.227 467.461 269.859 468.352 269.719 469.5H276.07V469.336C276.008 468.234 275.711 467.383 275.18 466.781C274.648 466.172 273.93 465.867 273.023 465.867Z" fill="#241A20" fill-opacity="0.7"/>
<path d="M311.206 104.994H307.339L306.167 111H304.072L305.244 104.994H301.743V102.987H305.625L306.636 97.8018H302.856V95.7656H307.031L308.232 89.6719H310.327L309.126 95.7656H312.993L314.194 89.6719H316.304L315.103 95.7656H318.091V97.8018H314.707L313.696 102.987H316.992V104.994H313.315L312.144 111H310.034L311.206 104.994ZM307.72 102.987H311.587L312.598 97.8018H308.73L307.72 102.987ZM328.784 102.372H323.774V111H320.947V89.6719H328.008C330.41 89.6719 332.256 90.2188 333.545 91.3125C334.844 92.4062 335.493 93.998 335.493 96.0879C335.493 97.416 335.132 98.5732 334.409 99.5596C333.696 100.546 332.7 101.283 331.421 101.771L336.431 110.824V111H333.413L328.784 102.372ZM323.774 100.072H328.096C329.492 100.072 330.601 99.7109 331.421 98.9883C332.251 98.2656 332.666 97.2988 332.666 96.0879C332.666 94.7695 332.271 93.7588 331.479 93.0557C330.698 92.3525 329.565 91.9961 328.081 91.9863H323.774V100.072ZM345.601 111.293C343.452 111.293 341.704 110.59 340.356 109.184C339.009 107.768 338.335 105.878 338.335 103.515V103.017C338.335 101.444 338.633 100.043 339.229 98.8125C339.834 97.5723 340.674 96.6055 341.748 95.9121C342.832 95.209 344.004 94.8574 345.264 94.8574C347.324 94.8574 348.926 95.5361 350.068 96.8936C351.211 98.251 351.782 100.194 351.782 102.724V103.852H341.045C341.084 105.414 341.538 106.679 342.407 107.646C343.286 108.603 344.399 109.081 345.747 109.081C346.704 109.081 347.515 108.886 348.179 108.495C348.843 108.104 349.424 107.587 349.922 106.942L351.577 108.231C350.249 110.272 348.257 111.293 345.601 111.293ZM345.264 97.084C344.17 97.084 343.252 97.4844 342.51 98.2852C341.768 99.0762 341.309 100.189 341.133 101.625H349.072V101.42C348.994 100.043 348.623 98.9785 347.959 98.2266C347.295 97.4648 346.396 97.084 345.264 97.084ZM364.717 111C364.561 110.688 364.434 110.131 364.336 109.33C363.076 110.639 361.572 111.293 359.824 111.293C358.262 111.293 356.978 110.854 355.972 109.975C354.976 109.086 354.478 107.963 354.478 106.605C354.478 104.955 355.103 103.676 356.353 102.768C357.612 101.85 359.38 101.391 361.655 101.391H364.292V100.146C364.292 99.1982 364.009 98.4463 363.442 97.8896C362.876 97.3232 362.041 97.04 360.938 97.04C359.971 97.04 359.16 97.2842 358.506 97.7725C357.852 98.2607 357.524 98.8516 357.524 99.5449H354.8C354.8 98.7539 355.078 97.9922 355.635 97.2598C356.201 96.5176 356.963 95.9316 357.92 95.502C358.887 95.0723 359.946 94.8574 361.099 94.8574C362.925 94.8574 364.355 95.3164 365.391 96.2344C366.426 97.1426 366.963 98.3975 367.002 99.999V107.294C367.002 108.749 367.188 109.906 367.559 110.766V111H364.717ZM360.22 108.935C361.069 108.935 361.875 108.715 362.637 108.275C363.398 107.836 363.95 107.265 364.292 106.562V103.31H362.168C358.848 103.31 357.188 104.281 357.188 106.225C357.188 107.074 357.471 107.738 358.037 108.217C358.604 108.695 359.331 108.935 360.22 108.935ZM377.607 109.081C378.574 109.081 379.419 108.788 380.142 108.202C380.864 107.616 381.265 106.884 381.343 106.005H383.906C383.857 106.913 383.545 107.777 382.969 108.598C382.393 109.418 381.621 110.072 380.654 110.561C379.697 111.049 378.682 111.293 377.607 111.293C375.449 111.293 373.73 110.575 372.451 109.14C371.182 107.694 370.547 105.722 370.547 103.222V102.768C370.547 101.225 370.83 99.8525 371.396 98.6514C371.963 97.4502 372.773 96.5176 373.828 95.8535C374.893 95.1895 376.147 94.8574 377.593 94.8574C379.37 94.8574 380.845 95.3896 382.017 96.4541C383.198 97.5186 383.828 98.9004 383.906 100.6H381.343C381.265 99.5742 380.874 98.7344 380.171 98.0801C379.478 97.416 378.618 97.084 377.593 97.084C376.216 97.084 375.146 97.582 374.385 98.5781C373.633 99.5645 373.257 100.995 373.257 102.87V103.383C373.257 105.209 373.633 106.615 374.385 107.602C375.137 108.588 376.211 109.081 377.607 109.081ZM390.63 91.3125V95.1504H393.589V97.2451H390.63V107.074C390.63 107.709 390.762 108.188 391.025 108.51C391.289 108.822 391.738 108.979 392.373 108.979C392.686 108.979 393.115 108.92 393.662 108.803V111C392.949 111.195 392.256 111.293 391.582 111.293C390.371 111.293 389.458 110.927 388.843 110.194C388.228 109.462 387.92 108.422 387.92 107.074V97.2451H385.034V95.1504H387.92V91.3125H390.63ZM406.128 89.6719H408.955V104.774C408.955 106.815 408.34 108.412 407.109 109.564C405.889 110.717 404.258 111.293 402.217 111.293C400.098 111.293 398.447 110.751 397.266 109.667C396.084 108.583 395.493 107.064 395.493 105.111H398.306C398.306 106.332 398.638 107.284 399.302 107.968C399.976 108.651 400.947 108.993 402.217 108.993C403.379 108.993 404.316 108.627 405.029 107.895C405.752 107.162 406.118 106.137 406.128 104.818V89.6719ZM422.549 106.796C422.549 106.063 422.271 105.497 421.714 105.097C421.167 104.687 420.205 104.335 418.828 104.042C417.461 103.749 416.372 103.397 415.562 102.987C414.761 102.577 414.165 102.089 413.774 101.522C413.394 100.956 413.203 100.282 413.203 99.501C413.203 98.2021 413.75 97.1035 414.844 96.2051C415.947 95.3066 417.354 94.8574 419.062 94.8574C420.859 94.8574 422.314 95.3213 423.428 96.249C424.551 97.1768 425.112 98.3633 425.112 99.8086H422.388C422.388 99.0664 422.07 98.4268 421.436 97.8896C420.811 97.3525 420.02 97.084 419.062 97.084C418.076 97.084 417.305 97.2988 416.748 97.7285C416.191 98.1582 415.913 98.7197 415.913 99.4131C415.913 100.067 416.172 100.561 416.689 100.893C417.207 101.225 418.14 101.542 419.487 101.845C420.845 102.147 421.943 102.509 422.783 102.929C423.623 103.349 424.243 103.856 424.644 104.452C425.054 105.038 425.259 105.756 425.259 106.605C425.259 108.021 424.692 109.159 423.56 110.019C422.427 110.868 420.957 111.293 419.15 111.293C417.881 111.293 416.758 111.068 415.781 110.619C414.805 110.17 414.038 109.545 413.481 108.744C412.935 107.934 412.661 107.06 412.661 106.122H415.371C415.42 107.03 415.781 107.753 416.455 108.29C417.139 108.817 418.037 109.081 419.15 109.081C420.176 109.081 420.996 108.876 421.611 108.466C422.236 108.046 422.549 107.489 422.549 106.796Z" fill="black"/>
<rect x="154.5" y="19.5" width="150" height="36" rx="15.5" fill="white" stroke="white"/>
<path d="M45.9961 155H27.3633V152.402L37.207 141.465C38.6654 139.811 39.668 138.47 40.2148 137.441C40.7747 136.4 41.0547 135.326 41.0547 134.219C41.0547 132.734 40.6055 131.517 39.707 130.566C38.8086 129.616 37.6107 129.141 36.1133 129.141C34.3164 129.141 32.9167 129.655 31.9141 130.684C30.9245 131.699 30.4297 133.118 30.4297 134.941H26.8164C26.8164 132.324 27.6562 130.208 29.3359 128.594C31.0286 126.979 33.2878 126.172 36.1133 126.172C38.7565 126.172 40.8464 126.868 42.3828 128.262C43.9193 129.642 44.6875 131.484 44.6875 133.789C44.6875 136.589 42.9036 139.922 39.3359 143.789L31.7188 152.051H45.9961V155ZM67.6562 142.871C67.6562 147.103 66.9336 150.247 65.4883 152.305C64.043 154.362 61.7839 155.391 58.7109 155.391C55.6771 155.391 53.431 154.388 51.9727 152.383C50.5143 150.365 49.7591 147.357 49.707 143.359V138.535C49.707 134.355 50.4297 131.25 51.875 129.219C53.3203 127.188 55.5859 126.172 58.6719 126.172C61.7318 126.172 63.9844 127.155 65.4297 129.121C66.875 131.074 67.6172 134.095 67.6562 138.184V142.871ZM64.043 137.93C64.043 134.87 63.6133 132.643 62.7539 131.25C61.8945 129.844 60.5339 129.141 58.6719 129.141C56.8229 129.141 55.4753 129.837 54.6289 131.23C53.7826 132.624 53.3464 134.766 53.3203 137.656V143.438C53.3203 146.51 53.763 148.783 54.6484 150.254C55.5469 151.712 56.901 152.441 58.7109 152.441C60.4948 152.441 61.8164 151.751 62.6758 150.371C63.5482 148.991 64.0039 146.816 64.043 143.848V137.93ZM90.918 155H72.2852V152.402L82.1289 141.465C83.5872 139.811 84.5898 138.47 85.1367 137.441C85.6966 136.4 85.9766 135.326 85.9766 134.219C85.9766 132.734 85.5273 131.517 84.6289 130.566C83.7305 129.616 82.5326 129.141 81.0352 129.141C79.2383 129.141 77.8385 129.655 76.8359 130.684C75.8464 131.699 75.3516 133.118 75.3516 134.941H71.7383C71.7383 132.324 72.5781 130.208 74.2578 128.594C75.9505 126.979 78.2096 126.172 81.0352 126.172C83.6784 126.172 85.7682 126.868 87.3047 128.262C88.8411 129.642 89.6094 131.484 89.6094 133.789C89.6094 136.589 87.8255 139.922 84.2578 143.789L76.6406 152.051H90.918V155ZM112.578 142.871C112.578 147.103 111.855 150.247 110.41 152.305C108.965 154.362 106.706 155.391 103.633 155.391C100.599 155.391 98.3529 154.388 96.8945 152.383C95.4362 150.365 94.681 147.357 94.6289 143.359V138.535C94.6289 134.355 95.3516 131.25 96.7969 129.219C98.2422 127.188 100.508 126.172 103.594 126.172C106.654 126.172 108.906 127.155 110.352 129.121C111.797 131.074 112.539 134.095 112.578 138.184V142.871ZM108.965 137.93C108.965 134.87 108.535 132.643 107.676 131.25C106.816 129.844 105.456 129.141 103.594 129.141C101.745 129.141 100.397 129.837 99.5508 131.23C98.7044 132.624 98.2682 134.766 98.2422 137.656V143.438C98.2422 146.51 98.6849 148.783 99.5703 150.254C100.469 151.712 101.823 152.441 103.633 152.441C105.417 152.441 106.738 151.751 107.598 150.371C108.47 148.991 108.926 146.816 108.965 143.848V137.93ZM38.7305 190.496H32.0508V202H28.2812V173.562H37.6953C40.8984 173.562 43.3594 174.292 45.0781 175.75C46.8099 177.208 47.6758 179.331 47.6758 182.117C47.6758 183.888 47.194 185.431 46.2305 186.746C45.2799 188.061 43.9518 189.044 42.2461 189.695L48.9258 201.766V202H44.9023L38.7305 190.496ZM32.0508 187.43H37.8125C39.6745 187.43 41.1523 186.948 42.2461 185.984C43.3529 185.021 43.9062 183.732 43.9062 182.117C43.9062 180.359 43.3789 179.012 42.3242 178.074C41.2826 177.137 39.7721 176.661 37.793 176.648H32.0508V187.43ZM61.1523 202.391C58.2878 202.391 55.957 201.453 54.1602 199.578C52.3633 197.69 51.4648 195.171 51.4648 192.02V191.355C51.4648 189.259 51.862 187.391 52.6562 185.75C53.4635 184.096 54.5833 182.807 56.0156 181.883C57.4609 180.945 59.0234 180.477 60.7031 180.477C63.4505 180.477 65.5859 181.382 67.1094 183.191C68.6328 185.001 69.3945 187.592 69.3945 190.965V192.469H55.0781C55.1302 194.552 55.7357 196.238 56.8945 197.527C58.0664 198.803 59.5508 199.441 61.3477 199.441C62.6237 199.441 63.7044 199.181 64.5898 198.66C65.4753 198.139 66.25 197.449 66.9141 196.59L69.1211 198.309C67.3503 201.03 64.694 202.391 61.1523 202.391ZM60.7031 183.445C59.2448 183.445 58.0208 183.979 57.0312 185.047C56.0417 186.102 55.4297 187.586 55.1953 189.5H65.7812V189.227C65.6771 187.391 65.1823 185.971 64.2969 184.969C63.4115 183.953 62.2135 183.445 60.7031 183.445ZM86.6406 202C86.4323 201.583 86.263 200.841 86.1328 199.773C84.4531 201.518 82.4479 202.391 80.1172 202.391C78.0339 202.391 76.3216 201.805 74.9805 200.633C73.6523 199.448 72.9883 197.951 72.9883 196.141C72.9883 193.94 73.8216 192.234 75.4883 191.023C77.168 189.799 79.5247 189.188 82.5586 189.188H86.0742V187.527C86.0742 186.264 85.6966 185.262 84.9414 184.52C84.1862 183.764 83.0729 183.387 81.6016 183.387C80.3125 183.387 79.2318 183.712 78.3594 184.363C77.487 185.014 77.0508 185.802 77.0508 186.727H73.418C73.418 185.672 73.7891 184.656 74.5312 183.68C75.2865 182.69 76.3021 181.909 77.5781 181.336C78.8672 180.763 80.2799 180.477 81.8164 180.477C84.2513 180.477 86.1589 181.089 87.5391 182.312C88.9193 183.523 89.6354 185.197 89.6875 187.332V197.059C89.6875 198.999 89.9349 200.542 90.4297 201.688V202H86.6406ZM80.6445 199.246C81.7773 199.246 82.8516 198.953 83.8672 198.367C84.8828 197.781 85.6185 197.02 86.0742 196.082V191.746H83.2422C78.8151 191.746 76.6016 193.042 76.6016 195.633C76.6016 196.766 76.9792 197.651 77.7344 198.289C78.4896 198.927 79.4596 199.246 80.6445 199.246ZM103.828 199.441C105.117 199.441 106.243 199.051 107.207 198.27C108.171 197.488 108.704 196.512 108.809 195.34H112.227C112.161 196.551 111.745 197.703 110.977 198.797C110.208 199.891 109.18 200.763 107.891 201.414C106.615 202.065 105.26 202.391 103.828 202.391C100.951 202.391 98.6589 201.434 96.9531 199.52C95.2604 197.592 94.4141 194.962 94.4141 191.629V191.023C94.4141 188.966 94.7917 187.137 95.5469 185.535C96.3021 183.934 97.3828 182.69 98.7891 181.805C100.208 180.919 101.882 180.477 103.809 180.477C106.178 180.477 108.145 181.186 109.707 182.605C111.283 184.025 112.122 185.867 112.227 188.133H108.809C108.704 186.766 108.184 185.646 107.246 184.773C106.322 183.888 105.176 183.445 103.809 183.445C101.973 183.445 100.547 184.109 99.5312 185.438C98.5286 186.753 98.0273 188.66 98.0273 191.16V191.844C98.0273 194.279 98.5286 196.154 99.5312 197.469C100.534 198.784 101.966 199.441 103.828 199.441ZM121.191 175.75V180.867H125.137V183.66H121.191V196.766C121.191 197.612 121.367 198.25 121.719 198.68C122.07 199.096 122.669 199.305 123.516 199.305C123.932 199.305 124.505 199.227 125.234 199.07V202C124.284 202.26 123.359 202.391 122.461 202.391C120.846 202.391 119.629 201.902 118.809 200.926C117.988 199.949 117.578 198.562 117.578 196.766V183.66H113.73V180.867H117.578V175.75H121.191ZM141.855 173.562H145.625V193.699C145.625 196.421 144.805 198.549 143.164 200.086C141.536 201.622 139.362 202.391 136.641 202.391C133.815 202.391 131.615 201.668 130.039 200.223C128.464 198.777 127.676 196.753 127.676 194.148H131.426C131.426 195.776 131.868 197.046 132.754 197.957C133.652 198.868 134.948 199.324 136.641 199.324C138.19 199.324 139.44 198.836 140.391 197.859C141.354 196.883 141.842 195.516 141.855 193.758V173.562ZM163.75 196.395C163.75 195.418 163.379 194.663 162.637 194.129C161.908 193.582 160.625 193.113 158.789 192.723C156.966 192.332 155.514 191.863 154.434 191.316C153.366 190.77 152.572 190.118 152.051 189.363C151.543 188.608 151.289 187.71 151.289 186.668C151.289 184.936 152.018 183.471 153.477 182.273C154.948 181.076 156.823 180.477 159.102 180.477C161.497 180.477 163.438 181.095 164.922 182.332C166.419 183.569 167.168 185.151 167.168 187.078H163.535C163.535 186.089 163.112 185.236 162.266 184.52C161.432 183.803 160.378 183.445 159.102 183.445C157.786 183.445 156.758 183.732 156.016 184.305C155.273 184.878 154.902 185.626 154.902 186.551C154.902 187.423 155.247 188.081 155.938 188.523C156.628 188.966 157.871 189.389 159.668 189.793C161.478 190.197 162.943 190.678 164.062 191.238C165.182 191.798 166.009 192.475 166.543 193.27C167.09 194.051 167.363 195.008 167.363 196.141C167.363 198.029 166.608 199.546 165.098 200.691C163.587 201.824 161.628 202.391 159.219 202.391C157.526 202.391 156.029 202.091 154.727 201.492C153.424 200.893 152.402 200.06 151.66 198.992C150.931 197.911 150.566 196.746 150.566 195.496H154.18C154.245 196.707 154.727 197.671 155.625 198.387C156.536 199.09 157.734 199.441 159.219 199.441C160.586 199.441 161.68 199.168 162.5 198.621C163.333 198.061 163.75 197.319 163.75 196.395ZM49.2188 239.977C48.8672 242.984 47.7539 245.309 45.8789 246.949C44.0169 248.577 41.5365 249.391 38.4375 249.391C35.0781 249.391 32.3828 248.186 30.3516 245.777C28.3333 243.368 27.3242 240.146 27.3242 236.109V233.375C27.3242 230.732 27.793 228.408 28.7305 226.402C29.681 224.397 31.0221 222.861 32.7539 221.793C34.4857 220.712 36.4909 220.172 38.7695 220.172C41.7904 220.172 44.2122 221.018 46.0352 222.711C47.8581 224.391 48.9193 226.721 49.2188 229.703H45.4492C45.1237 227.438 44.4141 225.797 43.3203 224.781C42.2396 223.766 40.7227 223.258 38.7695 223.258C36.3737 223.258 34.4922 224.143 33.125 225.914C31.7708 227.685 31.0938 230.204 31.0938 233.473V236.227C31.0938 239.312 31.7383 241.767 33.0273 243.59C34.3164 245.413 36.1198 246.324 38.4375 246.324C40.5208 246.324 42.1159 245.855 43.2227 244.918C44.3424 243.967 45.0846 242.32 45.4492 239.977H49.2188ZM52.832 238.238C52.832 236.168 53.2357 234.306 54.043 232.652C54.8633 230.999 55.9961 229.723 57.4414 228.824C58.8997 227.926 60.5599 227.477 62.4219 227.477C65.2995 227.477 67.6237 228.473 69.3945 230.465C71.1784 232.457 72.0703 235.107 72.0703 238.414V238.668C72.0703 240.725 71.6732 242.574 70.8789 244.215C70.0977 245.842 68.9714 247.112 67.5 248.023C66.0417 248.935 64.362 249.391 62.4609 249.391C59.5964 249.391 57.2721 248.395 55.4883 246.402C53.7174 244.41 52.832 241.773 52.832 238.492V238.238ZM56.4648 238.668C56.4648 241.012 57.0052 242.893 58.0859 244.312C59.1797 245.732 60.638 246.441 62.4609 246.441C64.2969 246.441 65.7552 245.725 66.8359 244.293C67.9167 242.848 68.457 240.829 68.457 238.238C68.457 235.921 67.9036 234.046 66.7969 232.613C65.7031 231.168 64.2448 230.445 62.4219 230.445C60.638 230.445 59.1992 231.155 58.1055 232.574C57.0117 233.993 56.4648 236.025 56.4648 238.668ZM80.0195 227.867L80.1367 230.523C81.7513 228.492 83.8607 227.477 86.4648 227.477C90.931 227.477 93.1836 229.996 93.2227 235.035V249H89.6094V235.016C89.5964 233.492 89.2448 232.366 88.5547 231.637C87.8776 230.908 86.8164 230.543 85.3711 230.543C84.1992 230.543 83.1706 230.855 82.2852 231.48C81.3997 232.105 80.7096 232.926 80.2148 233.941V249H76.6016V227.867H80.0195ZM100.449 249V230.66H97.1094V227.867H100.449V225.699C100.449 223.434 101.055 221.682 102.266 220.445C103.477 219.208 105.189 218.59 107.402 218.59C108.236 218.59 109.062 218.701 109.883 218.922L109.688 221.852C109.076 221.734 108.424 221.676 107.734 221.676C106.562 221.676 105.658 222.021 105.02 222.711C104.382 223.388 104.062 224.365 104.062 225.641V227.867H108.574V230.66H104.062V249H100.449ZM120.879 249.391C118.014 249.391 115.684 248.453 113.887 246.578C112.09 244.69 111.191 242.171 111.191 239.02V238.355C111.191 236.259 111.589 234.391 112.383 232.75C113.19 231.096 114.31 229.807 115.742 228.883C117.188 227.945 118.75 227.477 120.43 227.477C123.177 227.477 125.312 228.382 126.836 230.191C128.359 232.001 129.121 234.592 129.121 237.965V239.469H114.805C114.857 241.552 115.462 243.238 116.621 244.527C117.793 245.803 119.277 246.441 121.074 246.441C122.35 246.441 123.431 246.181 124.316 245.66C125.202 245.139 125.977 244.449 126.641 243.59L128.848 245.309C127.077 248.03 124.421 249.391 120.879 249.391ZM120.43 230.445C118.971 230.445 117.747 230.979 116.758 232.047C115.768 233.102 115.156 234.586 114.922 236.5H125.508V236.227C125.404 234.391 124.909 232.971 124.023 231.969C123.138 230.953 121.94 230.445 120.43 230.445ZM143.535 231.109C142.988 231.018 142.396 230.973 141.758 230.973C139.388 230.973 137.78 231.982 136.934 234V249H133.32V227.867H136.836L136.895 230.309C138.079 228.421 139.759 227.477 141.934 227.477C142.637 227.477 143.171 227.568 143.535 227.75V231.109ZM155.254 249.391C152.389 249.391 150.059 248.453 148.262 246.578C146.465 244.69 145.566 242.171 145.566 239.02V238.355C145.566 236.259 145.964 234.391 146.758 232.75C147.565 231.096 148.685 229.807 150.117 228.883C151.562 227.945 153.125 227.477 154.805 227.477C157.552 227.477 159.688 228.382 161.211 230.191C162.734 232.001 163.496 234.592 163.496 237.965V239.469H149.18C149.232 241.552 149.837 243.238 150.996 244.527C152.168 245.803 153.652 246.441 155.449 246.441C156.725 246.441 157.806 246.181 158.691 245.66C159.577 245.139 160.352 244.449 161.016 243.59L163.223 245.309C161.452 248.03 158.796 249.391 155.254 249.391ZM154.805 230.445C153.346 230.445 152.122 230.979 151.133 232.047C150.143 233.102 149.531 234.586 149.297 236.5H159.883V236.227C159.779 234.391 159.284 232.971 158.398 231.969C157.513 230.953 156.315 230.445 154.805 230.445ZM171.113 227.867L171.23 230.523C172.845 228.492 174.954 227.477 177.559 227.477C182.025 227.477 184.277 229.996 184.316 235.035V249H180.703V235.016C180.69 233.492 180.339 232.366 179.648 231.637C178.971 230.908 177.91 230.543 176.465 230.543C175.293 230.543 174.264 230.855 173.379 231.48C172.493 232.105 171.803 232.926 171.309 233.941V249H167.695V227.867H171.113ZM198.242 246.441C199.531 246.441 200.658 246.051 201.621 245.27C202.585 244.488 203.118 243.512 203.223 242.34H206.641C206.576 243.551 206.159 244.703 205.391 245.797C204.622 246.891 203.594 247.763 202.305 248.414C201.029 249.065 199.674 249.391 198.242 249.391C195.365 249.391 193.073 248.434 191.367 246.52C189.674 244.592 188.828 241.962 188.828 238.629V238.023C188.828 235.966 189.206 234.137 189.961 232.535C190.716 230.934 191.797 229.69 193.203 228.805C194.622 227.919 196.296 227.477 198.223 227.477C200.592 227.477 202.559 228.186 204.121 229.605C205.697 231.025 206.536 232.867 206.641 235.133H203.223C203.118 233.766 202.598 232.646 201.66 231.773C200.736 230.888 199.59 230.445 198.223 230.445C196.387 230.445 194.961 231.109 193.945 232.438C192.943 233.753 192.441 235.66 192.441 238.16V238.844C192.441 241.279 192.943 243.154 193.945 244.469C194.948 245.784 196.38 246.441 198.242 246.441ZM219.473 249.391C216.608 249.391 214.277 248.453 212.48 246.578C210.684 244.69 209.785 242.171 209.785 239.02V238.355C209.785 236.259 210.182 234.391 210.977 232.75C211.784 231.096 212.904 229.807 214.336 228.883C215.781 227.945 217.344 227.477 219.023 227.477C221.771 227.477 223.906 228.382 225.43 230.191C226.953 232.001 227.715 234.592 227.715 237.965V239.469H213.398C213.451 241.552 214.056 243.238 215.215 244.527C216.387 245.803 217.871 246.441 219.668 246.441C220.944 246.441 222.025 246.181 222.91 245.66C223.796 245.139 224.57 244.449 225.234 243.59L227.441 245.309C225.671 248.03 223.014 249.391 219.473 249.391ZM219.023 230.445C217.565 230.445 216.341 230.979 215.352 232.047C214.362 233.102 213.75 234.586 213.516 236.5H224.102V236.227C223.997 234.391 223.503 232.971 222.617 231.969C221.732 230.953 220.534 230.445 219.023 230.445Z" fill="black"/>
<path d="M37.1816 282.62H43.2461V284H35.4854V271.203H37.1816V282.62ZM50.7871 284C50.6934 283.812 50.6172 283.479 50.5586 282.998C49.8027 283.783 48.9004 284.176 47.8516 284.176C46.9141 284.176 46.1436 283.912 45.54 283.385C44.9424 282.852 44.6436 282.178 44.6436 281.363C44.6436 280.373 45.0186 279.605 45.7686 279.061C46.5244 278.51 47.585 278.234 48.9502 278.234H50.5322V277.487C50.5322 276.919 50.3623 276.468 50.0225 276.134C49.6826 275.794 49.1816 275.624 48.5195 275.624C47.9395 275.624 47.4531 275.771 47.0605 276.063C46.668 276.356 46.4717 276.711 46.4717 277.127H44.8369C44.8369 276.652 45.0039 276.195 45.3379 275.756C45.6777 275.311 46.1348 274.959 46.709 274.701C47.2891 274.443 47.9248 274.314 48.6162 274.314C49.7119 274.314 50.5703 274.59 51.1914 275.141C51.8125 275.686 52.1348 276.438 52.1582 277.399V281.776C52.1582 282.649 52.2695 283.344 52.4922 283.859V284H50.7871ZM48.0889 282.761C48.5986 282.761 49.082 282.629 49.5391 282.365C49.9961 282.102 50.3271 281.759 50.5322 281.337V279.386H49.2578C47.2656 279.386 46.2695 279.969 46.2695 281.135C46.2695 281.645 46.4395 282.043 46.7793 282.33C47.1191 282.617 47.5557 282.761 48.0889 282.761ZM54.3203 279.166C54.3203 277.684 54.6631 276.506 55.3486 275.633C56.0342 274.754 56.9424 274.314 58.0732 274.314C59.2334 274.314 60.1387 274.725 60.7891 275.545L60.8682 274.49H62.3535V283.771C62.3535 285.002 61.9873 285.972 61.2549 286.681C60.5283 287.39 59.5498 287.744 58.3193 287.744C57.6338 287.744 56.9629 287.598 56.3066 287.305C55.6504 287.012 55.1494 286.61 54.8037 286.101L55.6475 285.125C56.3447 285.986 57.1973 286.417 58.2051 286.417C58.9961 286.417 59.6113 286.194 60.0508 285.749C60.4961 285.304 60.7188 284.677 60.7188 283.868V283.051C60.0684 283.801 59.1807 284.176 58.0557 284.176C56.9424 284.176 56.04 283.728 55.3486 282.831C54.6631 281.935 54.3203 280.713 54.3203 279.166ZM55.9551 279.351C55.9551 280.423 56.1748 281.267 56.6143 281.882C57.0537 282.491 57.6689 282.796 58.46 282.796C59.4854 282.796 60.2383 282.33 60.7188 281.398V277.057C60.2207 276.148 59.4736 275.694 58.4775 275.694C57.6865 275.694 57.0684 276.002 56.623 276.617C56.1777 277.232 55.9551 278.144 55.9551 279.351ZM64.3838 279.157C64.3838 278.226 64.5654 277.388 64.9287 276.644C65.2979 275.899 65.8076 275.325 66.458 274.921C67.1143 274.517 67.8613 274.314 68.6992 274.314C69.9941 274.314 71.04 274.763 71.8369 275.659C72.6396 276.556 73.041 277.748 73.041 279.236V279.351C73.041 280.276 72.8623 281.108 72.5049 281.847C72.1533 282.579 71.6465 283.15 70.9844 283.561C70.3281 283.971 69.5723 284.176 68.7168 284.176C67.4277 284.176 66.3818 283.728 65.5791 282.831C64.7822 281.935 64.3838 280.748 64.3838 279.271V279.157ZM66.0186 279.351C66.0186 280.405 66.2617 281.252 66.748 281.891C67.2402 282.529 67.8965 282.849 68.7168 282.849C69.543 282.849 70.1992 282.526 70.6855 281.882C71.1719 281.231 71.415 280.323 71.415 279.157C71.415 278.114 71.166 277.271 70.668 276.626C70.1758 275.976 69.5195 275.65 68.6992 275.65C67.8965 275.65 67.249 275.97 66.7568 276.608C66.2646 277.247 66.0186 278.161 66.0186 279.351ZM80.6172 281.478C80.6172 281.038 80.4502 280.698 80.1162 280.458C79.7881 280.212 79.2109 280.001 78.3848 279.825C77.5645 279.649 76.9111 279.438 76.4248 279.192C75.9443 278.946 75.5869 278.653 75.3525 278.313C75.124 277.974 75.0098 277.569 75.0098 277.101C75.0098 276.321 75.3379 275.662 75.9941 275.123C76.6562 274.584 77.5 274.314 78.5254 274.314C79.6035 274.314 80.4766 274.593 81.1445 275.149C81.8184 275.706 82.1553 276.418 82.1553 277.285H80.5205C80.5205 276.84 80.3301 276.456 79.9492 276.134C79.5742 275.812 79.0996 275.65 78.5254 275.65C77.9336 275.65 77.4707 275.779 77.1367 276.037C76.8027 276.295 76.6357 276.632 76.6357 277.048C76.6357 277.44 76.791 277.736 77.1016 277.936C77.4121 278.135 77.9717 278.325 78.7803 278.507C79.5947 278.688 80.2539 278.905 80.7578 279.157C81.2617 279.409 81.6338 279.714 81.874 280.071C82.1201 280.423 82.2432 280.854 82.2432 281.363C82.2432 282.213 81.9033 282.896 81.2236 283.411C80.5439 283.921 79.6621 284.176 78.5781 284.176C77.8164 284.176 77.1426 284.041 76.5566 283.771C75.9707 283.502 75.5107 283.127 75.1768 282.646C74.8486 282.16 74.6846 281.636 74.6846 281.073H76.3105C76.3398 281.618 76.5566 282.052 76.9609 282.374C77.3711 282.69 77.9102 282.849 78.5781 282.849C79.1934 282.849 79.6855 282.726 80.0547 282.479C80.4297 282.228 80.6172 281.894 80.6172 281.478ZM84.3086 286.549L83.3857 285.916C83.9365 285.148 84.2236 284.357 84.2471 283.543V282.075H85.8379V283.35C85.8379 283.941 85.6914 284.533 85.3984 285.125C85.1113 285.717 84.748 286.191 84.3086 286.549ZM102.449 284H100.753L94.3105 274.139V284H92.6143V271.203H94.3105L100.771 281.108V271.203H102.449V284ZM106.958 284H105.332V274.49H106.958V284ZM105.2 271.968C105.2 271.704 105.279 271.481 105.438 271.3C105.602 271.118 105.842 271.027 106.158 271.027C106.475 271.027 106.715 271.118 106.879 271.3C107.043 271.481 107.125 271.704 107.125 271.968C107.125 272.231 107.043 272.451 106.879 272.627C106.715 272.803 106.475 272.891 106.158 272.891C105.842 272.891 105.602 272.803 105.438 272.627C105.279 272.451 105.2 272.231 105.2 271.968ZM109.182 279.166C109.182 277.684 109.524 276.506 110.21 275.633C110.896 274.754 111.804 274.314 112.935 274.314C114.095 274.314 115 274.725 115.65 275.545L115.729 274.49H117.215V283.771C117.215 285.002 116.849 285.972 116.116 286.681C115.39 287.39 114.411 287.744 113.181 287.744C112.495 287.744 111.824 287.598 111.168 287.305C110.512 287.012 110.011 286.61 109.665 286.101L110.509 285.125C111.206 285.986 112.059 286.417 113.066 286.417C113.857 286.417 114.473 286.194 114.912 285.749C115.357 285.304 115.58 284.677 115.58 283.868V283.051C114.93 283.801 114.042 284.176 112.917 284.176C111.804 284.176 110.901 283.728 110.21 282.831C109.524 281.935 109.182 280.713 109.182 279.166ZM110.816 279.351C110.816 280.423 111.036 281.267 111.476 281.882C111.915 282.491 112.53 282.796 113.321 282.796C114.347 282.796 115.1 282.33 115.58 281.398V277.057C115.082 276.148 114.335 275.694 113.339 275.694C112.548 275.694 111.93 276.002 111.484 276.617C111.039 277.232 110.816 278.144 110.816 279.351ZM123.622 284.176C122.333 284.176 121.284 283.754 120.476 282.91C119.667 282.061 119.263 280.927 119.263 279.509V279.21C119.263 278.267 119.441 277.426 119.799 276.688C120.162 275.943 120.666 275.363 121.311 274.947C121.961 274.525 122.664 274.314 123.42 274.314C124.656 274.314 125.617 274.722 126.303 275.536C126.988 276.351 127.331 277.517 127.331 279.034V279.711H120.889C120.912 280.648 121.185 281.407 121.706 281.987C122.233 282.562 122.901 282.849 123.71 282.849C124.284 282.849 124.771 282.731 125.169 282.497C125.567 282.263 125.916 281.952 126.215 281.565L127.208 282.339C126.411 283.563 125.216 284.176 123.622 284.176ZM123.42 275.65C122.764 275.65 122.213 275.891 121.768 276.371C121.322 276.846 121.047 277.514 120.941 278.375H125.705V278.252C125.658 277.426 125.436 276.787 125.037 276.336C124.639 275.879 124.1 275.65 123.42 275.65ZM133.817 275.949C133.571 275.908 133.305 275.888 133.018 275.888C131.951 275.888 131.228 276.342 130.847 277.25V284H129.221V274.49H130.803L130.829 275.589C131.362 274.739 132.118 274.314 133.097 274.314C133.413 274.314 133.653 274.355 133.817 274.438V275.949ZM137.087 284H135.461V274.49H137.087V284ZM135.329 271.968C135.329 271.704 135.408 271.481 135.566 271.3C135.73 271.118 135.971 271.027 136.287 271.027C136.604 271.027 136.844 271.118 137.008 271.3C137.172 271.481 137.254 271.704 137.254 271.968C137.254 272.231 137.172 272.451 137.008 272.627C136.844 272.803 136.604 272.891 136.287 272.891C135.971 272.891 135.73 272.803 135.566 272.627C135.408 272.451 135.329 272.231 135.329 271.968ZM145.568 284C145.475 283.812 145.398 283.479 145.34 282.998C144.584 283.783 143.682 284.176 142.633 284.176C141.695 284.176 140.925 283.912 140.321 283.385C139.724 282.852 139.425 282.178 139.425 281.363C139.425 280.373 139.8 279.605 140.55 279.061C141.306 278.51 142.366 278.234 143.731 278.234H145.313V277.487C145.313 276.919 145.144 276.468 144.804 276.134C144.464 275.794 143.963 275.624 143.301 275.624C142.721 275.624 142.234 275.771 141.842 276.063C141.449 276.356 141.253 276.711 141.253 277.127H139.618C139.618 276.652 139.785 276.195 140.119 275.756C140.459 275.311 140.916 274.959 141.49 274.701C142.07 274.443 142.706 274.314 143.397 274.314C144.493 274.314 145.352 274.59 145.973 275.141C146.594 275.686 146.916 276.438 146.939 277.399V281.776C146.939 282.649 147.051 283.344 147.273 283.859V284H145.568ZM142.87 282.761C143.38 282.761 143.863 282.629 144.32 282.365C144.777 282.102 145.108 281.759 145.313 281.337V279.386H144.039C142.047 279.386 141.051 279.969 141.051 281.135C141.051 281.645 141.221 282.043 141.561 282.33C141.9 282.617 142.337 282.761 142.87 282.761Z" fill="black"/>
<path d="M125.761 398.393L133.277 376.695H137.071L127.315 403H124.244L114.506 376.695H118.282L125.761 398.393ZM143.719 403H140.377V383.452H143.719V403ZM140.106 378.267C140.106 377.725 140.269 377.267 140.594 376.894C140.931 376.521 141.425 376.334 142.075 376.334C142.726 376.334 143.219 376.521 143.557 376.894C143.894 377.267 144.062 377.725 144.062 378.267C144.062 378.809 143.894 379.261 143.557 379.622C143.219 379.983 142.726 380.164 142.075 380.164C141.425 380.164 140.931 379.983 140.594 379.622C140.269 379.261 140.106 378.809 140.106 378.267ZM156.926 400.633C158.118 400.633 159.16 400.272 160.051 399.549C160.943 398.827 161.436 397.923 161.533 396.839H164.694C164.634 397.959 164.249 399.025 163.538 400.037C162.827 401.049 161.876 401.856 160.684 402.458C159.503 403.06 158.251 403.361 156.926 403.361C154.264 403.361 152.144 402.476 150.566 400.706C149.001 398.923 148.218 396.49 148.218 393.407V392.847C148.218 390.944 148.567 389.251 149.266 387.77C149.964 386.289 150.964 385.138 152.265 384.319C153.577 383.5 155.125 383.091 156.908 383.091C159.1 383.091 160.918 383.747 162.364 385.06C163.821 386.373 164.598 388.077 164.694 390.173H161.533C161.436 388.908 160.955 387.872 160.087 387.065C159.232 386.246 158.172 385.837 156.908 385.837C155.209 385.837 153.891 386.451 152.951 387.68C152.024 388.896 151.56 390.661 151.56 392.973V393.605C151.56 395.858 152.024 397.592 152.951 398.809C153.879 400.025 155.203 400.633 156.926 400.633ZM172.987 378.719V383.452H176.636V386.036H172.987V398.158C172.987 398.941 173.149 399.531 173.475 399.929C173.8 400.314 174.354 400.507 175.137 400.507C175.522 400.507 176.052 400.435 176.727 400.29V403C175.847 403.241 174.992 403.361 174.161 403.361C172.668 403.361 171.542 402.91 170.783 402.006C170.024 401.103 169.645 399.82 169.645 398.158V386.036H166.085V383.452H169.645V378.719H172.987ZM179.31 393.045C179.31 391.13 179.683 389.408 180.43 387.878C181.189 386.349 182.237 385.168 183.574 384.337C184.923 383.506 186.458 383.091 188.181 383.091C190.842 383.091 192.992 384.012 194.63 385.855C196.28 387.698 197.105 390.149 197.105 393.208V393.443C197.105 395.346 196.738 397.056 196.003 398.574C195.281 400.079 194.239 401.254 192.878 402.097C191.529 402.94 189.975 403.361 188.217 403.361C185.567 403.361 183.417 402.44 181.767 400.597C180.129 398.754 179.31 396.315 179.31 393.28V393.045ZM182.67 393.443C182.67 395.611 183.17 397.351 184.17 398.664C185.182 399.977 186.531 400.633 188.217 400.633C189.915 400.633 191.264 399.971 192.264 398.646C193.263 397.309 193.763 395.442 193.763 393.045C193.763 390.902 193.251 389.167 192.228 387.842C191.216 386.505 189.867 385.837 188.181 385.837C186.531 385.837 185.2 386.493 184.188 387.806C183.176 389.119 182.67 390.998 182.67 393.443ZM210.746 386.451C210.24 386.367 209.692 386.325 209.102 386.325C206.91 386.325 205.422 387.258 204.639 389.125V403H201.297V383.452H204.549L204.603 385.71C205.699 383.964 207.253 383.091 209.264 383.091C209.915 383.091 210.408 383.175 210.746 383.344V386.451ZM220.556 398.104L225.108 383.452H228.686L220.827 406.017C219.61 409.269 217.677 410.895 215.027 410.895L214.395 410.841L213.148 410.606V407.896L214.052 407.968C215.184 407.968 216.063 407.739 216.689 407.282C217.328 406.824 217.852 405.987 218.261 404.771L219.002 402.783L212.028 383.452H215.678L220.556 398.104ZM261.603 403H258.116L244.873 382.729V403H241.386V376.695H244.873L258.152 397.056V376.695H261.603V403ZM284.547 398.393L288.305 383.452H291.647L285.956 403H283.246L278.495 388.186L273.87 403H271.16L265.487 383.452H268.811L272.659 398.086L277.212 383.452H279.904L284.547 398.393ZM307.13 403C306.937 402.615 306.781 401.928 306.66 400.94C305.106 402.554 303.252 403.361 301.096 403.361C299.169 403.361 297.585 402.819 296.344 401.735C295.116 400.639 294.501 399.254 294.501 397.58C294.501 395.545 295.272 393.967 296.814 392.847C298.368 391.715 300.548 391.148 303.354 391.148H306.606V389.613C306.606 388.444 306.257 387.517 305.558 386.831C304.86 386.132 303.83 385.783 302.469 385.783C301.276 385.783 300.277 386.084 299.47 386.686C298.663 387.288 298.259 388.017 298.259 388.872H294.899C294.899 387.896 295.242 386.957 295.929 386.054C296.627 385.138 297.567 384.416 298.747 383.886C299.939 383.356 301.246 383.091 302.667 383.091C304.92 383.091 306.684 383.657 307.961 384.789C309.238 385.909 309.9 387.457 309.948 389.432V398.429C309.948 400.224 310.177 401.651 310.635 402.711V403H307.13ZM301.583 400.453C302.631 400.453 303.625 400.182 304.564 399.64C305.504 399.098 306.184 398.393 306.606 397.526V393.515H303.986C299.891 393.515 297.844 394.714 297.844 397.11C297.844 398.158 298.193 398.977 298.892 399.567C299.59 400.158 300.487 400.453 301.583 400.453ZM318.349 383.452L318.458 385.909C319.951 384.03 321.902 383.091 324.311 383.091C328.442 383.091 330.526 385.421 330.562 390.083V403H327.22V390.064C327.208 388.655 326.882 387.613 326.244 386.939C325.618 386.264 324.636 385.927 323.299 385.927C322.215 385.927 321.264 386.216 320.445 386.794C319.626 387.373 318.987 388.131 318.53 389.071V403H315.188V383.452H318.349ZM339.234 403H335.892V383.452H339.234V403ZM335.621 378.267C335.621 377.725 335.783 377.267 336.108 376.894C336.446 376.521 336.939 376.334 337.59 376.334C338.24 376.334 338.734 376.521 339.071 376.894C339.409 377.267 339.577 377.725 339.577 378.267C339.577 378.809 339.409 379.261 339.071 379.622C338.734 379.983 338.24 380.164 337.59 380.164C336.939 380.164 336.446 379.983 336.108 379.622C335.783 379.261 335.621 378.809 335.621 378.267Z" fill="black"/>
<path d="M180.348 439.909C180.11 441.939 179.359 443.508 178.093 444.616C176.836 445.714 175.162 446.264 173.07 446.264C170.803 446.264 168.983 445.451 167.612 443.825C166.25 442.199 165.569 440.023 165.569 437.299V435.453C165.569 433.669 165.885 432.1 166.518 430.747C167.16 429.393 168.065 428.356 169.234 427.635C170.403 426.906 171.756 426.541 173.294 426.541C175.333 426.541 176.968 427.112 178.199 428.255C179.429 429.389 180.146 430.962 180.348 432.975H177.803C177.583 431.445 177.104 430.338 176.366 429.652C175.637 428.967 174.613 428.624 173.294 428.624C171.677 428.624 170.407 429.222 169.484 430.417C168.57 431.612 168.113 433.313 168.113 435.519V437.378C168.113 439.461 168.548 441.118 169.418 442.348C170.289 443.579 171.506 444.194 173.07 444.194C174.477 444.194 175.553 443.877 176.3 443.245C177.056 442.603 177.557 441.491 177.803 439.909H180.348ZM190.328 433.924C189.958 433.862 189.559 433.832 189.128 433.832C187.528 433.832 186.443 434.513 185.872 435.875V446H183.433V431.735H185.806L185.845 433.383C186.645 432.109 187.779 431.472 189.247 431.472C189.721 431.472 190.082 431.533 190.328 431.656V433.924ZM198.238 446.264C196.304 446.264 194.731 445.631 193.518 444.365C192.305 443.091 191.699 441.39 191.699 439.263V438.815C191.699 437.4 191.967 436.139 192.503 435.031C193.048 433.915 193.804 433.045 194.771 432.421C195.746 431.788 196.801 431.472 197.935 431.472C199.789 431.472 201.23 432.083 202.259 433.304C203.287 434.526 203.801 436.275 203.801 438.551V439.566H194.138C194.173 440.973 194.582 442.111 195.364 442.981C196.155 443.842 197.157 444.273 198.37 444.273C199.231 444.273 199.96 444.097 200.558 443.746C201.156 443.394 201.679 442.928 202.127 442.348L203.617 443.508C202.421 445.345 200.628 446.264 198.238 446.264ZM197.935 433.476C196.95 433.476 196.124 433.836 195.456 434.557C194.788 435.269 194.375 436.271 194.217 437.562H201.362V437.378C201.292 436.139 200.958 435.181 200.36 434.504C199.763 433.818 198.954 433.476 197.935 433.476ZM209.945 428.281V431.735H212.608V433.621H209.945V442.467C209.945 443.038 210.063 443.469 210.301 443.759C210.538 444.04 210.942 444.181 211.514 444.181C211.795 444.181 212.182 444.128 212.674 444.022V446C212.032 446.176 211.408 446.264 210.802 446.264C209.712 446.264 208.89 445.934 208.336 445.275C207.783 444.616 207.506 443.68 207.506 442.467V433.621H204.909V431.735H207.506V428.281H209.945ZM221.388 446.264C219.455 446.264 217.881 445.631 216.668 444.365C215.456 443.091 214.849 441.39 214.849 439.263V438.815C214.849 437.4 215.117 436.139 215.653 435.031C216.198 433.915 216.954 433.045 217.921 432.421C218.896 431.788 219.951 431.472 221.085 431.472C222.939 431.472 224.381 432.083 225.409 433.304C226.438 434.526 226.952 436.275 226.952 438.551V439.566H217.288C217.323 440.973 217.732 442.111 218.514 442.981C219.305 443.842 220.307 444.273 221.52 444.273C222.381 444.273 223.111 444.097 223.708 443.746C224.306 443.394 224.829 442.928 225.277 442.348L226.767 443.508C225.572 445.345 223.779 446.264 221.388 446.264ZM221.085 433.476C220.101 433.476 219.274 433.836 218.606 434.557C217.938 435.269 217.525 436.271 217.367 437.562H224.513V437.378C224.442 436.139 224.108 435.181 223.511 434.504C222.913 433.818 222.104 433.476 221.085 433.476ZM232.436 446H229.997V425.75H232.436V446ZM239.001 446H236.562V425.75H239.001V446ZM251.724 446C251.583 445.719 251.469 445.218 251.381 444.497C250.247 445.675 248.894 446.264 247.32 446.264C245.914 446.264 244.758 445.868 243.853 445.077C242.957 444.277 242.508 443.267 242.508 442.045C242.508 440.56 243.071 439.408 244.196 438.591C245.33 437.765 246.92 437.352 248.968 437.352H251.341V436.231C251.341 435.378 251.086 434.702 250.577 434.201C250.067 433.691 249.315 433.436 248.322 433.436C247.452 433.436 246.723 433.656 246.134 434.095C245.545 434.535 245.25 435.066 245.25 435.69H242.798C242.798 434.979 243.049 434.293 243.55 433.634C244.06 432.966 244.745 432.438 245.606 432.052C246.477 431.665 247.43 431.472 248.467 431.472C250.111 431.472 251.398 431.885 252.33 432.711C253.262 433.528 253.745 434.658 253.78 436.099V442.665C253.78 443.974 253.947 445.016 254.281 445.789V446H251.724ZM247.676 444.141C248.441 444.141 249.166 443.943 249.852 443.548C250.537 443.152 251.034 442.638 251.341 442.005V439.079H249.43C246.441 439.079 244.947 439.953 244.947 441.702C244.947 442.467 245.202 443.064 245.712 443.495C246.222 443.926 246.876 444.141 247.676 444.141ZM257.656 444.721C257.656 444.299 257.779 443.948 258.025 443.667C258.28 443.385 258.658 443.245 259.159 443.245C259.66 443.245 260.038 443.385 260.293 443.667C260.557 443.948 260.688 444.299 260.688 444.721C260.688 445.125 260.557 445.464 260.293 445.736C260.038 446.009 259.66 446.145 259.159 446.145C258.658 446.145 258.28 446.009 258.025 445.736C257.779 445.464 257.656 445.125 257.656 444.721ZM267.821 446H265.29V426.805H267.821V446ZM274.386 431.735L274.465 433.528C275.555 432.157 276.979 431.472 278.737 431.472C281.751 431.472 283.272 433.172 283.298 436.574V446H280.859V436.561C280.851 435.532 280.613 434.772 280.147 434.28C279.69 433.788 278.974 433.542 277.999 433.542C277.208 433.542 276.513 433.752 275.916 434.174C275.318 434.596 274.852 435.15 274.518 435.835V446H272.079V431.735H274.386ZM292.698 444.273C293.568 444.273 294.329 444.009 294.979 443.482C295.629 442.955 295.99 442.295 296.06 441.504H298.367C298.323 442.322 298.042 443.1 297.523 443.838C297.005 444.576 296.311 445.165 295.44 445.604C294.579 446.044 293.665 446.264 292.698 446.264C290.756 446.264 289.209 445.618 288.058 444.326C286.915 443.025 286.344 441.25 286.344 439V438.591C286.344 437.202 286.599 435.967 287.108 434.886C287.618 433.805 288.348 432.966 289.297 432.368C290.255 431.771 291.384 431.472 292.685 431.472C294.285 431.472 295.612 431.951 296.667 432.909C297.73 433.867 298.297 435.11 298.367 436.64H296.06C295.99 435.717 295.638 434.961 295.005 434.372C294.381 433.774 293.608 433.476 292.685 433.476C291.446 433.476 290.483 433.924 289.798 434.82C289.121 435.708 288.783 436.996 288.783 438.683V439.145C288.783 440.788 289.121 442.054 289.798 442.941C290.475 443.829 291.441 444.273 292.698 444.273Z" fill="black"/>
<rect x="10" y="536" width="430" height="72" fill="#2C315C"/>
<path d="M67.4976 561.805L73.7729 577.467L80.0483 561.805H83.3311V581H80.7998V573.525L81.0371 565.457L74.7354 581H72.7974L66.5088 565.496L66.7593 573.525V581H64.228V561.805H67.4976ZM90.0679 581H87.6289V566.735H90.0679V581ZM87.4312 562.952C87.4312 562.556 87.5498 562.222 87.7871 561.95C88.0332 561.677 88.3936 561.541 88.8682 561.541C89.3428 561.541 89.7031 561.677 89.9492 561.95C90.1953 562.222 90.3184 562.556 90.3184 562.952C90.3184 563.347 90.1953 563.677 89.9492 563.94C89.7031 564.204 89.3428 564.336 88.8682 564.336C88.3936 564.336 88.0332 564.204 87.7871 563.94C87.5498 563.677 87.4312 563.347 87.4312 562.952ZM99.7051 579.273C100.575 579.273 101.335 579.009 101.986 578.482C102.636 577.955 102.997 577.295 103.067 576.504H105.374C105.33 577.322 105.049 578.1 104.53 578.838C104.012 579.576 103.317 580.165 102.447 580.604C101.586 581.044 100.672 581.264 99.7051 581.264C97.7627 581.264 96.2158 580.618 95.0645 579.326C93.9219 578.025 93.3506 576.25 93.3506 574V573.591C93.3506 572.202 93.6055 570.967 94.1152 569.886C94.625 568.805 95.3545 567.966 96.3037 567.368C97.2617 566.771 98.3911 566.472 99.6919 566.472C101.292 566.472 102.619 566.951 103.673 567.909C104.737 568.867 105.304 570.11 105.374 571.64H103.067C102.997 570.717 102.645 569.961 102.012 569.372C101.388 568.774 100.615 568.476 99.6919 568.476C98.4526 568.476 97.4902 568.924 96.8047 569.82C96.1279 570.708 95.7896 571.996 95.7896 573.683V574.145C95.7896 575.788 96.1279 577.054 96.8047 577.941C97.4814 578.829 98.4482 579.273 99.7051 579.273ZM115.011 568.924C114.642 568.862 114.242 568.832 113.812 568.832C112.212 568.832 111.126 569.513 110.555 570.875V581H108.116V566.735H110.489L110.529 568.383C111.329 567.109 112.462 566.472 113.93 566.472C114.405 566.472 114.765 566.533 115.011 566.656V568.924ZM116.356 573.736C116.356 572.338 116.628 571.082 117.173 569.965C117.727 568.849 118.492 567.988 119.467 567.381C120.452 566.775 121.572 566.472 122.829 566.472C124.771 566.472 126.34 567.144 127.536 568.489C128.74 569.833 129.342 571.622 129.342 573.854V574.026C129.342 575.415 129.074 576.663 128.538 577.77C128.01 578.869 127.25 579.726 126.257 580.341C125.272 580.956 124.139 581.264 122.855 581.264C120.922 581.264 119.353 580.591 118.149 579.247C116.954 577.902 116.356 576.122 116.356 573.907V573.736ZM118.808 574.026C118.808 575.608 119.173 576.878 119.902 577.836C120.641 578.794 121.625 579.273 122.855 579.273C124.095 579.273 125.079 578.79 125.809 577.823C126.538 576.847 126.903 575.485 126.903 573.736C126.903 572.171 126.529 570.906 125.782 569.939C125.044 568.963 124.06 568.476 122.829 568.476C121.625 568.476 120.654 568.955 119.916 569.913C119.177 570.871 118.808 572.242 118.808 574.026ZM140.706 577.216C140.706 576.557 140.456 576.047 139.955 575.687C139.462 575.318 138.597 575.001 137.357 574.738C136.127 574.474 135.147 574.158 134.417 573.789C133.697 573.419 133.161 572.98 132.809 572.47C132.466 571.96 132.295 571.354 132.295 570.651C132.295 569.482 132.787 568.493 133.771 567.685C134.765 566.876 136.03 566.472 137.568 566.472C139.186 566.472 140.495 566.889 141.497 567.724C142.508 568.559 143.013 569.627 143.013 570.928H140.561C140.561 570.26 140.275 569.684 139.704 569.201C139.142 568.717 138.43 568.476 137.568 568.476C136.681 568.476 135.986 568.669 135.485 569.056C134.984 569.442 134.734 569.948 134.734 570.572C134.734 571.161 134.967 571.604 135.433 571.903C135.898 572.202 136.738 572.488 137.951 572.76C139.172 573.033 140.161 573.358 140.917 573.736C141.673 574.114 142.231 574.571 142.591 575.107C142.96 575.634 143.145 576.28 143.145 577.045C143.145 578.319 142.635 579.343 141.616 580.117C140.596 580.881 139.273 581.264 137.647 581.264C136.505 581.264 135.494 581.062 134.615 580.657C133.736 580.253 133.046 579.69 132.545 578.97C132.053 578.24 131.807 577.454 131.807 576.61H134.246C134.29 577.427 134.615 578.078 135.222 578.561C135.837 579.036 136.646 579.273 137.647 579.273C138.57 579.273 139.309 579.088 139.862 578.719C140.425 578.341 140.706 577.84 140.706 577.216ZM145.676 573.736C145.676 572.338 145.949 571.082 146.494 569.965C147.047 568.849 147.812 567.988 148.788 567.381C149.772 566.775 150.893 566.472 152.149 566.472C154.092 566.472 155.661 567.144 156.856 568.489C158.06 569.833 158.662 571.622 158.662 573.854V574.026C158.662 575.415 158.394 576.663 157.858 577.77C157.331 578.869 156.57 579.726 155.577 580.341C154.593 580.956 153.459 581.264 152.176 581.264C150.242 581.264 148.673 580.591 147.469 579.247C146.274 577.902 145.676 576.122 145.676 573.907V573.736ZM148.128 574.026C148.128 575.608 148.493 576.878 149.223 577.836C149.961 578.794 150.945 579.273 152.176 579.273C153.415 579.273 154.399 578.79 155.129 577.823C155.858 576.847 156.223 575.485 156.223 573.736C156.223 572.171 155.85 570.906 155.103 569.939C154.364 568.963 153.38 568.476 152.149 568.476C150.945 568.476 149.974 568.955 149.236 569.913C148.498 570.871 148.128 572.242 148.128 574.026ZM162.92 581V568.621H160.666V566.735H162.92V565.272C162.92 563.743 163.329 562.561 164.146 561.726C164.964 560.891 166.12 560.473 167.614 560.473C168.176 560.473 168.734 560.548 169.288 560.697L169.156 562.675C168.743 562.596 168.304 562.556 167.838 562.556C167.047 562.556 166.436 562.789 166.005 563.255C165.575 563.712 165.359 564.371 165.359 565.232V566.735H168.405V568.621H165.359V581H162.92ZM174.417 563.281V566.735H177.08V568.621H174.417V577.467C174.417 578.038 174.535 578.469 174.772 578.759C175.01 579.04 175.414 579.181 175.985 579.181C176.267 579.181 176.653 579.128 177.146 579.022V581C176.504 581.176 175.88 581.264 175.273 581.264C174.184 581.264 173.362 580.934 172.808 580.275C172.254 579.616 171.978 578.68 171.978 577.467V568.621H169.38V566.735H171.978V563.281H174.417ZM217.711 575.99H209.669L207.863 581H205.253L212.583 561.805H214.798L222.141 581H219.544L217.711 575.99ZM210.434 573.907H216.96L213.69 564.929L210.434 573.907ZM226.65 566.735L226.729 568.528C227.819 567.157 229.243 566.472 231 566.472C234.015 566.472 235.536 568.172 235.562 571.574V581H233.123V571.561C233.114 570.532 232.877 569.772 232.411 569.28C231.954 568.788 231.238 568.542 230.262 568.542C229.471 568.542 228.777 568.752 228.179 569.174C227.582 569.596 227.116 570.15 226.782 570.835V581H224.343V566.735H226.65ZM238.647 573.749C238.647 571.561 239.166 569.803 240.203 568.476C241.24 567.14 242.598 566.472 244.276 566.472C245.946 566.472 247.269 567.043 248.245 568.186V560.75H250.684V581H248.442L248.324 579.471C247.348 580.666 245.99 581.264 244.25 581.264C242.598 581.264 241.249 580.587 240.203 579.233C239.166 577.88 238.647 576.113 238.647 573.934V573.749ZM241.086 574.026C241.086 575.643 241.42 576.909 242.088 577.823C242.756 578.737 243.679 579.194 244.856 579.194C246.403 579.194 247.533 578.5 248.245 577.111V570.559C247.515 569.214 246.395 568.542 244.883 568.542C243.688 568.542 242.756 569.003 242.088 569.926C241.42 570.849 241.086 572.215 241.086 574.026ZM260.4 581.264C258.466 581.264 256.893 580.631 255.68 579.365C254.467 578.091 253.861 576.39 253.861 574.263V573.815C253.861 572.4 254.129 571.139 254.665 570.031C255.21 568.915 255.966 568.045 256.933 567.421C257.908 566.788 258.963 566.472 260.097 566.472C261.951 566.472 263.393 567.083 264.421 568.304C265.449 569.526 265.963 571.275 265.963 573.551V574.566H256.3C256.335 575.973 256.744 577.111 257.526 577.981C258.317 578.842 259.319 579.273 260.532 579.273C261.393 579.273 262.123 579.097 262.72 578.746C263.318 578.394 263.841 577.928 264.289 577.348L265.779 578.508C264.583 580.345 262.791 581.264 260.4 581.264ZM260.097 568.476C259.112 568.476 258.286 568.836 257.618 569.557C256.95 570.269 256.537 571.271 256.379 572.562H263.524V572.378C263.454 571.139 263.12 570.181 262.522 569.504C261.925 568.818 261.116 568.476 260.097 568.476ZM271.448 581H269.009V560.75H271.448V581ZM284.17 581C284.029 580.719 283.915 580.218 283.827 579.497C282.693 580.675 281.34 581.264 279.767 581.264C278.36 581.264 277.205 580.868 276.299 580.077C275.403 579.277 274.955 578.267 274.955 577.045C274.955 575.56 275.517 574.408 276.642 573.591C277.776 572.765 279.367 572.352 281.415 572.352H283.788V571.231C283.788 570.378 283.533 569.702 283.023 569.201C282.513 568.691 281.762 568.436 280.769 568.436C279.898 568.436 279.169 568.656 278.58 569.095C277.991 569.535 277.697 570.066 277.697 570.69H275.245C275.245 569.979 275.495 569.293 275.996 568.634C276.506 567.966 277.191 567.438 278.053 567.052C278.923 566.665 279.876 566.472 280.914 566.472C282.557 566.472 283.845 566.885 284.776 567.711C285.708 568.528 286.191 569.658 286.227 571.099V577.665C286.227 578.974 286.394 580.016 286.728 580.789V581H284.17ZM280.123 579.141C280.887 579.141 281.612 578.943 282.298 578.548C282.983 578.152 283.48 577.638 283.788 577.005V574.079H281.876C278.888 574.079 277.394 574.953 277.394 576.702C277.394 577.467 277.648 578.064 278.158 578.495C278.668 578.926 279.323 579.141 280.123 579.141ZM331.394 578.482C330.743 579.414 329.833 580.112 328.665 580.578C327.504 581.035 326.151 581.264 324.604 581.264C323.04 581.264 321.651 580.899 320.438 580.169C319.225 579.431 318.285 578.385 317.617 577.032C316.958 575.678 316.619 574.109 316.602 572.325V570.651C316.602 567.759 317.274 565.518 318.619 563.927C319.972 562.336 321.871 561.541 324.314 561.541C326.318 561.541 327.931 562.055 329.152 563.083C330.374 564.103 331.121 565.553 331.394 567.434H328.862C328.388 564.894 326.876 563.624 324.327 563.624C322.631 563.624 321.343 564.222 320.464 565.417C319.594 566.604 319.155 568.326 319.146 570.585V572.154C319.146 574.307 319.638 576.021 320.623 577.295C321.607 578.561 322.938 579.194 324.617 579.194C325.566 579.194 326.397 579.088 327.109 578.877C327.821 578.667 328.41 578.311 328.875 577.81V573.499H324.433V571.442H331.394V578.482ZM334.597 573.736C334.597 572.338 334.87 571.082 335.415 569.965C335.968 568.849 336.733 567.988 337.708 567.381C338.693 566.775 339.813 566.472 341.07 566.472C343.013 566.472 344.582 567.144 345.777 568.489C346.981 569.833 347.583 571.622 347.583 573.854V574.026C347.583 575.415 347.315 576.663 346.779 577.77C346.251 578.869 345.491 579.726 344.498 580.341C343.514 580.956 342.38 581.264 341.097 581.264C339.163 581.264 337.594 580.591 336.39 579.247C335.195 577.902 334.597 576.122 334.597 573.907V573.736ZM337.049 574.026C337.049 575.608 337.414 576.878 338.144 577.836C338.882 578.794 339.866 579.273 341.097 579.273C342.336 579.273 343.32 578.79 344.05 577.823C344.779 576.847 345.144 575.485 345.144 573.736C345.144 572.171 344.771 570.906 344.023 569.939C343.285 568.963 342.301 568.476 341.07 568.476C339.866 568.476 338.895 568.955 338.157 569.913C337.418 570.871 337.049 572.242 337.049 574.026ZM349.996 573.736C349.996 572.338 350.268 571.082 350.813 569.965C351.367 568.849 352.131 567.988 353.107 567.381C354.091 566.775 355.212 566.472 356.469 566.472C358.411 566.472 359.98 567.144 361.175 568.489C362.379 569.833 362.981 571.622 362.981 573.854V574.026C362.981 575.415 362.713 576.663 362.177 577.77C361.65 578.869 360.89 579.726 359.896 580.341C358.912 580.956 357.778 581.264 356.495 581.264C354.562 581.264 352.993 580.591 351.789 579.247C350.593 577.902 349.996 576.122 349.996 573.907V573.736ZM352.448 574.026C352.448 575.608 352.812 576.878 353.542 577.836C354.28 578.794 355.265 579.273 356.495 579.273C357.734 579.273 358.719 578.79 359.448 577.823C360.178 576.847 360.542 575.485 360.542 573.736C360.542 572.171 360.169 570.906 359.422 569.939C358.684 568.963 357.699 568.476 356.469 568.476C355.265 568.476 354.293 568.955 353.555 569.913C352.817 570.871 352.448 572.242 352.448 574.026ZM365.46 573.749C365.46 571.525 365.974 569.759 367.002 568.449C368.031 567.131 369.393 566.472 371.089 566.472C372.83 566.472 374.188 567.087 375.163 568.317L375.282 566.735H377.51V580.657C377.51 582.503 376.96 583.958 375.862 585.021C374.772 586.084 373.304 586.616 371.458 586.616C370.43 586.616 369.424 586.396 368.439 585.957C367.455 585.518 366.704 584.916 366.185 584.151L367.451 582.688C368.497 583.979 369.775 584.625 371.287 584.625C372.474 584.625 373.396 584.292 374.056 583.624C374.724 582.956 375.058 582.015 375.058 580.802V579.576C374.082 580.701 372.75 581.264 371.063 581.264C369.393 581.264 368.04 580.591 367.002 579.247C365.974 577.902 365.46 576.069 365.46 573.749ZM367.912 574.026C367.912 575.634 368.242 576.9 368.901 577.823C369.56 578.737 370.483 579.194 371.669 579.194C373.208 579.194 374.337 578.495 375.058 577.098V570.585C374.311 569.223 373.19 568.542 371.696 568.542C370.509 568.542 369.582 569.003 368.914 569.926C368.246 570.849 367.912 572.215 367.912 574.026ZM383.851 581H381.412V560.75H383.851V581ZM393.686 581.264C391.752 581.264 390.179 580.631 388.966 579.365C387.753 578.091 387.147 576.39 387.147 574.263V573.815C387.147 572.4 387.415 571.139 387.951 570.031C388.496 568.915 389.252 568.045 390.219 567.421C391.194 566.788 392.249 566.472 393.383 566.472C395.237 566.472 396.679 567.083 397.707 568.304C398.735 569.526 399.25 571.275 399.25 573.551V574.566H389.586C389.621 575.973 390.03 577.111 390.812 577.981C391.603 578.842 392.605 579.273 393.818 579.273C394.679 579.273 395.409 579.097 396.006 578.746C396.604 578.394 397.127 577.928 397.575 577.348L399.065 578.508C397.87 580.345 396.077 581.264 393.686 581.264ZM393.383 568.476C392.398 568.476 391.572 568.836 390.904 569.557C390.236 570.269 389.823 571.271 389.665 572.562H396.811V572.378C396.74 571.139 396.406 570.181 395.809 569.504C395.211 568.818 394.402 568.476 393.383 568.476Z" fill="white"/>
<defs>
<filter id="filter0_d" x="0" y="0" width="467" height="637" filterUnits="userSpaceOnUse" color-interpolation-filters="sRGB">
<feFlood flood-opacity="0" result="BackgroundImageFix"/>
<feColorMatrix in="SourceAlpha" type="matrix" values="0 0 0 0 0 0 0 0 0 0 0 0 0 0 0 0 0 0 127 0"/>
<feOffset dx="10" dy="15"/>
<feGaussianBlur stdDeviation="3.5"/>
<feColorMatrix type="matrix" values="0 0 0 0 0 0 0 0 0 0 0 0 0 0 0 0 0 0 0.55 0"/>
<feBlend mode="normal" in2="BackgroundImageFix" result="effect1_dropShadow"/>
<feBlend mode="normal" in="SourceGraphic" in2="effect1_dropShadow" result="shape"/>
</filter>
<filter id="filter1_i" x="10" y="69" width="430" height="543" filterUnits="userSpaceOnUse" color-interpolation-filters="sRGB">
<feFlood flood-opacity="0" result="BackgroundImageFix"/>
<feBlend mode="normal" in="SourceGraphic" in2="BackgroundImageFix" result="shape"/>
<feColorMatrix in="SourceAlpha" type="matrix" values="0 0 0 0 0 0 0 0 0 0 0 0 0 0 0 0 0 0 127 0" result="hardAlpha"/>
<feOffset dy="4"/>
<feGaussianBlur stdDeviation="2"/>
<feComposite in2="hardAlpha" operator="arithmetic" k2="-1" k3="1"/>
<feColorMatrix type="matrix" values="0 0 0 0 0 0 0 0 0 0 0 0 0 0 0 0 0 0 0.25 0"/>
<feBlend mode="normal" in2="shape" result="effect1_innerShadow"/>
</filter>
</defs>
</svg>
