<svg width="2438" height="1892" viewBox="0 0 2438 1892" fill="none" 
    xmlns="http://www.w3.org/2000/svg">
    <path d="M581.733 639.313C584.136 467.9 650.696 304.333 766.773 184.593C882.849 64.8538 1038.93 -1.24893 1200.69 0.826852C1362.44 2.90263 1516.62 72.9869 1629.3 195.662C1741.98 318.337 1803.93 483.554 1801.53 654.967L1191.63 647.14L581.733 639.313Z" fill="#401364"/>
    <path d="M364.912 1544.1C235.956 1511.12 127.239 1426.79 62.678 1309.66C-1.8833 1192.53 -17.0005 1052.2 20.6521 919.531C58.3046 786.863 145.643 672.729 263.452 602.237C381.262 531.745 519.894 510.67 648.85 543.647L506.881 1043.87L364.912 1544.1Z" fill="#401364"/>
    <path d="M1709 596.12C1831.27 544.464 1971.56 544.817 2098.99 597.1C2226.42 649.383 2330.57 749.314 2388.51 874.909C2446.46 1000.5 2453.46 1141.48 2407.97 1266.81C2362.49 1392.15 2268.24 1491.58 2145.97 1543.23L1927.49 1069.68L1709 596.12Z" fill="#401364"/>
    <rect x="316" y="1069" width="1854" height="477" fill="#401364"/>
    <rect x="316" y="625" width="1660" height="477" fill="#401364"/>
    <ellipse cx="1146.5" cy="1846" rx="780.5" ry="46" fill="#A57BC7"/>
</svg>
