<svg width="2028" height="703" viewBox="0 0 2028 703" fill="none" xmlns="http://www.w3.org/2000/svg">
    <rect x="1213" y="448" width="307.806" height="255" rx="8" fill="#F2F2F2"/>
    <path d="M1213 456C1213 451.582 1216.58 448 1221 448H1512.81C1517.22 448 1520.81 451.582 1520.81 456V467.899H1213V456Z" fill="#C5CFD6"/>
    <path fill-rule="evenodd" clip-rule="evenodd" d="M1223.1 461.266C1224.82 461.266 1226.21 459.946 1226.21 458.318C1226.21 456.69 1224.82 455.37 1223.1 455.37C1221.39 455.37 1220 456.69 1220 458.318C1220 459.946 1221.39 461.266 1223.1 461.266Z" fill="#F2F2F2"/>
    <path fill-rule="evenodd" clip-rule="evenodd" d="M1232.43 461.266C1234.15 461.266 1235.54 459.946 1235.54 458.318C1235.54 456.69 1234.15 455.37 1232.43 455.37C1230.72 455.37 1229.32 456.69 1229.32 458.318C1229.32 459.946 1230.72 461.266 1232.43 461.266Z" fill="#F2F2F2"/>
    <path fill-rule="evenodd" clip-rule="evenodd" d="M1241.76 461.266C1243.48 461.266 1244.87 459.946 1244.87 458.318C1244.87 456.69 1243.48 455.37 1241.76 455.37C1240.04 455.37 1238.65 456.69 1238.65 458.318C1238.65 459.946 1240.04 461.266 1241.76 461.266Z" fill="#F2F2F2"/>
    <rect x="1453.96" y="545.283" width="54.4102" height="142.977" rx="8" fill="white"/>
    <rect x="1467.95" y="558.549" width="26.4278" height="19.1618" rx="4" fill="#DDE3E9"/>
    <rect x="1467.95" y="583.607" width="26.4278" height="18.4249" rx="4" fill="#AFB9C5"/>
    <rect x="1467.95" y="607.928" width="26.4278" height="18.4249" rx="4" fill="#DDE3E9"/>
    <rect x="1467.95" y="656.57" width="26.4278" height="18.4249" rx="4" fill="#DDE3E9"/>
    <rect x="1467.95" y="632.249" width="26.4278" height="18.4249" rx="4" fill="#C5CFD6"/>
    <rect x="1453.96" y="479.691" width="54.4102" height="59.6965" rx="8" fill="white"/>
    <path fill-rule="evenodd" clip-rule="evenodd" d="M1481.16 514.329C1488.03 514.329 1493.6 509.05 1493.6 502.537C1493.6 496.025 1488.03 490.745 1481.16 490.745C1474.3 490.745 1468.73 496.025 1468.73 502.537C1468.73 509.05 1474.3 514.329 1481.16 514.329Z" fill="#DDE3E9"/>
    <rect x="1461.73" y="517.277" width="38.8644" height="4.42197" rx="2.21098" fill="#DDE3E9"/>
    <rect x="1467.95" y="524.647" width="26.4278" height="4.42197" rx="2.21098" fill="#DDE3E9"/>
    <rect x="1225.44" y="479.691" width="222.305" height="34.6387" rx="4" fill="white"/>
    <rect x="1232.43" y="490.082" width="177.222" height="5.19581" rx="2.5979" fill="#DDE3E9"/>
    <rect x="1232.43" y="498.742" width="118.957" height="5.19581" rx="2.5979" fill="#DDE3E9"/>
    <path fill-rule="evenodd" clip-rule="evenodd" d="M1423.98 502.169C1426.99 502.169 1429.42 499.859 1429.42 497.01C1429.42 494.161 1426.99 491.851 1423.98 491.851C1420.98 491.851 1418.54 494.161 1418.54 497.01C1418.54 499.859 1420.98 502.169 1423.98 502.169Z" fill="#DDE3E9"/>
    <path fill-rule="evenodd" clip-rule="evenodd" d="M1423.98 499.221C1425.27 499.221 1426.32 498.231 1426.32 497.01C1426.32 495.789 1425.27 494.799 1423.98 494.799C1422.7 494.799 1421.65 495.789 1421.65 497.01C1421.65 498.231 1422.7 499.221 1423.98 499.221Z" fill="#F2F2F2"/>
    <rect x="1225.44" y="520.226" width="222.305" height="28.7428" rx="4" fill="white"/>
    <rect x="1232.43" y="528.848" width="177.222" height="4.31142" rx="2.15571" fill="#DDE3E9"/>
    <rect x="1232.43" y="536.034" width="118.957" height="4.31142" rx="2.15571" fill="#DDE3E9"/>
    <path fill-rule="evenodd" clip-rule="evenodd" d="M1423.98 539.756C1426.99 539.756 1429.42 537.446 1429.42 534.597C1429.42 531.747 1426.99 529.438 1423.98 529.438C1420.98 529.438 1418.54 531.747 1418.54 534.597C1418.54 537.446 1420.98 539.756 1423.98 539.756Z" fill="#DDE3E9"/>
    <path fill-rule="evenodd" clip-rule="evenodd" d="M1423.98 536.808C1425.27 536.808 1426.32 535.818 1426.32 534.597C1426.32 533.376 1425.27 532.386 1423.98 532.386C1422.7 532.386 1421.65 533.376 1421.65 534.597C1421.65 535.818 1422.7 536.808 1423.98 536.808Z" fill="#F2F2F2"/>
    <rect x="1225.44" y="554.864" width="222.305" height="28.7428" rx="4" fill="white"/>
    <rect x="1232.43" y="563.487" width="177.222" height="4.31142" rx="2.15571" fill="#DDE3E9"/>
    <rect x="1232.43" y="570.673" width="118.957" height="4.31142" rx="2.15571" fill="#DDE3E9"/>
    <path fill-rule="evenodd" clip-rule="evenodd" d="M1423.98 574.395C1426.99 574.395 1429.42 572.085 1429.42 569.236C1429.42 566.386 1426.99 564.077 1423.98 564.077C1420.98 564.077 1418.54 566.386 1418.54 569.236C1418.54 572.085 1420.98 574.395 1423.98 574.395Z" fill="#DDE3E9"/>
    <path fill-rule="evenodd" clip-rule="evenodd" d="M1423.98 571.446C1425.27 571.446 1426.32 570.456 1426.32 569.235C1426.32 568.014 1425.27 567.024 1423.98 567.024C1422.7 567.024 1421.65 568.014 1421.65 569.235C1421.65 570.456 1422.7 571.446 1423.98 571.446Z" fill="#AFB9C5"/>
    <rect x="1225.44" y="658.78" width="222.305" height="28.7428" rx="4" fill="white"/>
    <rect x="1232.43" y="667.403" width="177.222" height="4.31142" rx="2.15571" fill="#DDE3E9"/>
    <rect x="1232.43" y="674.589" width="118.957" height="4.31142" rx="2.15571" fill="#DDE3E9"/>
    <path fill-rule="evenodd" clip-rule="evenodd" d="M1423.98 678.311C1426.99 678.311 1429.42 676.001 1429.42 673.152C1429.42 670.303 1426.99 667.993 1423.98 667.993C1420.98 667.993 1418.54 670.303 1418.54 673.152C1418.54 676.001 1420.98 678.311 1423.98 678.311Z" fill="#DDE3E9"/>
    <path fill-rule="evenodd" clip-rule="evenodd" d="M1423.98 675.363C1425.27 675.363 1426.32 674.373 1426.32 673.152C1426.32 671.931 1425.27 670.941 1423.98 670.941C1422.7 670.941 1421.65 671.931 1421.65 673.152C1421.65 674.373 1422.7 675.363 1423.98 675.363Z" fill="#F2F2F2"/>
    <rect x="1225.44" y="624.142" width="222.305" height="28.7428" rx="4" fill="white"/>
    <rect x="1232.43" y="632.764" width="177.222" height="4.31142" rx="2.15571" fill="#DDE3E9"/>
    <rect x="1232.43" y="639.95" width="118.957" height="4.31142" rx="2.15571" fill="#DDE3E9"/>
    <path fill-rule="evenodd" clip-rule="evenodd" d="M1423.98 643.672C1426.99 643.672 1429.42 641.362 1429.42 638.513C1429.42 635.664 1426.99 633.354 1423.98 633.354C1420.98 633.354 1418.54 635.664 1418.54 638.513C1418.54 641.362 1420.98 643.672 1423.98 643.672Z" fill="#DDE3E9"/>
    <path fill-rule="evenodd" clip-rule="evenodd" d="M1423.98 640.724C1425.27 640.724 1426.32 639.734 1426.32 638.513C1426.32 637.292 1425.27 636.302 1423.98 636.302C1422.7 636.302 1421.65 637.292 1421.65 638.513C1421.65 639.734 1422.7 640.724 1423.98 640.724Z" fill="#F2F2F2"/>
    <rect x="1225.44" y="589.503" width="222.305" height="28.7428" rx="4" fill="white"/>
    <rect x="1232.43" y="598.125" width="177.222" height="4.31142" rx="2.15571" fill="#DDE3E9"/>
    <rect x="1232.43" y="605.311" width="118.957" height="4.31142" rx="2.15571" fill="#DDE3E9"/>
    <path fill-rule="evenodd" clip-rule="evenodd" d="M1423.98 609.033C1426.99 609.033 1429.42 606.724 1429.42 603.874C1429.42 601.025 1426.99 598.715 1423.98 598.715C1420.98 598.715 1418.54 601.025 1418.54 603.874C1418.54 606.724 1420.98 609.033 1423.98 609.033Z" fill="#DDE3E9"/>
    <path fill-rule="evenodd" clip-rule="evenodd" d="M1423.98 606.085C1425.27 606.085 1426.32 605.095 1426.32 603.874C1426.32 602.653 1425.27 601.663 1423.98 601.663C1422.7 601.663 1421.65 602.653 1421.65 603.874C1421.65 605.095 1422.7 606.085 1423.98 606.085Z" fill="#F2F2F2"/>
    <rect x="1213" y="448" width="307.806" height="255" rx="8" fill="#F2F2F2"/>
    <path d="M1213 456C1213 451.582 1216.58 448 1221 448H1512.81C1517.22 448 1520.81 451.582 1520.81 456V467.899H1213V456Z" fill="#C5CFD6"/>
    <path fill-rule="evenodd" clip-rule="evenodd" d="M1223.1 461.266C1224.82 461.266 1226.21 459.946 1226.21 458.318C1226.21 456.69 1224.82 455.37 1223.1 455.37C1221.39 455.37 1220 456.69 1220 458.318C1220 459.946 1221.39 461.266 1223.1 461.266Z" fill="#F2F2F2"/>
    <path fill-rule="evenodd" clip-rule="evenodd" d="M1232.43 461.266C1234.15 461.266 1235.54 459.946 1235.54 458.318C1235.54 456.69 1234.15 455.37 1232.43 455.37C1230.72 455.37 1229.32 456.69 1229.32 458.318C1229.32 459.946 1230.72 461.266 1232.43 461.266Z" fill="#F2F2F2"/>
    <path fill-rule="evenodd" clip-rule="evenodd" d="M1241.76 461.266C1243.48 461.266 1244.87 459.946 1244.87 458.318C1244.87 456.69 1243.48 455.37 1241.76 455.37C1240.04 455.37 1238.65 456.69 1238.65 458.318C1238.65 459.946 1240.04 461.266 1241.76 461.266Z" fill="#F2F2F2"/>
    <rect x="1453.96" y="545.283" width="54.4102" height="142.977" rx="8" fill="white"/>
    <rect x="1467.95" y="558.549" width="26.4278" height="19.1618" rx="4" fill="#DDE3E9"/>
    <rect x="1467.95" y="583.607" width="26.4278" height="18.4249" rx="4" fill="#AFB9C5"/>
    <rect x="1467.95" y="607.928" width="26.4278" height="18.4249" rx="4" fill="#DDE3E9"/>
    <rect x="1467.95" y="656.57" width="26.4278" height="18.4249" rx="4" fill="#DDE3E9"/>
    <rect x="1467.95" y="632.249" width="26.4278" height="18.4249" rx="4" fill="#C5CFD6"/>
    <rect x="1453.96" y="479.691" width="54.4102" height="59.6965" rx="8" fill="white"/>
    <path fill-rule="evenodd" clip-rule="evenodd" d="M1481.16 514.329C1488.03 514.329 1493.6 509.05 1493.6 502.537C1493.6 496.025 1488.03 490.745 1481.16 490.745C1474.3 490.745 1468.73 496.025 1468.73 502.537C1468.73 509.05 1474.3 514.329 1481.16 514.329Z" fill="#DDE3E9"/>
    <rect x="1461.73" y="517.277" width="38.8644" height="4.42197" rx="2.21098" fill="#DDE3E9"/>
    <rect x="1467.95" y="524.647" width="26.4278" height="4.42197" rx="2.21098" fill="#DDE3E9"/>
    <rect x="1225.44" y="479.691" width="222.305" height="34.6387" rx="4" fill="white"/>
    <rect x="1232.43" y="490.082" width="177.222" height="5.19581" rx="2.5979" fill="#DDE3E9"/>
    <rect x="1232.43" y="498.742" width="118.957" height="5.19581" rx="2.5979" fill="#DDE3E9"/>
    <path fill-rule="evenodd" clip-rule="evenodd" d="M1423.98 502.169C1426.99 502.169 1429.42 499.859 1429.42 497.01C1429.42 494.161 1426.99 491.851 1423.98 491.851C1420.98 491.851 1418.54 494.161 1418.54 497.01C1418.54 499.859 1420.98 502.169 1423.98 502.169Z" fill="#DDE3E9"/>
    <path fill-rule="evenodd" clip-rule="evenodd" d="M1423.98 499.221C1425.27 499.221 1426.32 498.231 1426.32 497.01C1426.32 495.789 1425.27 494.799 1423.98 494.799C1422.7 494.799 1421.65 495.789 1421.65 497.01C1421.65 498.231 1422.7 499.221 1423.98 499.221Z" fill="#F2F2F2"/>
    <rect x="1225.44" y="520.226" width="222.305" height="28.7428" rx="4" fill="white"/>
    <rect x="1232.43" y="528.848" width="177.222" height="4.31142" rx="2.15571" fill="#DDE3E9"/>
    <rect x="1232.43" y="536.034" width="118.957" height="4.31142" rx="2.15571" fill="#DDE3E9"/>
    <path fill-rule="evenodd" clip-rule="evenodd" d="M1423.98 539.756C1426.99 539.756 1429.42 537.446 1429.42 534.597C1429.42 531.747 1426.99 529.438 1423.98 529.438C1420.98 529.438 1418.54 531.747 1418.54 534.597C1418.54 537.446 1420.98 539.756 1423.98 539.756Z" fill="#DDE3E9"/>
    <path fill-rule="evenodd" clip-rule="evenodd" d="M1423.98 536.808C1425.27 536.808 1426.32 535.818 1426.32 534.597C1426.32 533.376 1425.27 532.386 1423.98 532.386C1422.7 532.386 1421.65 533.376 1421.65 534.597C1421.65 535.818 1422.7 536.808 1423.98 536.808Z" fill="#F2F2F2"/>
    <rect x="1225.44" y="554.864" width="222.305" height="28.7428" rx="4" fill="white"/>
    <rect x="1232.43" y="563.487" width="177.222" height="4.31142" rx="2.15571" fill="#DDE3E9"/>
    <rect x="1232.43" y="570.673" width="118.957" height="4.31142" rx="2.15571" fill="#DDE3E9"/>
    <path fill-rule="evenodd" clip-rule="evenodd" d="M1423.98 574.395C1426.99 574.395 1429.42 572.085 1429.42 569.236C1429.42 566.386 1426.99 564.077 1423.98 564.077C1420.98 564.077 1418.54 566.386 1418.54 569.236C1418.54 572.085 1420.98 574.395 1423.98 574.395Z" fill="#DDE3E9"/>
    <path fill-rule="evenodd" clip-rule="evenodd" d="M1423.98 571.446C1425.27 571.446 1426.32 570.456 1426.32 569.235C1426.32 568.014 1425.27 567.024 1423.98 567.024C1422.7 567.024 1421.65 568.014 1421.65 569.235C1421.65 570.456 1422.7 571.446 1423.98 571.446Z" fill="#AFB9C5"/>
    <rect x="1225.44" y="658.78" width="222.305" height="28.7428" rx="4" fill="white"/>
    <rect x="1232.43" y="667.403" width="177.222" height="4.31142" rx="2.15571" fill="#DDE3E9"/>
    <rect x="1232.43" y="674.589" width="118.957" height="4.31142" rx="2.15571" fill="#DDE3E9"/>
    <path fill-rule="evenodd" clip-rule="evenodd" d="M1423.98 678.311C1426.99 678.311 1429.42 676.001 1429.42 673.152C1429.42 670.303 1426.99 667.993 1423.98 667.993C1420.98 667.993 1418.54 670.303 1418.54 673.152C1418.54 676.001 1420.98 678.311 1423.98 678.311Z" fill="#DDE3E9"/>
    <path fill-rule="evenodd" clip-rule="evenodd" d="M1423.98 675.363C1425.27 675.363 1426.32 674.373 1426.32 673.152C1426.32 671.931 1425.27 670.941 1423.98 670.941C1422.7 670.941 1421.65 671.931 1421.65 673.152C1421.65 674.373 1422.7 675.363 1423.98 675.363Z" fill="#F2F2F2"/>
    <rect x="1225.44" y="624.142" width="222.305" height="28.7428" rx="4" fill="white"/>
    <rect x="1232.43" y="632.764" width="177.222" height="4.31142" rx="2.15571" fill="#DDE3E9"/>
    <rect x="1232.43" y="639.95" width="118.957" height="4.31142" rx="2.15571" fill="#DDE3E9"/>
    <path fill-rule="evenodd" clip-rule="evenodd" d="M1423.98 643.672C1426.99 643.672 1429.42 641.362 1429.42 638.513C1429.42 635.664 1426.99 633.354 1423.98 633.354C1420.98 633.354 1418.54 635.664 1418.54 638.513C1418.54 641.362 1420.98 643.672 1423.98 643.672Z" fill="#DDE3E9"/>
    <path fill-rule="evenodd" clip-rule="evenodd" d="M1423.98 640.724C1425.27 640.724 1426.32 639.734 1426.32 638.513C1426.32 637.292 1425.27 636.302 1423.98 636.302C1422.7 636.302 1421.65 637.292 1421.65 638.513C1421.65 639.734 1422.7 640.724 1423.98 640.724Z" fill="#F2F2F2"/>
    <rect x="1225.44" y="589.503" width="222.305" height="28.7428" rx="4" fill="white"/>
    <rect x="1232.43" y="598.125" width="177.222" height="4.31142" rx="2.15571" fill="#DDE3E9"/>
    <rect x="1232.43" y="605.311" width="118.957" height="4.31142" rx="2.15571" fill="#DDE3E9"/>
    <path fill-rule="evenodd" clip-rule="evenodd" d="M1423.98 609.033C1426.99 609.033 1429.42 606.724 1429.42 603.874C1429.42 601.025 1426.99 598.715 1423.98 598.715C1420.98 598.715 1418.54 601.025 1418.54 603.874C1418.54 606.724 1420.98 609.033 1423.98 609.033Z" fill="#DDE3E9"/>
    <path fill-rule="evenodd" clip-rule="evenodd" d="M1423.98 606.085C1425.27 606.085 1426.32 605.095 1426.32 603.874C1426.32 602.653 1425.27 601.663 1423.98 601.663C1422.7 601.663 1421.65 602.653 1421.65 603.874C1421.65 605.095 1422.7 606.085 1423.98 606.085Z" fill="#F2F2F2"/>
    <path fill-rule="evenodd" clip-rule="evenodd" d="M1486.65 516.733C1493.37 520.298 1499.96 522.021 1503.06 521.318C1510.82 519.554 1511.54 494.527 1505.53 484.661C1499.52 474.794 1468.64 470.494 1467.08 490.043C1466.54 496.827 1469.77 502.882 1474.55 507.823L1465.99 543H1490.87L1486.65 516.733Z" fill="#B28B67"/>
    <path fill-rule="evenodd" clip-rule="evenodd" d="M1487.9 492.201C1490.05 489.378 1492.12 487.224 1494.8 485.973C1505.74 486.126 1507.02 484.398 1507.02 478.574C1505.26 477.461 1499.02 475.585 1492.04 475.057C1488.48 474.159 1484.26 474.328 1480.2 475.826C1475.18 477.08 1470.93 479.781 1469.05 484.838C1462.27 495.161 1467.42 505.907 1474.36 509.578C1476.21 507.648 1477.82 505.778 1479.26 503.988C1478.11 502.993 1477.39 501.604 1477.39 500.067C1477.39 497.04 1480.17 494.587 1483.61 494.587C1483.86 494.587 1484.11 494.6 1484.36 494.626C1484.51 498.41 1485.15 511.214 1486.82 515.661C1488.79 520.905 1500.29 522.192 1504.3 522.192C1507.76 522.192 1507.64 519.303 1507.56 517.232C1507.54 516.934 1507.53 516.652 1507.53 516.399C1507.53 515.87 1506.75 515.872 1505.87 515.873C1504.72 515.875 1503.41 515.877 1503.41 514.719C1503.41 513.457 1505.39 512.488 1507.16 511.622C1508.26 511.081 1509.29 510.58 1509.7 510.072C1511 508.469 1511.44 506.307 1509.48 506.307C1508.41 506.307 1506.93 506.852 1505.17 507.507C1502.5 508.495 1499.14 509.736 1495.46 509.736C1489.36 509.736 1487.92 492.419 1487.9 492.201Z" fill="#191847"/>
    <rect x="1690" y="448" width="307.806" height="255" rx="8" fill="#F2F2F2"/>
    <path d="M1690 456C1690 451.582 1693.58 448 1698 448H1989.81C1994.22 448 1997.81 451.582 1997.81 456V467.899H1690V456Z" fill="#C5CFD6"/>
    <path fill-rule="evenodd" clip-rule="evenodd" d="M1700.1 461.266C1701.82 461.266 1703.21 459.946 1703.21 458.318C1703.21 456.69 1701.82 455.37 1700.1 455.37C1698.39 455.37 1697 456.69 1697 458.318C1697 459.946 1698.39 461.266 1700.1 461.266Z" fill="#F2F2F2"/>
    <path fill-rule="evenodd" clip-rule="evenodd" d="M1709.43 461.266C1711.15 461.266 1712.54 459.946 1712.54 458.318C1712.54 456.69 1711.15 455.37 1709.43 455.37C1707.72 455.37 1706.32 456.69 1706.32 458.318C1706.32 459.946 1707.72 461.266 1709.43 461.266Z" fill="#F2F2F2"/>
    <path fill-rule="evenodd" clip-rule="evenodd" d="M1718.76 461.266C1720.48 461.266 1721.87 459.946 1721.87 458.318C1721.87 456.69 1720.48 455.37 1718.76 455.37C1717.04 455.37 1715.65 456.69 1715.65 458.318C1715.65 459.946 1717.04 461.266 1718.76 461.266Z" fill="#F2F2F2"/>
    <rect x="1930.96" y="545.283" width="54.4102" height="142.977" rx="8" fill="white"/>
    <rect x="1944.95" y="558.549" width="26.4278" height="19.1618" rx="4" fill="#DDE3E9"/>
    <rect x="1944.95" y="583.607" width="26.4278" height="18.4249" rx="4" fill="#AFB9C5"/>
    <rect x="1944.95" y="607.928" width="26.4278" height="18.4249" rx="4" fill="#DDE3E9"/>
    <rect x="1944.95" y="656.57" width="26.4278" height="18.4249" rx="4" fill="#DDE3E9"/>
    <rect x="1944.95" y="632.249" width="26.4278" height="18.4249" rx="4" fill="#C5CFD6"/>
    <rect x="1930.96" y="479.691" width="54.4102" height="59.6965" rx="8" fill="white"/>
    <path fill-rule="evenodd" clip-rule="evenodd" d="M1958.16 514.329C1965.03 514.329 1970.6 509.05 1970.6 502.537C1970.6 496.025 1965.03 490.745 1958.16 490.745C1951.3 490.745 1945.73 496.025 1945.73 502.537C1945.73 509.05 1951.3 514.329 1958.16 514.329Z" fill="#DDE3E9"/>
    <rect x="1938.73" y="517.277" width="38.8644" height="4.42197" rx="2.21098" fill="#DDE3E9"/>
    <rect x="1944.95" y="524.647" width="26.4278" height="4.42197" rx="2.21098" fill="#DDE3E9"/>
    <rect x="1702.44" y="479.691" width="222.305" height="34.6387" rx="4" fill="white"/>
    <rect x="1709.43" y="490.082" width="177.222" height="5.19581" rx="2.5979" fill="#DDE3E9"/>
    <rect x="1709.43" y="498.742" width="118.957" height="5.19581" rx="2.5979" fill="#DDE3E9"/>
    <path fill-rule="evenodd" clip-rule="evenodd" d="M1900.98 502.169C1903.99 502.169 1906.42 499.859 1906.42 497.01C1906.42 494.161 1903.99 491.851 1900.98 491.851C1897.98 491.851 1895.54 494.161 1895.54 497.01C1895.54 499.859 1897.98 502.169 1900.98 502.169Z" fill="#DDE3E9"/>
    <path fill-rule="evenodd" clip-rule="evenodd" d="M1900.98 499.221C1902.27 499.221 1903.32 498.231 1903.32 497.01C1903.32 495.789 1902.27 494.799 1900.98 494.799C1899.7 494.799 1898.65 495.789 1898.65 497.01C1898.65 498.231 1899.7 499.221 1900.98 499.221Z" fill="#F2F2F2"/>
    <rect x="1702.44" y="520.226" width="222.305" height="28.7428" rx="4" fill="white"/>
    <rect x="1709.43" y="528.848" width="177.222" height="4.31142" rx="2.15571" fill="#DDE3E9"/>
    <rect x="1709.43" y="536.034" width="118.957" height="4.31142" rx="2.15571" fill="#DDE3E9"/>
    <path fill-rule="evenodd" clip-rule="evenodd" d="M1900.98 539.756C1903.99 539.756 1906.42 537.446 1906.42 534.597C1906.42 531.747 1903.99 529.438 1900.98 529.438C1897.98 529.438 1895.54 531.747 1895.54 534.597C1895.54 537.446 1897.98 539.756 1900.98 539.756Z" fill="#DDE3E9"/>
    <path fill-rule="evenodd" clip-rule="evenodd" d="M1900.98 536.808C1902.27 536.808 1903.32 535.818 1903.32 534.597C1903.32 533.376 1902.27 532.386 1900.98 532.386C1899.7 532.386 1898.65 533.376 1898.65 534.597C1898.65 535.818 1899.7 536.808 1900.98 536.808Z" fill="#F2F2F2"/>
    <rect x="1702.44" y="554.864" width="222.305" height="28.7428" rx="4" fill="white"/>
    <rect x="1709.43" y="563.487" width="177.222" height="4.31142" rx="2.15571" fill="#DDE3E9"/>
    <rect x="1709.43" y="570.673" width="118.957" height="4.31142" rx="2.15571" fill="#DDE3E9"/>
    <path fill-rule="evenodd" clip-rule="evenodd" d="M1900.98 574.395C1903.99 574.395 1906.42 572.085 1906.42 569.236C1906.42 566.386 1903.99 564.077 1900.98 564.077C1897.98 564.077 1895.54 566.386 1895.54 569.236C1895.54 572.085 1897.98 574.395 1900.98 574.395Z" fill="#DDE3E9"/>
    <path fill-rule="evenodd" clip-rule="evenodd" d="M1900.98 571.446C1902.27 571.446 1903.32 570.456 1903.32 569.235C1903.32 568.014 1902.27 567.024 1900.98 567.024C1899.7 567.024 1898.65 568.014 1898.65 569.235C1898.65 570.456 1899.7 571.446 1900.98 571.446Z" fill="#AFB9C5"/>
    <rect x="1702.44" y="658.78" width="222.305" height="28.7428" rx="4" fill="white"/>
    <rect x="1709.43" y="667.403" width="177.222" height="4.31142" rx="2.15571" fill="#DDE3E9"/>
    <rect x="1709.43" y="674.589" width="118.957" height="4.31142" rx="2.15571" fill="#DDE3E9"/>
    <path fill-rule="evenodd" clip-rule="evenodd" d="M1900.98 678.311C1903.99 678.311 1906.42 676.001 1906.42 673.152C1906.42 670.303 1903.99 667.993 1900.98 667.993C1897.98 667.993 1895.54 670.303 1895.54 673.152C1895.54 676.001 1897.98 678.311 1900.98 678.311Z" fill="#DDE3E9"/>
    <path fill-rule="evenodd" clip-rule="evenodd" d="M1900.98 675.363C1902.27 675.363 1903.32 674.373 1903.32 673.152C1903.32 671.931 1902.27 670.941 1900.98 670.941C1899.7 670.941 1898.65 671.931 1898.65 673.152C1898.65 674.373 1899.7 675.363 1900.98 675.363Z" fill="#F2F2F2"/>
    <rect x="1702.44" y="624.142" width="222.305" height="28.7428" rx="4" fill="white"/>
    <rect x="1709.43" y="632.764" width="177.222" height="4.31142" rx="2.15571" fill="#DDE3E9"/>
    <rect x="1709.43" y="639.95" width="118.957" height="4.31142" rx="2.15571" fill="#DDE3E9"/>
    <path fill-rule="evenodd" clip-rule="evenodd" d="M1900.98 643.672C1903.99 643.672 1906.42 641.362 1906.42 638.513C1906.42 635.664 1903.99 633.354 1900.98 633.354C1897.98 633.354 1895.54 635.664 1895.54 638.513C1895.54 641.362 1897.98 643.672 1900.98 643.672Z" fill="#DDE3E9"/>
    <path fill-rule="evenodd" clip-rule="evenodd" d="M1900.98 640.724C1902.27 640.724 1903.32 639.734 1903.32 638.513C1903.32 637.292 1902.27 636.302 1900.98 636.302C1899.7 636.302 1898.65 637.292 1898.65 638.513C1898.65 639.734 1899.7 640.724 1900.98 640.724Z" fill="#F2F2F2"/>
    <rect x="1702.44" y="589.503" width="222.305" height="28.7428" rx="4" fill="white"/>
    <rect x="1709.43" y="598.125" width="177.222" height="4.31142" rx="2.15571" fill="#DDE3E9"/>
    <rect x="1709.43" y="605.311" width="118.957" height="4.31142" rx="2.15571" fill="#DDE3E9"/>
    <path fill-rule="evenodd" clip-rule="evenodd" d="M1900.98 609.033C1903.99 609.033 1906.42 606.724 1906.42 603.874C1906.42 601.025 1903.99 598.715 1900.98 598.715C1897.98 598.715 1895.54 601.025 1895.54 603.874C1895.54 606.724 1897.98 609.033 1900.98 609.033Z" fill="#DDE3E9"/>
    <path fill-rule="evenodd" clip-rule="evenodd" d="M1900.98 606.085C1902.27 606.085 1903.32 605.095 1903.32 603.874C1903.32 602.653 1902.27 601.663 1900.98 601.663C1899.7 601.663 1898.65 602.653 1898.65 603.874C1898.65 605.095 1899.7 606.085 1900.98 606.085Z" fill="#F2F2F2"/>
    <rect x="1690" y="413" width="307.806" height="255" rx="8" fill="#F2F2F2"/>
    <path d="M1690 421C1690 416.582 1693.58 413 1698 413H1989.81C1994.22 413 1997.81 416.582 1997.81 421V432.899H1690V421Z" fill="#C5CFD6"/>
    <path fill-rule="evenodd" clip-rule="evenodd" d="M1700.1 426.266C1701.82 426.266 1703.21 424.946 1703.21 423.318C1703.21 421.69 1701.82 420.37 1700.1 420.37C1698.39 420.37 1697 421.69 1697 423.318C1697 424.946 1698.39 426.266 1700.1 426.266Z" fill="#F2F2F2"/>
    <path fill-rule="evenodd" clip-rule="evenodd" d="M1709.43 426.266C1711.15 426.266 1712.54 424.946 1712.54 423.318C1712.54 421.69 1711.15 420.37 1709.43 420.37C1707.72 420.37 1706.32 421.69 1706.32 423.318C1706.32 424.946 1707.72 426.266 1709.43 426.266Z" fill="#F2F2F2"/>
    <path fill-rule="evenodd" clip-rule="evenodd" d="M1718.76 426.266C1720.48 426.266 1721.87 424.946 1721.87 423.318C1721.87 421.69 1720.48 420.37 1718.76 420.37C1717.04 420.37 1715.65 421.69 1715.65 423.318C1715.65 424.946 1717.04 426.266 1718.76 426.266Z" fill="#F2F2F2"/>
    <rect x="1930.96" y="510.283" width="54.4102" height="142.977" rx="8" fill="white"/>
    <rect x="1944.95" y="523.549" width="26.4278" height="19.1618" rx="4" fill="#DDE3E9"/>
    <rect x="1944.95" y="548.607" width="26.4278" height="18.4249" rx="4" fill="#AFB9C5"/>
    <rect x="1944.95" y="572.928" width="26.4278" height="18.4249" rx="4" fill="#DDE3E9"/>
    <rect x="1944.95" y="621.57" width="26.4278" height="18.4249" rx="4" fill="#DDE3E9"/>
    <rect x="1944.95" y="597.249" width="26.4278" height="18.4249" rx="4" fill="#C5CFD6"/>
    <rect x="1930.96" y="444.691" width="54.4102" height="59.6965" rx="8" fill="white"/>
    <path fill-rule="evenodd" clip-rule="evenodd" d="M1958.16 479.329C1965.03 479.329 1970.6 474.05 1970.6 467.537C1970.6 461.025 1965.03 455.745 1958.16 455.745C1951.3 455.745 1945.73 461.025 1945.73 467.537C1945.73 474.05 1951.3 479.329 1958.16 479.329Z" fill="#DDE3E9"/>
    <rect x="1938.73" y="482.277" width="38.8644" height="4.42197" rx="2.21098" fill="#DDE3E9"/>
    <rect x="1944.95" y="489.647" width="26.4278" height="4.42197" rx="2.21098" fill="#DDE3E9"/>
    <rect x="1702.44" y="444.691" width="222.305" height="34.6387" rx="4" fill="white"/>
    <rect x="1709.43" y="455.082" width="177.222" height="5.19581" rx="2.5979" fill="#DDE3E9"/>
    <rect x="1709.43" y="463.742" width="118.957" height="5.19581" rx="2.5979" fill="#DDE3E9"/>
    <path fill-rule="evenodd" clip-rule="evenodd" d="M1900.98 467.169C1903.99 467.169 1906.42 464.859 1906.42 462.01C1906.42 459.161 1903.99 456.851 1900.98 456.851C1897.98 456.851 1895.54 459.161 1895.54 462.01C1895.54 464.859 1897.98 467.169 1900.98 467.169Z" fill="#DDE3E9"/>
    <path fill-rule="evenodd" clip-rule="evenodd" d="M1900.98 464.221C1902.27 464.221 1903.32 463.231 1903.32 462.01C1903.32 460.789 1902.27 459.799 1900.98 459.799C1899.7 459.799 1898.65 460.789 1898.65 462.01C1898.65 463.231 1899.7 464.221 1900.98 464.221Z" fill="#F2F2F2"/>
    <rect x="1702.44" y="485.226" width="222.305" height="28.7428" rx="4" fill="white"/>
    <rect x="1709.43" y="493.848" width="177.222" height="4.31142" rx="2.15571" fill="#DDE3E9"/>
    <rect x="1709.43" y="501.034" width="118.957" height="4.31142" rx="2.15571" fill="#DDE3E9"/>
    <path fill-rule="evenodd" clip-rule="evenodd" d="M1900.98 504.756C1903.99 504.756 1906.42 502.446 1906.42 499.597C1906.42 496.747 1903.99 494.438 1900.98 494.438C1897.98 494.438 1895.54 496.747 1895.54 499.597C1895.54 502.446 1897.98 504.756 1900.98 504.756Z" fill="#DDE3E9"/>
    <path fill-rule="evenodd" clip-rule="evenodd" d="M1900.98 501.808C1902.27 501.808 1903.32 500.818 1903.32 499.597C1903.32 498.376 1902.27 497.386 1900.98 497.386C1899.7 497.386 1898.65 498.376 1898.65 499.597C1898.65 500.818 1899.7 501.808 1900.98 501.808Z" fill="#F2F2F2"/>
    <rect x="1702.44" y="519.864" width="222.305" height="28.7428" rx="4" fill="white"/>
    <rect x="1709.43" y="528.487" width="177.222" height="4.31142" rx="2.15571" fill="#DDE3E9"/>
    <rect x="1709.43" y="535.673" width="118.957" height="4.31142" rx="2.15571" fill="#DDE3E9"/>
    <path fill-rule="evenodd" clip-rule="evenodd" d="M1900.98 539.395C1903.99 539.395 1906.42 537.085 1906.42 534.236C1906.42 531.386 1903.99 529.077 1900.98 529.077C1897.98 529.077 1895.54 531.386 1895.54 534.236C1895.54 537.085 1897.98 539.395 1900.98 539.395Z" fill="#DDE3E9"/>
    <path fill-rule="evenodd" clip-rule="evenodd" d="M1900.98 536.446C1902.27 536.446 1903.32 535.456 1903.32 534.235C1903.32 533.014 1902.27 532.024 1900.98 532.024C1899.7 532.024 1898.65 533.014 1898.65 534.235C1898.65 535.456 1899.7 536.446 1900.98 536.446Z" fill="#AFB9C5"/>
    <rect x="1702.44" y="623.78" width="222.305" height="28.7428" rx="4" fill="white"/>
    <rect x="1709.43" y="632.403" width="177.222" height="4.31142" rx="2.15571" fill="#DDE3E9"/>
    <rect x="1709.43" y="639.589" width="118.957" height="4.31142" rx="2.15571" fill="#DDE3E9"/>
    <path fill-rule="evenodd" clip-rule="evenodd" d="M1900.98 643.311C1903.99 643.311 1906.42 641.001 1906.42 638.152C1906.42 635.303 1903.99 632.993 1900.98 632.993C1897.98 632.993 1895.54 635.303 1895.54 638.152C1895.54 641.001 1897.98 643.311 1900.98 643.311Z" fill="#DDE3E9"/>
    <path fill-rule="evenodd" clip-rule="evenodd" d="M1900.98 640.363C1902.27 640.363 1903.32 639.373 1903.32 638.152C1903.32 636.931 1902.27 635.941 1900.98 635.941C1899.7 635.941 1898.65 636.931 1898.65 638.152C1898.65 639.373 1899.7 640.363 1900.98 640.363Z" fill="#F2F2F2"/>
    <rect x="1702.44" y="589.142" width="222.305" height="28.7428" rx="4" fill="white"/>
    <rect x="1709.43" y="597.764" width="177.222" height="4.31142" rx="2.15571" fill="#DDE3E9"/>
    <rect x="1709.43" y="604.95" width="118.957" height="4.31142" rx="2.15571" fill="#DDE3E9"/>
    <path fill-rule="evenodd" clip-rule="evenodd" d="M1900.98 608.672C1903.99 608.672 1906.42 606.362 1906.42 603.513C1906.42 600.664 1903.99 598.354 1900.98 598.354C1897.98 598.354 1895.54 600.664 1895.54 603.513C1895.54 606.362 1897.98 608.672 1900.98 608.672Z" fill="#DDE3E9"/>
    <path fill-rule="evenodd" clip-rule="evenodd" d="M1900.98 605.724C1902.27 605.724 1903.32 604.734 1903.32 603.513C1903.32 602.292 1902.27 601.302 1900.98 601.302C1899.7 601.302 1898.65 602.292 1898.65 603.513C1898.65 604.734 1899.7 605.724 1900.98 605.724Z" fill="#F2F2F2"/>
    <rect x="1702.44" y="554.503" width="222.305" height="28.7428" rx="4" fill="white"/>
    <rect x="1709.43" y="563.125" width="177.222" height="4.31142" rx="2.15571" fill="#DDE3E9"/>
    <rect x="1709.43" y="570.311" width="118.957" height="4.31142" rx="2.15571" fill="#DDE3E9"/>
    <path fill-rule="evenodd" clip-rule="evenodd" d="M1900.98 574.033C1903.99 574.033 1906.42 571.724 1906.42 568.874C1906.42 566.025 1903.99 563.715 1900.98 563.715C1897.98 563.715 1895.54 566.025 1895.54 568.874C1895.54 571.724 1897.98 574.033 1900.98 574.033Z" fill="#DDE3E9"/>
    <path fill-rule="evenodd" clip-rule="evenodd" d="M1900.98 571.085C1902.27 571.085 1903.32 570.095 1903.32 568.874C1903.32 567.653 1902.27 566.663 1900.98 566.663C1899.7 566.663 1898.65 567.653 1898.65 568.874C1898.65 570.095 1899.7 571.085 1900.98 571.085Z" fill="#F2F2F2"/>
    <path fill-rule="evenodd" clip-rule="evenodd" d="M1963.65 516.733C1970.37 520.298 1976.96 522.021 1980.06 521.318C1987.82 519.554 1988.54 494.527 1982.53 484.661C1976.52 474.794 1945.64 470.494 1944.08 490.043C1943.54 496.827 1946.77 502.882 1951.55 507.823L1942.99 543H1967.87L1963.65 516.733Z" fill="#B28B67"/>
    <path fill-rule="evenodd" clip-rule="evenodd" d="M1964.9 492.201C1967.05 489.378 1969.12 487.224 1971.8 485.973C1982.74 486.126 1984.02 484.398 1984.02 478.574C1982.26 477.461 1976.02 475.585 1969.04 475.057C1965.48 474.159 1961.26 474.328 1957.2 475.826C1952.18 477.08 1947.93 479.781 1946.05 484.838C1939.27 495.161 1944.42 505.907 1951.36 509.578C1953.21 507.648 1954.82 505.778 1956.26 503.988C1955.11 502.993 1954.39 501.604 1954.39 500.067C1954.39 497.04 1957.17 494.587 1960.61 494.587C1960.86 494.587 1961.11 494.6 1961.36 494.626C1961.51 498.41 1962.15 511.214 1963.82 515.661C1965.79 520.905 1977.29 522.192 1981.3 522.192C1984.76 522.192 1984.64 519.303 1984.56 517.232C1984.54 516.934 1984.53 516.652 1984.53 516.399C1984.53 515.87 1983.75 515.872 1982.87 515.873C1981.72 515.875 1980.41 515.877 1980.41 514.719C1980.41 513.457 1982.39 512.488 1984.16 511.622C1985.26 511.081 1986.29 510.58 1986.7 510.072C1988 508.469 1988.44 506.307 1986.48 506.307C1985.41 506.307 1983.93 506.852 1982.17 507.507C1979.5 508.495 1976.14 509.736 1972.46 509.736C1966.36 509.736 1964.92 492.419 1964.9 492.201Z" fill="#191847"/>
    <rect x="1690" width="307.806" height="255" rx="8" fill="#F2F2F2"/>
    <path d="M1690 8C1690 3.58172 1693.58 0 1698 0H1989.81C1994.22 0 1997.81 3.58172 1997.81 8V19.8988H1690V8Z" fill="#C5CFD6"/>
    <path fill-rule="evenodd" clip-rule="evenodd" d="M1700.1 13.2661C1701.82 13.2661 1703.21 11.9462 1703.21 10.3181C1703.21 8.68997 1701.82 7.37012 1700.1 7.37012C1698.39 7.37012 1697 8.68997 1697 10.3181C1697 11.9462 1698.39 13.2661 1700.1 13.2661Z" fill="#F2F2F2"/>
    <path fill-rule="evenodd" clip-rule="evenodd" d="M1709.43 13.2661C1711.15 13.2661 1712.54 11.9462 1712.54 10.3181C1712.54 8.68997 1711.15 7.37012 1709.43 7.37012C1707.72 7.37012 1706.32 8.68997 1706.32 10.3181C1706.32 11.9462 1707.72 13.2661 1709.43 13.2661Z" fill="#F2F2F2"/>
    <path fill-rule="evenodd" clip-rule="evenodd" d="M1718.76 13.2661C1720.48 13.2661 1721.87 11.9462 1721.87 10.3181C1721.87 8.68997 1720.48 7.37012 1718.76 7.37012C1717.04 7.37012 1715.65 8.68997 1715.65 10.3181C1715.65 11.9462 1717.04 13.2661 1718.76 13.2661Z" fill="#F2F2F2"/>
    <rect x="1930.96" y="97.2834" width="54.4102" height="142.977" rx="8" fill="white"/>
    <rect x="1944.95" y="110.549" width="26.4278" height="19.1618" rx="4" fill="#DDE3E9"/>
    <rect x="1944.95" y="135.607" width="26.4278" height="18.4249" rx="4" fill="#AFB9C5"/>
    <rect x="1944.95" y="159.928" width="26.4278" height="18.4249" rx="4" fill="#DDE3E9"/>
    <rect x="1944.95" y="208.57" width="26.4278" height="18.4249" rx="4" fill="#DDE3E9"/>
    <rect x="1944.95" y="184.249" width="26.4278" height="18.4249" rx="4" fill="#C5CFD6"/>
    <rect x="1930.96" y="31.6909" width="54.4102" height="59.6965" rx="8" fill="white"/>
    <path fill-rule="evenodd" clip-rule="evenodd" d="M1958.16 66.3292C1965.03 66.3292 1970.6 61.0498 1970.6 54.5373C1970.6 48.0248 1965.03 42.7454 1958.16 42.7454C1951.3 42.7454 1945.73 48.0248 1945.73 54.5373C1945.73 61.0498 1951.3 66.3292 1958.16 66.3292Z" fill="#DDE3E9"/>
    <rect x="1938.73" y="69.2773" width="38.8644" height="4.42197" rx="2.21098" fill="#DDE3E9"/>
    <rect x="1944.95" y="76.6475" width="26.4278" height="4.42197" rx="2.21098" fill="#DDE3E9"/>
    <rect x="1702.44" y="31.6909" width="222.305" height="34.6387" rx="4" fill="white"/>
    <rect x="1709.43" y="42.0823" width="177.222" height="5.19581" rx="2.5979" fill="#DDE3E9"/>
    <rect x="1709.43" y="50.7419" width="118.957" height="5.19581" rx="2.5979" fill="#DDE3E9"/>
    <path fill-rule="evenodd" clip-rule="evenodd" d="M1900.98 54.169C1903.99 54.169 1906.42 51.8592 1906.42 49.01C1906.42 46.1608 1903.99 43.8511 1900.98 43.8511C1897.98 43.8511 1895.54 46.1608 1895.54 49.01C1895.54 51.8592 1897.98 54.169 1900.98 54.169Z" fill="#DDE3E9"/>
    <path fill-rule="evenodd" clip-rule="evenodd" d="M1900.98 51.2213C1902.27 51.2213 1903.32 50.2314 1903.32 49.0103C1903.32 47.7892 1902.27 46.7993 1900.98 46.7993C1899.7 46.7993 1898.65 47.7892 1898.65 49.0103C1898.65 50.2314 1899.7 51.2213 1900.98 51.2213Z" fill="#F2F2F2"/>
    <rect x="1702.44" y="72.2256" width="222.305" height="28.7428" rx="4" fill="white"/>
    <rect x="1709.43" y="80.8479" width="177.222" height="4.31142" rx="2.15571" fill="#DDE3E9"/>
    <rect x="1709.43" y="88.0339" width="118.957" height="4.31142" rx="2.15571" fill="#DDE3E9"/>
    <path fill-rule="evenodd" clip-rule="evenodd" d="M1900.98 91.7557C1903.99 91.7557 1906.42 89.4459 1906.42 86.5967C1906.42 83.7475 1903.99 81.4377 1900.98 81.4377C1897.98 81.4377 1895.54 83.7475 1895.54 86.5967C1895.54 89.4459 1897.98 91.7557 1900.98 91.7557Z" fill="#DDE3E9"/>
    <path fill-rule="evenodd" clip-rule="evenodd" d="M1900.98 88.8077C1902.27 88.8077 1903.32 87.8178 1903.32 86.5967C1903.32 85.3756 1902.27 84.3857 1900.98 84.3857C1899.7 84.3857 1898.65 85.3756 1898.65 86.5967C1898.65 87.8178 1899.7 88.8077 1900.98 88.8077Z" fill="#F2F2F2"/>
    <rect x="1702.44" y="106.864" width="222.305" height="28.7428" rx="4" fill="white"/>
    <rect x="1709.43" y="115.487" width="177.222" height="4.31142" rx="2.15571" fill="#DDE3E9"/>
    <rect x="1709.43" y="122.673" width="118.957" height="4.31142" rx="2.15571" fill="#DDE3E9"/>
    <path fill-rule="evenodd" clip-rule="evenodd" d="M1900.98 126.395C1903.99 126.395 1906.42 124.085 1906.42 121.236C1906.42 118.386 1903.99 116.077 1900.98 116.077C1897.98 116.077 1895.54 118.386 1895.54 121.236C1895.54 124.085 1897.98 126.395 1900.98 126.395Z" fill="#DDE3E9"/>
    <path fill-rule="evenodd" clip-rule="evenodd" d="M1900.98 123.446C1902.27 123.446 1903.32 122.456 1903.32 121.235C1903.32 120.014 1902.27 119.024 1900.98 119.024C1899.7 119.024 1898.65 120.014 1898.65 121.235C1898.65 122.456 1899.7 123.446 1900.98 123.446Z" fill="#AFB9C5"/>
    <rect x="1702.44" y="210.78" width="222.305" height="28.7428" rx="4" fill="white"/>
    <rect x="1709.43" y="219.403" width="177.222" height="4.31142" rx="2.15571" fill="#DDE3E9"/>
    <rect x="1709.43" y="226.589" width="118.957" height="4.31142" rx="2.15571" fill="#DDE3E9"/>
    <path fill-rule="evenodd" clip-rule="evenodd" d="M1900.98 230.311C1903.99 230.311 1906.42 228.001 1906.42 225.152C1906.42 222.303 1903.99 219.993 1900.98 219.993C1897.98 219.993 1895.54 222.303 1895.54 225.152C1895.54 228.001 1897.98 230.311 1900.98 230.311Z" fill="#DDE3E9"/>
    <path fill-rule="evenodd" clip-rule="evenodd" d="M1900.98 227.363C1902.27 227.363 1903.32 226.373 1903.32 225.152C1903.32 223.931 1902.27 222.941 1900.98 222.941C1899.7 222.941 1898.65 223.931 1898.65 225.152C1898.65 226.373 1899.7 227.363 1900.98 227.363Z" fill="#F2F2F2"/>
    <rect x="1702.44" y="176.142" width="222.305" height="28.7428" rx="4" fill="white"/>
    <rect x="1709.43" y="184.764" width="177.222" height="4.31142" rx="2.15571" fill="#DDE3E9"/>
    <rect x="1709.43" y="191.95" width="118.957" height="4.31142" rx="2.15571" fill="#DDE3E9"/>
    <path fill-rule="evenodd" clip-rule="evenodd" d="M1900.98 195.672C1903.99 195.672 1906.42 193.362 1906.42 190.513C1906.42 187.664 1903.99 185.354 1900.98 185.354C1897.98 185.354 1895.54 187.664 1895.54 190.513C1895.54 193.362 1897.98 195.672 1900.98 195.672Z" fill="#DDE3E9"/>
    <path fill-rule="evenodd" clip-rule="evenodd" d="M1900.98 192.724C1902.27 192.724 1903.32 191.734 1903.32 190.513C1903.32 189.292 1902.27 188.302 1900.98 188.302C1899.7 188.302 1898.65 189.292 1898.65 190.513C1898.65 191.734 1899.7 192.724 1900.98 192.724Z" fill="#F2F2F2"/>
    <rect x="1702.44" y="141.503" width="222.305" height="28.7428" rx="4" fill="white"/>
    <rect x="1709.43" y="150.125" width="177.222" height="4.31142" rx="2.15571" fill="#DDE3E9"/>
    <rect x="1709.43" y="157.311" width="118.957" height="4.31142" rx="2.15571" fill="#DDE3E9"/>
    <path fill-rule="evenodd" clip-rule="evenodd" d="M1900.98 161.033C1903.99 161.033 1906.42 158.724 1906.42 155.874C1906.42 153.025 1903.99 150.715 1900.98 150.715C1897.98 150.715 1895.54 153.025 1895.54 155.874C1895.54 158.724 1897.98 161.033 1900.98 161.033Z" fill="#DDE3E9"/>
    <path fill-rule="evenodd" clip-rule="evenodd" d="M1900.98 158.085C1902.27 158.085 1903.32 157.095 1903.32 155.874C1903.32 154.653 1902.27 153.663 1900.98 153.663C1899.7 153.663 1898.65 154.653 1898.65 155.874C1898.65 157.095 1899.7 158.085 1900.98 158.085Z" fill="#F2F2F2"/>
    <rect x="1140" y="83" width="307.806" height="255" rx="8" fill="#F2F2F2"/>
    <path d="M1140 91C1140 86.5817 1143.58 83 1148 83H1439.81C1444.22 83 1447.81 86.5817 1447.81 91V102.899H1140V91Z" fill="#C5CFD6"/>
    <path fill-rule="evenodd" clip-rule="evenodd" d="M1150.1 96.2661C1151.82 96.2661 1153.21 94.9462 1153.21 93.3181C1153.21 91.69 1151.82 90.3701 1150.1 90.3701C1148.39 90.3701 1147 91.69 1147 93.3181C1147 94.9462 1148.39 96.2661 1150.1 96.2661Z" fill="#F2F2F2"/>
    <path fill-rule="evenodd" clip-rule="evenodd" d="M1159.43 96.2661C1161.15 96.2661 1162.54 94.9462 1162.54 93.3181C1162.54 91.69 1161.15 90.3701 1159.43 90.3701C1157.72 90.3701 1156.32 91.69 1156.32 93.3181C1156.32 94.9462 1157.72 96.2661 1159.43 96.2661Z" fill="#F2F2F2"/>
    <path fill-rule="evenodd" clip-rule="evenodd" d="M1168.76 96.2661C1170.48 96.2661 1171.87 94.9462 1171.87 93.3181C1171.87 91.69 1170.48 90.3701 1168.76 90.3701C1167.04 90.3701 1165.65 91.69 1165.65 93.3181C1165.65 94.9462 1167.04 96.2661 1168.76 96.2661Z" fill="#F2F2F2"/>
    <rect x="1380.96" y="180.283" width="54.4102" height="142.977" rx="8" fill="white"/>
    <rect x="1394.95" y="193.549" width="26.4278" height="19.1618" rx="4" fill="#DDE3E9"/>
    <rect x="1394.95" y="218.607" width="26.4278" height="18.4249" rx="4" fill="#AFB9C5"/>
    <rect x="1394.95" y="242.928" width="26.4278" height="18.4249" rx="4" fill="#DDE3E9"/>
    <rect x="1394.95" y="291.57" width="26.4278" height="18.4249" rx="4" fill="#DDE3E9"/>
    <rect x="1394.95" y="267.249" width="26.4278" height="18.4249" rx="4" fill="#C5CFD6"/>
    <rect x="1380.96" y="114.691" width="54.4102" height="59.6965" rx="8" fill="white"/>
    <path fill-rule="evenodd" clip-rule="evenodd" d="M1408.16 149.329C1415.03 149.329 1420.6 144.05 1420.6 137.537C1420.6 131.025 1415.03 125.745 1408.16 125.745C1401.3 125.745 1395.73 131.025 1395.73 137.537C1395.73 144.05 1401.3 149.329 1408.16 149.329Z" fill="#DDE3E9"/>
    <rect x="1388.73" y="152.277" width="38.8644" height="4.42197" rx="2.21098" fill="#DDE3E9"/>
    <rect x="1394.95" y="159.647" width="26.4278" height="4.42197" rx="2.21098" fill="#DDE3E9"/>
    <rect x="1152.44" y="114.691" width="222.305" height="34.6387" rx="4" fill="white"/>
    <rect x="1159.43" y="125.082" width="177.222" height="5.19581" rx="2.5979" fill="#DDE3E9"/>
    <rect x="1159.43" y="133.742" width="118.957" height="5.19581" rx="2.5979" fill="#DDE3E9"/>
    <path fill-rule="evenodd" clip-rule="evenodd" d="M1350.98 137.169C1353.99 137.169 1356.42 134.859 1356.42 132.01C1356.42 129.161 1353.99 126.851 1350.98 126.851C1347.98 126.851 1345.54 129.161 1345.54 132.01C1345.54 134.859 1347.98 137.169 1350.98 137.169Z" fill="#DDE3E9"/>
    <path fill-rule="evenodd" clip-rule="evenodd" d="M1350.98 134.221C1352.27 134.221 1353.32 133.231 1353.32 132.01C1353.32 130.789 1352.27 129.799 1350.98 129.799C1349.7 129.799 1348.65 130.789 1348.65 132.01C1348.65 133.231 1349.7 134.221 1350.98 134.221Z" fill="#F2F2F2"/>
    <rect x="1152.44" y="155.226" width="222.305" height="28.7428" rx="4" fill="white"/>
    <rect x="1159.43" y="163.848" width="177.222" height="4.31142" rx="2.15571" fill="#DDE3E9"/>
    <rect x="1159.43" y="171.034" width="118.957" height="4.31142" rx="2.15571" fill="#DDE3E9"/>
    <path fill-rule="evenodd" clip-rule="evenodd" d="M1350.98 174.756C1353.99 174.756 1356.42 172.446 1356.42 169.597C1356.42 166.747 1353.99 164.438 1350.98 164.438C1347.98 164.438 1345.54 166.747 1345.54 169.597C1345.54 172.446 1347.98 174.756 1350.98 174.756Z" fill="#DDE3E9"/>
    <path fill-rule="evenodd" clip-rule="evenodd" d="M1350.98 171.808C1352.27 171.808 1353.32 170.818 1353.32 169.597C1353.32 168.376 1352.27 167.386 1350.98 167.386C1349.7 167.386 1348.65 168.376 1348.65 169.597C1348.65 170.818 1349.7 171.808 1350.98 171.808Z" fill="#F2F2F2"/>
    <rect x="1152.44" y="189.864" width="222.305" height="28.7428" rx="4" fill="white"/>
    <rect x="1159.43" y="198.487" width="177.222" height="4.31142" rx="2.15571" fill="#DDE3E9"/>
    <rect x="1159.43" y="205.673" width="118.957" height="4.31142" rx="2.15571" fill="#DDE3E9"/>
    <path fill-rule="evenodd" clip-rule="evenodd" d="M1350.98 209.395C1353.99 209.395 1356.42 207.085 1356.42 204.236C1356.42 201.386 1353.99 199.077 1350.98 199.077C1347.98 199.077 1345.54 201.386 1345.54 204.236C1345.54 207.085 1347.98 209.395 1350.98 209.395Z" fill="#DDE3E9"/>
    <path fill-rule="evenodd" clip-rule="evenodd" d="M1350.98 206.446C1352.27 206.446 1353.32 205.456 1353.32 204.235C1353.32 203.014 1352.27 202.024 1350.98 202.024C1349.7 202.024 1348.65 203.014 1348.65 204.235C1348.65 205.456 1349.7 206.446 1350.98 206.446Z" fill="#AFB9C5"/>
    <rect x="1152.44" y="293.78" width="222.305" height="28.7428" rx="4" fill="white"/>
    <rect x="1159.43" y="302.403" width="177.222" height="4.31142" rx="2.15571" fill="#DDE3E9"/>
    <rect x="1159.43" y="309.589" width="118.957" height="4.31142" rx="2.15571" fill="#DDE3E9"/>
    <path fill-rule="evenodd" clip-rule="evenodd" d="M1350.98 313.311C1353.99 313.311 1356.42 311.001 1356.42 308.152C1356.42 305.303 1353.99 302.993 1350.98 302.993C1347.98 302.993 1345.54 305.303 1345.54 308.152C1345.54 311.001 1347.98 313.311 1350.98 313.311Z" fill="#DDE3E9"/>
    <path fill-rule="evenodd" clip-rule="evenodd" d="M1350.98 310.363C1352.27 310.363 1353.32 309.373 1353.32 308.152C1353.32 306.931 1352.27 305.941 1350.98 305.941C1349.7 305.941 1348.65 306.931 1348.65 308.152C1348.65 309.373 1349.7 310.363 1350.98 310.363Z" fill="#F2F2F2"/>
    <rect x="1152.44" y="259.142" width="222.305" height="28.7428" rx="4" fill="white"/>
    <rect x="1159.43" y="267.764" width="177.222" height="4.31142" rx="2.15571" fill="#DDE3E9"/>
    <rect x="1159.43" y="274.95" width="118.957" height="4.31142" rx="2.15571" fill="#DDE3E9"/>
    <path fill-rule="evenodd" clip-rule="evenodd" d="M1350.98 278.672C1353.99 278.672 1356.42 276.362 1356.42 273.513C1356.42 270.664 1353.99 268.354 1350.98 268.354C1347.98 268.354 1345.54 270.664 1345.54 273.513C1345.54 276.362 1347.98 278.672 1350.98 278.672Z" fill="#DDE3E9"/>
    <path fill-rule="evenodd" clip-rule="evenodd" d="M1350.98 275.724C1352.27 275.724 1353.32 274.734 1353.32 273.513C1353.32 272.292 1352.27 271.302 1350.98 271.302C1349.7 271.302 1348.65 272.292 1348.65 273.513C1348.65 274.734 1349.7 275.724 1350.98 275.724Z" fill="#F2F2F2"/>
    <rect x="1152.44" y="224.503" width="222.305" height="28.7428" rx="4" fill="white"/>
    <rect x="1159.43" y="233.125" width="177.222" height="4.31142" rx="2.15571" fill="#DDE3E9"/>
    <rect x="1159.43" y="240.311" width="118.957" height="4.31142" rx="2.15571" fill="#DDE3E9"/>
    <path fill-rule="evenodd" clip-rule="evenodd" d="M1350.98 244.033C1353.99 244.033 1356.42 241.724 1356.42 238.874C1356.42 236.025 1353.99 233.715 1350.98 233.715C1347.98 233.715 1345.54 236.025 1345.54 238.874C1345.54 241.724 1347.98 244.033 1350.98 244.033Z" fill="#DDE3E9"/>
    <path fill-rule="evenodd" clip-rule="evenodd" d="M1350.98 241.085C1352.27 241.085 1353.32 240.095 1353.32 238.874C1353.32 237.653 1352.27 236.663 1350.98 236.663C1349.7 236.663 1348.65 237.653 1348.65 238.874C1348.65 240.095 1349.7 241.085 1350.98 241.085Z" fill="#F2F2F2"/>
    <path fill-rule="evenodd" clip-rule="evenodd" d="M1486.65 516.733C1493.37 520.298 1499.96 522.021 1503.06 521.318C1510.82 519.554 1511.54 494.527 1505.53 484.661C1499.52 474.794 1468.64 470.494 1467.08 490.043C1466.54 496.827 1469.77 502.882 1474.55 507.823L1465.99 543H1490.87L1486.65 516.733Z" fill="#B28B67"/>
    <path fill-rule="evenodd" clip-rule="evenodd" d="M1487.9 492.201C1490.05 489.378 1492.12 487.224 1494.8 485.973C1505.74 486.126 1507.02 484.398 1507.02 478.574C1505.26 477.461 1499.02 475.585 1492.04 475.057C1488.48 474.159 1484.26 474.328 1480.2 475.826C1475.18 477.08 1470.93 479.781 1469.05 484.838C1462.27 495.161 1467.42 505.907 1474.36 509.578C1476.21 507.648 1477.82 505.778 1479.26 503.988C1478.11 502.993 1477.39 501.604 1477.39 500.067C1477.39 497.04 1480.17 494.587 1483.61 494.587C1483.86 494.587 1484.11 494.6 1484.36 494.626C1484.51 498.41 1485.15 511.214 1486.82 515.661C1488.79 520.905 1500.29 522.192 1504.3 522.192C1507.76 522.192 1507.64 519.303 1507.56 517.232C1507.54 516.934 1507.53 516.652 1507.53 516.399C1507.53 515.87 1506.75 515.872 1505.87 515.873C1504.72 515.875 1503.41 515.877 1503.41 514.719C1503.41 513.457 1505.39 512.488 1507.16 511.622C1508.26 511.081 1509.29 510.58 1509.7 510.072C1511 508.469 1511.44 506.307 1509.48 506.307C1508.41 506.307 1506.93 506.852 1505.17 507.507C1502.5 508.495 1499.14 509.736 1495.46 509.736C1489.36 509.736 1487.92 492.419 1487.9 492.201Z" fill="#191847"/>
    <path fill-rule="evenodd" clip-rule="evenodd" d="M1052.21 436.758L1023.88 409.123L1014.47 425.403L1043.93 442.77C1051.32 454.405 1055.65 459.432 1056.94 457.852C1058.03 456.519 1057.53 455.058 1057.07 453.713C1056.72 452.665 1056.38 451.687 1056.84 450.894C1057.89 449.082 1063.8 450.12 1069.37 451.344C1074.94 452.568 1073.65 449.832 1072.47 448.404C1067.21 444.156 1060.45 440.273 1052.21 436.758ZM885.235 476.908C888.166 470.963 898.145 413.02 898.145 413.02L919.043 413.102C919.043 413.102 899.688 475.583 898.145 479.406C896.141 484.372 899.545 491.587 901.853 496.48C902.21 497.237 902.541 497.938 902.822 498.567C899.619 500 898.081 498.268 896.459 496.442C894.627 494.379 892.688 492.197 888.125 494.32C886.362 495.14 884.694 496.109 883.064 497.057C877.434 500.329 872.262 503.336 865.226 498.994C864.111 498.306 862.889 495.715 865.842 493.69C873.2 488.645 883.803 479.815 885.235 476.908Z" fill="#B28B67"/>
    <path fill-rule="evenodd" clip-rule="evenodd" d="M957.532 325.332L966.179 323.849C981.067 361.039 1007.06 394.831 1044.16 425.225L1016.12 459.281C979.031 416.005 956.167 371.355 957.532 325.332Z" fill="#191847"/>
    <path fill-rule="evenodd" clip-rule="evenodd" d="M919.837 434H996.837C996.837 434 970.079 368.938 970.079 323.461L946.851 320C928.597 349.358 923.442 385.505 919.837 434Z" fill="#DDE3E9"/>
    <path fill-rule="evenodd" clip-rule="evenodd" d="M884.837 467C893.258 371.996 946.341 320 946.341 320L946.36 320.016C946.363 320.011 946.366 320.005 946.369 320H947.885C950.606 320.094 956.175 320.338 956.175 320.338L961.787 336.377C962.678 365.71 972.188 454.606 972.188 454.606H921.787C921.873 458.682 922.063 462.815 922.368 467H884.837Z" fill="#2F3676"/>
    <path fill-rule="evenodd" clip-rule="evenodd" d="M921.796 455C921.393 437.25 922.968 420.584 925.595 405.502C926.969 423.399 929.84 444.934 935.837 455H921.796Z" fill="black" fill-opacity="0.1"/>
    <path fill-rule="evenodd" clip-rule="evenodd" d="M932.948 424L957.837 412.429V424H932.948Z" fill="white" fill-opacity="0.2"/>
    <path fill-rule="evenodd" clip-rule="evenodd" d="M950.837 315.707C962.266 315.707 966.423 302.024 972.916 294.515C977.562 289.143 985.49 290.745 987.837 283.224C993.739 264.311 977.943 251 957.337 251C936.731 251 922.837 262.674 919.837 280.224C916.837 297.773 930.231 315.707 950.837 315.707Z" fill="#191847"/>
    <path fill-rule="evenodd" clip-rule="evenodd" d="M963.773 313.244C970.248 317.147 976.611 319.033 979.598 318.263C987.087 316.333 987.775 288.935 981.981 278.134C976.186 267.333 946.396 262.625 944.894 284.025C944.373 291.453 947.492 298.081 952.1 303.49L943.837 342H967.837L963.773 313.244Z" fill="#B28B67"/>
    <path fill-rule="evenodd" clip-rule="evenodd" d="M946.454 269C928.071 287 946.524 306.132 951.58 306.132C951.907 303.535 952.902 301.008 954.361 298.604C953.586 297.6 953.127 296.352 953.127 295C953.127 291.686 955.884 289 959.284 289C960.346 289 961.345 289.262 962.217 289.723C969.587 283.438 978.831 279.056 983.42 278.194C991.403 276.696 964.837 251 946.454 269Z" fill="#191847"/>
    <rect x="903.337" y="232.5" width="109" height="107" stroke="#05C223" stroke-width="5"/>
    <path fill-rule="evenodd" clip-rule="evenodd" d="M935.837 425L973.468 548.024L991.697 652.648H1005.99L986.728 425H935.837Z" fill="#997659"/>
    <path fill-rule="evenodd" clip-rule="evenodd" d="M922.375 425C924.931 492.547 921.923 527.389 921.351 533.526C920.779 539.663 912.945 579.455 894.401 654.708L909.631 649.478C938.939 580.459 948.926 544.589 952.288 535.526C955.649 526.463 964.577 489.621 979.071 425H922.375Z" fill="#B28B67"/>
    <path fill-rule="evenodd" clip-rule="evenodd" d="M897.287 648.284C896.215 647.813 894.942 648.29 894.542 649.391C893.814 651.398 892.837 654.409 892.837 656.106C892.837 658.811 893.738 664 893.738 664C896.876 664 950.14 664 950.14 664C950.14 664 952.339 656.732 947.602 656.152C942.865 655.573 939.732 655.106 939.732 655.106L913.517 643.419C913.003 643.189 912.4 643.43 912.186 643.951L910.5 648.039C910.5 648.039 906.115 650.085 903.374 650.085C901.705 650.085 899.083 649.074 897.287 648.284Z" fill="#E4E4E4"/>
    <path fill-rule="evenodd" clip-rule="evenodd" d="M991.287 648.284C990.215 647.813 988.942 648.29 988.542 649.391C987.814 651.398 986.837 654.409 986.837 656.106C986.837 658.811 987.738 664 987.738 664C990.876 664 1044.14 664 1044.14 664C1044.14 664 1046.34 656.732 1041.6 656.152C1036.87 655.573 1033.73 655.106 1033.73 655.106L1007.52 643.419C1007 643.189 1006.4 643.43 1006.19 643.951L1004.5 648.039C1004.5 648.039 1000.12 650.085 997.374 650.085C995.705 650.085 993.083 649.074 991.287 648.284Z" fill="#E4E4E4"/>
    <path fill-rule="evenodd" clip-rule="evenodd" d="M930.837 425L946.837 487.68H995.708L988.421 425H930.837Z" fill="#69A1AC"/>
    <path fill-rule="evenodd" clip-rule="evenodd" d="M921.837 425C913.94 448.671 918.837 487.68 918.837 487.68H968.708L982.421 425H921.837Z" fill="#89C5CC"/>
    <path fill-rule="evenodd" clip-rule="evenodd" d="M673.935 322.244C680.411 326.147 686.774 328.033 689.76 327.263C697.25 325.333 697.938 297.935 692.143 287.134C686.349 276.333 656.558 271.625 655.057 293.025C654.536 300.453 657.654 307.081 662.262 312.49L654 351H678L673.935 322.244Z" fill="#B28B67"/>
    <path fill-rule="evenodd" clip-rule="evenodd" d="M675.135 295.389C677.211 292.298 679.204 289.94 681.797 288.571C692.348 288.738 693.583 286.846 693.583 280.471C691.879 279.251 685.866 277.198 679.132 276.62C675.697 275.637 671.627 275.822 667.707 277.462C662.868 278.835 658.77 281.792 656.96 287.328C650.412 298.629 655.382 310.393 662.08 314.411C663.863 312.299 665.419 310.252 666.808 308.292C665.692 307.203 665 305.682 665 304C665 300.686 667.686 298 671 298C671.244 298 671.484 298.014 671.72 298.043C671.869 302.186 672.483 316.203 674.094 321.071C675.995 326.811 687.084 328.221 690.951 328.221C694.292 328.221 694.178 325.058 694.096 322.791C694.084 322.464 694.073 322.156 694.073 321.879C694.073 321.3 693.32 321.301 692.469 321.303C691.364 321.305 690.094 321.308 690.094 320.04C690.094 318.658 692.004 317.598 693.713 316.649C694.779 316.057 695.768 315.509 696.165 314.952C697.419 313.198 697.841 310.831 695.95 310.831C694.916 310.831 693.497 311.427 691.791 312.144C689.215 313.226 685.983 314.585 682.426 314.585C676.55 314.585 675.153 295.626 675.135 295.389Z" fill="#191847"/>
    <path fill-rule="evenodd" clip-rule="evenodd" d="M646 434L682.255 561.227L708.707 655H728L699.891 434H646Z" fill="#191847"/>
    <path fill-rule="evenodd" clip-rule="evenodd" d="M636.304 434C635.466 499.574 632.606 535.34 631.726 541.298C630.845 547.256 617.532 585.156 591.786 655H611.773C644.549 587.997 662.846 550.096 666.662 541.298C670.479 532.5 682.259 496.734 700 434H636.304Z" fill="#2F3676"/>
    <path fill-rule="evenodd" clip-rule="evenodd" d="M590 673L591 652L612 652C626.936 662.5 651 669 651 669V673H613L600 671V673H590Z" fill="#191847"/>
    <path fill-rule="evenodd" clip-rule="evenodd" d="M706 673L707 652L728 652C742.936 662.5 767 669 767 669V673H729L716 671V673H706Z" fill="#191847"/>
    <path fill-rule="evenodd" clip-rule="evenodd" d="M568.364 470.284C572.094 464.804 593.667 406.536 593.667 406.536L611.379 409.108C611.379 409.108 582.861 470.982 580.801 474.554C578.126 479.193 580.492 486.812 582.097 491.978C582.345 492.777 582.575 493.518 582.766 494.179C579.395 495.153 578.112 493.223 576.76 491.189C575.233 488.892 573.617 486.461 568.803 487.928C566.943 488.495 565.156 489.223 563.41 489.934C557.38 492.391 551.84 494.648 545.476 489.37C544.468 488.533 543.618 485.797 546.824 484.203C554.813 480.231 566.541 472.963 568.364 470.284ZM760.545 443.202L730.359 417.61L722.109 434.507L752.706 449.777C760.885 460.868 765.564 465.581 766.74 463.914C767.732 462.509 767.133 461.087 766.581 459.776C766.151 458.756 765.75 457.803 766.152 456.98C767.07 455.1 773.042 455.722 778.684 456.555C784.326 457.388 782.85 454.748 781.569 453.406C776.021 449.536 769.013 446.134 760.545 443.202Z" fill="#B28B67"/>
    <path fill-rule="evenodd" clip-rule="evenodd" d="M667.695 334.332L678.67 330.703C693.557 367.893 715.761 403.876 752.857 434.27L743.684 450.097C711.081 430.892 680.219 415.973 667.695 387.155C663.492 377.483 667.352 345.897 667.695 334.332Z" fill="#C5CFD6"/>
    <path fill-rule="evenodd" clip-rule="evenodd" d="M630 439C630 439 677.157 444 704.236 439C706.473 438.587 706.826 434.842 705.788 432.301C689.636 392.724 678.56 358.192 678.56 330.703C674.115 332.944 663 331.374 663 331.374C643.086 359.703 633.933 392.206 630 439Z" fill="#323337"/>
    <path fill-rule="evenodd" clip-rule="evenodd" d="M657.293 329C657.807 328.654 658.079 328.481 658.079 328.481L658.049 329H666.348C666.765 331.453 667.376 340.543 668.267 353.798C671.504 401.965 678.436 505.127 693.191 544.606H591.385C593.533 499.722 610.082 446.047 627.224 400.47C614.574 413.056 599.801 434.153 587.862 469.273L568.793 464.378C588.226 380.638 645.162 337.452 656.21 329.744C656.317 329.495 656.425 329.247 656.532 329H657.293Z" fill="#DDE3E9"/>
    <rect x="618.5" y="249.5" width="107" height="107" stroke="#05C223" stroke-width="5"/>
    <path fill-rule="evenodd" clip-rule="evenodd" d="M423.935 322.244C430.411 326.147 436.774 328.033 439.76 327.263C447.25 325.333 447.938 297.935 442.143 287.134C436.349 276.333 406.558 271.625 405.057 293.025C404.536 300.453 407.654 307.081 412.262 312.49L404 351H428L423.935 322.244Z" fill="#B28B67"/>
    <path fill-rule="evenodd" clip-rule="evenodd" d="M432.663 275.37C429.384 274.37 424.623 274.031 422.621 274.26C423.76 271.531 424.212 268.49 423.844 265.529C423.485 262.652 422.2 260.202 421.011 257.635C420.463 256.452 419.842 255.275 418.916 254.37C417.972 253.448 416.778 252.84 415.526 252.549C414.245 252.252 412.905 252.277 411.622 252.547C411.054 252.666 410.545 252.925 409.988 253.07C409.418 253.218 409.141 252.861 408.727 252.502C407.73 251.638 406.268 251.211 405.006 251.059C403.59 250.887 402.121 251.101 400.771 251.566C399.457 252.019 398.195 252.755 397.245 253.827C396.822 254.304 396.438 254.847 396.188 255.446C396.086 255.692 396.069 255.838 395.823 255.928C395.596 256.012 395.331 256.014 395.096 256.094C392.831 256.861 390.893 258.612 389.838 260.86C389.223 262.171 388.932 264.48 389.011 267.068C389.091 269.656 391.428 276.408 393.613 278.871C395.564 281.07 398.432 282.52 401.199 283.155C399.362 285.255 398.14 287.878 397.235 290.547C396.253 293.445 395.645 296.457 395.421 299.525C395.208 302.44 395.188 305.524 395.871 308.377C396.511 311.045 397.878 313.234 400.161 314.622C401.206 315.258 402.331 315.736 403.463 316.173C404.578 316.603 405.696 317.022 406.864 317.263C409.075 317.72 411.622 317.642 413.325 315.882C413.939 315.248 414.614 314.451 415.061 313.676C415.222 313.397 415.32 313.215 415.124 312.943C414.89 312.616 414.511 312.366 414.21 312.111C412.493 310.656 411.43 308.713 411.163 306.405C410.891 304.063 411.52 301.039 413.797 300.017C416.608 298.755 419.704 300.204 422.203 301.554C423.265 297.806 425.445 294.431 428.863 292.712C432.645 290.811 436.985 290.588 440.871 288.956C441.884 288.531 442.915 288.048 443.661 287.182C443.973 286.82 444.338 286.35 444.463 285.871C444.626 285.242 444.22 284.715 443.907 284.224C442.245 281.624 435.943 276.37 432.663 275.37Z" fill="#191847"/>
    <path fill-rule="evenodd" clip-rule="evenodd" d="M370 434L444.306 558.227L500.015 663.25H512.014L418.674 434L370 434Z" fill="#997659"/>
    <path fill-rule="evenodd" clip-rule="evenodd" d="M495.45 657.284C494.378 656.813 493.104 657.29 492.705 658.391C491.977 660.398 491 663.409 491 665.106C491 667.811 491.901 673 491.901 673C495.039 673 548.303 673 548.303 673C548.303 673 550.502 665.732 545.765 665.152C541.028 664.573 537.895 664.106 537.895 664.106L511.68 652.419C511.165 652.189 510.563 652.43 510.348 652.951L508.663 657.039C508.663 657.039 504.278 659.085 501.537 659.085C499.868 659.085 497.246 658.074 495.45 657.284Z" fill="#E4E4E4"/>
    <path fill-rule="evenodd" clip-rule="evenodd" d="M484.543 646.433L507.683 639.433C507.683 639.433 492.476 593.971 470.405 539.374C448.335 484.778 423 434 423 434H357.644C357.644 434 385.811 498.232 417.366 550.725C448.921 603.219 484.543 646.433 484.543 646.433Z" fill="#DB2721"/>
    <path fill-rule="evenodd" clip-rule="evenodd" d="M365.117 434C358.104 477.654 344.577 533.427 343.301 535.149C342.45 536.296 311.813 546.562 251.39 565.947L253.982 576.528C326.036 566.132 364.002 558.066 367.881 552.331C373.699 543.728 402.749 475.763 414 434H365.117Z" fill="#B28B67"/>
    <path fill-rule="evenodd" clip-rule="evenodd" d="M272.63 556.8L277.195 573.842C331.087 578.569 364.108 575.153 376.258 563.596C388.407 552.039 402.255 508.84 417.799 434H355.478C345.63 495.284 340.124 527.212 338.96 529.785C337.797 532.357 315.687 541.363 272.63 556.8Z" fill="#FF4133"/>
    <path fill-rule="evenodd" clip-rule="evenodd" d="M255.931 564.074C256.209 562.937 255.518 561.766 254.365 561.564C252.261 561.195 249.127 560.756 247.456 561.05C244.792 561.52 239.838 563.309 239.838 563.309C240.383 566.399 249.632 618.854 249.632 618.854C249.632 618.854 257.171 619.757 256.92 614.991C256.668 610.226 256.584 607.059 256.584 607.059L263.541 579.213C263.677 578.667 263.336 578.115 262.785 577.994L258.467 577.044C258.467 577.044 255.691 573.081 255.215 570.381C254.925 568.738 255.465 565.98 255.931 564.074Z" fill="#E4E4E4"/>
    <path fill-rule="evenodd" clip-rule="evenodd" d="M455.348 352.69L420.638 371.7L433.456 385.458L458.677 362.365C471.963 358.704 478.039 356.025 476.905 354.329C475.948 352.9 474.406 352.949 472.985 352.995C471.878 353.031 470.845 353.064 470.22 352.394C468.794 350.863 471.515 345.51 474.315 340.541C477.114 335.573 474.121 336.005 472.409 336.72C466.807 340.512 461.12 345.835 455.348 352.69ZM490.247 379.364L475 387.74L475.868 403.04C475.868 403.04 485.743 395.913 494.238 393.544C505.071 390.524 509.453 388.218 514.746 381.473C517.579 377.864 519.982 370.61 517.286 368.248C516.252 367.341 512.399 369.482 508.468 371.667C505.472 373.332 502.43 375.022 500.556 375.408C498.034 375.927 498.329 372.657 498.565 370.044C498.734 368.17 498.873 366.633 497.918 367.077C493.455 367.154 490.247 379.364 490.247 379.364Z" fill="#997659"/>
    <path fill-rule="evenodd" clip-rule="evenodd" d="M403.734 367.465C415.892 367.337 432.104 364.769 449.402 353.789L456.196 368.939C444.264 380.78 427.486 390.51 412.816 390.098C401.255 389.773 395.347 375.789 403.734 367.465Z" fill="#2026A2"/>
    <path fill-rule="evenodd" clip-rule="evenodd" d="M370.945 471.259C359.387 469.752 348.766 468.367 342.473 469.606C335.411 446.673 341.275 432.234 346.688 418.905C349.95 410.871 353.049 403.241 353.056 394.397C353.075 368.642 373.754 329 376.797 329H377.67H401.783H404.544C405.784 344.937 411.079 362.193 416.407 379.56C417.652 383.615 418.898 387.677 420.095 391.729C440.26 396.307 485.036 380.373 485.036 380.373C485.036 380.373 496.34 403.759 495.487 413.717C469.424 427.331 447.087 433.401 428.683 433.802C429.268 444.721 427.939 455.112 423.474 464.606C417.491 477.327 392.576 474.079 370.945 471.259Z" fill="#1F28CF"/>
    <rect x="359.5" y="230.5" width="107" height="107" stroke="#05C223" stroke-width="5"/>
    <path fill-rule="evenodd" clip-rule="evenodd" d="M155.935 322.244C162.411 326.147 168.774 328.033 171.76 327.263C179.25 325.333 179.938 297.935 174.143 287.134C168.349 276.333 138.558 271.625 137.057 293.025C136.536 300.453 139.654 307.081 144.262 312.49L136 351H160L155.935 322.244Z" fill="#B28B67"/>
    <path fill-rule="evenodd" clip-rule="evenodd" d="M160.464 274.685C157.301 274.167 148.784 273.81 147.213 273.81C146.21 273.81 145.122 274.039 144.527 273.118C144.041 272.363 144.219 271.087 144.074 270.211C143.905 269.193 143.665 268.189 143.423 267.187C142.733 264.337 141.69 261.625 140.231 259.079C137.493 254.302 133.481 250.56 128.417 248.383C122.824 245.979 116.496 245.428 110.48 245.916C104.043 246.438 98.2159 248.563 92.138 250.562C86.346 252.468 80.2796 253.218 74.2219 252.288C68.1185 251.35 63.5068 248.042 58.3587 244.902C53.0885 241.688 47.0657 239.586 40.8354 240.069C35.0196 240.52 29.6594 242.922 24.8503 246.129C20.3509 249.131 16.6383 252.742 14.5422 257.824C12.2873 263.291 12.2894 269.292 15.9974 274.123C21.3721 281.127 31.3499 282.938 39.651 282.758C44.4525 282.654 49.1682 281.777 53.7014 280.183C59.7469 278.056 64.9712 274.452 70.627 271.528C73.2813 270.156 76.0248 269.029 78.9006 268.217C81.6912 267.429 84.4398 267.067 86.9665 268.753C89.6393 270.537 92.0344 272.289 95.0922 273.405C98.0256 274.476 101.133 275.075 104.258 275.051C110.339 275.004 116.333 273.109 122.239 271.84C127.054 270.806 132.207 269.774 137.117 270.769C139.166 271.184 142.159 272.041 142.899 274.17C130.444 276.427 125.553 291.83 129.064 303.137C130.959 309.24 142.35 316.374 146.779 313.166C149.585 311.133 147.881 308.465 146.779 306.703C144.668 303.33 143.945 298.997 147.852 296.648C151.222 294.622 154.765 299.433 154.832 299.427C155.758 299.354 163.76 294.829 169.274 288.224C174.713 288.547 175.539 284.96 174.24 282.027C172.941 279.094 164.834 275.402 160.464 274.685Z" fill="#191847"/>
    <path fill-rule="evenodd" clip-rule="evenodd" d="M116.644 434C118.447 458.61 234.607 531.064 235.284 533.097C235.736 534.452 199.128 618.778 199.128 618.778L209.282 622.724C209.282 622.724 265.433 533.416 262.549 523.9C258.42 510.276 172.422 434.262 172.422 434.262L116.644 434Z" fill="#B28B67"/>
    <path fill-rule="evenodd" clip-rule="evenodd" d="M201.8 606.082L218.379 612.117C253.336 572.674 267.038 540.131 264.54 523.549C262.042 506.968 174.724 434.06 174.724 434.06L115.455 434.06C117.477 491.053 225.143 533.313 226.583 535.742C228.023 538.171 213.851 561.957 201.8 606.082Z" fill="#2F3676"/>
    <path fill-rule="evenodd" clip-rule="evenodd" d="M198.379 616.737C197.533 615.928 196.173 615.941 195.422 616.838C194.051 618.476 192.103 620.971 191.523 622.565C190.597 625.107 189.669 630.292 189.669 630.292C192.618 631.365 242.67 649.582 242.67 649.582C242.67 649.582 247.222 643.504 242.969 641.34C238.716 639.175 235.932 637.665 235.932 637.665L215.295 617.717C214.889 617.325 214.241 617.345 213.861 617.761L210.88 621.026C210.88 621.026 206.059 621.449 203.483 620.511C201.915 619.94 199.796 618.094 198.379 616.737Z" fill="#E4E4E4"/>
    <path fill-rule="evenodd" clip-rule="evenodd" d="M130 434L78.254 558.227L27.3958 663.25H39.3949L170.674 434H130Z" fill="#997659"/>
    <path fill-rule="evenodd" clip-rule="evenodd" d="M29.4496 657.284C28.3779 656.813 27.1043 657.29 26.7051 658.391C25.977 660.398 25 663.409 25 665.106C25 667.811 25.9012 673 25.9012 673C29.0392 673 82.3031 673 82.3031 673C82.3031 673 84.5016 665.732 79.7648 665.152C75.0281 664.573 71.895 664.106 71.895 664.106L45.68 652.419C45.1654 652.189 44.563 652.43 44.3483 652.951L42.6632 657.039C42.6632 657.039 38.2782 659.085 35.5367 659.085C33.8677 659.085 31.2457 658.074 29.4496 657.284Z" fill="#E4E4E4"/>
    <path fill-rule="evenodd" clip-rule="evenodd" d="M31.9885 641.433L58.6507 646.433C79.2658 616.125 165.541 491.852 175 434H115.644C84.0549 475.821 51.639 610.624 31.9885 641.433Z" fill="#5C63AB"/>
    <path fill-rule="evenodd" clip-rule="evenodd" d="M256.235 390.704L220 406.617L231.57 421.439L258.707 400.633C272.262 398.143 278.549 396.004 277.566 394.216C276.738 392.709 275.197 392.624 273.778 392.545C272.672 392.484 271.64 392.427 271.076 391.705C269.789 390.056 272.966 384.961 276.188 380.255C279.41 375.549 276.39 375.719 274.623 376.282C268.711 379.572 262.582 384.379 256.235 390.704ZM94 415.066L73.5083 411C59.6109 447.63 51.3256 467.702 48.6523 471.218C46.692 473.796 34.6026 480.437 26.4198 483.984C23.1354 485.407 23.8406 488.183 24.8039 489.071C30.8802 494.672 36.5292 492.709 42.6783 490.572C44.4585 489.953 46.2806 489.32 48.1672 488.851C53.0502 487.639 54.5361 490.15 55.9404 492.523C57.1837 494.624 58.363 496.616 61.7793 495.821C61.6239 495.151 61.433 494.4 61.227 493.589C59.8952 488.349 57.9312 480.62 60.845 476.13C62.3404 473.826 73.3921 453.471 94 415.066Z" fill="#B28B67"/>
    <path fill-rule="evenodd" clip-rule="evenodd" d="M149.695 334.332L158.342 332.849C177.176 351.119 184.862 395.012 197.414 400.823C209.281 406.316 226.104 401 246.1 393.823L252.224 407.505C234.055 427.161 195.349 443.767 179.66 434.287C154.576 419.13 148.786 364.994 149.695 334.332Z" fill="#DB2721"/>
    <path fill-rule="evenodd" clip-rule="evenodd" d="M112 443C112 443 164.008 443 188.511 443C192.008 443 191.349 437.952 190.843 435.404C185.011 406.004 162.241 374.312 162.241 332.461L140.172 329C121.917 358.358 115.605 394.505 112 443Z" fill="#DDE3E9"/>
    <path fill-rule="evenodd" clip-rule="evenodd" d="M139 329H138.748C89.2466 359.504 59.3306 406.791 49 470.859L65.0374 474C75.6609 461.623 88.7714 441.368 104.369 413.233C99.5834 430.181 96.0896 447.563 95 464H163.872C177.205 430.305 147.486 329 147.486 329H142.731H139Z" fill="#FF4133"/>
    <rect x="81.5" y="241.5" width="107" height="107" stroke="#05C223" stroke-width="5"/>
</svg>
