<svg width="143" height="977" viewBox="0 0 143 977" fill="none" xmlns="http://www.w3.org/2000/svg">
<path fill-rule="evenodd" clip-rule="evenodd" d="M62.165 964.492C62.2074 971.119 67.6143 976.458 74.2416 976.415C80.8688 976.373 86.2069 970.966 86.1645 964.339C86.1221 957.711 80.7153 952.373 74.088 952.416C67.4607 952.458 62.1226 957.865 62.165 964.492Z" fill="#2153CC"/>
<path fill-rule="evenodd" clip-rule="evenodd" d="M61.4486 852.494C61.491 859.122 66.8978 864.46 73.5251 864.417C80.1524 864.375 85.4905 858.968 85.4481 852.341C85.4057 845.714 79.9989 840.375 73.3716 840.418C66.7443 840.46 61.4062 845.867 61.4486 852.494Z" fill="#2153CC"/>
<path fill-rule="evenodd" clip-rule="evenodd" d="M60.732 740.497C60.7744 747.124 66.1813 752.462 72.8086 752.42C79.4359 752.377 84.774 746.97 84.7316 740.343C84.6892 733.716 79.2823 728.378 72.655 728.42C66.0277 728.463 60.6896 733.869 60.732 740.497Z" fill="#2153CC"/>
<path fill-rule="evenodd" clip-rule="evenodd" d="M60.0155 628.499C60.0579 635.126 65.4647 640.464 72.092 640.422C78.7193 640.38 84.0574 634.973 84.015 628.345C83.9726 621.718 78.5658 616.38 71.9385 616.422C65.3112 616.465 59.9731 621.872 60.0155 628.499Z" fill="#2153CC"/>
<path fill-rule="evenodd" clip-rule="evenodd" d="M59.2989 516.501C59.3413 523.129 64.7482 528.467 71.3755 528.424C78.0028 528.382 83.3409 522.975 83.2985 516.348C83.2561 509.72 77.8492 504.382 71.2219 504.425C64.5946 504.467 59.2565 509.874 59.2989 516.501Z" fill="#2153CC"/>
<path fill-rule="evenodd" clip-rule="evenodd" d="M58.5824 404.504C58.6248 411.131 64.0316 416.469 70.6589 416.427C77.2862 416.384 82.6243 410.977 82.5819 404.35C82.5395 397.723 77.1327 392.385 70.5054 392.427C63.8781 392.469 58.54 397.876 58.5824 404.504Z" fill="#2153CC"/>
<path fill-rule="evenodd" clip-rule="evenodd" d="M57.8658 292.506C57.9082 299.133 63.3151 304.471 69.9424 304.429C76.5696 304.386 81.9077 298.98 81.8653 292.352C81.8229 285.725 76.4161 280.387 69.7888 280.429C63.1615 280.472 57.8234 285.879 57.8658 292.506Z" fill="#2153CC"/>
<path fill-rule="evenodd" clip-rule="evenodd" d="M57.1493 180.508C57.1917 187.135 62.5985 192.474 69.2258 192.431C75.8531 192.389 81.1912 186.982 81.1488 180.355C81.1064 173.727 75.6995 168.389 69.0723 168.432C62.445 168.474 57.1069 173.881 57.1493 180.508Z" fill="#2153CC"/>
<path fill-rule="evenodd" clip-rule="evenodd" d="M56.4327 68.5104C56.4751 75.1377 61.882 80.4758 68.5093 80.4334C75.1365 80.391 80.4746 74.9842 80.4322 68.3569C80.3898 61.7296 74.983 56.3915 68.3557 56.4339C61.7284 56.4763 56.3903 61.8831 56.4327 68.5104Z" fill="#2153CC"/>
<path fill-rule="evenodd" clip-rule="evenodd" d="M61.8069 908.493C61.8493 915.121 67.2561 920.459 73.8834 920.416C80.5107 920.374 85.8488 914.967 85.8064 908.34C85.764 901.712 80.3571 896.374 73.7299 896.417C67.1026 896.459 61.7645 901.866 61.8069 908.493Z" fill="#2153CC"/>
<path fill-rule="evenodd" clip-rule="evenodd" d="M61.0903 796.496C61.1327 803.123 66.5396 808.461 73.1669 808.419C79.7941 808.376 85.1322 802.969 85.0898 796.342C85.0474 789.715 79.6406 784.377 73.0133 784.419C66.386 784.461 61.0479 789.868 61.0903 796.496Z" fill="#2153CC"/>
<path fill-rule="evenodd" clip-rule="evenodd" d="M60.3738 684.498C60.4162 691.125 65.823 696.463 72.4503 696.421C79.0776 696.378 84.4157 690.972 84.3733 684.344C84.3309 677.717 78.924 672.379 72.2968 672.421C65.6695 672.464 60.3314 677.871 60.3738 684.498Z" fill="#2153CC"/>
<path fill-rule="evenodd" clip-rule="evenodd" d="M59.6572 572.5C59.6996 579.127 65.1065 584.465 71.7337 584.423C78.361 584.381 83.6991 578.974 83.6567 572.347C83.6143 565.719 78.2075 560.381 71.5802 560.424C64.9529 560.466 59.6148 565.873 59.6572 572.5Z" fill="#2153CC"/>
<path fill-rule="evenodd" clip-rule="evenodd" d="M58.9407 460.502C58.9831 467.13 64.3899 472.468 71.0172 472.425C77.6445 472.383 82.9826 466.976 82.9402 460.349C82.8978 453.722 77.4909 448.383 70.8636 448.426C64.2364 448.468 58.8983 453.875 58.9407 460.502Z" fill="#2153CC"/>
<path fill-rule="evenodd" clip-rule="evenodd" d="M58.2241 348.505C58.2665 355.132 63.6734 360.47 70.3006 360.428C76.9279 360.385 82.266 354.978 82.2236 348.351C82.1812 341.724 76.7744 336.386 70.1471 336.428C63.5198 336.471 58.1817 341.877 58.2241 348.505Z" fill="#2153CC"/>
<path fill-rule="evenodd" clip-rule="evenodd" d="M57.5076 236.507C57.55 243.134 62.9568 248.472 69.5841 248.43C76.2114 248.388 81.5495 242.981 81.5071 236.353C81.4647 229.726 76.0578 224.388 69.4305 224.43C62.8033 224.473 57.4652 229.88 57.5076 236.507Z" fill="#2153CC"/>
<path fill-rule="evenodd" clip-rule="evenodd" d="M56.791 124.509C56.8334 131.137 62.2403 136.475 68.8675 136.432C75.4948 136.39 80.8329 130.983 80.7905 124.356C80.7481 117.728 75.3413 112.39 68.714 112.433C62.0867 112.475 56.7486 117.882 56.791 124.509Z" fill="#2153CC"/>
<path fill-rule="evenodd" clip-rule="evenodd" d="M56.0745 12.5116C56.1169 19.1389 61.5237 24.477 68.151 24.4346C74.7783 24.3922 80.1164 18.9853 80.074 12.358C80.0316 5.73075 74.6247 0.392649 67.9974 0.435049C61.3702 0.47745 56.0321 5.88429 56.0745 12.5116Z" fill="#2153CC"/>
<path fill-rule="evenodd" clip-rule="evenodd" d="M6.16625 964.85C6.20865 971.478 11.6155 976.816 18.2428 976.773C24.8701 976.731 30.2082 971.324 30.1658 964.697C30.1234 958.07 24.7165 952.732 18.0892 952.774C11.462 952.816 6.12385 958.223 6.16625 964.85Z" fill="#2153CC"/>
<path fill-rule="evenodd" clip-rule="evenodd" d="M5.44982 852.853C5.49222 859.48 10.8991 864.818 17.5263 864.776C24.1536 864.733 29.4917 859.326 29.4493 852.699C29.4069 846.072 24.0001 840.734 17.3728 840.776C10.7455 840.819 5.40742 846.225 5.44982 852.853Z" fill="#2153CC"/>
<path fill-rule="evenodd" clip-rule="evenodd" d="M4.73327 740.855C4.77567 747.482 10.1825 752.82 16.8098 752.778C23.4371 752.736 28.7752 747.329 28.7328 740.701C28.6904 734.074 23.2835 728.736 16.6563 728.778C10.029 728.821 4.69087 734.228 4.73327 740.855Z" fill="#2153CC"/>
<path fill-rule="evenodd" clip-rule="evenodd" d="M4.01672 628.857C4.05912 635.485 9.46596 640.823 16.0932 640.78C22.7205 640.738 28.0586 635.331 28.0162 628.704C27.9738 622.076 22.567 616.738 15.9397 616.781C9.31242 616.823 3.97432 622.23 4.01672 628.857Z" fill="#2153CC"/>
<path fill-rule="evenodd" clip-rule="evenodd" d="M3.30016 516.86C3.34256 523.487 8.74941 528.825 15.3767 528.783C22.004 528.74 27.3421 523.333 27.2997 516.706C27.2573 510.079 21.8504 504.741 15.2231 504.783C8.59586 504.825 3.25776 510.232 3.30016 516.86Z" fill="#2153CC"/>
<path fill-rule="evenodd" clip-rule="evenodd" d="M2.58361 404.862C2.62601 411.489 8.03286 416.827 14.6601 416.785C21.2874 416.742 26.6255 411.336 26.5831 404.708C26.5407 398.081 21.1339 392.743 14.5066 392.785C7.87931 392.828 2.54121 398.235 2.58361 404.862Z" fill="#2153CC"/>
<path fill-rule="evenodd" clip-rule="evenodd" d="M1.86706 292.864C1.90946 299.491 7.3163 304.829 13.9436 304.787C20.5709 304.745 25.909 299.338 25.8666 292.711C25.8242 286.083 20.4173 280.745 13.79 280.788C7.16276 280.83 1.82466 286.237 1.86706 292.864Z" fill="#2153CC"/>
<path fill-rule="evenodd" clip-rule="evenodd" d="M1.15051 180.866C1.19291 187.494 6.59975 192.832 13.227 192.789C19.8543 192.747 25.1924 187.34 25.15 180.713C25.1076 174.086 19.7008 168.748 13.0735 168.79C6.44621 168.832 1.10811 174.239 1.15051 180.866Z" fill="#2153CC"/>
<path fill-rule="evenodd" clip-rule="evenodd" d="M0.433953 68.8687C0.476353 75.496 5.8832 80.8341 12.5105 80.7917C19.1378 80.7493 24.4759 75.3424 24.4335 68.7151C24.3911 62.0879 18.9842 56.7498 12.3569 56.7922C5.72965 56.8346 0.391552 62.2414 0.433953 68.8687Z" fill="#2153CC"/>
<path fill-rule="evenodd" clip-rule="evenodd" d="M5.8081 908.852C5.8505 915.479 11.2573 920.817 17.8846 920.775C24.5119 920.732 29.85 915.325 29.8076 908.698C29.7652 902.071 24.3584 896.733 17.7311 896.775C11.1038 896.817 5.7657 902.224 5.8081 908.852Z" fill="#2153CC"/>
<path fill-rule="evenodd" clip-rule="evenodd" d="M5.09155 796.854C5.13395 803.481 10.5408 808.819 17.1681 808.777C23.7954 808.734 29.1335 803.328 29.0911 796.7C29.0487 790.073 23.6418 784.735 17.0145 784.777C10.3872 784.82 5.04915 790.227 5.09155 796.854Z" fill="#2153CC"/>
<path fill-rule="evenodd" clip-rule="evenodd" d="M4.37499 684.856C4.41739 691.483 9.82424 696.821 16.4515 696.779C23.0788 696.737 28.4169 691.33 28.3745 684.703C28.3321 678.075 22.9253 672.737 16.298 672.78C9.67069 672.822 4.33259 678.229 4.37499 684.856Z" fill="#2153CC"/>
<path fill-rule="evenodd" clip-rule="evenodd" d="M3.65844 572.858C3.70084 579.486 9.10769 584.824 15.735 584.781C22.3622 584.739 27.7003 579.332 27.6579 572.705C27.6155 566.078 22.2087 560.739 15.5814 560.782C8.95414 560.824 3.61604 566.231 3.65844 572.858Z" fill="#2153CC"/>
<path fill-rule="evenodd" clip-rule="evenodd" d="M2.94189 460.861C2.98429 467.488 8.39113 472.826 15.0184 472.784C21.6457 472.741 26.9838 467.334 26.9414 460.707C26.899 454.08 21.4922 448.742 14.8649 448.784C8.23759 448.827 2.89949 454.233 2.94189 460.861Z" fill="#2153CC"/>
<path fill-rule="evenodd" clip-rule="evenodd" d="M2.22533 348.863C2.26774 355.49 7.67458 360.828 14.3019 360.786C20.9291 360.744 26.2672 355.337 26.2248 348.709C26.1824 342.082 20.7756 336.744 14.1483 336.786C7.52104 336.829 2.18293 342.236 2.22533 348.863Z" fill="#2153CC"/>
<path fill-rule="evenodd" clip-rule="evenodd" d="M1.50878 236.865C1.55118 243.493 6.95803 248.831 13.5853 248.788C20.2126 248.746 25.5507 243.339 25.5083 236.712C25.4659 230.084 20.059 224.746 13.4318 224.789C6.80448 224.831 1.46638 230.238 1.50878 236.865Z" fill="#2153CC"/>
<path fill-rule="evenodd" clip-rule="evenodd" d="M0.792229 124.868C0.83463 131.495 6.24148 136.833 12.8688 136.791C19.496 136.748 24.8341 131.341 24.7917 124.714C24.7493 118.087 19.3425 112.749 12.7152 112.791C6.08793 112.833 0.749829 118.24 0.792229 124.868Z" fill="#2153CC"/>
<path fill-rule="evenodd" clip-rule="evenodd" d="M0.0756765 12.8699C0.118077 19.4971 5.52492 24.8352 12.1522 24.7928C18.7795 24.7504 24.1176 19.3436 24.0752 12.7163C24.0328 6.08903 18.6259 0.750925 11.9987 0.793325C5.37138 0.835726 0.0332761 6.24257 0.0756765 12.8699Z" fill="#2153CC"/>
<path fill-rule="evenodd" clip-rule="evenodd" d="M118.164 964.134C118.206 970.761 123.613 976.099 130.24 976.057C136.868 976.014 142.206 970.608 142.163 963.98C142.121 957.353 136.714 952.015 130.087 952.057C123.46 952.1 118.122 957.507 118.164 964.134Z" fill="#2153CC"/>
<path fill-rule="evenodd" clip-rule="evenodd" d="M117.448 852.136C117.49 858.763 122.897 864.101 129.524 864.059C136.151 864.017 141.489 858.61 141.447 851.983C141.405 845.355 135.998 840.017 129.37 840.06C122.743 840.102 117.405 845.509 117.448 852.136Z" fill="#2153CC"/>
<path fill-rule="evenodd" clip-rule="evenodd" d="M116.731 740.138C116.773 746.766 122.18 752.104 128.807 752.061C135.435 752.019 140.773 746.612 140.73 739.985C140.688 733.358 135.281 728.019 128.654 728.062C122.027 728.104 116.689 733.511 116.731 740.138Z" fill="#2153CC"/>
<path fill-rule="evenodd" clip-rule="evenodd" d="M116.014 628.141C116.057 634.768 121.464 640.106 128.091 640.064C134.718 640.021 140.056 634.614 140.014 627.987C139.972 621.36 134.565 616.022 127.937 616.064C121.31 616.107 115.972 621.513 116.014 628.141Z" fill="#2153CC"/>
<path fill-rule="evenodd" clip-rule="evenodd" d="M115.298 516.143C115.34 522.77 120.747 528.108 127.374 528.066C134.002 528.024 139.34 522.617 139.297 515.99C139.255 509.362 133.848 504.024 127.221 504.067C120.594 504.109 115.255 509.516 115.298 516.143Z" fill="#2153CC"/>
<path fill-rule="evenodd" clip-rule="evenodd" d="M114.581 404.145C114.624 410.773 120.031 416.111 126.658 416.068C133.285 416.026 138.623 410.619 138.581 403.992C138.538 397.364 133.132 392.026 126.504 392.069C119.877 392.111 114.539 397.518 114.581 404.145Z" fill="#2153CC"/>
<path fill-rule="evenodd" clip-rule="evenodd" d="M113.865 292.148C113.907 298.775 119.314 304.113 125.941 304.071C132.569 304.028 137.907 298.621 137.864 291.994C137.822 285.367 132.415 280.029 125.788 280.071C119.16 280.113 113.822 285.52 113.865 292.148Z" fill="#2153CC"/>
<path fill-rule="evenodd" clip-rule="evenodd" d="M113.148 180.15C113.191 186.777 118.597 192.115 125.225 192.073C131.852 192.03 137.19 186.624 137.148 179.996C137.105 173.369 131.698 168.031 125.071 168.073C118.444 168.116 113.106 173.523 113.148 180.15Z" fill="#2153CC"/>
<path fill-rule="evenodd" clip-rule="evenodd" d="M112.432 68.1521C112.474 74.7794 117.881 80.1175 124.508 80.0751C131.135 80.0327 136.474 74.6259 136.431 67.9986C136.389 61.3713 130.982 56.0332 124.355 56.0756C117.727 56.118 112.389 61.5249 112.432 68.1521Z" fill="#2153CC"/>
<path fill-rule="evenodd" clip-rule="evenodd" d="M117.806 908.135C117.848 914.762 123.255 920.1 129.882 920.058C136.51 920.016 141.848 914.609 141.805 907.981C141.763 901.354 136.356 896.016 129.729 896.058C123.101 896.101 117.763 901.508 117.806 908.135Z" fill="#2153CC"/>
<path fill-rule="evenodd" clip-rule="evenodd" d="M117.089 796.137C117.132 802.765 122.538 808.103 129.166 808.06C135.793 808.018 141.131 802.611 141.089 795.984C141.046 789.356 135.639 784.018 129.012 784.061C122.385 784.103 117.047 789.51 117.089 796.137Z" fill="#2153CC"/>
<path fill-rule="evenodd" clip-rule="evenodd" d="M116.373 684.14C116.415 690.767 121.822 696.105 128.449 696.062C135.076 696.02 140.415 690.613 140.372 683.986C140.33 677.359 134.923 672.021 128.296 672.063C121.668 672.105 116.33 677.512 116.373 684.14Z" fill="#2153CC"/>
<path fill-rule="evenodd" clip-rule="evenodd" d="M115.656 572.142C115.699 578.769 121.105 584.107 127.733 584.065C134.36 584.022 139.698 578.616 139.656 571.988C139.613 565.361 134.206 560.023 127.579 560.065C120.952 560.108 115.614 565.515 115.656 572.142Z" fill="#2153CC"/>
<path fill-rule="evenodd" clip-rule="evenodd" d="M114.94 460.144C114.982 466.771 120.389 472.11 127.016 472.067C133.643 472.025 138.981 466.618 138.939 459.991C138.897 453.363 133.49 448.025 126.863 448.068C120.235 448.11 114.897 453.517 114.94 460.144Z" fill="#2153CC"/>
<path fill-rule="evenodd" clip-rule="evenodd" d="M114.223 348.146C114.265 354.774 119.672 360.112 126.3 360.069C132.927 360.027 138.265 354.62 138.223 347.993C138.18 341.366 132.773 336.027 126.146 336.07C119.519 336.112 114.181 341.519 114.223 348.146Z" fill="#2153CC"/>
<path fill-rule="evenodd" clip-rule="evenodd" d="M113.506 236.149C113.549 242.776 118.956 248.114 125.583 248.072C132.21 248.029 137.548 242.622 137.506 235.995C137.464 229.368 132.057 224.03 125.429 224.072C118.802 224.115 113.464 229.521 113.506 236.149Z" fill="#2153CC"/>
<path fill-rule="evenodd" clip-rule="evenodd" d="M112.79 124.151C112.832 130.778 118.239 136.116 124.866 136.074C131.494 136.032 136.832 130.625 136.789 123.997C136.747 117.37 131.34 112.032 124.713 112.074C118.086 112.117 112.748 117.524 112.79 124.151Z" fill="#2153CC"/>
<path fill-rule="evenodd" clip-rule="evenodd" d="M112.073 12.1533C112.116 18.7806 117.523 24.1187 124.15 24.0763C130.777 24.0339 136.115 18.627 136.073 11.9998C136.03 5.37247 130.624 0.0343723 123.996 0.0767727C117.369 0.119173 112.031 5.52602 112.073 12.1533Z" fill="#2153CC"/>
</svg>
