<svg width="459" height="445" viewBox="0 0 459 445" fill="none" xmlns="http://www.w3.org/2000/svg">
<path fill-rule="evenodd" clip-rule="evenodd" d="M181.201 445C313.286 445 459 347.166 459 222.5C459 97.8339 313.286 0 181.201 0C49.117 0 0 142.669 0 244.918C0 347.166 49.117 445 181.201 445Z" fill="#FF73C6" fill-opacity="0.7"/>
<rect x="109.5" y="200.5" width="215" height="183" rx="15.5" stroke="white" stroke-width="17"/>
<path d="M254.5 264.5C254.5 283.666 238.548 299.5 218.5 299.5C198.452 299.5 182.5 283.666 182.5 264.5C182.5 245.334 198.452 229.5 218.5 229.5C238.548 229.5 254.5 245.334 254.5 264.5Z" stroke="white" stroke-width="15"/>
<rect x="214" y="302" width="11" height="50" rx="5.5" fill="white" stroke="white" stroke-width="10"/>
<rect x="143" y="104" width="140" height="95" rx="14" stroke="white" stroke-width="20"/>
</svg>
