<svg width="1560" height="900" viewBox="0 0 1560 900" fill="none" xmlns="http://www.w3.org/2000/svg">
<path d="M1 46.0686H1559V892C1559 894.8 1559 896.2 1558.46 897.27C1557.98 898.211 1557.21 898.976 1556.27 899.455C1555.2 900 1553.8 900 1551 900H8.99996C6.19972 900 4.79961 900 3.73005 899.455C2.78924 898.976 2.02433 898.211 1.54497 897.27C1 896.2 1 894.8 1 892V46.0686Z" fill="#2F3235"/>
<path d="M2.21729 7.4C2.21729 5.15979 2.21729 4.03968 2.65326 3.18404C3.03675 2.43139 3.64867 1.81947 4.40132 1.43597C5.25697 1 6.37708 1 8.61729 1H1552.6C1554.84 1 1555.96 1 1556.82 1.43597C1557.57 1.81947 1558.18 2.43139 1558.56 3.18404C1559 4.03968 1559 5.15979 1559 7.4V44.8826H2.21729V7.4Z" fill="url(#paint0_linear)"/>
<rect opacity="0.95" x="2.21729" y="44.8826" width="1555.57" height="1.18602" fill="black"/>
<rect opacity="0.9" x="1528.57" y="15.2322" width="29.2125" height="29.6504" fill="url(#paint1_linear)"/>
<path d="M1528.57 15.2322V44.8826H1529.79V16.4182H1557.78V15.2322H1528.57Z" fill="#56585A"/>
<rect x="1543.18" y="24.7203" width="1.21719" height="13.0462" fill="#929393"/>
<rect x="1537.09" y="31.8364" width="1.18602" height="13.3891" transform="rotate(-90 1537.09 31.8364)" fill="#929393"/>
<g filter="url(#filter0_i)">
<rect x="1473.8" y="10.4881" width="45.0359" height="26.0923" rx="3" fill="url(#paint2_linear)"/>
</g>
<rect x="1490.12" y="20.4763" width="9.95469" height="9.67414" rx="0.5" stroke="#E9E9EA"/>
<path d="M1493.99 17.6042V18.2902H1493.77V18.0182C1493.77 17.7299 1493.77 17.5438 1493.78 17.4021C1493.8 17.2663 1493.81 17.2159 1493.83 17.1912C1493.87 17.0971 1493.95 17.0206 1494.04 16.9727C1494.07 16.9601 1494.12 16.9413 1494.26 16.9302C1494.4 16.9186 1494.58 16.9182 1494.87 16.9182H1502.63C1502.91 16.9182 1503.1 16.9186 1503.24 16.9302C1503.38 16.9413 1503.43 16.9601 1503.45 16.9727C1503.55 17.0206 1503.62 17.0971 1503.67 17.1912C1503.68 17.2159 1503.7 17.2663 1503.71 17.4021C1503.73 17.5438 1503.73 17.7299 1503.73 18.0182V25.4924C1503.73 25.7806 1503.73 25.9668 1503.71 26.1084C1503.7 26.2443 1503.68 26.2946 1503.67 26.3194C1503.62 26.4134 1503.55 26.4899 1503.45 26.5379C1503.43 26.5505 1503.38 26.5693 1503.24 26.5804C1503.1 26.592 1502.91 26.5924 1502.63 26.5924H1502.29V26.4063H1503.01H1503.51V25.9063V17.6042V17.1042H1503.01H1494.49H1493.99V17.6042Z" stroke="#E9E9EA"/>
<g filter="url(#filter1_i)">
<rect x="1419.02" y="10.4881" width="45.0359" height="26.0923" rx="3" fill="url(#paint3_linear)"/>
</g>
<path d="M1436.06 30.6504H1447.02C1447.02 30.6504 1447.02 21.1602 1447.02 21.1602L1443.37 21.1623V19.9763H1447.01C1447.7 19.9763 1448.24 20.5048 1448.24 21.1568V30.6559C1448.24 31.296 1447.69 31.8364 1447.02 31.8364H1436.06C1435.39 31.8364 1434.85 31.3079 1434.85 30.6559V21.1568C1434.85 20.5167 1435.4 19.9763 1436.08 19.9763H1439.72V21.1623H1436.08C1436.07 21.1623 1436.06 30.6504 1436.06 30.6504Z" fill="#8B8D8F"/>
<path d="M1441.52 15.6394L1438.43 18.6892C1438.21 18.9092 1437.85 18.9092 1437.62 18.6892C1437.4 18.4692 1437.4 18.1126 1437.62 17.8926L1441.12 14.4445C1441.34 14.2245 1441.7 14.2245 1441.93 14.4445L1445.42 17.8926C1445.65 18.1126 1445.65 18.4692 1445.42 18.6892C1445.2 18.9092 1444.84 18.9092 1444.62 18.6892L1441.52 15.6394Z" fill="#8B8D8F"/>
<path d="M1440.93 15.2322H1442.15V25.9063H1440.93V15.2322Z" fill="#8B8D8F"/>
<g filter="url(#filter2_i)">
<rect x="422.147" y="10.4881" width="718.141" height="26.0923" rx="4" fill="url(#paint4_linear)"/>
</g>
<path d="M658.413 25.2147C658.468 25.617 658.679 25.9354 659.046 26.1698C659.409 26.4081 659.874 26.5272 660.44 26.5272C660.968 26.5272 661.405 26.4041 661.753 26.1581C662.096 25.9159 662.268 25.6073 662.268 25.2323C662.268 24.912 662.139 24.6483 661.882 24.4413C661.628 24.2381 661.22 24.0702 660.657 23.9373L659.567 23.6737C658.802 23.494 658.239 23.2147 657.88 22.8358C657.52 22.4569 657.341 21.9569 657.341 21.3358C657.341 20.5819 657.622 19.9764 658.184 19.5194C658.751 19.0584 659.495 18.828 660.417 18.828C661.276 18.828 661.989 19.0545 662.555 19.5077C663.122 19.9608 663.425 20.5428 663.464 21.2538H662.186C662.124 20.8631 661.934 20.5545 661.618 20.328C661.298 20.1014 660.891 19.9881 660.399 19.9881C659.88 19.9881 659.462 20.1034 659.145 20.3338C658.829 20.5643 658.671 20.869 658.671 21.2479C658.671 21.5487 658.792 21.7928 659.034 21.9803C659.272 22.1678 659.667 22.326 660.218 22.4549L661.149 22.6834C662.016 22.8866 662.641 23.1737 663.024 23.5448C663.407 23.9198 663.598 24.4256 663.598 25.0623C663.598 25.8709 663.305 26.5116 662.72 26.9842C662.134 27.4569 661.341 27.6932 660.341 27.6932C659.403 27.6932 658.643 27.4686 658.061 27.0194C657.475 26.5702 657.159 25.9686 657.112 25.2147H658.413ZM667.031 26.5331C667.504 26.5331 667.898 26.4002 668.215 26.1346C668.527 25.869 668.684 25.537 668.684 25.1385V24.6053L667.125 24.7049C666.273 24.7635 665.848 25.0702 665.848 25.6248C665.848 25.9061 665.959 26.1288 666.182 26.2928C666.396 26.453 666.68 26.5331 667.031 26.5331ZM666.709 27.5936C666.084 27.5936 665.576 27.4217 665.186 27.078C664.783 26.7225 664.582 26.2577 664.582 25.6834C664.582 25.1131 664.787 24.6639 665.197 24.3358C665.607 24.0116 666.193 23.826 666.955 23.7791L668.684 23.6795V23.1288C668.684 22.4256 668.248 22.0741 667.377 22.0741C666.639 22.0741 666.195 22.3104 666.047 22.7831H664.828C664.891 22.2362 665.16 21.7987 665.637 21.4706C666.109 21.1463 666.709 20.9842 667.436 20.9842C668.232 20.9842 668.85 21.1737 669.287 21.5526C669.721 21.9276 669.937 22.453 669.937 23.1288V27.4881H668.725V26.5916H668.625C668.227 27.2596 667.588 27.5936 666.709 27.5936ZM671.976 22.1971H670.927V21.1366H671.976V20.5038C671.976 19.8631 672.144 19.3963 672.48 19.1034C672.8 18.8182 673.298 18.6756 673.974 18.6756C674.208 18.6756 674.445 18.6952 674.683 18.7342V19.742C674.503 19.7108 674.316 19.6952 674.12 19.6952C673.523 19.6952 673.224 19.9881 673.224 20.5741V21.1366H674.636V22.1971H673.236V27.4881H671.976V22.1971ZM677.776 26.5331C678.248 26.5331 678.643 26.4002 678.959 26.1346C679.272 25.869 679.428 25.537 679.428 25.1385V24.6053L677.87 24.7049C677.018 24.7635 676.592 25.0702 676.592 25.6248C676.592 25.9061 676.704 26.1288 676.926 26.2928C677.141 26.453 677.424 26.5331 677.776 26.5331ZM677.454 27.5936C676.829 27.5936 676.321 27.4217 675.93 27.078C675.528 26.7225 675.327 26.2577 675.327 25.6834C675.327 25.1131 675.532 24.6639 675.942 24.3358C676.352 24.0116 676.938 23.826 677.7 23.7791L679.428 23.6795V23.1288C679.428 22.4256 678.993 22.0741 678.121 22.0741C677.383 22.0741 676.94 22.3104 676.791 22.7831H675.573C675.635 22.2362 675.905 21.7987 676.381 21.4706C676.854 21.1463 677.454 20.9842 678.18 20.9842C678.977 20.9842 679.594 21.1737 680.032 21.5526C680.465 21.9276 680.682 22.453 680.682 23.1288V27.4881H679.469V26.5916H679.37C678.971 27.2596 678.332 27.5936 677.454 27.5936ZM682.275 21.1073H683.488V22.0858H683.582C683.671 21.7694 683.877 21.5096 684.197 21.3065C684.517 21.1034 684.884 21.0018 685.298 21.0018C685.537 21.0018 685.722 21.0194 685.855 21.0545V22.2967C685.711 22.2459 685.478 22.2206 685.158 22.2206C684.681 22.2206 684.293 22.3592 683.992 22.6366C683.687 22.9139 683.535 23.2752 683.535 23.7206V27.4881H682.275V21.1073ZM686.927 21.1073H688.18V27.4881H686.927V21.1073ZM687.554 19.9881C687.319 19.9881 687.126 19.9139 686.973 19.7655C686.817 19.6209 686.739 19.4393 686.739 19.2206C686.739 19.0018 686.817 18.8182 686.973 18.6698C687.126 18.5213 687.319 18.4471 687.554 18.4471C687.788 18.4471 687.983 18.5213 688.139 18.6698C688.292 18.8182 688.368 19.0018 688.368 19.2206C688.368 19.4393 688.292 19.6209 688.139 19.7655C687.983 19.9139 687.788 19.9881 687.554 19.9881ZM693.06 27.4881V19.0331H694.595L697.284 25.4549H697.384L700.079 19.0331H701.614V27.4881H700.396V21.3827H700.314L697.835 27.242H696.839L694.361 21.3827H694.279V27.4881H693.06ZM706.084 26.492C706.627 26.492 707.049 26.2987 707.35 25.912C707.647 25.5291 707.795 24.9901 707.795 24.2948C707.795 23.6034 707.647 23.0643 707.35 22.6776C707.049 22.2948 706.627 22.1034 706.084 22.1034C705.537 22.1034 705.116 22.2948 704.819 22.6776C704.522 23.0604 704.373 23.5995 704.373 24.2948C704.373 24.994 704.522 25.535 704.819 25.9178C705.116 26.3006 705.537 26.492 706.084 26.492ZM706.084 27.6112C705.147 27.6112 704.411 27.3163 703.875 26.7264C703.34 26.1366 703.073 25.326 703.073 24.2948C703.073 23.2674 703.342 22.4588 703.881 21.869C704.416 21.2791 705.151 20.9842 706.084 20.9842C707.014 20.9842 707.746 21.2791 708.282 21.869C708.821 22.4588 709.09 23.2674 709.09 24.2948C709.09 25.326 708.823 26.1366 708.287 26.7264C707.752 27.3163 707.018 27.6112 706.084 27.6112ZM714.586 23.1932C714.507 22.869 714.343 22.6112 714.093 22.4198C713.824 22.2127 713.486 22.1092 713.08 22.1092C712.552 22.1092 712.138 22.3006 711.837 22.6834C711.533 23.0663 711.38 23.5975 711.38 24.2772C711.38 24.9647 711.533 25.5057 711.837 25.9002C712.138 26.2909 712.552 26.4862 713.08 26.4862C713.916 26.4862 714.418 26.1366 714.586 25.4373H715.81C715.728 26.0936 715.451 26.617 714.978 27.0077C714.49 27.41 713.859 27.6112 713.086 27.6112C712.156 27.6112 711.425 27.3163 710.894 26.7264C710.359 26.1327 710.091 25.3163 710.091 24.2772C710.091 23.2538 710.357 22.4491 710.888 21.8631C711.42 21.2772 712.15 20.9842 713.08 20.9842C713.857 20.9842 714.492 21.1932 714.984 21.6112C715.449 22.0057 715.724 22.5331 715.81 23.1932H714.586ZM721.001 21.1073H722.489L719.864 23.8436L722.665 27.4881H721.118L718.927 24.6756L718.37 25.203V27.4881H717.11V18.617H718.37V23.7674H718.47L721.001 21.1073ZM729.127 27.4881H727.92V26.4745H727.82C727.496 27.2323 726.83 27.6112 725.822 27.6112C725.111 27.6112 724.559 27.4041 724.164 26.9901C723.766 26.576 723.566 25.992 723.566 25.2381V21.1073H724.826V24.9217C724.826 25.9373 725.295 26.4452 726.232 26.4452C726.74 26.4452 727.141 26.3026 727.434 26.0174C727.727 25.7323 727.873 25.3397 727.873 24.8397V21.1073H729.127V27.4881ZM734.071 21.0018C734.884 21.0018 735.529 21.2967 736.005 21.8866C736.482 22.4803 736.72 23.2831 736.72 24.2948C736.72 25.3065 736.482 26.1092 736.005 26.703C735.532 27.2967 734.892 27.5936 734.083 27.5936C733.13 27.5936 732.476 27.2362 732.12 26.5213H732.021V29.5565H730.761V21.1073H731.974V22.162H732.068C732.259 21.7987 732.532 21.5135 732.888 21.3065C733.243 21.1034 733.638 21.0018 734.071 21.0018ZM733.714 26.4627C734.249 26.4627 734.669 26.2713 734.974 25.8885C735.275 25.5018 735.425 24.9706 735.425 24.2948C735.425 23.619 735.275 23.0897 734.974 22.7069C734.669 22.3241 734.251 22.1327 733.72 22.1327C733.189 22.1327 732.769 22.326 732.46 22.7127C732.152 23.1034 731.997 23.6327 731.997 24.3006C731.997 24.9647 732.152 25.492 732.46 25.8827C732.769 26.2694 733.187 26.4627 733.714 26.4627ZM740.211 24.6991V23.4627H752.211V24.6991H740.211ZM759.199 19.0331C760.453 19.0331 761.43 19.4002 762.129 20.1346C762.828 20.8729 763.178 21.9061 763.178 23.2342C763.178 24.5858 762.83 25.6327 762.135 26.3748C761.439 27.117 760.461 27.4881 759.199 27.4881H756.146V19.0331H759.199ZM757.459 26.2928H759.053C759.939 26.2928 760.625 26.0291 761.109 25.5018C761.598 24.9706 761.842 24.2206 761.842 23.2518C761.842 22.2987 761.596 21.5565 761.104 21.0252C760.615 20.494 759.932 20.2284 759.053 20.2284H757.459V26.2928ZM766.663 26.5331C767.136 26.5331 767.53 26.4002 767.847 26.1346C768.159 25.869 768.316 25.537 768.316 25.1385V24.6053L766.757 24.7049C765.905 24.7635 765.48 25.0702 765.48 25.6248C765.48 25.9061 765.591 26.1288 765.814 26.2928C766.029 26.453 766.312 26.5331 766.663 26.5331ZM766.341 27.5936C765.716 27.5936 765.208 27.4217 764.818 27.078C764.415 26.7225 764.214 26.2577 764.214 25.6834C764.214 25.1131 764.419 24.6639 764.829 24.3358C765.239 24.0116 765.825 23.826 766.587 23.7791L768.316 23.6795V23.1288C768.316 22.4256 767.88 22.0741 767.009 22.0741C766.271 22.0741 765.827 22.3104 765.679 22.7831H764.46C764.523 22.2362 764.792 21.7987 765.269 21.4706C765.741 21.1463 766.341 20.9842 767.068 20.9842C767.864 20.9842 768.482 21.1737 768.919 21.5526C769.353 21.9276 769.57 22.453 769.57 23.1288V27.4881H768.357V26.5916H768.257C767.859 27.2596 767.22 27.5936 766.341 27.5936ZM771.163 21.1073H772.375V22.0858H772.469C772.559 21.7694 772.764 21.5096 773.084 21.3065C773.405 21.1034 773.772 21.0018 774.186 21.0018C774.424 21.0018 774.61 21.0194 774.743 21.0545V22.2967C774.598 22.2459 774.366 22.2206 774.045 22.2206C773.569 22.2206 773.18 22.3592 772.879 22.6366C772.575 22.9139 772.422 23.2752 772.422 23.7206V27.4881H771.163V21.1073ZM779.646 21.1073H781.134L778.509 23.8436L781.31 27.4881H779.763L777.572 24.6756L777.015 25.203V27.4881H775.755V18.617H777.015V23.7674H777.115L779.646 21.1073ZM787.643 27.4881V20.2284H784.982V19.0331H791.609V20.2284H788.955V27.4881H787.643ZM792.933 18.617H794.181V22.1327H794.28C794.437 21.7733 794.691 21.494 795.042 21.2948C795.394 21.0916 795.81 20.9901 796.29 20.9901C797.009 20.9901 797.564 21.1971 797.954 21.6112C798.349 22.0252 798.546 22.6112 798.546 23.369V27.4881H797.286V23.6795C797.286 22.6561 796.812 22.1444 795.863 22.1444C795.351 22.1444 794.945 22.2928 794.644 22.5897C794.343 22.8827 794.193 23.2733 794.193 23.7616V27.4881H792.933V18.617ZM802.746 22.0565C802.282 22.0565 801.899 22.2069 801.598 22.5077C801.297 22.8084 801.129 23.2088 801.094 23.7088H804.317C804.301 23.2049 804.153 22.8045 803.871 22.5077C803.586 22.2069 803.211 22.0565 802.746 22.0565ZM805.524 25.7655C805.379 26.3397 805.065 26.7909 804.58 27.119C804.092 27.4471 803.485 27.6112 802.758 27.6112C801.844 27.6112 801.125 27.3163 800.602 26.7264C800.075 26.1405 799.811 25.3377 799.811 24.3182C799.811 23.2987 800.077 22.4881 800.608 21.8866C801.139 21.285 801.854 20.9842 802.752 20.9842C803.639 20.9842 804.336 21.2694 804.844 21.8397C805.348 22.41 805.6 23.1971 805.6 24.201V24.6405H801.094V24.7108C801.114 25.2733 801.276 25.7186 801.58 26.0467C801.885 26.3748 802.289 26.5389 802.793 26.5389C803.563 26.5389 804.069 26.2811 804.311 25.7655H805.524ZM806.912 21.1073H808.125V22.1327H808.218C808.515 21.367 809.107 20.9842 809.994 20.9842C810.857 20.9842 811.443 21.367 811.752 22.1327H811.851C812.015 21.7811 812.269 21.5018 812.613 21.2948C812.961 21.0877 813.353 20.9842 813.791 20.9842C814.435 20.9842 814.937 21.1698 815.296 21.5409C815.652 21.912 815.83 22.4295 815.83 23.0936V27.4881H814.57V23.4217C814.57 22.5663 814.158 22.1385 813.334 22.1385C812.931 22.1385 812.605 22.2674 812.355 22.5252C812.109 22.7752 811.986 23.0916 811.986 23.4745V27.4881H810.75V23.2987C810.75 22.9393 810.638 22.6561 810.416 22.4491C810.193 22.242 809.894 22.1385 809.519 22.1385C809.136 22.1385 808.816 22.2772 808.558 22.5545C808.3 22.8319 808.171 23.1756 808.171 23.5858V27.4881H806.912V21.1073ZM820.018 22.0565C819.554 22.0565 819.171 22.2069 818.87 22.5077C818.569 22.8084 818.401 23.2088 818.366 23.7088H821.589C821.573 23.2049 821.425 22.8045 821.143 22.5077C820.858 22.2069 820.483 22.0565 820.018 22.0565ZM822.796 25.7655C822.651 26.3397 822.337 26.7909 821.852 27.119C821.364 27.4471 820.757 27.6112 820.03 27.6112C819.116 27.6112 818.397 27.3163 817.874 26.7264C817.346 26.1405 817.083 25.3377 817.083 24.3182C817.083 23.2987 817.348 22.4881 817.88 21.8866C818.411 21.285 819.126 20.9842 820.024 20.9842C820.911 20.9842 821.608 21.2694 822.116 21.8397C822.62 22.41 822.872 23.1971 822.872 24.201V24.6405H818.366V24.7108C818.386 25.2733 818.548 25.7186 818.852 26.0467C819.157 26.3748 819.561 26.5389 820.065 26.5389C820.835 26.5389 821.341 26.2811 821.583 25.7655H822.796ZM828.941 29.1112C827.886 27.7909 827.359 26.078 827.359 23.9725C827.359 22.0819 827.905 20.4373 828.999 19.0389H830.107C829.681 19.535 829.333 20.244 829.064 21.1659C828.79 22.0877 828.654 23.0233 828.654 23.9725C828.654 25.7225 829.132 27.4354 830.089 29.1112H828.941ZM831.641 27.4881V19.0331H833.176L835.866 25.4549H835.965L838.661 19.0331H840.196V27.4881H838.977V21.3827H838.895L836.416 27.242H835.42L832.942 21.3827H832.86V27.4881H831.641ZM844.056 26.5331C844.529 26.5331 844.923 26.4002 845.24 26.1346C845.552 25.869 845.709 25.537 845.709 25.1385V24.6053L844.15 24.7049C843.298 24.7635 842.873 25.0702 842.873 25.6248C842.873 25.9061 842.984 26.1288 843.207 26.2928C843.421 26.453 843.705 26.5331 844.056 26.5331ZM843.734 27.5936C843.109 27.5936 842.601 27.4217 842.211 27.078C841.808 26.7225 841.607 26.2577 841.607 25.6834C841.607 25.1131 841.812 24.6639 842.222 24.3358C842.632 24.0116 843.218 23.826 843.98 23.7791L845.709 23.6795V23.1288C845.709 22.4256 845.273 22.0741 844.402 22.0741C843.664 22.0741 843.22 22.3104 843.072 22.7831H841.853C841.916 22.2362 842.185 21.7987 842.662 21.4706C843.134 21.1463 843.734 20.9842 844.461 20.9842C845.257 20.9842 845.875 21.1737 846.312 21.5526C846.746 21.9276 846.962 22.453 846.962 23.1288V27.4881H845.75V26.5916H845.65C845.252 27.2596 844.613 27.5936 843.734 27.5936ZM852.733 23.1932C852.655 22.869 852.491 22.6112 852.241 22.4198C851.971 22.2127 851.634 22.1092 851.227 22.1092C850.7 22.1092 850.286 22.3006 849.985 22.6834C849.68 23.0663 849.528 23.5975 849.528 24.2772C849.528 24.9647 849.68 25.5057 849.985 25.9002C850.286 26.2909 850.7 26.4862 851.227 26.4862C852.063 26.4862 852.565 26.1366 852.733 25.4373H853.958C853.876 26.0936 853.598 26.617 853.126 27.0077C852.637 27.41 852.007 27.6112 851.233 27.6112C850.304 27.6112 849.573 27.3163 849.042 26.7264C848.507 26.1327 848.239 25.3163 848.239 24.2772C848.239 23.2538 848.505 22.4491 849.036 21.8631C849.567 21.2772 850.298 20.9842 851.227 20.9842C852.005 20.9842 852.639 21.1932 853.132 21.6112C853.596 22.0057 853.872 22.5331 853.958 23.1932H852.733ZM858.949 18.828C860.168 18.828 861.129 19.2264 861.832 20.0233C862.535 20.8163 862.887 21.8944 862.887 23.2577C862.887 24.6209 862.537 25.6991 861.838 26.492C861.131 27.2928 860.168 27.6932 858.949 27.6932C857.727 27.6932 856.762 27.2948 856.055 26.4979C855.352 25.7049 855 24.6248 855 23.2577C855 21.8944 855.355 20.8143 856.066 20.0174C856.773 19.2245 857.734 18.828 858.949 18.828ZM858.949 20.0526C858.152 20.0526 857.52 20.3416 857.051 20.9198C856.578 21.4979 856.342 22.2772 856.342 23.2577C856.342 24.2381 856.574 25.0174 857.039 25.5956C857.504 26.1776 858.141 26.4686 858.949 26.4686C859.75 26.4686 860.383 26.1776 860.848 25.5956C861.312 25.0174 861.545 24.2381 861.545 23.2577C861.545 22.2733 861.312 21.494 860.848 20.9198C860.383 20.3416 859.75 20.0526 858.949 20.0526ZM865.364 25.2147C865.419 25.617 865.63 25.9354 865.997 26.1698C866.361 26.4081 866.825 26.5272 867.392 26.5272C867.919 26.5272 868.357 26.4041 868.704 26.1581C869.048 25.9159 869.22 25.6073 869.22 25.2323C869.22 24.912 869.091 24.6483 868.833 24.4413C868.579 24.2381 868.171 24.0702 867.609 23.9373L866.519 23.6737C865.753 23.494 865.191 23.2147 864.831 22.8358C864.472 22.4569 864.292 21.9569 864.292 21.3358C864.292 20.5819 864.573 19.9764 865.136 19.5194C865.702 19.0584 866.446 18.828 867.368 18.828C868.228 18.828 868.941 19.0545 869.507 19.5077C870.073 19.9608 870.376 20.5428 870.415 21.2538H869.138C869.075 20.8631 868.886 20.5545 868.57 20.328C868.249 20.1014 867.843 19.9881 867.351 19.9881C866.831 19.9881 866.413 20.1034 866.097 20.3338C865.78 20.5643 865.622 20.869 865.622 21.2479C865.622 21.5487 865.743 21.7928 865.986 21.9803C866.224 22.1678 866.618 22.326 867.169 22.4549L868.101 22.6834C868.968 22.8866 869.593 23.1737 869.976 23.5448C870.359 23.9198 870.55 24.4256 870.55 25.0623C870.55 25.8709 870.257 26.5116 869.671 26.9842C869.085 27.4569 868.292 27.6932 867.292 27.6932C866.355 27.6932 865.595 27.4686 865.013 27.0194C864.427 26.5702 864.111 25.9686 864.064 25.2147H865.364ZM875.16 27.4881V19.0331H876.695L879.384 25.4549H879.484L882.179 19.0331H883.714V27.4881H882.496V21.3827H882.414L879.935 27.242H878.939L876.461 21.3827H876.379V27.4881H875.16ZM888.184 26.492C888.727 26.492 889.149 26.2987 889.45 25.912C889.747 25.5291 889.895 24.9901 889.895 24.2948C889.895 23.6034 889.747 23.0643 889.45 22.6776C889.149 22.2948 888.727 22.1034 888.184 22.1034C887.637 22.1034 887.216 22.2948 886.919 22.6776C886.622 23.0604 886.473 23.5995 886.473 24.2948C886.473 24.994 886.622 25.535 886.919 25.9178C887.216 26.3006 887.637 26.492 888.184 26.492ZM888.184 27.6112C887.247 27.6112 886.511 27.3163 885.975 26.7264C885.44 26.1366 885.173 25.326 885.173 24.2948C885.173 23.2674 885.442 22.4588 885.981 21.869C886.516 21.2791 887.251 20.9842 888.184 20.9842C889.114 20.9842 889.846 21.2791 890.382 21.869C890.921 22.4588 891.19 23.2674 891.19 24.2948C891.19 25.326 890.923 26.1366 890.387 26.7264C889.852 27.3163 889.118 27.6112 888.184 27.6112ZM893.791 27.8397C893.791 29.117 893.105 29.7557 891.734 29.7557C891.566 29.7557 891.473 29.7538 891.453 29.7498V28.6952H891.629C891.961 28.6952 892.197 28.6268 892.338 28.4901C892.471 28.3612 892.537 28.1405 892.537 27.828V21.1073H893.791V27.8397ZM893.164 19.9881C892.93 19.9881 892.736 19.9139 892.584 19.7655C892.428 19.6209 892.35 19.4393 892.35 19.2206C892.35 19.0018 892.428 18.8182 892.584 18.6698C892.736 18.5213 892.93 18.4471 893.164 18.4471C893.398 18.4471 893.594 18.5213 893.75 18.6698C893.902 18.8182 893.979 19.0018 893.979 19.2206C893.979 19.4393 893.902 19.6209 893.75 19.7655C893.594 19.9139 893.398 19.9881 893.164 19.9881ZM897.523 26.5331C897.995 26.5331 898.39 26.4002 898.706 26.1346C899.019 25.869 899.175 25.537 899.175 25.1385V24.6053L897.616 24.7049C896.765 24.7635 896.339 25.0702 896.339 25.6248C896.339 25.9061 896.45 26.1288 896.673 26.2928C896.888 26.453 897.171 26.5331 897.523 26.5331ZM897.2 27.5936C896.575 27.5936 896.068 27.4217 895.677 27.078C895.275 26.7225 895.073 26.2577 895.073 25.6834C895.073 25.1131 895.279 24.6639 895.689 24.3358C896.099 24.0116 896.685 23.826 897.447 23.7791L899.175 23.6795V23.1288C899.175 22.4256 898.739 22.0741 897.868 22.0741C897.13 22.0741 896.687 22.3104 896.538 22.7831H895.32C895.382 22.2362 895.652 21.7987 896.128 21.4706C896.601 21.1463 897.2 20.9842 897.927 20.9842C898.724 20.9842 899.341 21.1737 899.779 21.5526C900.212 21.9276 900.429 22.453 900.429 23.1288V27.4881H899.216V26.5916H899.116C898.718 27.2596 898.079 27.5936 897.2 27.5936ZM902.608 21.1073L904.196 26.1405H904.295L905.877 21.1073H907.213L904.916 27.4881H903.563L901.26 21.1073H902.608ZM910.664 22.0565C910.199 22.0565 909.816 22.2069 909.515 22.5077C909.215 22.8084 909.047 23.2088 909.011 23.7088H912.234C912.218 23.2049 912.07 22.8045 911.789 22.5077C911.504 22.2069 911.129 22.0565 910.664 22.0565ZM913.441 25.7655C913.297 26.3397 912.982 26.7909 912.498 27.119C912.009 27.4471 911.402 27.6112 910.675 27.6112C909.761 27.6112 909.043 27.3163 908.519 26.7264C907.992 26.1405 907.728 25.3377 907.728 24.3182C907.728 23.2987 907.994 22.4881 908.525 21.8866C909.056 21.285 909.771 20.9842 910.67 20.9842C911.556 20.9842 912.254 21.2694 912.761 21.8397C913.265 22.41 913.517 23.1971 913.517 24.201V24.6405H909.011V24.7108C909.031 25.2733 909.193 25.7186 909.498 26.0467C909.802 26.3748 910.207 26.5389 910.711 26.5389C911.48 26.5389 911.986 26.2811 912.228 25.7655H913.441ZM914.595 29.1112C915.552 27.4354 916.03 25.7225 916.03 23.9725C916.03 23.0194 915.893 22.0819 915.62 21.16C915.35 20.2381 915.003 19.5311 914.577 19.0389H915.696C916.786 20.4334 917.331 22.078 917.331 23.9725C917.331 26.0663 916.803 27.7791 915.749 29.1112H914.595Z" fill="#E9E9EA"/>
<rect x="614.462" y="22.3483" width="9.7375" height="7.1161" fill="#E9E9EA"/>
<path d="M615.68 20.6042V22.3483H616.897V20.7902C616.897 19.6857 617.792 18.7902 618.897 18.7902H619.766C620.87 18.7902 621.766 19.6857 621.766 20.7902V22.3483H622.983V20.6042C622.983 18.9474 621.64 17.6042 619.983 17.6042H618.68C617.023 17.6042 615.68 18.9474 615.68 20.6042Z" fill="#E9E9EA"/>
<path d="M1125.07 17.6042V18.7902C1122.05 18.7902 1119.6 21.1797 1119.6 24.1273C1119.6 27.0749 1122.05 29.4644 1125.07 29.4644C1128.1 29.4644 1130.55 27.0749 1130.55 24.1273H1131.77C1131.77 27.7299 1128.77 30.6504 1125.07 30.6504C1121.38 30.6504 1118.38 27.7299 1118.38 24.1273C1118.38 20.5247 1121.38 17.6042 1125.07 17.6042Z" fill="#DADADA"/>
<path d="M1129.33 18.1972L1124.46 21.1623V15.2322L1129.33 18.1972Z" fill="#DADADA"/>
<g filter="url(#filter3_i)">
<rect x="170.189" y="10.4881" width="45.0359" height="26.0923" rx="3" fill="url(#paint5_linear)"/>
</g>
<path fill-rule="evenodd" clip-rule="evenodd" d="M186.012 19.9762V18.7902H188.462V19.9762H186.012ZM186.012 22.3483V21.1623H188.508V22.3483H186.012ZM186.012 23.5343V24.7203H188.508V23.5343H186.012Z" fill="#BBBEC0"/>
<path fill-rule="evenodd" clip-rule="evenodd" d="M190.881 16.4182H189.664V16.4182H184.804C184.127 16.4182 183.578 16.9588 183.578 17.6072V29.4615C183.578 30.1181 184.125 30.6504 184.804 30.6504H200.61C201.287 30.6504 201.836 30.1099 201.836 29.4615V17.6072C201.836 16.9505 201.29 16.4182 200.61 16.4182H190.881V16.4182ZM189.664 17.6047C186.952 17.6044 184.804 17.6042 184.804 17.6042C184.802 17.6042 184.795 29.4615 184.795 29.4615C184.795 29.462 186.948 29.4626 189.664 29.463V17.6047ZM190.881 29.4632V17.6049C195.339 17.6054 200.619 17.6063 200.619 17.6072C200.619 17.6072 200.612 29.4644 200.61 29.4644C200.61 29.4644 195.337 29.4639 190.881 29.4632Z" fill="#E9E9EA"/>
<path fill-rule="evenodd" clip-rule="evenodd" d="M72.8141 30.6504C76.8475 30.6504 80.1172 27.4644 80.1172 23.5343C80.1172 19.6042 76.8475 16.4182 72.8141 16.4182C68.7807 16.4182 65.511 19.6042 65.511 23.5343C65.511 27.4644 68.7807 30.6504 72.8141 30.6504Z" fill="#53C22B"/>
<path fill-rule="evenodd" clip-rule="evenodd" d="M48.4704 30.6504C52.5038 30.6504 55.7735 27.4644 55.7735 23.5343C55.7735 19.6042 52.5038 16.4182 48.4704 16.4182C44.437 16.4182 41.1672 19.6042 41.1672 23.5343C41.1672 27.4644 44.437 30.6504 48.4704 30.6504Z" fill="#E6C02A"/>
<path fill-rule="evenodd" clip-rule="evenodd" d="M24.1266 30.6504C28.16 30.6504 31.4297 27.4644 31.4297 23.5343C31.4297 19.6042 28.16 16.4182 24.1266 16.4182C20.0932 16.4182 16.8235 19.6042 16.8235 23.5343C16.8235 27.4644 20.0932 30.6504 24.1266 30.6504Z" fill="#FF5A52"/>
<g filter="url(#filter4_i)">
<rect x="127.587" y="10.4881" width="30.4297" height="26.0923" rx="3" fill="url(#paint6_linear)"/>
</g>
<path d="M139.313 28.2388C138.884 28.6785 138.884 29.3797 139.313 29.8194V29.8194C139.757 30.2749 140.489 30.2749 140.934 29.8194L146.997 23.6013C147.033 23.564 147.033 23.5046 146.997 23.4673L140.934 17.2493C140.489 16.7937 139.757 16.7937 139.313 17.2493V17.2493C138.884 17.6889 138.884 18.3902 139.313 18.8298L143.9 23.5343L139.313 28.2388Z" fill="#75787A"/>
<g filter="url(#filter5_i)">
<path d="M95.9407 15.2881C95.9407 13.608 95.9407 12.7679 96.2677 12.1262C96.5553 11.5617 97.0142 11.1027 97.5787 10.8151C98.2204 10.4881 99.0605 10.4881 100.741 10.4881H121.57C123.251 10.4881 124.091 10.4881 124.732 10.8151C125.297 11.1027 125.756 11.5617 126.043 12.1262C126.37 12.7679 126.37 13.608 126.37 15.2881V31.7805C126.37 33.4606 126.37 34.3007 126.043 34.9424C125.756 35.5069 125.297 35.9659 124.732 36.2535C124.091 36.5805 123.251 36.5805 121.57 36.5805H100.741C99.0605 36.5805 98.2204 36.5805 97.5787 36.2535C97.0142 35.9659 96.5553 35.5069 96.2677 34.9424C95.9407 34.3007 95.9407 33.4606 95.9407 31.7805V15.2881Z" fill="url(#paint7_linear)"/>
</g>
<path d="M114.645 28.2388C115.074 28.6785 115.074 29.3797 114.645 29.8194V29.8194C114.201 30.2749 113.468 30.2749 113.024 29.8194L106.961 23.6013C106.924 23.564 106.924 23.5046 106.961 23.4673L113.024 17.2493C113.468 16.7937 114.201 16.7937 114.645 17.2493V17.2493C115.074 17.6889 115.074 18.3902 114.645 18.8298L110.057 23.5343L114.645 28.2388Z" fill="#E9E9EA"/>
<rect x="0.5" y="0.5" width="1559" height="900" rx="5.5" stroke="url(#paint8_linear)"/>
<rect x="1.5" y="1.5" width="1557" height="898" rx="4.5" stroke="url(#paint9_linear)"/>
<rect x="1" y="44.8826" width="1.21719" height="1.18602" fill="#333333"/>
<rect x="1557.78" y="44.8826" width="1.21719" height="1.18602" fill="#333333"/>
<rect x="1557.78" y="15.2322" width="1.21719" height="1.18602" fill="#757779"/>
<rect x="1557.78" y="16.4182" width="1.21719" height="28.4644" fill="url(#paint10_linear)"/>
<defs>
<filter id="filter0_i" x="1473.8" y="10.4881" width="45.0359" height="26.0923" filterUnits="userSpaceOnUse" color-interpolation-filters="sRGB">
<feFlood flood-opacity="0" result="BackgroundImageFix"/>
<feBlend mode="normal" in="SourceGraphic" in2="BackgroundImageFix" result="shape"/>
<feColorMatrix in="SourceAlpha" type="matrix" values="0 0 0 0 0 0 0 0 0 0 0 0 0 0 0 0 0 0 127 0" result="hardAlpha"/>
<feOffset dy="1"/>
<feComposite in2="hardAlpha" operator="arithmetic" k2="-1" k3="1"/>
<feColorMatrix type="matrix" values="0 0 0 0 0.458824 0 0 0 0 0.470588 0 0 0 0 0.478431 0 0 0 1 0"/>
<feBlend mode="normal" in2="shape" result="effect1_innerShadow"/>
</filter>
<filter id="filter1_i" x="1419.02" y="10.4881" width="45.0359" height="26.0923" filterUnits="userSpaceOnUse" color-interpolation-filters="sRGB">
<feFlood flood-opacity="0" result="BackgroundImageFix"/>
<feBlend mode="normal" in="SourceGraphic" in2="BackgroundImageFix" result="shape"/>
<feColorMatrix in="SourceAlpha" type="matrix" values="0 0 0 0 0 0 0 0 0 0 0 0 0 0 0 0 0 0 127 0" result="hardAlpha"/>
<feOffset dy="1"/>
<feComposite in2="hardAlpha" operator="arithmetic" k2="-1" k3="1"/>
<feColorMatrix type="matrix" values="0 0 0 0 0.458824 0 0 0 0 0.470588 0 0 0 0 0.478431 0 0 0 1 0"/>
<feBlend mode="normal" in2="shape" result="effect1_innerShadow"/>
</filter>
<filter id="filter2_i" x="422.147" y="10.4881" width="718.141" height="26.0923" filterUnits="userSpaceOnUse" color-interpolation-filters="sRGB">
<feFlood flood-opacity="0" result="BackgroundImageFix"/>
<feBlend mode="normal" in="SourceGraphic" in2="BackgroundImageFix" result="shape"/>
<feColorMatrix in="SourceAlpha" type="matrix" values="0 0 0 0 0 0 0 0 0 0 0 0 0 0 0 0 0 0 127 0" result="hardAlpha"/>
<feOffset dy="1"/>
<feComposite in2="hardAlpha" operator="arithmetic" k2="-1" k3="1"/>
<feColorMatrix type="matrix" values="0 0 0 0 0.458824 0 0 0 0 0.470588 0 0 0 0 0.478431 0 0 0 1 0"/>
<feBlend mode="normal" in2="shape" result="effect1_innerShadow"/>
</filter>
<filter id="filter3_i" x="170.189" y="10.4881" width="45.0359" height="26.0923" filterUnits="userSpaceOnUse" color-interpolation-filters="sRGB">
<feFlood flood-opacity="0" result="BackgroundImageFix"/>
<feBlend mode="normal" in="SourceGraphic" in2="BackgroundImageFix" result="shape"/>
<feColorMatrix in="SourceAlpha" type="matrix" values="0 0 0 0 0 0 0 0 0 0 0 0 0 0 0 0 0 0 127 0" result="hardAlpha"/>
<feOffset dy="1"/>
<feComposite in2="hardAlpha" operator="arithmetic" k2="-1" k3="1"/>
<feColorMatrix type="matrix" values="0 0 0 0 0.458824 0 0 0 0 0.470588 0 0 0 0 0.478431 0 0 0 1 0"/>
<feBlend mode="normal" in2="shape" result="effect1_innerShadow"/>
</filter>
<filter id="filter4_i" x="127.587" y="10.4881" width="30.4297" height="26.0923" filterUnits="userSpaceOnUse" color-interpolation-filters="sRGB">
<feFlood flood-opacity="0" result="BackgroundImageFix"/>
<feBlend mode="normal" in="SourceGraphic" in2="BackgroundImageFix" result="shape"/>
<feColorMatrix in="SourceAlpha" type="matrix" values="0 0 0 0 0 0 0 0 0 0 0 0 0 0 0 0 0 0 127 0" result="hardAlpha"/>
<feOffset dy="1"/>
<feComposite in2="hardAlpha" operator="arithmetic" k2="-1" k3="1"/>
<feColorMatrix type="matrix" values="0 0 0 0 0.458824 0 0 0 0 0.470588 0 0 0 0 0.478431 0 0 0 1 0"/>
<feBlend mode="normal" in2="shape" result="effect1_innerShadow"/>
</filter>
<filter id="filter5_i" x="95.9407" y="10.4881" width="30.4297" height="26.0923" filterUnits="userSpaceOnUse" color-interpolation-filters="sRGB">
<feFlood flood-opacity="0" result="BackgroundImageFix"/>
<feBlend mode="normal" in="SourceGraphic" in2="BackgroundImageFix" result="shape"/>
<feColorMatrix in="SourceAlpha" type="matrix" values="0 0 0 0 0 0 0 0 0 0 0 0 0 0 0 0 0 0 127 0" result="hardAlpha"/>
<feOffset dy="1"/>
<feComposite in2="hardAlpha" operator="arithmetic" k2="-1" k3="1"/>
<feColorMatrix type="matrix" values="0 0 0 0 0.458824 0 0 0 0 0.470588 0 0 0 0 0.478431 0 0 0 1 0"/>
<feBlend mode="normal" in2="shape" result="effect1_innerShadow"/>
</filter>
<linearGradient id="paint0_linear" x1="780.609" y1="1" x2="780.609" y2="44.8826" gradientUnits="userSpaceOnUse">
<stop stop-color="#3A3E3F"/>
<stop offset="1" stop-color="#2F3234"/>
</linearGradient>
<linearGradient id="paint1_linear" x1="1528.57" y1="15.2322" x2="1528.57" y2="44.8826" gradientUnits="userSpaceOnUse">
<stop stop-color="#28292A"/>
<stop offset="1" stop-color="#252526"/>
</linearGradient>
<linearGradient id="paint2_linear" x1="1473.8" y1="10.4881" x2="1473.8" y2="36.5805" gradientUnits="userSpaceOnUse">
<stop stop-color="#65686A"/>
<stop offset="1" stop-color="#5F6263"/>
</linearGradient>
<linearGradient id="paint3_linear" x1="1419.02" y1="10.4881" x2="1419.02" y2="36.5805" gradientUnits="userSpaceOnUse">
<stop stop-color="#65686A"/>
<stop offset="1" stop-color="#5F6263"/>
</linearGradient>
<linearGradient id="paint4_linear" x1="422.147" y1="10.4881" x2="422.147" y2="36.5805" gradientUnits="userSpaceOnUse">
<stop stop-color="#65686A"/>
<stop offset="1" stop-color="#5F6263"/>
</linearGradient>
<linearGradient id="paint5_linear" x1="170.189" y1="10.4881" x2="170.189" y2="36.5805" gradientUnits="userSpaceOnUse">
<stop stop-color="#65686A"/>
<stop offset="1" stop-color="#5F6263"/>
</linearGradient>
<linearGradient id="paint6_linear" x1="127.587" y1="10.4881" x2="127.587" y2="36.5805" gradientUnits="userSpaceOnUse">
<stop stop-color="#65686A"/>
<stop offset="1" stop-color="#5F6263"/>
</linearGradient>
<linearGradient id="paint7_linear" x1="95.9407" y1="10.4881" x2="95.9407" y2="36.5805" gradientUnits="userSpaceOnUse">
<stop stop-color="#65686A"/>
<stop offset="1" stop-color="#5F6263"/>
</linearGradient>
<linearGradient id="paint8_linear" x1="780" y1="-0.187583" x2="780" y2="901.188" gradientUnits="userSpaceOnUse">
<stop stop-color="#141414"/>
</linearGradient>
<linearGradient id="paint9_linear" x1="780" y1="1" x2="780" y2="900" gradientUnits="userSpaceOnUse">
<stop stop-color="#808383"/>
<stop offset="1" stop-color="#585B5D"/>
</linearGradient>
<linearGradient id="paint10_linear" x1="1558.39" y1="16.4182" x2="1558.39" y2="44.8826" gradientUnits="userSpaceOnUse">
<stop stop-color="#525354"/>
<stop offset="1" stop-color="#4E4F50"/>
</linearGradient>
</defs>
</svg>

