<svg width="216" height="200" viewBox="0 0 216 200" fill="none" 
    xmlns="http://www.w3.org/2000/svg">
    <path fill-rule="evenodd" clip-rule="evenodd" d="M106.57 197.602C150.704 197.602 186.482 161.855 186.482 117.76C186.482 73.6643 150.704 37.9178 106.57 37.9178C62.4355 37.9178 26.6576 73.6643 26.6576 117.76C26.6576 161.855 62.4355 197.602 106.57 197.602Z" fill="#AADDC7"/>
    <mask id="mask0" mask-type="alpha" maskUnits="userSpaceOnUse" x="0" y="0" width="216" height="200">
        <path fill-rule="evenodd" clip-rule="evenodd" d="M106.57 197.602C143.192 197.602 174.061 172.988 183.508 139.414C185.445 132.528 215.493 109.823 215.493 102.318C215.493 58.2228 150.704 0 106.57 0C62.4355 0 -29.5182 178.633 9.36682 197.602C32.5918 208.931 47.8273 172.061 50.9248 175.064C65.3129 189.014 84.9375 197.602 106.57 197.602Z" fill="white"/>
    </mask>
    <g mask="url(#mask0)">
        <path fill-rule="evenodd" clip-rule="evenodd" d="M110.475 46.8067C115.598 49.8922 120.632 51.383 122.995 50.7744C128.921 49.2483 129.466 27.5899 124.881 19.0514C120.296 10.513 96.7257 6.79139 95.5377 23.7088C95.1254 29.5802 97.5929 34.8202 101.239 39.0959L94.7016 69.5384H113.691L110.475 46.8067Z" fill="#B28B67"/>
        <path fill-rule="evenodd" clip-rule="evenodd" d="M124.307 14.2426C124.649 13.2579 126.98 10.207 122.828 7.30041C122.082 6.77809 120.849 7.2987 119.781 6.96903C118.978 6.72098 118.707 5.60094 117.786 5.40555C116.83 5.20284 115.789 6.12157 114.709 6.04083C114.048 5.99136 113.027 4.961 112.338 4.9055C111.108 4.80642 109.991 5.96624 108.79 6.04083C108.093 6.08408 107.285 4.96472 106.594 4.9055C104.912 4.76137 103.38 5.54481 101.898 5.7824C100.532 6.00137 99.8971 8.7983 98.8908 9.45933C95.7333 11.5336 93.2593 12.1136 90.697 14.2426C87.6512 16.7734 87.0682 18.6563 85.8064 20.3427C84.5445 22.0292 83.7651 27.971 84.501 31.779C84.935 34.0253 86.0662 40.1598 88.5932 42.5349C92.052 45.7858 99.0886 46.749 99.7133 46.3152C102.606 44.3065 109.091 33.196 113.691 29.2693C117.073 26.3818 122.188 20.3427 124.307 14.2426Z" fill="#FF9B21"/>
        <mask id="mask1" mask-type="alpha" maskUnits="userSpaceOnUse" x="84" y="4" width="42" height="43">
            <path fill-rule="evenodd" clip-rule="evenodd" d="M124.307 14.2426C124.649 13.2579 126.98 10.207 122.828 7.30041C122.082 6.77809 120.849 7.2987 119.781 6.96903C118.978 6.72098 118.707 5.60094 117.786 5.40555C116.83 5.20284 115.789 6.12157 114.709 6.04083C114.048 5.99136 113.027 4.961 112.338 4.9055C111.108 4.80642 109.991 5.96624 108.79 6.04083C108.093 6.08408 107.285 4.96472 106.594 4.9055C104.912 4.76137 103.38 5.54481 101.898 5.7824C100.532 6.00137 99.8971 8.7983 98.8908 9.45933C95.7333 11.5336 93.2593 12.1136 90.697 14.2426C87.6512 16.7734 87.0682 18.6563 85.8064 20.3427C84.5445 22.0292 83.7651 27.971 84.501 31.779C84.935 34.0253 86.0662 40.1598 88.5932 42.5349C92.052 45.7858 99.0886 46.749 99.7133 46.3152C102.606 44.3065 109.091 33.196 113.691 29.2693C117.073 26.3818 122.188 20.3427 124.307 14.2426Z" fill="white"/>
        </mask>
        <g mask="url(#mask1)">
            <path fill-rule="evenodd" clip-rule="evenodd" d="M104.619 26.5711C106.75 20.0367 110.621 3.72095 110.621 3.72095L108.282 3.96652C108.282 3.96652 106.43 14.3767 104.527 21.1207C102.786 27.2862 100.785 33.3312 99.2115 38.0841C97.0376 44.6506 95.6803 48.7506 96.9554 47.2936C97.108 47.1191 97.2606 46.9161 97.4139 46.6844C97.4282 46.7153 97.4502 46.7333 97.4801 46.738C97.3909 46.9145 97.5127 46.8373 97.879 46.4988L97.893 46.486L97.9098 46.4704C100.104 44.4305 106.325 37.3229 112.838 25.5626C115.843 20.1368 121.355 6.39043 121.355 6.39043L119.166 5.45501C119.166 5.45501 115.526 16.3157 112.838 21.5821C108.112 30.8419 103.68 37.7278 100.797 41.9493C101.992 39.5677 103.398 36.3759 105.152 32.3947L105.152 32.3946C105.924 30.6414 106.764 28.7351 107.683 26.6775C110.485 20.4014 116.042 4.57926 116.042 4.57926H113.691C113.691 4.57926 110.76 14.7391 108.161 21.2472C105.785 27.1972 103.162 33.0001 101.1 37.5626L101.1 37.5626C101.065 37.6399 101.031 37.7167 100.996 37.7932C101.516 36.216 102.079 34.4585 102.7 32.5213C103.285 30.697 103.921 28.7135 104.619 26.5711Z" fill="black" fill-opacity="0.2"/>
        </g>
        <path fill-rule="evenodd" clip-rule="evenodd" d="M79.387 135.151C80.8136 154.605 172.72 211.881 173.256 213.488C173.614 214.559 144.649 281.221 144.649 281.221L152.683 284.34C152.683 284.34 197.11 213.741 194.828 206.218C191.561 195.448 123.519 135.358 123.519 135.358L79.387 135.151Z" fill="#B28B67"/>
        <path fill-rule="evenodd" clip-rule="evenodd" d="M146.763 271.184L159.88 275.955C187.539 244.775 198.38 219.049 196.404 205.941C194.427 192.833 125.341 135.199 125.341 135.199L78.4463 135.199C80.0464 180.252 165.232 213.66 166.372 215.579C167.511 217.499 156.298 236.303 146.763 271.184Z" fill="#2F3676"/>
        <path fill-rule="evenodd" clip-rule="evenodd" d="M89.9543 135.151L49.0125 233.354L8.77298 316.377H18.2668L122.136 135.151H89.9543Z" fill="#997659"/>
        <path fill-rule="evenodd" clip-rule="evenodd" d="M12.4068 299.13L33.5021 303.082C49.813 279.123 118.074 180.884 125.559 135.151H78.5958C53.6021 168.211 27.9544 274.774 12.4068 299.13Z" fill="#5C63AB"/>
        <path fill-rule="evenodd" clip-rule="evenodd" d="M189.832 100.925L161.163 113.505L170.317 125.222L191.789 108.774C202.514 106.806 207.487 105.115 206.71 103.701C206.055 102.51 204.836 102.443 203.713 102.381C202.838 102.332 202.021 102.287 201.575 101.717C200.557 100.413 203.07 96.3852 205.62 92.665C208.169 88.9449 205.78 89.0793 204.381 89.5242C199.704 92.1247 194.854 95.925 189.832 100.925ZM61.4708 120.183L45.2576 116.969C34.2618 145.925 27.7064 161.793 25.5913 164.572C24.0403 166.611 14.4751 171.86 8.00076 174.664C5.40206 175.789 5.96002 177.983 6.72222 178.685C11.5299 183.113 15.9994 181.561 20.8646 179.872C22.2731 179.383 23.7148 178.882 25.2074 178.512C29.0709 177.553 30.2466 179.538 31.3577 181.414C32.3414 183.075 33.2745 184.65 35.9775 184.022C35.8546 183.492 35.7035 182.898 35.5405 182.257C34.4868 178.114 32.9328 172.005 35.2383 168.456C36.4215 166.634 45.1656 150.543 61.4708 120.183Z" fill="#B28B67"/>
        <path fill-rule="evenodd" clip-rule="evenodd" d="M105.537 56.3622L112.379 55.1897C127.281 69.6325 133.362 104.331 143.293 108.924C152.682 113.266 165.992 109.064 181.814 103.39L186.659 114.206C172.284 129.744 141.659 142.872 129.246 135.378C109.399 123.396 104.818 80.6006 105.537 56.3622Z" fill="#DB2721"/>
        <path fill-rule="evenodd" clip-rule="evenodd" d="M75.7126 142.266C75.7126 142.266 116.861 142.266 136.249 142.266C139.015 142.266 138.494 138.275 138.094 136.261C133.479 113.02 115.464 87.9665 115.464 54.8828L98.0023 52.1471C83.5594 75.3553 78.5647 103.929 75.7126 142.266Z" fill="#DDE3E9"/>
        <path fill-rule="evenodd" clip-rule="evenodd" d="M97.0752 52.1471H96.8758C57.7099 76.2612 34.0401 113.642 25.8664 164.288L38.5554 166.772C46.9608 156.988 57.3339 140.975 69.6746 118.735C65.8884 132.132 63.1241 145.873 62.262 158.866H116.754C127.303 132.23 103.79 52.1471 103.79 52.1471H100.028H97.0752Z" fill="#FF4133"/>
    </g>
</svg>
